<svg xmlns="http://www.w3.org/2000/svg" width="841.89px" height="595.277px" viewBox="0 0 1139.691 828.385" class="bergGesprek">
  <g id="Group_316" data-name="Group 316" transform="translate(-125.369 -127.611)">
    <path id="Path_846" data-name="Path 846" d="M295.342,552.865c-.05,6.382-33.515,11.289-74.748,10.962s-74.613-5.766-74.564-12.148,33.517-11.289,74.748-10.962,74.615,5.766,74.564,12.148Z" transform="translate(52.059 392.153)" fill="#e2e0e0"/>
    <g id="Group_215" data-name="Group 215" transform="translate(287.353 908.947)">
      <path id="Path_847" data-name="Path 847" d="M201.588,531.133l-.536,20.194,55.516,5.45c-4.457-19.551-29.624-26.033-29.624-26.033s-11.331-.466-25.355.389Z" transform="translate(-198.943 -523.456)" fill="#f8fafa"/>
      <path id="Path_908" data-name="Path 908" d="M60.025,7,0,0" transform="translate(0 25.795)" fill="none" stroke="#dd544a" stroke-linecap="round" stroke-width="3.708"/>
      <path id="Path_848" data-name="Path 848" d="M201.587,531.133l-.536,20.194,55.516,5.45c-4.456-19.551-29.623-26.033-29.623-26.033s-11.332-.463-25.357.389" transform="translate(-198.943 -523.455)" fill="none"/>
      <path id="Path_849" data-name="Path 849" d="M224.4,532.869a5.157,5.157,0,0,0-4.743,2.192" transform="translate(-186.65 -521.984)" fill="none" stroke="#c83d3b" stroke-linecap="round" stroke-miterlimit="10" stroke-width="0.695"/>
      <path id="Path_850" data-name="Path 850" d="M226.132,533.74a5.153,5.153,0,0,0-4.743,2.192" transform="translate(-185.507 -521.409)" fill="none" stroke="#c83d3b" stroke-linecap="round" stroke-miterlimit="10" stroke-width="0.695"/>
      <path id="Path_851" data-name="Path 851" d="M204.861,538.206a3.759,3.759,0,1,0,3.7-3.816,3.76,3.76,0,0,0-3.7,3.816Z" transform="translate(-196.426 -520.964)" fill="#ef4742"/>
      <path id="Path_852" data-name="Path 852" d="M222.572,531.564a5.152,5.152,0,0,0-4.743,2.192" transform="translate(-187.859 -522.847)" fill="none" stroke="#c83d3b" stroke-linecap="round" stroke-miterlimit="10" stroke-width="0.695"/>
      <path id="Path_853" data-name="Path 853" d="M220.887,526.305s-1.92,4.736-12.292.334c0,0,11.352,8.393,12.292-.334Z" transform="translate(-193.959 -526.305)" fill="#0a8599"/>
    </g>
    <g id="Group_216" data-name="Group 216" transform="translate(219.689 916.139)">
      <path id="Path_854" data-name="Path 854" d="M163.321,530.637l-3.19,19.948,54.315,12.707c-1.845-19.966-25.939-29.7-25.939-29.7s-11.171-1.955-25.186-2.953Z" transform="translate(-158.314 -530.635)" fill="#f8fafa"/>
      <line id="Line_43" data-name="Line 43" x1="58.581" y1="14.839" transform="translate(0 17.615)" fill="none" stroke="#dd544a" stroke-linecap="round" stroke-miterlimit="10" stroke-width="3.708"/>
      <path id="Path_855" data-name="Path 855" d="M160.131,550.586l54.315,12.706c-1.845-19.964-25.939-29.7-25.939-29.7s-11.171-1.956-25.186-2.954Z" transform="translate(-158.314 -530.636)" fill="none"/>
      <path id="Path_856" data-name="Path 856" d="M187.935,537.517a5.155,5.155,0,0,0-4.823,2.014" transform="translate(-143.132 -526.12)" fill="none" stroke="#c83d3b" stroke-linecap="round" stroke-miterlimit="10" stroke-width="0.695"/>
      <path id="Path_857" data-name="Path 857" d="M189.63,538.451a5.152,5.152,0,0,0-4.821,2.014" transform="translate(-142.01 -525.503)" fill="none" stroke="#c83d3b" stroke-linecap="round" stroke-miterlimit="10" stroke-width="0.695"/>
      <path id="Path_858" data-name="Path 858" d="M164.76,538.127a3.759,3.759,0,1,0,4.172-3.3,3.759,3.759,0,0,0-4.172,3.3Z" transform="translate(-155.273 -527.882)" fill="#ef4742"/>
      <path id="Path_859" data-name="Path 859" d="M186.153,536.144a5.153,5.153,0,0,0-4.821,2.014" transform="translate(-144.307 -527.027)" fill="none" stroke="#c83d3b" stroke-linecap="round" stroke-miterlimit="10" stroke-width="0.695"/>
    </g>
    <path id="Path_862" data-name="Path 862" d="M199.233,502.465s-.071,14.765-15.333,16.087c0,0,12.075-8.264,15.333-16.087Z" transform="translate(77.078 366.892)" fill="#0a8599"/>
    <path id="Path_863" data-name="Path 863" d="M205.51,475.692s-2.737,9.12-11.973,12.6c0,0,14.255-1.647,11.973-12.6Z" transform="translate(83.445 349.203)" fill="#0a8599"/>
    <path id="Path_864" data-name="Path 864" d="M206.609,484.869s-8.084,5.381-13.609,1.6c0,0,6.593,9.029,13.609-1.6Z" transform="translate(83.09 355.267)" fill="#0a8599"/>
    <path id="Path_865" data-name="Path 865" d="M175.652,526.305s8.966,5.17,12.389,1.443c0,0-4.661,7.514-12.389-1.443Z" transform="translate(71.629 382.642)" fill="#0a8599"/>
    <g id="Group_315" data-name="Group 315">
      <path id="Path_909" data-name="Path 909" d="M539.578,90.151c73.129,16.443,142.9-.612,214.748-11.587s153.807,18.978,185.822,19.6c27.341.528,122.276-8.494,150.352-17.55,25.556-8.243,75.9,12.414,66.57,51.659-11.732,49.353-33.54,201.36-16.639,355.5,17.777,162.107,12.264,102.6-197.371,127.113C888.9,621.219,763.069,594.737,682.2,593.627c-86.2-1.184-140.187,21.257-203.858,8.859-50.48-9.83-253.192-22.214-253.192-22.214s57.395-165.07,47.685-290.764S233.706,79.552,233.706,79.552,466.447,73.709,539.578,90.151Z" transform="translate(106.852 64.852)" fill="#e2e0e0"/>
      <path id="Path_860" data-name="Path 860" d="M148.61,419.623l2.939-.083c10.861,5.846,18.765,2.591,19.3,2.358C162.045,428.956,153.725,424.289,148.61,419.623Z" transform="translate(53.764 312.106)" fill="#0099bc"/>
      <path id="Path_861" data-name="Path 861" d="M271.16,605.595l-34.143.913-4.583-36.551-19.546,38.029-38.511,3.521c.316-29.726,31.021-78.333,31.021-78.333-8.337-2.823,2.259-6.726,2.259-6.726s-15.012-10.5-24.08-17.4c-19-14.5-29.726-31.436-38.295-50.65a41.776,41.776,0,0,1-3.056-22.768c13.651,8.851,32.3-1.677,60.3-6.344,19.646-3.271,40.337-4.417,51.73-7.141v-.233l.066-3.936,1.279-.033s.133,1.395.332,3.786c1.329,14.547,6.028,66.277,6.394,71.043.066.9.349,4.484.764,9.848.432,5.464,1,12.8,1.644,21.041.482,6.194,1.013,12.9,1.544,19.712C268.636,573.411,271.16,605.595,271.16,605.595Z" transform="translate(49.27 311.049)" fill="#02a6c4"/>
      <path id="Path_866" data-name="Path 866" d="M260.116,329.892c-11.674-9.632-27.418-12.853-42.081-13.252l.066,2.491-31.237.83-.017-.548c-1.594.316-3.039.614-4.3.9,0,0-.2.033-.548.116-2.607.548-13.95,3.039-20.708,5.6-8.586,1.661-22.618,17.354-24,22.02-4.6,15.411-6.925,49.8-3.82,70.512,0,0,3.57-.349,9.067-1.063v-.216c1.245-.149,2.474-.316,3.67-.465,14.165-1.86,24.229-3.919,24.229-3.919l.033.05,3.222,5.978c25.989-11.259,58.7-5.447,72.969-11.259,1.395-.565,15.859-15.726,15.859-15.726s-.365,7.041-.166,9.549l1.262-66.609.017-1.179A33.162,33.162,0,0,0,260.116,329.892ZM150.213,390.9A35.152,35.152,0,0,1,151.326,384c-.05,1.528-.033,2.973.05,4.351.947,16.49,10.711,21.638,11.359,21.954C151.176,408.01,149.732,397.9,150.213,390.9Zm55.068-54.951c10.18,6.775,20.725-8.635,21.273-9.433C216.44,351.9,205.281,335.953,205.281,335.953Z" transform="translate(42.828 244.124)" fill="#fec81b"/>
      <path id="Path_867" data-name="Path 867" d="M155.543,381.774c-11.558-2.292-13-12.405-12.521-19.4l1.162-2.557C145.13,376.31,154.895,381.458,155.543,381.774Z" transform="translate(50.02 272.651)" fill="#f1c826"/>
      <path id="Path_868" data-name="Path 868" d="M197.423,322.59c-10.113,25.375-21.273,9.433-21.273,9.433C186.33,338.8,196.875,323.387,197.423,322.59Z" transform="translate(71.958 248.055)" fill="#f1c826"/>
      <path id="Path_869" data-name="Path 869" d="M196.3,319.144l-31.237.83-.017-.548a154.218,154.218,0,0,1,21.256-2.624c2.076-.116,4.2-.183,6.36-.183,1.179,0,2.375.017,3.57.033Z" transform="translate(64.625 244.111)" fill="#f1c826"/>
      <path id="Path_870" data-name="Path 870" d="M205.135,398.284c-13.518,3.3-43.858,12.92-50.6,5.563-7.124-7.772-11.342-13.916-13.817-18.5l-.448,72.421a22.078,22.078,0,0,0,2.973,2.308c13.651,8.851,32.3-1.677,60.3-6.344,19.646-3.272,40.337-4.417,51.73-7.141v-.233l.066-3.936,1.179-61.494C246.32,383.454,217.989,395.145,205.135,398.284Zm-28.779,49.122c-8.8,7.058-17.121,2.391-22.236-2.275a35.4,35.4,0,0,1-5.214-5.912,41.578,41.578,0,0,0,8.154,5.829C167.92,450.894,175.825,447.639,176.356,447.406Z" transform="translate(48.254 286.598)" fill="#fec81b"/>
      <path id="Path_871" data-name="Path 871" d="M172.921,424.217c-8.8,7.058-17.121,2.391-22.236-2.275a35.4,35.4,0,0,1-5.214-5.912,41.583,41.583,0,0,0,8.154,5.829C164.485,427.7,172.389,424.45,172.921,424.217Z" transform="translate(51.689 309.787)" fill="#f1c826"/>
      <path id="Path_872" data-name="Path 872" d="M279.82,375.8l-.033,1.661a21.192,21.192,0,0,1-4.052,10.3c-6.31,9.217-17.686,16.357-17.686,16.357s.531,5.131,1.3,12.721c1.993,20.077,5.547,57.409,4.866,62.939,0,0-2.757.864-7.44,2.092-.233.05-.482.116-.731.183-.3.083-.614.15-.947.233v-.233l.066-3.936,1.179-61.494c-10.2,2.524-38.527,14.215-51.381,17.354-13.518,3.3-43.858,12.92-50.6,5.563-7.124-7.772-11.342-13.916-13.817-18.5l.066-10.794v-.216c14.165-1.86,24.229-3.919,24.229-3.919l.033.05,3.222,5.978c25.989-11.259,58.7-5.447,72.969-11.259,1.395-.565,15.859-15.727,15.859-15.727s-.365,7.041-.166,9.549l1.262-66.609.017-1.179c.315.382.614.781.93,1.179,8.835,11.608,17.669,32.881,20.559,45.585A11.7,11.7,0,0,1,279.82,375.8Z" transform="translate(48.432 250.909)" fill="#f1c826"/>
      <path id="Path_873" data-name="Path 873" d="M186.911,436.189s38.8,49.227,40.354,51.363,10.4,9.057,4.713,30.151-5.91,28.092-5.91,28.092,9.459-34.982,9.947-39.431.737-13-4.826-18.389-44.278-51.786-44.278-51.786Z" transform="translate(79.068 323.105)" fill="#0a8599"/>
      <path id="Path_874" data-name="Path 874" d="M286.172,304.064a10.221,10.221,0,0,1-2.491.747,57.149,57.149,0,0,1-6.344.847c-2.806-23.017-9.034-38.693-15.444-49.205a63.289,63.289,0,0,0-12.09-14.73c-.066.232-.149.465-.232.7-.033-.017-.05-.033-.083-.05a.417.417,0,0,1-.116-.066,35.661,35.661,0,0,0-3.4-1.611,7.009,7.009,0,0,0-.747-.3c-.266-.1-.531-.216-.814-.3-.183-.05-.382-.116-.565-.183a1.3,1.3,0,0,1-.233-.083c-.4-.116-.8-.249-1.245-.382-.249-.066-.515-.149-.781-.216A43.4,43.4,0,0,0,237,238.218a.126.126,0,0,1-.066-.017c-.648-.1-1.329-.2-2.026-.3-.365-.05-.731-.1-1.113-.133-1.3-.133-2.674-.249-4.135-.3q-2.341-.075-4.932.05h-.1a.366.366,0,0,0-.133.017c-.78.033-1.594.1-2.425.166-.864.083-1.76.183-2.657.3-.1.017-.2.017-.3.033-.448.066-.913.133-1.378.2-.448.083-.913.149-1.395.232l-.548.1a77.732,77.732,0,0,0-8.386,2.059h-.017c-1.013.3-2.026.631-3.072,1-.781.266-1.578.548-2.375.847-1.511.565-3.039,1.179-4.617,1.877-.482.2-.963.415-1.461.648-.963.432-1.96.9-2.956,1.395-.5.232-1,.482-1.511.747-.5.249-1.013.515-1.528.8-.5.266-1.013.548-1.528.83s-1.03.565-1.561.864a1.242,1.242,0,0,0-.2.116c-.149.083-.3.183-.448.282-.3,1.2-6.925,28.132-7.539,36.916-.648,8.984-5.381,19.1-9.067,7.589,0,0-1.378,19.729-2.474,22.7s-4.384,6.427-7.788.2-8.718-12.837-13.518-10.661c-4.783,2.192-7.755,11.824-4.583,20.41,3.155,8.586,10.944,14.116,21.971,2.79,0,0,5.115,21.024,3.521,27.384l-10.944-7.938s1.71,7.955-2.69,11.093c12.771,3.487,28.48,3.969,28.48,3.969l.2,7.257a154.224,154.224,0,0,1,21.256-2.624,60.609,60.609,0,0,1-9.632-3.122l16.557-.432s1.063,2.242-.565,3.371c1.179,0,2.375.017,3.57.033l-.116-3.986c21.605-3.022,36.5-11.591,46.515-20.692.332-.3.648-.581.963-.88,13.883-13.036,18.051-26.836,18.051-26.836a21.152,21.152,0,0,0,4.235-1.246c.332-.149.664-.3.963-.465C291.3,310.839,287.883,303.15,286.172,304.064ZM214.83,266.3c2.192-4.251,8.021-6.161,10.562-6.809a5.123,5.123,0,0,1,2.873.017c2.574.847,2.126,3.089.614,3.4-1.777.382-6.892,1.345-9.731,6.012C217.454,271.7,212.024,271.78,214.83,266.3Zm7.373,55.1c-5.264.648-9.9-1.877-10.363-5.63-.448-3.77,3.438-7.323,8.7-7.971s9.914,1.877,10.379,5.646C231.37,317.2,227.468,320.753,222.2,321.4Zm26.288-25.574a14.531,14.531,0,1,1,1.3-7.955A14.328,14.328,0,0,1,248.492,295.827Z" transform="translate(47.975 191.803)" fill="#f7ad8a"/>
      <path id="Path_875" data-name="Path 875" d="M167.72,245.1l.448-.249c-.149.083-.3.183-.448.282Z" transform="translate(66.389 196.695)" fill="#e6b190"/>
      <path id="Path_876" data-name="Path 876" d="M224.938,239.908c-.4-.116-.8-.249-1.245-.382-.249-.066-.515-.149-.781-.216-1.362-.365-2.89-.714-4.583-1.013a.126.126,0,0,1-.066-.017c-.648-.1-1.329-.2-2.026-.3-.365-.05-.731-.1-1.113-.133-1.3-.133-2.674-.249-4.135-.3q-2.341-.075-4.932.05h-.1a.366.366,0,0,0-.133.017c-.78.033-1.594.1-2.425.166-.864.083-1.76.183-2.657.3-.1.017-.2.017-.3.033-.448.066-.913.133-1.378.2-.448.083-.913.149-1.395.232l-.548.1a77.732,77.732,0,0,0-8.386,2.059h-.017c-1.013.3-2.026.631-3.072,1-.781.266-1.578.548-2.375.847-1.511.565-3.039,1.179-4.617,1.877-.482.2-.963.415-1.461.648-.963.432-1.96.9-2.956,1.395-.5.232-1,.482-1.511.747-.5.249-1.013.515-1.528.8-.5.266-1.013.531-1.528.83-.515.282-1.03.565-1.561.864C189.184,237.085,209.975,234.694,224.938,239.908Z" transform="translate(66.647 191.724)" fill="#e6b190"/>
      <path id="Path_877" data-name="Path 877" d="M202.33,238.88a7.466,7.466,0,0,1,.8.266c-.183-.05-.382-.116-.565-.183A1.306,1.306,0,0,1,202.33,238.88Z" transform="translate(89.254 192.752)" fill="#e6b190"/>
      <path id="Path_878" data-name="Path 878" d="M203.75,239.4a24.6,24.6,0,0,1,3.4,1.611A35.661,35.661,0,0,0,203.75,239.4Z" transform="translate(90.193 193.095)" fill="#e6b190"/>
      <path id="Path_879" data-name="Path 879" d="M210.3,242.121c-.066.232-.149.465-.232.7-.033-.017-.05-.033-.083-.05a.416.416,0,0,1-.116-.066,72.892,72.892,0,0,0-10.23-5.862l3.222.149A31.8,31.8,0,0,1,210.3,242.121Z" transform="translate(87.477 191.403)" fill="#e6b190"/>
      <path id="Path_880" data-name="Path 880" d="M196.3,320.485l-31.237.83-.017-.548a154.219,154.219,0,0,1,21.256-2.624,60.611,60.611,0,0,1-9.632-3.122l16.557-.432s1.063,2.242-.565,3.371c1.179,0,2.375.017,3.57.033Z" transform="translate(64.625 242.77)" fill="#f7ad8a"/>
      <path id="Path_881" data-name="Path 881" d="M202.3,285.5c.448,3.753-3.454,7.307-8.718,7.955s-9.9-1.877-10.363-5.63c-.448-3.77,3.438-7.323,8.7-7.971S201.83,281.727,202.3,285.5Z" transform="translate(76.602 219.752)" fill="#e6b190"/>
      <path id="Path_882" data-name="Path 882" d="M216.294,280.856a14.531,14.531,0,1,1,1.3-7.955A14.328,14.328,0,0,1,216.294,280.856Z" transform="translate(80.173 206.773)" fill="#e6b190"/>
      <path id="Path_883" data-name="Path 883" d="M274.65,257.994a31.8,31.8,0,0,0-7.44-5.132l-3.222-.149c-9.632-4.6-24.594-9.466-38.942-4.916a79.143,79.143,0,0,0-16.64,7.788c-12.538,7.44-24.76,17.57-39.524,25.441a108.112,108.112,0,0,1-16.856,7.29,82.721,82.721,0,0,0,16.059-2.159A105.022,105.022,0,0,0,205.284,270c1.893-1.329,3.8-2.557,5.7-3.7-.3,1.2-6.925,28.132-7.539,36.917-.648,8.984-5.381,19.1-9.067,7.589,0,0-1.378,19.729-2.474,22.7s-4.384,6.427-7.788.2-8.718-12.837-13.518-10.661c-4.783,2.192-7.755,11.824-4.583,20.41,3.155,8.586,10.944,14.116,21.971,2.79,0,0,5.115,21.024,3.521,27.384l-10.944-7.938s1.71,7.955-2.69,11.093c-3.969,2.84-12.92,1.76-32.632-12.638l.282,10.578s-20.609-6.842-21.638-50.75l-4.5,7.207s4.019-25.84,4.417-32.9c0,0-14.082.963-21.555-3.537,0,0,20.277-10.844,29.311-25.342,0,0-11.558,7.955-21.107,8.071,0,0,18.865-9.333,27.451-18.085s32.732-34.226,58.987-42.131c26.238-7.9,49.687-5,66.908,6.593C280.661,235.21,278.6,246.519,274.65,257.994Z" transform="translate(23.129 175.53)" fill="#883e21"/>
      <path id="Path_884" data-name="Path 884" d="M224.938,239.908c-.4-.116-.8-.249-1.245-.382-.249-.066-.515-.149-.781-.216-1.362-.365-2.89-.714-4.583-1.013a.126.126,0,0,1-.066-.017c-.648-.1-1.329-.2-2.026-.3-.365-.05-.731-.1-1.113-.133-1.3-.133-2.674-.249-4.135-.3q-2.341-.075-4.932.05h-.1a.366.366,0,0,0-.133.017c-.78.033-1.594.1-2.425.166-.864.083-1.76.183-2.657.3-.1.017-.2.017-.3.033-.448.066-.913.133-1.378.2-.448.083-.913.149-1.395.232l-.548.1a77.732,77.732,0,0,0-8.386,2.059h-.017c-1.013.3-2.026.631-3.072,1-.781.266-1.578.548-2.375.847-1.511.565-3.039,1.179-4.617,1.877-.482.2-.963.415-1.461.648-.963.432-1.96.9-2.956,1.395-.5.232-1,.482-1.511.747-.5.249-1.013.515-1.528.8-.5.266-1.013.531-1.528.83-.515.282-1.03.565-1.561.864C189.184,237.085,209.975,234.694,224.938,239.908Z" transform="translate(66.647 191.724)" fill="#7d3f22"/>
      <path id="Path_885" data-name="Path 885" d="M202.33,238.88a7.466,7.466,0,0,1,.8.266c-.183-.05-.382-.116-.565-.183A1.306,1.306,0,0,1,202.33,238.88Z" transform="translate(89.254 192.752)" fill="#7d3f22"/>
      <path id="Path_886" data-name="Path 886" d="M210.3,242.121c-.066.232-.149.465-.232.7-.033-.017-.05-.033-.083-.05a.416.416,0,0,1-.116-.066,72.892,72.892,0,0,0-10.23-5.862l3.222.149A31.8,31.8,0,0,1,210.3,242.121Z" transform="translate(87.477 191.403)" fill="#7d3f22"/>
      <path id="Path_887" data-name="Path 887" d="M254.411,245.382a24.593,24.593,0,0,0-3.4-1.611,7,7,0,0,0-.747-.3c-.266-.1-.531-.216-.814-.3a7.468,7.468,0,0,0-.8-.266c-14.963-5.214-35.754-2.823-56.828,9.8a1.242,1.242,0,0,0-.2.116l-.448.249v.033c-1.893,1.146-3.8,2.375-5.7,3.7a105.022,105.022,0,0,1-37.2,16.158,82.72,82.72,0,0,1-16.059,2.159,108.11,108.11,0,0,0,16.856-7.29c14.763-7.872,26.986-18,39.524-25.441a79.142,79.142,0,0,1,16.64-7.788c14.348-4.55,29.311.316,38.942,4.916A72.892,72.892,0,0,1,254.411,245.382Z" transform="translate(42.936 188.724)" fill="#6d2b1c"/>
      <path id="Path_888" data-name="Path 888" d="M167.72,245.1l.448-.249c-.149.083-.3.183-.448.282Z" transform="translate(66.389 196.695)" fill="#663222"/>
      <path id="Path_889" data-name="Path 889" d="M207.154,241.011a35.661,35.661,0,0,0-3.4-1.611A24.6,24.6,0,0,1,207.154,241.011Z" transform="translate(90.193 193.095)" fill="#663222"/>
      <path id="Path_890" data-name="Path 890" d="M149.916,286.028a11.1,11.1,0,0,0-3.215,4.047,13.7,13.7,0,0,0-1.365,5.532" transform="translate(51.601 223.9)" fill="none" stroke="#c68b79" stroke-linecap="round" stroke-linejoin="round" stroke-width="0.71"/>
      <line id="Line_44" data-name="Line 44" x2="5.45" y2="5.352" transform="translate(198.303 513.975)" fill="none" stroke="#c68b79" stroke-linecap="round" stroke-linejoin="round" stroke-width="0.71"/>
      <path id="Path_891" data-name="Path 891" d="M216.294,280.856v-.05c0-3.653-6.41.482-9.964-1.229-4.567-2.175-6.178-7.207-8.253-3.986a4.575,4.575,0,0,0-.249.415c-.083.149-.166.316-.249.482a9.825,9.825,0,0,0,3.72,12.588A14.544,14.544,0,1,1,217.589,272.9,14.328,14.328,0,0,1,216.294,280.856Z" transform="translate(80.173 206.773)" fill="#fff"/>
      <path id="Path_892" data-name="Path 892" d="M207.5,267.539a9.835,9.835,0,0,0-12.621,3.77,4.564,4.564,0,0,0-.249.415c-.083.149-.166.316-.249.482a9.825,9.825,0,0,0,3.72,12.588,14.392,14.392,0,0,0,15-8.22v-.05A9.8,9.8,0,0,0,207.5,267.539Zm-7.556,2.225a1.913,1.913,0,1,1,.913,2.541A1.921,1.921,0,0,1,199.944,269.764Z" transform="translate(83.371 211.057)" fill="#040404"/>
      <path id="Path_893" data-name="Path 893" d="M193.577,293.451c-5.264.648-9.9-1.877-10.363-5.63-.448-3.77,3.438-7.323,8.7-7.971s9.914,1.877,10.379,5.646C202.743,289.25,198.841,292.8,193.577,293.451Z" transform="translate(76.602 219.752)" fill="#f69d84"/>
      <path id="Path_894" data-name="Path 894" d="M203.039,303.35s-9.853.631-12.1-10.738" transform="translate(81.731 228.25)" fill="none" stroke="#c68b79" stroke-linecap="round" stroke-linejoin="round" stroke-width="0.679"/>
      <path id="Path_895" data-name="Path 895" d="M199.364,254.219c-1.777.382-6.892,1.345-9.731,6.012-1.694,2.773-7.124,2.856-4.318-2.624,2.192-4.251,8.021-6.161,10.562-6.809a5.123,5.123,0,0,1,2.873.017C201.324,251.662,200.875,253.9,199.364,254.219Z" transform="translate(77.49 200.495)" fill="#663222"/>
      <path id="Path_896" data-name="Path 896" d="M188.042,317.961c-.963.648-2.823.93-6.36.183a60.612,60.612,0,0,1-9.632-3.122l16.557-.432S189.67,316.832,188.042,317.961Z" transform="translate(69.25 242.77)" fill="#f69d84"/>
      <path id="Path_897" data-name="Path 897" d="M197.423,322.59c-10.113,25.375-21.273,9.433-21.273,9.433C186.33,338.8,196.875,323.387,197.423,322.59Z" transform="translate(71.958 248.055)" fill="#e9b633"/>
      <path id="Path_898" data-name="Path 898" d="M155.543,383.5c-11.558-2.292-13-12.405-12.521-19.4a35.152,35.152,0,0,1,1.113-6.908c-.05,1.528-.033,2.973.05,4.351C145.13,378.041,154.895,383.189,155.543,383.5Z" transform="translate(50.02 270.921)" fill="#f1c826"/>
      <path id="Path_899" data-name="Path 899" d="M166.3,374.65c-8.552,1.794-17.387,3.155-24.262,4.085-1.3.166-2.524.332-3.67.465v-.216c1.245-.149,2.474-.316,3.67-.465,14.165-1.86,24.229-3.919,24.229-3.919Z" transform="translate(46.999 282.416)" fill="#f1c826"/>
      <path id="Path_901" data-name="Path 901" d="M237.349,284.06l-.017.465-2.259,119.584-.033,1.661-.1,5.347-.133,6.775-.166,8.586-.133,7.423-.1,5.115-.149,8.021-.1,5.231-.565,30.075-2.624,138.682a11.328,11.328,0,0,1-8.6,10.794,10.687,10.687,0,0,1-2.74.349H219.4a10.651,10.651,0,0,1-3.5-.631,8.179,8.179,0,0,1-1.246-.515,11.324,11.324,0,0,1-6.377-10.429l.714-37.9.066-3.139v-.016l1.3-68.951v-.233l.066-3.936,1.179-61.494.415-21.921L213.27,356.4l.017-1.179.8-41.732.017-.88c13.883-13.036,18.051-26.836,18.051-26.836A19.054,19.054,0,0,0,237.349,284.06Z" transform="translate(93.178 222.6)" fill="#ef4742"/>
      <path id="Path_902" data-name="Path 902" d="M241.887,67.369l-.166,8.818-.1,4.949L235.128,424.81a57.152,57.152,0,0,1-6.344.847c-2.807-23.017-9.034-38.693-15.444-49.205l5.846-309.514a11.353,11.353,0,0,1,22.7.432Z" transform="translate(96.528 71.803)" fill="#ef4742"/>
      <path id="Path_904" data-name="Path 904" d="M225.287,393.466c-9.479,5.942-.294,8.822-.294,8.822-8.1,5.493-2.616,8-2.616,8s-1.828,2.881.588,4.544,9.355.126,13.066-3.129-2.169-6.485-2.169-6.485,1.069-.428,2.624-3.66-3.4-4.763-3.4-4.763.907.061,2.059-6.339c1.217-6.756-9.175-5.019-9.175-5.019l-.218,7.659Z" transform="translate(101.301 289.443)" fill="#f7ad8a"/>
      <path id="Path_905" data-name="Path 905" d="M155.543,383.5c-11.558-2.292-13-12.405-12.521-19.4a35.152,35.152,0,0,1,1.113-6.908c-.05,1.528-.033,2.973.05,4.351C145.13,378.041,154.895,383.189,155.543,383.5Z" transform="translate(50.02 270.921)" fill="#e9b633"/>
      <path id="Path_906" data-name="Path 906" d="M283.362,393.566c-.332.98-1.445,1.611-2.923,1.993-3.471.93-8.934.548-10.678.415-1.611-.15-4.932-1.644-8.984-2.308a24.14,24.14,0,0,0-2.508-.266v-.066c-.166.033-.332.083-.5.116-10.2,2.524-38.527,14.215-51.381,17.354-13.518,3.3-43.858,12.92-50.6,5.563-7.124-7.772-11.342-13.916-13.817-18.5-3.321-6.095-3.587-9.482-3.6-10.329v-.216c1.245-.149,2.474-.316,3.67-.465,14.165-1.86,24.229-3.919,24.229-3.919l.033.05,3.222,5.978c25.989-11.259,58.7-5.447,72.969-11.259,1.395-.565,15.859-15.727,15.859-15.727s-.365,7.041-.166,9.549a1.341,1.341,0,0,0,.017.266c3.521-2.524,11.508-7.373,14.381-8.3,2.076-.664,3.653-.1,4.583,1.1a5.067,5.067,0,0,1,.864,3.853c-.432,3.222-11.293,9.848-11.973,10.263.7-.166,11.857-2.906,14.481-3.637a1.74,1.74,0,0,1,.282-.066,3.194,3.194,0,0,1,2.641,5.58,11.1,11.1,0,0,1-2.773,1.843,77.41,77.41,0,0,1-11.99,4.284s6.842.5,10.678.664a5.478,5.478,0,0,1,1.212.166C283.462,388.169,284.359,390.626,283.362,393.566Z" transform="translate(46.999 274.078)" fill="#f7ad8a"/>
      <path id="Path_907" data-name="Path 907" d="M172.921,424.217c-8.8,7.058-17.121,2.391-22.236-2.275a35.4,35.4,0,0,1-5.214-5.912,41.583,41.583,0,0,0,8.154,5.829C164.485,427.7,172.389,424.45,172.921,424.217Z" transform="translate(51.689 309.787)" fill="#e9b633"/>
    </g>
  </g>
</svg>
