<?xml version="1.0" encoding="utf-8"?>
<!-- Generator: Adobe Illustrator 16.0.0, SVG Export Plug-In . SVG Version: 6.00 Build 0)  -->
<!DOCTYPE svg PUBLIC "-//W3C//DTD SVG 1.1//EN" "http://www.w3.org/Graphics/SVG/1.1/DTD/svg11.dtd">
<svg version="1.1" id="Layer_1" xmlns="http://www.w3.org/2000/svg" xmlns:xlink="http://www.w3.org/1999/xlink" x="0px" y="0px"
	 width="841.89px" height="595.277px" viewBox="0 0 841.89 595.277" enable-background="new 0 0 841.89 595.277"
	 xml:space="preserve">
<path fill="#934920" d="M689.792,314.607c0,0-0.227,15.375,1.688,19.204c1.914,3.83,4.07,7.66,5.986,8.617
	c1.914,0.957-0.502,2.396-3.842,1.679c-3.34-0.722-9.326,1.586-13.396,0.19c-4.068-1.389-4.787-1.869-6.941-1.147
	c-2.154,0.717-4.787,0.235-5.984-0.959c-1.195-1.195-0.957-3.354,3.111-5.507c4.07-2.153,5.984-4.19,7.182-7.004
	c1.199-2.813,1.676-14.063,1.676-14.063L689.792,314.607z"/>
<path fill="#84391B" d="M689.802,318.533c0,0-2.998,0.903-4.207,1.104c-1.209,0.203-3.021,1.011-4.332,2.418
	c-1.311,1.412-3.516,7.218-3.516,7.218s2.154-11.229,1.525-13.654c-0.633-2.426,9.748-2.426,9.748-2.426l0.77,1.414L689.802,318.533
	z"/>
<polygon fill="#00994C" points="720.203,317.228 648.83,317.228 684.515,246.662 "/>
<polygon fill="#00733B" points="684.517,246.662 684.517,317.228 648.83,317.228 "/>
<path fill="#934920" d="M739.337,327.558c0,0-0.262,17.949,1.973,22.423c2.236,4.473,4.754,8.942,6.988,10.061
	c2.236,1.119-0.586,2.795-4.484,1.955c-3.9-0.836-10.887,1.854-15.639,0.229c-4.752-1.623-5.59-2.184-8.104-1.346
	c-2.52,0.84-5.592,0.281-6.988-1.117c-1.396-1.396-1.117-3.912,3.633-6.428c4.752-2.516,6.988-4.893,8.385-8.176
	c1.398-3.283,1.957-16.418,1.957-16.418L739.337,327.558z"/>
<path fill="#84391B" d="M739.349,332.14c0,0-3.498,1.06-4.908,1.293c-1.412,0.234-3.529,1.179-5.059,2.824
	c-1.531,1.646-4.105,8.422-4.105,8.422s2.516-13.106,1.781-15.938c-0.734-2.834,11.383-2.834,11.383-2.834l0.896,1.651
	L739.349,332.14z"/>
<polygon fill="#00994C" points="774.843,330.619 691.515,330.619 733.179,248.234 "/>
<polygon fill="#00733B" points="733.179,248.234 733.179,330.619 691.515,330.619 "/>
<path fill="#86938C" d="M98.116,350.552c21.069-46.52,47.144-86.518,76.517-117.602c8.894-9.413,19.566-11.736,29.913-8.781
	c0.282,0.08,0.565,0.135,0.847,0.161c4.153,0.396,8.023-3.227,11.643-6.687c25.254-24.133,51.327-45.816,78.046-64.907
	c3.122-2.231,6.643-4.446,9.802-2.371c2.178,1.431,3.816,4.725,6.042,5.933c4.265,2.315,8.378-3.682,11.607-8.932
	c16.726-27.194,37.532-47.155,59.917-57.484c16.035-7.397,35.306-8.525,47.055,11.351c6.828,11.551,10.723,29.525,19.914,34.556
	c8.188,4.482,17.092-3.583,25.596-1.354c11.666,3.057,18.365,23.35,27.268,36.467c4.93,7.264,10.768,12.5,16.549,17.669
	c4.076,3.645,8.154,7.29,12.23,10.935c14.682,13.125,29.361,26.251,44.158,38.998c53.486,46.079,108.469,87.195,164.615,123.104
	c-47.143,25.387-94.623,32.625-143.781,42.106c-79.928,15.416-159.332,55.295-239.386,41.887
	c-66.916-11.207-129.499-58.963-194.32-89.204C140.394,346.156,118.517,333.439,98.116,350.552"/>
<path fill="#A48870" d="M98.116,350.552c21.069-46.52,47.144-86.518,76.517-117.602c8.894-9.413,19.566-11.736,29.913-8.781
	c0.282,0.08,0.565,0.135,0.847,0.161c4.153,0.396,8.023-3.227,11.643-6.687c25.254-24.133,51.327-45.816,78.046-64.907
	c3.122-2.231,6.643-4.446,9.802-2.371c2.178,1.431,3.816,4.725,6.042,5.933c4.265,2.315,8.378-3.682,11.607-8.932
	c16.726-27.194,37.532-47.155,59.917-57.484c16.035-7.397,35.306-8.525,47.055,11.351c6.828,11.551,10.723,29.525,19.914,34.556
	c8.188,4.482,17.092-3.583,25.596-1.354c11.666,3.057,18.365,23.35,27.268,36.467c4.93,7.264,10.768,12.5,16.549,17.669
	c4.076,3.645,8.154,7.29,12.23,10.935c14.682,13.125,29.361,26.251,44.158,38.998c53.486,46.079,108.469,87.195,164.615,123.104
	c-47.143,25.387-94.623,32.625-143.781,42.106c-79.928,15.416-159.332,55.295-239.386,41.887
	c-66.916-11.207-129.499-58.963-194.32-89.204C140.394,346.156,118.517,333.439,98.116,350.552"/>
<path fill="#CBA68C" d="M461.109,249.659c0.258,7.225-3.875,11.825-7.404,15.188c0.309,16.685-6.699,27.686-14.758,36.582
	c-6.16,6.791-13.166,12.779-20.392,17.556c-1.745,11.737-8.765,19.438-14.976,25.688c-3.619,3.646-7.276,7.377-10.972,11.088
	c4.222-0.934,8.393-1.281,12.345-0.998c8.573,0.607,22.946,11.912,12.204,27.121c-5.39,7.615-12.755,11.088-19.3,14.754
	c-7.418,4.166-14.951,7.703-22.587,10.502c1.72,11.043-4.799,19.658-9.829,24.478c-5.557,5.336-11.524,9.065-17.595,12.301
	c-63.612-13.691-135.292,36.924-197.262,8c-21.957-10.24-42.495-46.309-52.467-101.363c21.069-46.521,47.141-86.519,76.511-117.598
	c8.915-9.435,19.601-11.603,29.983-8.761c0.258,0.071,0.518,0.12,0.777,0.146c4.158,0.39,8.034-3.233,11.652-6.704
	c25.256-24.128,51.319-45.804,78.037-64.897c3.132-2.235,6.648-4.448,9.804-2.365c2.183,1.432,3.825,4.729,6.045,5.923
	c4.261,2.322,8.38-3.667,11.614-8.917c16.721-27.209,37.524-47.171,59.917-57.498c1.373-0.63,2.772-1.238,4.196-1.758
	c-1.463,2.625-2.9,5.142-4.222,7.529c-7.263,13.127-14.835,25.777-22.65,37.97c-3.824,5.989-9.394,17.119-14.886,24.974
	c8.944-4.6,18.877-8.006,17.491,1.519c-0.68,4.621-4.825,8.526-6.955,10.936c-3.979,4.534-8.329,7.984-12.641,11.477
	c-1.424,1.151-2.849,2.344-4.26,3.537c-4.402,4.687-9.073,8.939-13.744,13.235c-0.463,2.799-2.22,5.208-3.517,7.03
	c-6.737,9.46-13.718,19.397-20.956,28.445c16.067-3.015,29.478-23.585,44.184-36.147c11.357-9.678,23.792-14.69,36.382-18.422
	c9.239-4.621,18.659-8.31,28.116-11.412c9.291-3.038,18.621-5.077,28.029-6.683c3.078-0.521,8.52-0.694,7.469,7.269
	c-0.719,5.381-5.287,9.112-7.779,11.673c-1.729,1.779-3.502,3.471-5.299,5.098c2.438,7.377,2.734,14.603-3.426,19.376
	c-9.395,7.313-19.571,13.04-29.837,16.121c1.116,2.843,1.719,6.119,1.283,9.873c-0.963,8.223-6.276,12.107-10.497,15.036
	c-4.633,6.618-10.382,11.586-16.055,16.122c-10.959,10.717-22.483,19.765-34.392,26.991c0.577-0.196,1.142-0.391,1.681-0.521
	c4.659-1.216,9.304-2.365,13.937-3.819c9.65-3.059,19.275-6.53,28.81-10.458c18.749-7.702,37.151-17.488,55.785-25.885
	C442.695,247.185,460.544,234.209,461.109,249.659"/>
<rect x="547.351" y="374.664" fill="#934920" width="1.912" height="10.002"/>
<polygon fill="#00994C" points="535.359,377.955 561.255,377.955 548.308,352.349 "/>
<polygon fill="#00733B" points="548.308,352.351 548.308,377.955 561.255,377.955 "/>
<rect x="323.598" y="404.96" fill="#934920" width="2.387" height="12.482"/>
<polygon fill="#00994C" points="308.635,409.066 340.948,409.066 324.792,377.119 "/>
<polygon fill="#00733B" points="324.792,377.119 324.792,409.066 340.949,409.066 "/>
<rect x="178.125" y="313.976" fill="#934920" width="1.913" height="10.003"/>
<polygon fill="#00994C" points="166.134,317.265 192.029,317.265 179.081,291.662 "/>
<polygon fill="#00733B" points="179.082,291.663 179.082,317.265 192.029,317.265 "/>
<rect x="607.085" y="345.728" fill="#934920" width="1.912" height="12.773"/>
<polygon fill="#00994C" points="595.093,349.929 620.988,349.929 608.041,317.228 "/>
<polygon fill="#00733B" points="608.041,317.228 608.041,349.929 620.988,349.929 "/>
<rect x="485.824" y="260.708" fill="#934920" width="1.559" height="10.414"/>
<polygon fill="#00994C" points="476.046,264.133 497.16,264.133 486.603,237.473 "/>
<polygon fill="#00733B" points="486.603,237.473 486.603,264.133 497.16,264.133 "/>
<rect x="374.378" y="200.479" fill="#934920" width="1.375" height="9.182"/>
<polygon fill="#00994C" points="365.76,203.499 384.372,203.499 375.066,179.996 "/>
<polygon fill="#00733B" points="375.066,179.996 375.066,203.499 384.372,203.499 "/>
<rect x="433.003" y="157.399" fill="#934920" width="1.121" height="7.479"/>
<polygon fill="#00994C" points="425.982,159.859 441.146,159.859 433.562,140.711 "/>
<polygon fill="#00733B" points="433.562,140.71 433.562,159.858 441.146,159.858 "/>
<rect x="365.738" y="124.407" fill="#934920" width="0.753" height="5.031"/>
<polygon fill="#00994C" points="361.014,126.061 371.214,126.061 366.114,113.18 "/>
<polygon fill="#00733B" points="366.114,113.18 366.114,126.061 371.214,126.061 "/>
<rect x="421.294" y="90.327" fill="#934920" width="0.752" height="5.032"/>
<polygon fill="#00994C" points="416.57,91.982 426.771,91.982 421.669,79.101 "/>
<polygon fill="#00733B" points="421.669,79.101 421.669,91.982 426.771,91.982 "/>
<rect fill="none" width="841.89" height="595.277"/>
<rect x="242.101" y="338.169" fill="#934920" width="3.256" height="17.029"/>
<path fill="#00733B" d="M255.885,325.689c0,7.084-5.442,12.825-12.156,12.825c-6.713,0-12.156-5.741-12.156-12.825
	s5.443-12.826,12.156-12.826C250.443,312.863,255.885,318.605,255.885,325.689"/>
<path fill="#00994C" d="M254.954,324.976c0,6.689-5.234,12.113-11.69,12.113s-11.69-5.424-11.69-12.113
	c0-6.688,5.234-12.112,11.69-12.112S254.954,318.287,254.954,324.976"/>
<rect x="325.29" y="290.773" fill="#934920" width="2.03" height="10.615"/>
<path fill="#00733B" d="M333.882,282.993c0,4.416-3.393,7.995-7.577,7.995c-4.185,0-7.577-3.579-7.577-7.995
	c0-4.415,3.392-7.994,7.577-7.994C330.489,274.999,333.882,278.578,333.882,282.993"/>
<path fill="#00994C" d="M333.302,282.549c0,4.17-3.263,7.551-7.287,7.551s-7.286-3.381-7.286-7.551c0-4.171,3.262-7.551,7.286-7.551
	S333.302,278.378,333.302,282.549"/>
<rect x="453.744" y="360.269" fill="#934920" width="2.301" height="12.033"/>
<path fill="#00733B" d="M463.484,351.453c0,5.004-3.846,9.063-8.59,9.063c-4.742,0-8.59-4.059-8.59-9.063s3.848-9.064,8.59-9.064
	C459.638,342.388,463.484,346.447,463.484,351.453"/>
<path fill="#00994C" d="M462.826,350.949c0,4.729-3.697,8.559-8.26,8.559s-8.262-3.83-8.262-8.559c0-4.729,3.699-8.562,8.262-8.562
	S462.826,346.22,462.826,350.949"/>
<rect x="508.097" y="211.73" fill="#934920" width="2.566" height="13.424"/>
<path fill="#00733B" d="M518.96,201.893c0,5.584-4.289,10.11-9.58,10.11c-5.293,0-9.582-4.526-9.582-10.11s4.289-10.11,9.582-10.11
	C514.671,191.783,518.96,196.309,518.96,201.893"/>
<path fill="#00994C" d="M518.228,201.332c0,5.273-4.127,9.548-9.215,9.548c-5.09,0-9.215-4.275-9.215-9.548s4.125-9.549,9.215-9.549
	C514.101,191.783,518.228,196.059,518.228,201.332"/>
<rect x="285.106" y="196.628" fill="#934920" width="2.195" height="11.481"/>
<path fill="#00733B" d="M294.398,188.213c0,4.776-3.669,8.647-8.195,8.647c-4.526,0-8.195-3.871-8.195-8.647
	c0-4.775,3.669-8.646,8.195-8.646C290.729,179.567,294.398,183.438,294.398,188.213"/>
<path fill="#00994C" d="M293.771,187.734c0,4.51-3.528,8.166-7.881,8.166c-4.352,0-7.881-3.656-7.881-8.166
	c0-4.511,3.529-8.167,7.881-8.167C290.243,179.567,293.771,183.223,293.771,187.734"/>
<rect x="364.851" y="165.116" fill="#934920" width="1.503" height="7.861"/>
<path fill="#00733B" d="M371.214,159.354c0,3.271-2.513,5.921-5.612,5.921s-5.611-2.65-5.611-5.921c0-3.27,2.512-5.921,5.611-5.921
	S371.214,156.084,371.214,159.354"/>
<path fill="#00994C" d="M370.784,159.025c0,3.089-2.416,5.593-5.396,5.593c-2.981,0-5.397-2.504-5.397-5.593
	c0-3.088,2.416-5.592,5.397-5.592C368.368,153.433,370.784,155.937,370.784,159.025"/>
<rect fill="none" width="841.89" height="595.277"/>
</svg>
