<?xml version="1.0" encoding="utf-8"?>
<!-- Generator: Adobe Illustrator 16.0.0, SVG Export Plug-In . SVG Version: 6.00 Build 0)  -->
<!DOCTYPE svg PUBLIC "-//W3C//DTD SVG 1.1//EN" "http://www.w3.org/Graphics/SVG/1.1/DTD/svg11.dtd">
<svg version="1.1" xmlns="http://www.w3.org/2000/svg" xmlns:xlink="http://www.w3.org/1999/xlink" x="0px" y="0px"
	 width="841.89px" height="595.277px" viewBox="0 0 841.89 595.277" enable-background="new 0 0 841.89 595.277"
	 xml:space="preserve" class="bergPad">
<g id="Layer_1">
	
		<path fill="none" stroke="#545454" stroke-width="2" stroke-linecap="round" stroke-linejoin="round" stroke-miterlimit="10" stroke-dasharray="2,5" d="
		M382.475,477.769c-89.194,20.926-185.007,43.535-185.007,43.535h-83.853"/>
	
		<path fill="none" stroke="#545454" stroke-width="2" stroke-linecap="round" stroke-linejoin="round" stroke-miterlimit="10" stroke-dasharray="2,5" d="
		M591.957,369.856l147.879-8.249c0,0-170.869,73.323-211.844,82.348c-17.404,3.832-79.656,18.363-145.517,33.813"/>
	
		<path fill="none" stroke="#545454" stroke-width="2" stroke-linecap="round" stroke-linejoin="round" stroke-miterlimit="10" stroke-dasharray="2,5" d="
		M372.221,382.115l219.735-12.259"/>
	
		<path fill="none" stroke="#545454" stroke-width="2" stroke-linecap="round" stroke-linejoin="round" stroke-miterlimit="10" stroke-dasharray="2,5" d="
		M205.603,312.156l142.104,71.326l24.514-1.367"/>
	<g>
		
			<polyline fill="none" stroke="#545454" stroke-width="2" stroke-linecap="round" stroke-linejoin="round" stroke-miterlimit="10" stroke-dasharray="2,5" points="
			205.387,224.337 308.098,264.335 385.949,261.004 439.746,270.734 		"/>
		
			<polyline fill="none" stroke="#545454" stroke-width="2" stroke-linecap="round" stroke-linejoin="round" stroke-miterlimit="10" stroke-dasharray="2,5" points="
			531.062,199.506 468.738,224.337 399.435,231.521 344.497,198.626 		"/>
	</g>
	<g>
		
			<polyline fill="none" stroke="#545454" stroke-width="2" stroke-linecap="round" stroke-linejoin="round" stroke-miterlimit="10" stroke-dasharray="2,5" points="
			439.746,270.734 499.31,281.508 575.22,238.504 		"/>
		
			<polyline fill="none" stroke="#545454" stroke-width="2" stroke-linecap="round" stroke-linejoin="round" stroke-miterlimit="10" stroke-dasharray="2,5" points="
			344.843,311.703 279.619,292.37 230.334,290.37 174.627,232.953 		"/>
	</g>
	<g>
		
			<path fill="none" stroke="#545454" stroke-width="2" stroke-linecap="round" stroke-linejoin="round" stroke-miterlimit="10" stroke-dasharray="2,5" d="
			M138.313,278.382l67.29,33.774"/>
		
			<polyline fill="none" stroke="#545454" stroke-width="2" stroke-linecap="round" stroke-linejoin="round" stroke-miterlimit="10" stroke-dasharray="2,5" points="
			652.816,301.074 549.587,308.531 480.14,332.148 413.826,332.148 344.843,311.703 		"/>
	</g>
	<g>
		
			<polyline fill="none" stroke="#545454" stroke-width="2" stroke-linecap="round" stroke-linejoin="round" stroke-miterlimit="10" stroke-dasharray="2,5" points="
			344.497,198.626 321.269,206.329 237.682,198.626 		"/>
		
			<polyline fill="none" stroke="#545454" stroke-width="2" stroke-linecap="round" stroke-linejoin="round" stroke-miterlimit="10" stroke-dasharray="2,5" points="
			492.783,154.339 444.492,169.378 413.425,168.865 		"/>
	</g>
	<g>
		
			<polyline fill="none" stroke="#545454" stroke-width="2" stroke-linecap="round" stroke-linejoin="round" stroke-miterlimit="10" stroke-dasharray="2,5" points="
			413.425,168.865 408.994,168.792 355.43,171.049 322.539,147.377 		"/>
		
			<polyline fill="none" stroke="#545454" stroke-width="2" stroke-linecap="round" stroke-linejoin="round" stroke-miterlimit="10" stroke-dasharray="2,5" points="
			441.664,127.11 359.78,133.621 345.194,117.522 		"/>
	</g>
	
		<polyline fill="none" stroke="#545454" stroke-width="2" stroke-linecap="round" stroke-linejoin="round" stroke-miterlimit="10" stroke-dasharray="2,5" points="
		389.426,105.987 375.641,107.622 363.453,101.233 	"/>
	
		<line fill="none" stroke="#545454" stroke-width="2" stroke-linecap="round" stroke-linejoin="round" stroke-miterlimit="10" stroke-dasharray="2,5" x1="429.505" y1="101.233" x2="389.426" y2="105.987"/>
	<rect fill="none" width="841.89" height="595.277"/>
</g>
<g id="Layer_2" display="none">
	<path display="inline" fill="#F04844" d="M386.315,478.357c0,1.959-1.588,3.549-3.547,3.549c-1.96,0-3.548-1.59-3.548-3.549
		s1.588-3.55,3.548-3.55S386.315,476.398,386.315,478.357"/>
	<path display="inline" fill="#F04844" d="M595.554,369.851c0,1.962-1.588,3.55-3.547,3.55c-1.961,0-3.549-1.588-3.549-3.55
		c0-1.959,1.588-3.547,3.549-3.547C593.966,366.304,595.554,367.892,595.554,369.851"/>
	<path display="inline" fill="#F04844" d="M375.604,382.123c0,1.959-1.588,3.547-3.547,3.547c-1.96,0-3.548-1.588-3.548-3.547
		s1.588-3.547,3.548-3.547S375.604,380.164,375.604,382.123"/>
	<path display="inline" fill="#F04844" d="M208.935,312.441c0,1.959-1.588,3.547-3.548,3.547c-1.959,0-3.547-1.588-3.547-3.547
		c0-1.961,1.588-3.55,3.547-3.55C207.347,308.892,208.935,310.48,208.935,312.441"/>
	<path display="inline" fill="#F04844" d="M348.742,312.863c0,1.959-1.588,3.547-3.548,3.547c-1.959,0-3.548-1.588-3.548-3.547
		s1.589-3.549,3.548-3.549C347.154,309.314,348.742,310.904,348.742,312.863"/>
	<path display="inline" fill="#F04844" d="M442.623,270.503c0,1.959-1.588,3.548-3.549,3.548c-1.959,0-3.547-1.589-3.547-3.548
		c0-1.96,1.588-3.548,3.547-3.548C441.035,266.956,442.623,268.543,442.623,270.503"/>
	<path display="inline" fill="#F04844" d="M348.044,198.626c0,1.959-1.588,3.548-3.548,3.548c-1.959,0-3.547-1.589-3.547-3.548
		c0-1.96,1.588-3.548,3.547-3.548C346.456,195.079,348.044,196.667,348.044,198.626"/>
	<path display="inline" fill="#F04844" d="M417.269,168.871c0,1.959-1.588,3.548-3.548,3.548c-1.959,0-3.547-1.589-3.547-3.548
		c0-1.96,1.588-3.548,3.547-3.548C415.681,165.323,417.269,166.911,417.269,168.871"/>
	<path display="inline" fill="#F04844" d="M354.119,123.457c0,1.96-1.588,3.548-3.547,3.548c-1.96,0-3.548-1.588-3.548-3.548
		c0-1.959,1.588-3.547,3.548-3.547C352.531,119.91,354.119,121.498,354.119,123.457"/>
	<path display="inline" fill="#F04844" d="M393.852,105.882c0,1.959-1.588,3.548-3.548,3.548c-1.959,0-3.548-1.589-3.548-3.548
		s1.589-3.548,3.548-3.548C392.264,102.334,393.852,103.923,393.852,105.882"/>
</g>
</svg>
