<?xml version="1.0" encoding="utf-8"?>
<!-- Generator: Adobe Illustrator 16.0.0, SVG Export Plug-In . SVG Version: 6.00 Build 0)  -->
<!DOCTYPE svg PUBLIC "-//W3C//DTD SVG 1.1//EN" "http://www.w3.org/Graphics/SVG/1.1/DTD/svg11.dtd">
<svg version="1.1" id="Layer_1" xmlns="http://www.w3.org/2000/svg" xmlns:xlink="http://www.w3.org/1999/xlink" x="0px" y="0px"
	 width="841.89px" height="595.277px" viewBox="0 0 841.89 595.277" enable-background="new 0 0 841.89 595.277"
	 xml:space="preserve">
<path fill="#934920" d="M689.792,314.607c0,0-0.227,15.375,1.688,19.205s4.07,7.66,5.986,8.617c1.914,0.957-0.502,2.396-3.842,1.678
	c-3.34-0.721-9.326,1.586-13.396,0.191c-4.068-1.389-4.787-1.869-6.941-1.148c-2.154,0.717-4.787,0.236-5.984-0.959
	s-0.957-3.354,3.111-5.506c4.07-2.154,5.984-4.191,7.182-7.004s1.674-14.063,1.674-14.063L689.792,314.607z"/>
<path fill="#84391B" d="M689.802,318.533c0,0-2.998,0.904-4.207,1.105c-1.209,0.203-3.021,1.01-4.332,2.418
	c-1.311,1.412-3.516,7.217-3.516,7.217s2.154-11.229,1.525-13.654c-0.631-2.426,9.748-2.426,9.748-2.426l0.771,1.414
	L689.802,318.533z"/>
<polygon fill="#00994C" points="720.203,317.228 648.83,317.228 684.515,246.662 "/>
<polygon fill="#00733B" points="684.517,246.662 684.517,317.228 648.83,317.228 "/>
<path fill="#934920" d="M739.337,327.558c0,0-0.262,17.949,1.973,22.422c2.236,4.473,4.754,8.943,6.988,10.061
	c2.236,1.119-0.586,2.795-4.484,1.955c-3.9-0.836-10.887,1.854-15.639,0.229c-4.752-1.623-5.59-2.184-8.104-1.346
	c-2.518,0.84-5.59,0.281-6.988-1.117c-1.396-1.396-1.117-3.912,3.633-6.428c4.752-2.516,6.988-4.893,8.385-8.176
	c1.398-3.283,1.957-16.418,1.957-16.418L739.337,327.558z"/>
<path fill="#84391B" d="M739.349,332.14c0,0-3.498,1.059-4.908,1.293c-1.412,0.234-3.529,1.178-5.059,2.824
	c-1.531,1.646-4.105,8.422-4.105,8.422s2.516-13.107,1.781-15.939c-0.734-2.834,11.383-2.834,11.383-2.834l0.896,1.652
	L739.349,332.14z"/>
<polygon fill="#00994C" points="774.843,330.619 691.515,330.619 733.179,248.234 "/>
<polygon fill="#00733B" points="733.179,248.234 733.179,330.619 691.515,330.619 "/>
<path fill="#86938C" d="M98.116,350.552c21.069-46.52,47.144-86.518,76.517-117.602c8.894-9.413,19.566-11.736,29.913-8.781
	c0.282,0.08,0.565,0.135,0.847,0.161c4.153,0.396,8.023-3.227,11.643-6.687c25.254-24.133,51.327-45.816,78.046-64.907
	c3.122-2.231,6.643-4.446,9.802-2.371c2.178,1.431,3.816,4.725,6.042,5.933c4.265,2.315,8.378-3.682,11.607-8.932
	c16.726-27.194,37.532-47.155,59.917-57.484c16.035-7.397,35.306-8.525,47.055,11.351c6.828,11.551,10.723,29.525,19.914,34.556
	c8.188,4.482,17.092-3.583,25.596-1.354c11.666,3.057,18.365,23.35,27.268,36.467c4.93,7.264,10.768,12.5,16.549,17.669
	c4.076,3.645,8.154,7.29,12.23,10.935c14.682,13.125,29.361,26.251,44.158,38.998c53.486,46.079,108.469,87.195,164.615,123.103
	c-47.143,25.387-94.623,32.625-143.781,42.107c-79.928,15.416-159.332,55.295-239.386,41.887
	c-66.916-11.207-129.499-58.963-194.32-89.205C140.394,346.156,118.517,333.439,98.116,350.552"/>
<path fill="#A48870" d="M98.116,350.552c21.069-46.52,47.144-86.518,76.517-117.602c8.894-9.413,19.566-11.736,29.913-8.781
	c0.282,0.08,0.565,0.135,0.847,0.161c4.153,0.396,8.023-3.227,11.643-6.687c25.254-24.133,51.327-45.816,78.046-64.907
	c3.122-2.231,6.643-4.446,9.802-2.371c2.178,1.431,3.816,4.725,6.042,5.933c4.265,2.315,8.378-3.682,11.607-8.932
	c16.726-27.194,37.532-47.155,59.917-57.484c16.035-7.397,35.306-8.525,47.055,11.351c6.828,11.551,10.723,29.525,19.914,34.556
	c8.188,4.482,17.092-3.583,25.596-1.354c11.666,3.057,18.365,23.35,27.268,36.467c4.93,7.264,10.768,12.5,16.549,17.669
	c4.076,3.645,8.154,7.29,12.23,10.935c14.682,13.125,29.361,26.251,44.158,38.998c53.486,46.079,108.469,87.195,164.615,123.103
	c-47.143,25.387-94.623,32.625-143.781,42.107c-79.928,15.416-159.332,55.295-239.386,41.887
	c-66.916-11.207-129.499-58.963-194.32-89.205C140.394,346.156,118.517,333.439,98.116,350.552"/>
<path fill="#CBA68C" d="M461.109,249.659c0.258,7.225-3.875,11.825-7.404,15.188c0.309,16.685-6.699,27.686-14.758,36.582
	c-6.16,6.791-13.166,12.779-20.392,17.555c-1.745,11.738-8.765,19.439-14.976,25.688c-3.619,3.646-7.276,7.377-10.972,11.088
	c4.222-0.934,8.393-1.281,12.345-0.998c8.573,0.607,22.946,11.912,12.204,27.121c-5.39,7.615-12.755,11.088-19.3,14.754
	c-7.418,4.166-14.951,7.703-22.587,10.502c1.72,11.043-4.799,19.658-9.829,24.477c-5.557,5.336-11.524,9.066-17.595,12.301
	c-63.612-13.691-135.292,36.924-197.262,8c-21.957-10.24-42.495-46.309-52.467-101.363c21.069-46.521,47.141-86.519,76.511-117.598
	c8.915-9.435,19.601-11.603,29.983-8.761c0.258,0.071,0.518,0.12,0.777,0.146c4.158,0.39,8.034-3.233,11.652-6.704
	c25.256-24.128,51.319-45.804,78.037-64.897c3.132-2.235,6.648-4.448,9.804-2.365c2.183,1.432,3.825,4.729,6.045,5.923
	c4.261,2.322,8.38-3.667,11.614-8.917c16.721-27.209,37.524-47.171,59.917-57.498c1.373-0.63,2.772-1.238,4.196-1.758
	c-1.463,2.625-2.9,5.142-4.222,7.529c-7.263,13.127-14.835,25.777-22.65,37.97c-3.824,5.989-9.394,17.119-14.886,24.974
	c8.944-4.6,18.877-8.006,17.491,1.519c-0.68,4.621-4.825,8.526-6.955,10.936c-3.979,4.534-8.329,7.984-12.641,11.477
	c-1.424,1.151-2.849,2.344-4.26,3.537c-4.402,4.687-9.073,8.939-13.744,13.235c-0.463,2.799-2.22,5.208-3.517,7.03
	c-6.737,9.46-13.718,19.397-20.956,28.445c16.067-3.015,29.478-23.585,44.184-36.147c11.357-9.678,23.792-14.69,36.382-18.422
	c9.239-4.621,18.659-8.31,28.116-11.412c9.291-3.038,18.621-5.077,28.029-6.683c3.078-0.521,8.52-0.694,7.469,7.269
	c-0.719,5.381-5.287,9.112-7.779,11.673c-1.73,1.779-3.502,3.471-5.299,5.098c2.438,7.377,2.734,14.603-3.426,19.376
	c-9.395,7.313-19.571,13.04-29.837,16.121c1.116,2.843,1.719,6.119,1.283,9.873c-0.963,8.223-6.276,12.107-10.497,15.036
	c-4.633,6.618-10.382,11.586-16.055,16.122c-10.959,10.717-22.483,19.765-34.392,26.991c0.577-0.196,1.142-0.391,1.681-0.521
	c4.659-1.216,9.304-2.365,13.937-3.819c9.65-3.059,19.275-6.53,28.81-10.458c18.749-7.702,37.151-17.488,55.785-25.885
	C442.695,247.185,460.544,234.209,461.109,249.659"/>
<path fill="#DBD9D8" d="M729.595,155.482c0.211-0.318,0.412-0.645,0.604-0.977c0.041-0.068,0.082-0.136,0.121-0.206
	c0.193-0.346,0.383-0.698,0.555-1.058c0.002-0.003,0.002-0.006,0.004-0.009c0.168-0.352,0.32-0.711,0.467-1.074
	c0.031-0.079,0.063-0.157,0.094-0.237c0.145-0.372,0.277-0.749,0.396-1.132c0.002-0.004,0.002-0.008,0.004-0.012
	c0.115-0.374,0.215-0.754,0.307-1.138c0.021-0.092,0.043-0.182,0.063-0.274c0.088-0.392,0.166-0.786,0.227-1.188
	c0.002-0.006,0.002-0.011,0.004-0.017c0.059-0.392,0.102-0.789,0.135-1.188c0.008-0.101,0.016-0.203,0.021-0.305
	c0.027-0.409,0.047-0.819,0.047-1.234c0-9.992-8.1-18.093-18.092-18.093c-0.746,0-1.479,0.051-2.203,0.139
	c-4.084-8.22-12.559-13.871-22.359-13.871c-0.5,0-0.996,0.016-1.488,0.046c-0.234,0.014-0.467,0.041-0.699,0.061
	c-0.254,0.023-0.508,0.039-0.76,0.07c-0.289,0.035-0.574,0.082-0.859,0.127c-0.189,0.029-0.383,0.053-0.57,0.087
	c-0.303,0.053-0.6,0.12-0.896,0.184c-0.146,0.031-0.295,0.056-0.439,0.09c-0.006,0.002-0.01,0.005-0.016,0.007
	c-0.072,0.016-0.145,0.029-0.217,0.046c-0.285-10.013-4.709-18.986-11.613-25.284c-0.383-0.35-0.773-0.691-1.174-1.025
	c-0.02-0.015-0.037-0.032-0.057-0.048c-0.385-0.319-0.775-0.63-1.172-0.932c-0.037-0.029-0.074-0.058-0.111-0.086
	c-0.383-0.289-0.771-0.571-1.164-0.844c-0.057-0.04-0.115-0.08-0.174-0.12c-0.377-0.26-0.76-0.512-1.148-0.758
	c-0.078-0.049-0.156-0.099-0.234-0.147c-0.375-0.233-0.752-0.457-1.137-0.676c-0.098-0.057-0.197-0.113-0.297-0.168
	c-0.369-0.205-0.74-0.405-1.117-0.598c-0.119-0.062-0.242-0.122-0.363-0.183c-0.361-0.179-0.725-0.354-1.092-0.522
	c-0.145-0.065-0.289-0.129-0.438-0.193c-0.35-0.155-0.703-0.306-1.063-0.448c-0.168-0.069-0.338-0.132-0.506-0.197
	c-0.342-0.132-0.686-0.261-1.031-0.382c-0.191-0.066-0.385-0.128-0.576-0.191c-0.332-0.109-0.664-0.218-1-0.317
	c-0.217-0.064-0.436-0.121-0.652-0.182c-0.318-0.088-0.637-0.177-0.959-0.256c-0.242-0.059-0.486-0.111-0.73-0.165
	c-0.305-0.068-0.607-0.139-0.914-0.199c-0.273-0.053-0.549-0.097-0.822-0.145c-0.285-0.049-0.568-0.101-0.855-0.143
	c-0.309-0.046-0.623-0.08-0.936-0.117c-0.258-0.032-0.514-0.068-0.773-0.093c-0.367-0.035-0.736-0.058-1.107-0.082
	c-0.209-0.015-0.416-0.035-0.627-0.045c-0.584-0.029-1.172-0.044-1.764-0.044c-19.504,0-35.344,15.674-35.617,35.113
	c-2.447-0.803-5.061-1.242-7.777-1.242c-0.496,0-0.988,0.019-1.477,0.047c-0.152,0.009-0.303,0.022-0.451,0.034
	c-0.346,0.026-0.688,0.059-1.025,0.099c-0.164,0.019-0.326,0.04-0.488,0.061c-0.348,0.049-0.693,0.105-1.037,0.167
	c-0.133,0.025-0.264,0.045-0.395,0.07c-0.473,0.094-0.941,0.199-1.402,0.319c-0.035,0.009-0.068,0.019-0.104,0.029
	c-0.428,0.112-0.85,0.237-1.268,0.371c-0.127,0.041-0.252,0.086-0.379,0.128c-0.332,0.113-0.662,0.233-0.988,0.36
	c-0.129,0.049-0.256,0.098-0.381,0.15c-0.359,0.145-0.715,0.301-1.066,0.463c-0.072,0.034-0.148,0.066-0.225,0.101
	c-0.438,0.209-0.873,0.429-1.297,0.662c-0.018,0.009-0.031,0.019-0.049,0.029c-0.396,0.219-0.787,0.449-1.17,0.689
	c-0.084,0.053-0.168,0.108-0.252,0.161c-0.326,0.21-0.648,0.427-0.965,0.651c-0.076,0.054-0.154,0.109-0.23,0.165
	c-0.377,0.272-0.744,0.553-1.104,0.846c-0.002,0.001-0.006,0.002-0.008,0.004c-0.758,0.619-1.477,1.282-2.156,1.983
	c-0.049,0.051-0.098,0.102-0.146,0.154c-0.293,0.308-0.578,0.622-0.855,0.943c-0.037,0.046-0.078,0.091-0.117,0.137
	c-0.637,0.75-1.23,1.537-1.775,2.359c0,0.002-0.002,0.004-0.004,0.004h0.002c-2.617,3.948-4.146,8.681-4.146,13.773
	c0,0.454,0.014,0.905,0.037,1.354c-0.014,0-0.023-0.001-0.037-0.001c-6.52,0-11.805,5.285-11.805,11.803
	c0,6.519,5.285,11.803,11.805,11.803h134.473c6.266,0,11.785-3.186,15.033-8.025v0.001
	C729.585,155.496,729.589,155.489,729.595,155.482"/>
<path fill="#EEEEED" d="M725.945,159.131c0.213-0.318,0.412-0.645,0.604-0.977c0.041-0.068,0.082-0.136,0.121-0.206
	c0.195-0.346,0.379-0.698,0.555-1.058c0-0.003,0.002-0.006,0.004-0.009c0.168-0.352,0.32-0.711,0.469-1.074
	c0.029-0.079,0.061-0.157,0.092-0.237c0.145-0.372,0.279-0.749,0.396-1.132c0.002-0.004,0.002-0.008,0.004-0.012
	c0.113-0.374,0.215-0.754,0.307-1.138c0.021-0.091,0.043-0.182,0.063-0.274c0.086-0.392,0.164-0.786,0.227-1.187
	c0.002-0.006,0.002-0.011,0.002-0.017c0.061-0.392,0.102-0.788,0.135-1.188c0.01-0.101,0.018-0.203,0.023-0.305
	c0.027-0.409,0.047-0.819,0.047-1.234c0-9.992-8.102-18.093-18.092-18.093c-0.746,0-1.48,0.051-2.203,0.139
	c-4.084-8.22-12.563-13.871-22.359-13.871c-0.5,0-0.998,0.016-1.49,0.046c-0.234,0.014-0.465,0.041-0.697,0.061
	c-0.254,0.023-0.51,0.04-0.762,0.07c-0.289,0.035-0.572,0.083-0.857,0.127c-0.191,0.029-0.383,0.053-0.572,0.087
	c-0.301,0.053-0.598,0.12-0.895,0.184c-0.146,0.031-0.297,0.056-0.439,0.09c-0.006,0.002-0.012,0.005-0.016,0.007
	c-0.072,0.017-0.146,0.029-0.217,0.047c-0.285-10.014-4.709-18.987-11.613-25.284v-0.001c-0.383-0.35-0.775-0.691-1.174-1.024
	c-0.02-0.016-0.037-0.032-0.059-0.049c-0.383-0.319-0.773-0.629-1.17-0.932c-0.039-0.029-0.076-0.058-0.113-0.086
	c-0.381-0.289-0.77-0.57-1.164-0.844c-0.057-0.04-0.113-0.08-0.174-0.12c-0.375-0.26-0.76-0.512-1.146-0.758
	c-0.078-0.049-0.156-0.099-0.236-0.147c-0.373-0.232-0.752-0.457-1.135-0.676c-0.1-0.057-0.199-0.113-0.299-0.168
	c-0.367-0.205-0.738-0.405-1.115-0.598c-0.121-0.062-0.242-0.122-0.365-0.183c-0.359-0.179-0.723-0.354-1.09-0.522
	c-0.146-0.065-0.291-0.129-0.438-0.193c-0.352-0.155-0.703-0.306-1.063-0.449c-0.168-0.068-0.338-0.131-0.506-0.196
	c-0.342-0.132-0.686-0.261-1.031-0.381c-0.191-0.067-0.385-0.129-0.578-0.192c-0.332-0.108-0.664-0.217-0.998-0.316
	c-0.217-0.065-0.436-0.123-0.652-0.182c-0.318-0.089-0.639-0.177-0.959-0.257c-0.242-0.059-0.488-0.11-0.732-0.165
	c-0.303-0.068-0.607-0.139-0.914-0.199c-0.271-0.053-0.547-0.097-0.824-0.144c-0.281-0.049-0.564-0.101-0.852-0.143
	c-0.313-0.046-0.623-0.08-0.938-0.117c-0.258-0.031-0.514-0.068-0.771-0.093c-0.367-0.035-0.738-0.058-1.109-0.082
	c-0.209-0.015-0.416-0.035-0.627-0.045c-0.584-0.029-1.172-0.044-1.762-0.044c-19.504,0-35.346,15.675-35.619,35.113
	c-2.447-0.803-5.061-1.242-7.777-1.242c-0.496,0-0.986,0.019-1.477,0.047c-0.152,0.009-0.301,0.023-0.453,0.034
	c-0.342,0.026-0.684,0.059-1.023,0.099c-0.164,0.019-0.324,0.04-0.486,0.062c-0.35,0.048-0.695,0.105-1.039,0.166
	c-0.131,0.025-0.264,0.045-0.395,0.071c-0.473,0.093-0.939,0.198-1.402,0.318c-0.035,0.009-0.068,0.02-0.104,0.029
	c-0.428,0.112-0.85,0.237-1.268,0.372c-0.127,0.04-0.252,0.085-0.377,0.128c-0.334,0.112-0.664,0.233-0.99,0.359
	c-0.127,0.049-0.254,0.098-0.381,0.15c-0.359,0.146-0.715,0.301-1.066,0.463c-0.072,0.034-0.148,0.066-0.223,0.101
	c-0.439,0.209-0.873,0.429-1.299,0.662c-0.018,0.009-0.031,0.019-0.049,0.029c-0.396,0.219-0.785,0.45-1.17,0.689
	c-0.086,0.053-0.168,0.108-0.252,0.161c-0.326,0.21-0.648,0.427-0.965,0.651c-0.076,0.054-0.154,0.109-0.23,0.165
	c-0.375,0.272-0.744,0.553-1.105,0.846c0,0.001-0.002,0.002-0.004,0.004c-0.758,0.619-1.477,1.282-2.156,1.983
	c-0.049,0.051-0.098,0.103-0.146,0.154c-0.293,0.308-0.578,0.622-0.855,0.943c-0.041,0.046-0.08,0.091-0.119,0.138
	c-0.635,0.749-1.229,1.536-1.773,2.358c0,0.002-0.002,0.004-0.004,0.005c0-0.001,0.002-0.001,0.002-0.001
	c-2.619,3.948-4.148,8.681-4.148,13.773c0,0.454,0.018,0.906,0.039,1.354c-0.012,0-0.025-0.001-0.039-0.001
	c-6.516,0-11.801,5.285-11.801,11.803c0,6.519,5.285,11.803,11.801,11.803h134.475c6.266,0,11.785-3.186,15.033-8.025v0.001
	C725.937,159.146,725.941,159.138,725.945,159.131"/>
<path fill="#DBD9D8" d="M737.81,186.076c0.143-0.211,0.273-0.429,0.402-0.648l0.078-0.138c0.131-0.231,0.256-0.464,0.371-0.703
	c0-0.002,0-0.004,0.002-0.006c0.111-0.234,0.213-0.473,0.311-0.715c0.021-0.052,0.041-0.103,0.063-0.156
	c0.096-0.248,0.186-0.498,0.264-0.753c0.002-0.003,0.002-0.005,0.002-0.008c0.078-0.249,0.145-0.502,0.205-0.757
	c0.014-0.06,0.027-0.121,0.041-0.181c0.059-0.261,0.109-0.523,0.15-0.789c0-0.004,0.002-0.008,0.002-0.012
	c0.039-0.261,0.066-0.525,0.09-0.789c0.006-0.069,0.01-0.136,0.016-0.203c0.02-0.272,0.031-0.544,0.031-0.821
	c0-6.641-5.385-12.026-12.027-12.026c-0.496,0-0.982,0.034-1.463,0.093c-2.715-5.464-8.35-9.221-14.863-9.221
	c-0.332,0-0.662,0.011-0.99,0.03c-0.156,0.01-0.309,0.028-0.463,0.041c-0.168,0.016-0.338,0.027-0.506,0.047
	c-0.191,0.023-0.381,0.055-0.57,0.084c-0.127,0.02-0.256,0.035-0.381,0.058c-0.201,0.036-0.398,0.08-0.598,0.123
	c-0.096,0.02-0.193,0.037-0.291,0.059c-0.004,0.002-0.006,0.003-0.01,0.005c-0.051,0.011-0.098,0.019-0.145,0.031
	c-0.189-6.656-3.129-12.62-7.721-16.806h0.002c-0.002,0-0.002-0.001-0.002-0.001c-0.254-0.233-0.514-0.459-0.779-0.681l-0.037-0.032
	c-0.256-0.212-0.516-0.418-0.779-0.619c-0.023-0.02-0.049-0.038-0.074-0.058c-0.254-0.192-0.512-0.379-0.771-0.56
	c-0.039-0.027-0.078-0.054-0.115-0.08c-0.254-0.173-0.506-0.34-0.766-0.504c-0.053-0.033-0.104-0.066-0.156-0.098
	c-0.248-0.154-0.498-0.304-0.754-0.449c-0.066-0.038-0.131-0.075-0.199-0.111c-0.244-0.137-0.49-0.27-0.74-0.398
	c-0.08-0.041-0.162-0.082-0.242-0.122c-0.238-0.119-0.48-0.235-0.727-0.347c-0.096-0.044-0.191-0.086-0.291-0.129
	c-0.232-0.102-0.467-0.203-0.703-0.297c-0.111-0.045-0.225-0.087-0.338-0.131c-0.227-0.087-0.455-0.173-0.686-0.253
	c-0.127-0.044-0.256-0.085-0.385-0.127c-0.221-0.073-0.439-0.146-0.664-0.211c-0.145-0.043-0.287-0.081-0.434-0.121
	c-0.213-0.059-0.424-0.117-0.637-0.17c-0.162-0.04-0.326-0.074-0.486-0.111c-0.203-0.044-0.404-0.091-0.609-0.131
	c-0.18-0.036-0.361-0.065-0.545-0.096c-0.189-0.032-0.379-0.067-0.568-0.096c-0.205-0.03-0.414-0.052-0.621-0.077
	c-0.172-0.02-0.342-0.045-0.516-0.061c-0.242-0.025-0.488-0.039-0.734-0.056c-0.141-0.009-0.277-0.023-0.418-0.029
	c-0.389-0.02-0.779-0.03-1.172-0.03c-12.965,0-23.492,10.419-23.676,23.34c-1.627-0.533-3.363-0.826-5.17-0.826
	c-0.33,0-0.654,0.013-0.98,0.031c-0.102,0.006-0.201,0.016-0.301,0.024c-0.229,0.017-0.455,0.038-0.682,0.065
	c-0.107,0.013-0.217,0.026-0.324,0.041c-0.23,0.032-0.461,0.069-0.689,0.11c-0.088,0.017-0.174,0.031-0.262,0.047
	c-0.314,0.063-0.625,0.132-0.934,0.212c-0.021,0.006-0.045,0.013-0.068,0.02c-0.283,0.074-0.563,0.157-0.842,0.247
	c-0.084,0.026-0.168,0.057-0.252,0.085c-0.221,0.075-0.439,0.154-0.656,0.238c-0.084,0.033-0.17,0.066-0.254,0.1
	c-0.238,0.097-0.475,0.2-0.709,0.307c-0.049,0.024-0.1,0.045-0.148,0.069c-0.291,0.138-0.582,0.284-0.861,0.439
	c-0.014,0.006-0.021,0.013-0.033,0.019c-0.264,0.145-0.521,0.3-0.775,0.459c-0.059,0.035-0.113,0.071-0.168,0.106
	c-0.217,0.14-0.432,0.284-0.643,0.433c-0.051,0.037-0.104,0.072-0.152,0.109c-0.25,0.182-0.494,0.368-0.734,0.563
	c0,0.001-0.002,0.002-0.006,0.004c-0.502,0.41-0.979,0.85-1.432,1.317c-0.031,0.034-0.064,0.068-0.098,0.102
	c-0.193,0.205-0.385,0.414-0.568,0.627l-0.078,0.091c-0.424,0.499-0.818,1.022-1.182,1.568c0,0.002-0.002,0.003-0.002,0.004v-0.001
	c-1.738,2.624-2.756,5.77-2.756,9.155c0,0.302,0.012,0.601,0.025,0.9c-0.008,0-0.018-0.001-0.025-0.001
	c-4.332,0-7.846,3.513-7.846,7.845c0,4.333,3.514,7.846,7.846,7.846h89.385c4.164,0,7.834-2.118,9.992-5.334l0,0
	C737.804,186.085,737.808,186.081,737.81,186.076"/>
<path fill="#EEEEED" d="M735.384,188.501c0.143-0.211,0.275-0.428,0.402-0.648l0.08-0.138c0.129-0.231,0.254-0.464,0.369-0.703
	c0-0.002,0-0.004,0.002-0.006c0.111-0.234,0.213-0.473,0.311-0.714c0.021-0.053,0.041-0.104,0.063-0.157
	c0.096-0.248,0.186-0.498,0.264-0.753c0.002-0.003,0.002-0.005,0.002-0.008c0.078-0.249,0.143-0.501,0.205-0.757
	c0.014-0.06,0.027-0.121,0.041-0.181c0.059-0.261,0.109-0.523,0.15-0.789c0-0.004,0-0.008,0-0.012
	c0.039-0.26,0.068-0.525,0.092-0.789c0.006-0.069,0.01-0.136,0.016-0.203c0.018-0.272,0.031-0.544,0.031-0.821
	c0-6.641-5.385-12.025-12.027-12.025c-0.496,0-0.982,0.033-1.463,0.092c-2.715-5.464-8.348-9.221-14.863-9.221
	c-0.332,0-0.662,0.011-0.99,0.03c-0.154,0.01-0.309,0.029-0.465,0.041c-0.168,0.016-0.338,0.027-0.504,0.047
	c-0.191,0.023-0.383,0.055-0.57,0.084c-0.127,0.02-0.256,0.035-0.381,0.058c-0.201,0.036-0.398,0.08-0.598,0.123
	c-0.096,0.02-0.193,0.037-0.291,0.059c-0.004,0.002-0.008,0.003-0.01,0.005c-0.049,0.011-0.098,0.019-0.145,0.031
	c-0.189-6.656-3.131-12.62-7.721-16.806c-0.254-0.234-0.516-0.46-0.779-0.682c-0.014-0.01-0.025-0.021-0.037-0.031
	c-0.256-0.213-0.516-0.419-0.779-0.62c-0.023-0.02-0.049-0.038-0.074-0.058c-0.254-0.191-0.512-0.379-0.771-0.56
	c-0.039-0.027-0.078-0.054-0.115-0.08c-0.252-0.173-0.506-0.34-0.766-0.504c-0.053-0.033-0.104-0.066-0.156-0.098
	c-0.248-0.154-0.5-0.304-0.754-0.449c-0.066-0.038-0.133-0.074-0.197-0.111c-0.246-0.137-0.492-0.27-0.742-0.398
	c-0.08-0.041-0.162-0.082-0.242-0.122c-0.24-0.119-0.48-0.235-0.727-0.347c-0.096-0.044-0.191-0.086-0.289-0.129
	c-0.234-0.102-0.469-0.202-0.705-0.297c-0.111-0.045-0.225-0.087-0.338-0.131c-0.229-0.087-0.455-0.173-0.686-0.253
	c-0.129-0.044-0.256-0.085-0.385-0.127c-0.221-0.073-0.439-0.145-0.664-0.211c-0.143-0.043-0.289-0.081-0.434-0.121
	c-0.211-0.059-0.422-0.117-0.637-0.17c-0.16-0.04-0.324-0.074-0.486-0.111c-0.203-0.044-0.404-0.091-0.609-0.131
	c-0.18-0.036-0.361-0.065-0.545-0.096c-0.189-0.032-0.379-0.067-0.568-0.096c-0.205-0.03-0.414-0.052-0.621-0.077
	c-0.172-0.02-0.342-0.045-0.516-0.061c-0.244-0.025-0.488-0.039-0.736-0.056c-0.139-0.009-0.275-0.023-0.416-0.029
	c-0.389-0.02-0.779-0.03-1.172-0.03c-12.965,0-23.494,10.419-23.676,23.34c-1.627-0.533-3.363-0.826-5.17-0.826
	c-0.33,0-0.656,0.013-0.98,0.031c-0.102,0.006-0.201,0.016-0.301,0.024c-0.229,0.017-0.457,0.039-0.682,0.065
	c-0.109,0.013-0.217,0.026-0.324,0.041c-0.23,0.032-0.461,0.069-0.689,0.111c-0.088,0.016-0.176,0.03-0.262,0.046
	c-0.314,0.063-0.627,0.132-0.934,0.212c-0.023,0.006-0.045,0.013-0.068,0.02c-0.283,0.074-0.563,0.157-0.842,0.247
	c-0.084,0.027-0.168,0.057-0.252,0.085c-0.221,0.075-0.439,0.154-0.658,0.238c-0.084,0.033-0.168,0.066-0.252,0.1
	c-0.238,0.097-0.475,0.2-0.709,0.307c-0.049,0.024-0.1,0.045-0.148,0.069c-0.291,0.138-0.58,0.284-0.861,0.439
	c-0.012,0.006-0.021,0.013-0.033,0.019c-0.264,0.145-0.52,0.3-0.775,0.459c-0.059,0.035-0.113,0.071-0.168,0.107
	c-0.219,0.139-0.432,0.283-0.643,0.432c-0.051,0.037-0.104,0.073-0.152,0.109c-0.25,0.182-0.494,0.368-0.734,0.563
	c0,0.001-0.002,0.002-0.004,0.004c-0.502,0.41-0.98,0.851-1.434,1.317c-0.033,0.034-0.064,0.068-0.098,0.102
	c-0.195,0.205-0.385,0.414-0.568,0.627l-0.078,0.091c-0.424,0.499-0.818,1.022-1.182,1.568c0,0.002-0.002,0.003-0.002,0.004v-0.001
	c-1.74,2.625-2.756,5.77-2.756,9.155c0,0.302,0.01,0.601,0.025,0.9c-0.008,0-0.018-0.001-0.025-0.001
	c-4.332,0-7.846,3.513-7.846,7.846c0,4.332,3.514,7.845,7.846,7.845h89.385c4.164,0,7.834-2.118,9.992-5.334
	C735.378,188.511,735.382,188.506,735.384,188.501"/>
<path fill="#DBD9D8" d="M197.353,161.404c0.08-0.118,0.154-0.24,0.226-0.364c0.015-0.026,0.03-0.052,0.045-0.077
	c0.072-0.13,0.143-0.261,0.207-0.396c0.001-0.001,0.001-0.002,0.001-0.003c0.063-0.131,0.121-0.265,0.175-0.401
	c0.012-0.03,0.023-0.059,0.034-0.088c0.054-0.14,0.104-0.28,0.149-0.423c0-0.002,0-0.003,0.001-0.005
	c0.043-0.139,0.08-0.281,0.114-0.425c0.008-0.034,0.016-0.068,0.024-0.102c0.032-0.146,0.062-0.293,0.085-0.444v-0.005
	c0.022-0.147,0.038-0.295,0.051-0.445c0.003-0.037,0.006-0.075,0.008-0.113c0.011-0.152,0.018-0.306,0.018-0.461
	c0-3.731-3.025-6.756-6.756-6.756c-0.278,0-0.553,0.019-0.822,0.052c-1.525-3.069-4.691-5.18-8.351-5.18
	c-0.186,0-0.372,0.006-0.556,0.017c-0.087,0.006-0.173,0.015-0.26,0.023c-0.095,0.009-0.19,0.015-0.284,0.027
	c-0.108,0.012-0.214,0.03-0.321,0.047c-0.071,0.01-0.143,0.019-0.213,0.032c-0.113,0.02-0.224,0.045-0.335,0.069
	c-0.055,0.012-0.11,0.021-0.164,0.033l-0.006,0.003c-0.027,0.006-0.054,0.011-0.081,0.018c-0.107-3.739-1.758-7.09-4.336-9.442
	c-0.144-0.13-0.29-0.258-0.439-0.382c-0.007-0.006-0.014-0.012-0.021-0.019c-0.143-0.119-0.289-0.234-0.438-0.348
	c-0.013-0.01-0.027-0.021-0.041-0.032c-0.143-0.108-0.288-0.213-0.435-0.315l-0.064-0.044c-0.141-0.098-0.285-0.192-0.43-0.283
	c-0.029-0.019-0.058-0.038-0.088-0.056c-0.139-0.087-0.28-0.171-0.424-0.252c-0.036-0.022-0.073-0.042-0.111-0.063
	c-0.137-0.077-0.276-0.151-0.416-0.223c-0.046-0.024-0.091-0.046-0.137-0.069c-0.134-0.067-0.27-0.131-0.407-0.194
	c-0.054-0.025-0.109-0.049-0.163-0.072c-0.131-0.058-0.263-0.114-0.396-0.168c-0.063-0.025-0.126-0.049-0.19-0.073
	c-0.127-0.049-0.255-0.098-0.385-0.143c-0.071-0.024-0.144-0.048-0.215-0.071c-0.124-0.041-0.248-0.081-0.374-0.118
	c-0.08-0.025-0.162-0.046-0.243-0.069c-0.119-0.032-0.238-0.065-0.358-0.095c-0.09-0.022-0.182-0.041-0.274-0.062
	c-0.113-0.025-0.226-0.052-0.341-0.074c-0.101-0.02-0.204-0.036-0.307-0.054c-0.106-0.018-0.212-0.038-0.319-0.054
	c-0.116-0.016-0.233-0.029-0.349-0.044c-0.097-0.01-0.192-0.024-0.289-0.034c-0.137-0.013-0.276-0.021-0.414-0.031
	c-0.078-0.005-0.156-0.013-0.234-0.017c-0.219-0.01-0.438-0.016-0.658-0.016c-7.283,0-13.199,5.853-13.3,13.112
	c-0.915-0.3-1.891-0.464-2.905-0.464c-0.185,0-0.369,0.007-0.551,0.018c-0.057,0.003-0.113,0.009-0.169,0.013
	c-0.128,0.009-0.256,0.021-0.383,0.037c-0.061,0.006-0.121,0.014-0.182,0.022c-0.13,0.019-0.259,0.039-0.388,0.063
	c-0.048,0.008-0.098,0.016-0.147,0.026c-0.176,0.035-0.351,0.074-0.523,0.119c-0.014,0.003-0.026,0.007-0.039,0.011
	c-0.16,0.042-0.317,0.089-0.473,0.139c-0.048,0.015-0.094,0.032-0.141,0.047c-0.125,0.042-0.248,0.087-0.37,0.134
	c-0.047,0.019-0.095,0.037-0.142,0.057c-0.134,0.054-0.267,0.112-0.397,0.173c-0.028,0.012-0.057,0.024-0.084,0.037
	c-0.165,0.078-0.327,0.16-0.485,0.248c-0.006,0.003-0.013,0.007-0.018,0.01c-0.149,0.082-0.294,0.168-0.437,0.257
	c-0.032,0.021-0.063,0.04-0.094,0.062c-0.122,0.078-0.242,0.159-0.361,0.242l-0.086,0.062c-0.14,0.102-0.278,0.207-0.412,0.316
	c-0.001,0.001-0.002,0.001-0.002,0.002c-0.283,0.23-0.551,0.479-0.805,0.74c-0.019,0.019-0.037,0.038-0.055,0.058
	c-0.11,0.114-0.216,0.232-0.32,0.352c-0.014,0.017-0.029,0.034-0.044,0.051c-0.237,0.28-0.459,0.573-0.663,0.881
	c0,0-0.001,0.001-0.001,0.002v-0.001c-0.977,1.475-1.548,3.242-1.548,5.144c0,0.169,0.005,0.337,0.014,0.505
	c-0.005,0-0.009-0.001-0.014-0.001c-2.434,0-4.407,1.974-4.407,4.408s1.973,4.407,4.407,4.407h50.214
	c2.339,0,4.401-1.19,5.614-2.996C197.35,161.41,197.352,161.407,197.353,161.404"/>
<path fill="#EEEEED" d="M195.99,162.767c0.08-0.119,0.154-0.241,0.226-0.365c0.015-0.026,0.03-0.051,0.045-0.077
	c0.072-0.129,0.143-0.261,0.207-0.395c0.001-0.001,0.001-0.002,0.001-0.004c0.063-0.131,0.121-0.264,0.175-0.401
	c0.012-0.029,0.023-0.059,0.034-0.088c0.054-0.139,0.104-0.279,0.149-0.423c0-0.001,0-0.003,0.001-0.004
	c0.043-0.139,0.08-0.282,0.114-0.426c0.008-0.033,0.016-0.067,0.024-0.101c0.032-0.147,0.062-0.294,0.085-0.444v-0.006
	c0.022-0.147,0.038-0.294,0.051-0.444c0.003-0.038,0.006-0.076,0.008-0.114c0.011-0.152,0.018-0.306,0.018-0.46
	c0-3.731-3.025-6.757-6.756-6.757c-0.278,0-0.553,0.02-0.822,0.052c-1.525-3.069-4.691-5.18-8.351-5.18
	c-0.186,0-0.372,0.007-0.556,0.018c-0.087,0.005-0.173,0.015-0.26,0.023c-0.095,0.008-0.19,0.015-0.284,0.026
	c-0.108,0.012-0.214,0.031-0.321,0.048c-0.071,0.01-0.143,0.019-0.213,0.032c-0.113,0.019-0.224,0.045-0.335,0.068
	c-0.055,0.012-0.11,0.022-0.164,0.034c-0.002,0.001-0.004,0.002-0.006,0.002c-0.027,0.007-0.054,0.011-0.081,0.018
	c-0.107-3.739-1.758-7.089-4.336-9.442c-0.144-0.13-0.29-0.257-0.439-0.382c-0.007-0.006-0.014-0.012-0.021-0.018
	c-0.143-0.119-0.289-0.235-0.438-0.349c-0.013-0.01-0.027-0.021-0.041-0.031c-0.143-0.108-0.288-0.213-0.435-0.315
	c-0.021-0.016-0.043-0.031-0.064-0.045c-0.141-0.097-0.285-0.192-0.43-0.283c-0.029-0.019-0.058-0.038-0.088-0.055
	c-0.139-0.087-0.28-0.171-0.424-0.253c-0.036-0.021-0.073-0.042-0.111-0.063c-0.137-0.077-0.276-0.151-0.416-0.222
	c-0.046-0.024-0.091-0.046-0.137-0.07c-0.134-0.066-0.27-0.131-0.407-0.194c-0.054-0.024-0.109-0.048-0.163-0.072
	c-0.131-0.058-0.263-0.114-0.396-0.168c-0.063-0.024-0.126-0.049-0.19-0.073c-0.127-0.049-0.255-0.097-0.385-0.142
	c-0.071-0.025-0.144-0.048-0.215-0.072c-0.124-0.04-0.248-0.081-0.374-0.118c-0.08-0.024-0.162-0.045-0.243-0.068
	c-0.119-0.033-0.238-0.066-0.358-0.095c-0.09-0.023-0.182-0.042-0.274-0.063c-0.113-0.025-0.226-0.051-0.341-0.073
	c-0.101-0.021-0.204-0.037-0.307-0.055c-0.106-0.017-0.212-0.037-0.319-0.053c-0.116-0.017-0.233-0.03-0.349-0.044
	c-0.097-0.011-0.192-0.025-0.289-0.034c-0.137-0.013-0.276-0.022-0.414-0.031c-0.078-0.005-0.156-0.013-0.234-0.017
	c-0.219-0.01-0.438-0.016-0.658-0.016c-7.283,0-13.199,5.852-13.3,13.111c-0.915-0.299-1.891-0.464-2.905-0.464
	c-0.185,0-0.369,0.008-0.551,0.018c-0.057,0.004-0.113,0.009-0.169,0.014c-0.128,0.009-0.256,0.021-0.383,0.036
	c-0.061,0.007-0.121,0.014-0.182,0.023c-0.13,0.018-0.259,0.039-0.388,0.063c-0.048,0.008-0.098,0.016-0.147,0.026
	c-0.176,0.034-0.351,0.073-0.523,0.118c-0.014,0.004-0.026,0.008-0.039,0.011c-0.16,0.042-0.317,0.089-0.473,0.139
	c-0.048,0.015-0.094,0.032-0.141,0.047c-0.125,0.043-0.248,0.087-0.37,0.135c-0.047,0.019-0.095,0.036-0.142,0.056
	c-0.134,0.055-0.267,0.112-0.397,0.173c-0.028,0.012-0.057,0.025-0.084,0.038c-0.165,0.078-0.327,0.16-0.485,0.247
	c-0.006,0.003-0.013,0.007-0.018,0.011c-0.149,0.082-0.294,0.168-0.437,0.256c-0.032,0.021-0.063,0.041-0.094,0.061
	c-0.122,0.078-0.242,0.159-0.361,0.243l-0.086,0.062c-0.14,0.101-0.278,0.206-0.412,0.315c-0.001,0.001-0.002,0.002-0.002,0.002
	c-0.283,0.231-0.551,0.479-0.805,0.74c-0.019,0.02-0.037,0.039-0.055,0.058c-0.11,0.115-0.216,0.232-0.32,0.352
	c-0.014,0.018-0.029,0.035-0.044,0.051c-0.237,0.28-0.459,0.574-0.663,0.881c0,0.001-0.001,0.001-0.001,0.002
	c-0.977,1.474-1.548,3.241-1.548,5.143c0,0.17,0.005,0.338,0.014,0.505h-0.014c-2.434,0-4.407,1.973-4.407,4.408
	c0,2.433,1.973,4.407,4.407,4.407h50.214c2.339,0,4.401-1.19,5.614-2.997v0.001C195.987,162.772,195.989,162.769,195.99,162.767"/>

<line fill="none" stroke="#F04844" stroke-width="2" stroke-linecap="round" stroke-linejoin="round" stroke-miterlimit="10" x1="401.414" y1="84.958" x2="401.414" y2="62.649"/>
<path fill="#F04844" d="M401.414,63.263c0,0,4.928-1.633,8.228,0.429c3.299,2.061,8.798,2.833,13.564-0.16
	c0,0-1.774,3.676-2.262,4.283c0,0,1.986,0.97,3.086,0.728c0,0-4.491,5.578-14.298,2.911c-9.807-2.668-8.707,0.722-8.707,0.722
	L401.414,63.263z"/>
<path fill="#00994C" d="M83.94,378.257c1.202-0.729,3.159-1.221,3.535,0.174c0.169,0.625-0.157,1.279-0.471,1.85
	c-1.616,2.932-3.232,5.863-4.849,8.795c3.453-3.17,6.32-7,9.756-10.189s7.698-5.791,12.23-5.707c1.47,0.027,2.989,0.369,4.123,1.34
	c1.526,1.309,2.094,3.563,1.935,5.652c-0.158,2.09-0.94,4.074-1.712,6.02c5.806-8.426,13.132-15.686,21.455-21.266
	c2.205-1.477,4.568-2.869,7.149-3.141c2.581-0.27,5.433,0.855,6.542,3.311c0.734,1.627,0.61,3.545,0.327,5.338
	c-0.802,5.078-2.733,9.889-4.648,14.641c1.79-1.557,3.782-2.854,5.899-3.84c0.725-0.338,1.609-0.627,2.256-0.164
	c0.924,0.666,0.568,2.18,0.115,3.277c-1.068,2.592-2.137,5.184-3.205,7.775c9.724-7.836,20.279-16.01,32.4-16.66
	c2.489-0.135,5.181,0.143,7.039,1.859c2.112,1.953,2.587,5.344,1.906,8.258c-0.68,2.914-2.32,5.475-3.928,7.963
	c2.827-1.576,5.796-2.861,8.851-3.826c1.738-0.549,3.575-0.998,5.338-0.613c1.763,0.383,3.422,1.813,3.592,3.711
	c0.095,1.066-0.277,2.127-0.699,3.111c-3.079,7.201-9.044,12.75-15.714,16.326s-14.046,5.352-21.397,6.613
	c-30.093,5.172-60.948,2.25-90.399-5.225c-4.215-1.07-7.165-3.373-7.853-8.172C63.028,402.085,65.855,389.25,83.94,378.257"/>
<path fill="#00994C" d="M178.055,401.042c-2.229-0.219-4.638,1.414-6.648,2.775c1.962-4.271,5.964-10.771,2.376-14.334
	c-4.332-4.303-10.225,3.412-13.337,6.479c-3.105-8.146-16.995,2.01-21.535,5.912c-1.019-6.504-8.703-2.117-12.814,0.979
	c2.638-5.949,8.297-19.271,0.394-20.82c-3.594-0.705-6.473,3.719-8.019,6.252c-1.134,1.855-2.227,3.896-3.129,6.018
	c-0.575-1.602-2.016-2.631-4.783-2.281c-5.355,0.684-9.103,5.158-12.32,9.434c1.652-5.133,1.615-11.951-4.976-10.803
	c-7.309,1.273-10.841,9.773-15.27,15.373c0.347-1.074,0.555-2.191,0.559-3.354c0.003-1.166-0.227-4.41-1.479-5.135
	c-1.883-1.092-5.287,1.717-6.454,2.873c-2.815,2.791-5.653,7.479-6.681,12.1c-0.283-0.436-0.531-0.896-0.687-1.416
	c-0.094-0.313-0.646-0.26-0.655,0.076c-0.03,1.021,0.407,1.918,1.09,2.717c-0.258,1.832-0.207,3.625,0.292,5.248
	c0.128,0.416,0.749,0.162,0.626-0.25c-0.404-1.355-0.459-2.83-0.27-4.334c1.617,1.482,3.98,2.59,5.394,3.488
	c0.388,0.248,0.847-0.285,0.459-0.57c-0.446-0.328-0.934-0.645-1.43-0.961c1.929,0.707,4.111,1.059,5.754,1.539
	c6.189,1.809,12.484,3.25,18.847,4.299c11.588,1.91,23.287,2.256,35.009,2.109c10.898-0.137,21.914-0.854,32.507-3.568
	c7.03-1.805,18.372-4.428,19.8-13.002C181.053,405.615,181.185,401.349,178.055,401.042"/>
<path fill="#007940" d="M767.125,376.074c-1.479-3.531-5.539-2.02-6.902-5.02c-1.541-3.391-2.295-7.461-6.85-8.025
	c-2.246-0.277-4.105,0.521-5.385,1.941c-0.568-4.203-3.227-7.734-8.262-7.688c-8.514,0.08-10.1,8.67-16.096,12.412
	c-0.213-5.518-0.201-15.684-6.865-16.33c-6.488-0.629-9.479,7.002-10.947,12.455c-2.611-4.66-6.758-8.719-12.475-6.154
	c-5.752,2.58-6.301,7.482-7.5,12.879c-3.973-2.883-8.465-6.342-13.623-5.52c-3.688,0.588-7.602,3.207-8.701,6.896
	c-1.07,3.584,0.221,7.654,1.488,11.025c1.035,2.756,2.563,7.049,5.844,7.727c0.676,0.141,0.965-0.891,0.285-1.037
	c-1.779-0.381-3.285-2.254-4.422-4.654c0.039-0.018,0.074-0.02,0.113-0.041c4.082-2.523,11.355,0.436,15.729,1.375
	c6.17,1.322,12.32,2.463,18.607,3.053c13.234,1.244,26.871,1.615,40.154,1.121c7.055-0.262,20.004,0.168,24.648-6.65
	C767.73,383.25,768.343,378.99,767.125,376.074"/>
<path fill="#00994C" d="M720.759,401.289c-2.574-2.617-6.434-3.641-10.104-3.537c-3.67,0.102-7.23,1.203-10.734,2.295
	c1.098-1.432,2.729-2.336,4.127-3.477c1.396-1.141,2.656-2.758,2.502-4.555c-0.201-2.367-2.719-3.846-5.055-4.277
	c-5.072-0.939-10.17,1.096-14.93,3.088c1.506-1.469,3.033-2.969,4.021-4.824c0.988-1.854,1.369-4.156,0.484-6.063
	c-1.609-3.467-6.348-4.023-10.094-3.271c-5.074,1.02-9.816,3.576-13.51,7.199c-0.223,0.059-0.445,0.111-0.668,0.176
	c0.66-1.121,1.174-2.305,1.377-3.588c0.398-2.531-0.883-5.523-3.375-6.117c-1.301-0.311-2.656,0.068-3.918,0.506
	c-4.045,1.4-7.855,3.455-11.275,6.027c0.416-1.094,0.773-2.207,1.031-3.352c0.271-1.197,0.428-2.492-0.076-3.641
	c-0.758-1.732-2.875-2.668-4.83-2.643c-1.957,0.027-3.783,0.828-5.494,1.699c-6.459,3.279-12.217,7.764-16.863,13.127
	c0.643-1.271,1.297-2.57,1.48-3.979c0.188-1.41-0.17-2.973-1.279-3.953c-0.824-0.729-1.959-1.051-3.068-1.158
	c-3.416-0.332-6.715,1.176-9.408,3.131c-1.146,0.832-2.217,1.756-3.281,2.686c0.357-0.826,0.631-1.686,0.775-2.594
	c0.65-4.02-3.006-7.006-6.887-6.465c-4.787,0.668-8.912,5.328-10.893,9.463c-1.699,3.553-3.068,8.246-1.953,12.213
	c-0.055,0.408-0.064,0.754-0.035,1.016c0.367,3.299,2.52,5.039,5.666,6.021c21.02,6.557,43.139,10.352,65.027,9.199
	c2.611,0.828,5.262,1.547,7.91,2.182c4.836,1.158,9.711,2.232,14.67,2.604c11.83,0.881,23.58-2.285,34.814-6.098
	c2.43-0.824,5.23-2.117,5.625-4.652C722.794,404.056,721.906,402.457,720.759,401.289"/>
<path fill="#007940" d="M704.027,402.626c-3.816-1.549-8.574-0.533-12.521,0.588c2.385-2.561,7.025-6.879,3.375-9.197
	c-2.582-1.639-5.971,0.094-8.379,1.256c-3.039,1.463-5.826,3.236-8.461,5.27c1.162-1.666,2.215-3.404,2.975-5.297
	c0.793-1.969,1.672-4.768,1.082-6.91c-0.77-2.797-3.617-1.412-5.627-0.293c0.639-1.393,1.252-3.086,0.154-4.176
	c-1.41-1.402-4.344-0.168-5.896,0.299c-3.613,1.09-7.42,2.768-10.422,5.268c0.252-0.994,0.34-2.008,0.164-3.01
	c-0.355-2.006-1.766-3.48-3.879-3.32c-5.725,0.438-9.877,5.223-13.777,9.152c1.469-2.74,2.936-5.887,0.965-8.531
	c-1.98-2.656-4.813-1.082-6.928,0.693c0.418-1.172,0.652-2.467-0.041-3.338c-1.285-1.619-4.313,0.016-5.631,0.758
	c-3.193,1.803-5.66,4.598-8.258,7.127c-0.99,0.963-2.164,1.941-3.117,3.053c0.854-3.408,1.354-8.094-2.189-8.764
	c-2.137-0.402-3.756,1.51-4.957,3.912c-0.188-0.523-0.555-0.916-1.195-1.08c-1.434-0.367-3.48,1.221-4.521,2
	c-1.625,1.221-2.564,2.701-3.4,4.447c-0.977-2.953-2.17-5.896-4.953-7.646c-2.199-1.385-4.73-0.504-6.035,1.664
	c-1.816,3.029-1.637,7.521-0.643,11.363c-0.01,0.123,0.02,0.246,0.09,0.346c0.385,1.396,0.869,2.699,1.406,3.797
	c0.145,0.295,0.566,0.037,0.436-0.254c-0.465-1.037-0.848-2.16-1.156-3.318c2.82,0.201,5.689,1.531,8.367,2.334
	c2.814,0.844,5.646,1.629,8.494,2.355c5.666,1.445,11.367,2.758,17.053,4.121c11.313,2.709,22.688,5.123,34.307,6.023
	c10.939,0.848,21.746,0.703,32.48-1.738c3.725-0.848,9.588-1.555,12.123-4.762C706.8,405.187,705.791,403.343,704.027,402.626"/>
<rect x="547.351" y="374.664" fill="#934920" width="1.912" height="10.002"/>
<polygon fill="#00994C" points="535.359,377.955 561.255,377.955 548.308,352.349 "/>
<polygon fill="#00733B" points="548.308,352.351 548.308,377.955 561.255,377.955 "/>
<rect x="323.598" y="404.96" fill="#934920" width="2.387" height="12.482"/>
<polygon fill="#00994C" points="308.635,409.066 340.948,409.066 324.792,377.119 "/>
<polygon fill="#00733B" points="324.792,377.119 324.792,409.066 340.949,409.066 "/>
<rect x="178.125" y="313.976" fill="#934920" width="1.913" height="10.002"/>
<polygon fill="#00994C" points="166.134,317.265 192.029,317.265 179.081,291.662 "/>
<polygon fill="#00733B" points="179.082,291.663 179.082,317.265 192.029,317.265 "/>
<rect x="607.085" y="345.728" fill="#934920" width="1.912" height="12.773"/>
<polygon fill="#00994C" points="595.093,349.929 620.988,349.929 608.041,317.228 "/>
<polygon fill="#00733B" points="608.041,317.228 608.041,349.929 620.988,349.929 "/>
<rect x="485.824" y="260.708" fill="#934920" width="1.559" height="10.414"/>
<polygon fill="#00994C" points="476.046,264.133 497.16,264.133 486.603,237.473 "/>
<polygon fill="#00733B" points="486.603,237.473 486.603,264.133 497.16,264.133 "/>
<rect x="374.378" y="200.479" fill="#934920" width="1.375" height="9.182"/>
<polygon fill="#00994C" points="365.76,203.499 384.372,203.499 375.066,179.996 "/>
<polygon fill="#00733B" points="375.066,179.996 375.066,203.499 384.372,203.499 "/>
<rect x="433.003" y="157.399" fill="#934920" width="1.121" height="7.479"/>
<polygon fill="#00994C" points="425.982,159.859 441.146,159.859 433.562,140.711 "/>
<polygon fill="#00733B" points="433.562,140.71 433.562,159.858 441.146,159.858 "/>
<rect x="365.738" y="124.407" fill="#934920" width="0.753" height="5.031"/>
<polygon fill="#00994C" points="361.014,126.061 371.214,126.061 366.114,113.18 "/>
<polygon fill="#00733B" points="366.114,113.18 366.114,126.061 371.214,126.061 "/>
<rect x="421.294" y="90.327" fill="#934920" width="0.752" height="5.032"/>
<polygon fill="#00994C" points="416.57,91.982 426.771,91.982 421.669,79.101 "/>
<polygon fill="#00733B" points="421.669,79.101 421.669,91.982 426.771,91.982 "/>
<path fill="#934920" d="M94.141,322c0.241,0.35,1.932,49.34,1.842,55.807c-0.111,8.02-0.216,16.354-1.276,24.275
	c-0.648,4.838-1.461,9.75-1.556,14.67c-0.063,3.195,0.045,5.943,2.846,6.65c5.044,1.275,16.799-1.596,17.604-9.607
	c0.265-2.641-0.369-5.58-0.731-8.146c-0.679-4.826-1.45-9.631-2.113-14.459c-0.452-3.291-1.176-13.469-0.859-15.273
	c1.096-6.227,2.314-51.896,2.42-57.941"/>
<rect fill="none" width="841.89" height="595.277"/>
<g>
	<g>
		<defs>
			<path id="SVGID_1_" d="M94.141,322c0.241,0.35,1.932,49.342,1.842,55.807c-0.111,8.02-0.216,16.354-1.277,24.275
				c-0.647,4.838-1.46,9.752-1.556,14.67c-0.062,3.197,0.046,5.945,2.847,6.652c5.044,1.273,16.799-1.596,17.604-9.607
				c0.264-2.641-0.369-5.58-0.731-8.146c-0.679-4.826-1.45-9.633-2.113-14.461c-0.452-3.289-1.177-13.469-0.859-15.273
				c1.095-6.225,2.313-51.895,2.42-57.941L94.141,322z"/>
		</defs>
		<clipPath id="SVGID_2_">
			<use xlink:href="#SVGID_1_"  overflow="visible"/>
		</clipPath>
		<path clip-path="url(#SVGID_2_)" fill="#6E2D1D" d="M115.431,345.412c0,0-16.646,4.496-26.738,14.99
			c-10.092,10.488,2.151-28.254,2.151-28.254h23.731L115.431,345.412z"/>
	</g>
</g>
<path fill="#00733B" d="M149.148,313.044c1.869,4.063,2.49,8.545,1.526,12.98c-2.661,12.242-16.42,19.523-30.725,16.262
	c-4.741-1.082-8.951-3.189-12.359-5.961c-5.927,5.455-15.146,7.91-24.607,5.752c-14.312-3.266-23.748-15.838-21.087-28.08
	c0.319-1.473,0.798-2.869,1.422-4.188c-12.296-4.365-20.003-15.838-17.566-27.052c2.661-12.242,16.419-19.525,30.725-16.261
	c0.948,0.216,1.88,0.474,2.782,0.77l0.028-0.129c2.66-12.242,16.412-19.526,30.717-16.263c11.148,2.543,19.335,10.731,21.159,20.016
	c2.209,0.001,4.474,0.256,6.753,0.775c14.306,3.264,23.749,15.838,21.088,28.08C157.767,305.445,154.127,310.068,149.148,313.044"/>
<path fill="#00994C" d="M102.617,331.126c1.185,2.598,1.573,5.459,0.957,8.295c-1.705,7.846-10.442,12.521-19.511,10.453
	c-3.005-0.688-5.668-2.023-7.826-3.801c-3.77,3.496-9.627,5.084-15.63,3.715c-9.07-2.07-15.044-10.104-13.341-17.941
	c0.205-0.939,0.515-1.838,0.913-2.68c-7.798-2.773-12.668-10.115-11.109-17.291c1.703-7.838,10.434-12.523,19.511-10.453
	c0.6,0.137,1.189,0.299,1.764,0.49l0.018-0.084c1.704-7.837,10.44-12.516,19.51-10.446c7.061,1.61,12.247,6.839,13.394,12.778
	c1.404,0.002,2.839,0.158,4.287,0.488c9.07,2.07,15.043,10.104,13.339,17.947C108.1,326.248,105.786,329.21,102.617,331.126"/>
<path fill="#00994C" d="M149.056,276.539c0.931,2.042,1.237,4.292,0.752,6.521c-1.34,6.167-8.208,9.845-15.338,8.218
	c-2.362-0.539-4.455-1.591-6.152-2.988c-2.964,2.749-7.569,3.996-12.287,2.92c-7.13-1.627-11.827-7.942-10.488-14.104
	c0.161-0.74,0.405-1.445,0.718-2.107c-6.131-2.181-9.959-7.952-8.733-13.592c1.339-6.162,8.202-9.846,15.338-8.218
	c0.472,0.108,0.935,0.235,1.386,0.386l0.015-0.066c1.339-6.161,8.207-9.839,15.337-8.212c5.551,1.265,9.628,5.376,10.529,10.044
	c1.104,0.002,2.233,0.127,3.371,0.386c7.13,1.626,11.826,7.942,10.486,14.109C153.366,272.704,151.547,275.033,149.056,276.539"/>
<rect x="242.101" y="338.169" fill="#934920" width="3.256" height="17.029"/>
<path fill="#00733B" d="M255.885,325.689c0,7.084-5.442,12.826-12.156,12.826c-6.713,0-12.156-5.742-12.156-12.826
	s5.443-12.826,12.156-12.826C250.443,312.863,255.885,318.605,255.885,325.689"/>
<path fill="#00994C" d="M254.954,324.976c0,6.689-5.234,12.113-11.69,12.113s-11.69-5.424-11.69-12.113s5.234-12.113,11.69-12.113
	S254.954,318.287,254.954,324.976"/>
<rect x="325.29" y="290.773" fill="#934920" width="2.03" height="10.615"/>
<path fill="#00733B" d="M333.882,282.993c0,4.416-3.393,7.995-7.577,7.995c-4.185,0-7.577-3.579-7.577-7.995
	c0-4.415,3.392-7.994,7.577-7.994C330.489,274.999,333.882,278.578,333.882,282.993"/>
<path fill="#00994C" d="M333.302,282.549c0,4.17-3.263,7.551-7.287,7.551s-7.286-3.381-7.286-7.551c0-4.171,3.262-7.551,7.286-7.551
	S333.302,278.378,333.302,282.549"/>
<rect x="453.744" y="360.269" fill="#934920" width="2.301" height="12.033"/>
<path fill="#00733B" d="M463.484,351.453c0,5.004-3.846,9.063-8.59,9.063c-4.742,0-8.59-4.059-8.59-9.063s3.848-9.064,8.59-9.064
	C459.638,342.388,463.484,346.447,463.484,351.453"/>
<path fill="#00994C" d="M462.826,350.949c0,4.729-3.697,8.559-8.26,8.559s-8.262-3.83-8.262-8.559s3.699-8.561,8.262-8.561
	S462.826,346.22,462.826,350.949"/>
<rect x="508.097" y="211.73" fill="#934920" width="2.566" height="13.424"/>
<path fill="#00733B" d="M518.96,201.893c0,5.584-4.289,10.11-9.58,10.11c-5.293,0-9.582-4.526-9.582-10.11s4.289-10.11,9.582-10.11
	C514.671,191.783,518.96,196.309,518.96,201.893"/>
<path fill="#00994C" d="M518.228,201.332c0,5.273-4.127,9.548-9.215,9.548c-5.09,0-9.215-4.275-9.215-9.548s4.125-9.549,9.215-9.549
	C514.101,191.783,518.228,196.059,518.228,201.332"/>
<rect x="285.106" y="196.628" fill="#934920" width="2.195" height="11.481"/>
<path fill="#00733B" d="M294.398,188.213c0,4.776-3.669,8.647-8.195,8.647c-4.526,0-8.195-3.871-8.195-8.647
	c0-4.775,3.669-8.646,8.195-8.646C290.729,179.567,294.398,183.438,294.398,188.213"/>
<path fill="#00994C" d="M293.771,187.734c0,4.51-3.528,8.166-7.881,8.166c-4.352,0-7.881-3.656-7.881-8.166
	c0-4.511,3.529-8.167,7.881-8.167C290.243,179.567,293.771,183.223,293.771,187.734"/>
<rect x="364.851" y="165.116" fill="#934920" width="1.503" height="7.861"/>
<path fill="#00733B" d="M371.214,159.354c0,3.271-2.513,5.921-5.612,5.921s-5.611-2.65-5.611-5.921c0-3.27,2.512-5.921,5.611-5.921
	S371.214,156.084,371.214,159.354"/>
<path fill="#00994C" d="M370.784,159.025c0,3.089-2.416,5.593-5.396,5.593c-2.981,0-5.397-2.504-5.397-5.593
	c0-3.088,2.416-5.592,5.397-5.592C368.368,153.433,370.784,155.937,370.784,159.025"/>
<path fill="#008E47" d="M108.324,410.902c1.162-0.791,3.092-1.383,3.539-0.012c0.201,0.617-0.09,1.285-0.374,1.871
	c-1.462,3.014-2.925,6.023-4.387,9.037c3.285-3.346,5.949-7.318,9.215-10.682c3.266-3.365,7.387-6.186,11.917-6.336
	c1.47-0.049,3.005,0.215,4.188,1.125c1.591,1.227,2.276,3.447,2.225,5.545c-0.05,2.096-0.728,4.117-1.398,6.098
	c5.361-8.713,12.302-16.344,20.325-22.346c2.124-1.59,4.412-3.104,6.976-3.508c2.564-0.402,5.47,0.572,6.704,2.967
	c0.818,1.586,0.793,3.508,0.603,5.313c-0.537,5.113-2.216,10.018-3.882,14.863c1.706-1.648,3.628-3.049,5.692-4.143
	c0.706-0.375,1.574-0.711,2.244-0.279c0.957,0.615,0.681,2.145,0.285,3.266c-0.933,2.645-1.865,5.287-2.798,7.934
	c9.305-8.33,19.422-17.041,31.493-18.316c2.479-0.264,5.182-0.129,7.127,1.49c2.209,1.842,2.859,5.201,2.331,8.146
	c-0.528,2.945-2.033,5.588-3.51,8.154c2.741-1.719,5.64-3.156,8.64-4.277c1.708-0.641,3.519-1.182,5.3-0.891
	c1.779,0.291,3.511,1.633,3.779,3.52c0.151,1.063-0.167,2.139-0.537,3.146c-2.701,7.35-8.371,13.199-14.846,17.117
	c-6.476,3.916-13.75,6.072-21.025,7.713c-29.785,6.725-60.749,5.408-90.549-0.531c-4.265-0.85-7.33-2.996-8.266-7.754
	C88.676,435.783,90.833,422.816,108.324,410.902"/>
<path fill="#00994C" d="M203.494,428.777c-2.238-0.104-4.559,1.65-6.495,3.117c1.738-4.367,5.398-11.064,1.629-14.438
	c-4.549-4.072-10.034,3.938-12.983,7.162c-3.523-7.977-16.868,2.889-21.199,7.02c-1.355-6.441-8.802-1.664-12.745,1.645
	c2.325-6.08,7.286-19.68-0.687-20.816c-3.625-0.516-6.272,4.051-7.685,6.662c-1.035,1.912-2.021,4.006-2.813,6.172
	c-0.656-1.572-2.148-2.525-4.894-2.031c-5.312,0.957-8.823,5.621-11.815,10.059c1.385-5.211,0.993-12.02-5.528-10.529
	c-7.234,1.652-10.32,10.322-14.453,16.145c0.291-1.092,0.44-2.219,0.384-3.377c-0.058-1.166-0.456-4.393-1.743-5.053
	c-1.937-0.99-5.191,1.988-6.296,3.203c-2.667,2.936-5.258,7.764-6.046,12.432c-0.304-0.422-0.576-0.867-0.759-1.379
	c-0.11-0.309-0.658-0.227-0.65,0.109c0.023,1.021,0.506,1.896,1.229,2.656c-0.163,1.844-0.019,3.631,0.565,5.225
	c0.149,0.41,0.756,0.125,0.611-0.281c-0.473-1.332-0.605-2.803-0.494-4.313c1.692,1.396,4.109,2.379,5.567,3.205
	c0.402,0.225,0.832-0.33,0.43-0.594c-0.463-0.307-0.966-0.598-1.479-0.889c1.964,0.607,4.161,0.846,5.827,1.24
	c6.274,1.486,12.635,2.598,19.044,3.316c11.671,1.307,23.373,1.045,35.072,0.291c10.876-0.701,21.84-1.986,32.277-5.25
	c6.927-2.164,18.119-5.373,19.1-14.012C206.724,433.185,206.636,428.919,203.494,428.777"/>
<rect fill="none" width="841.89" height="595.277"/>
</svg>
