<?xml version="1.0" encoding="utf-8"?>
<!-- Generator: Adobe Illustrator 16.0.0, SVG Export Plug-In . SVG Version: 6.00 Build 0)  -->
<!DOCTYPE svg PUBLIC "-//W3C//DTD SVG 1.1//EN" "http://www.w3.org/Graphics/SVG/1.1/DTD/svg11.dtd">
<svg version="1.1" id="Layer_1" xmlns="http://www.w3.org/2000/svg" xmlns:xlink="http://www.w3.org/1999/xlink" x="0px" y="0px"
	 width="97.064px" height="216.035px" viewBox="0 108.535 97.064 216.035" enable-background="new 0 108.535 97.064 216.035"
	 xml:space="preserve">
<path id="Path_1515" fill="#007F2C" d="M65.508,137.433c-0.142,0.016-0.363,0.032-0.63,0.063c-0.315,0.441-0.646,0.867-0.978,1.293
	c0.127-0.378,0.236-0.772,0.348-1.166c-1.064,0.213-2.02,0.793-2.7,1.639c-0.757,0.977-2.821,0.757-1.513-1.2
	c1.025-1.5,3.326-1.955,4.318-2.081c0.073-0.014,0.147-0.019,0.222-0.016c0.298-0.018,0.595,0.036,0.866,0.158
	c0.11,0.046,0.211,0.11,0.301,0.189c0.289,0.162,0.393,0.527,0.23,0.816C65.877,137.299,65.703,137.413,65.508,137.433z"/>
<path id="Path_1521" fill="#007F2C" d="M72.27,147.849c-0.004,3.063-2.485,5.544-5.547,5.548c-0.458,0-0.914-0.059-1.356-0.173
	c-2.971-0.748-4.772-3.762-4.024-6.732s3.762-4.772,6.732-4.024c2.465,0.621,4.193,2.839,4.191,5.381H72.27z"/>
<path id="Path_1494" fill="#007F2C" d="M63.521,126.654l0.016,0.016c-1.722-0.573-3.515-0.902-5.328-0.977
	c-3.972-0.2-9.347,0.6-15.967,4.067v-0.016c4.887-2.876,10.489-4.309,16.156-4.13C60.147,125.708,61.873,126.058,63.521,126.654z"/>
<path id="Path_1512" fill="#007F2C" d="M63.538,126.669c-1.722-0.573-3.515-0.902-5.328-0.977c0.06-0.033,0.124-0.06,0.189-0.079
	c1.75,0.094,3.476,0.445,5.123,1.04L63.538,126.669z"/>
<path id="Path_1516" fill="#007F2C" d="M64.578,135.968c-0.079,0.567-0.2,1.119-0.331,1.655c-1.064,0.213-2.021,0.793-2.7,1.639
	c-0.757,0.977-2.821,0.757-1.513-1.2c1.024-1.5,3.325-1.955,4.319-2.081C64.428,135.968,64.503,135.964,64.578,135.968z"/>
<path id="Path_1527" fill="#007F2C" d="M65.507,137.435c-0.142,0.016-0.362,0.032-0.63,0.063c0.3-0.378,0.583-0.772,0.867-1.182
	c0.288,0.164,0.389,0.53,0.226,0.818C65.873,137.303,65.701,137.415,65.507,137.435z"/>
<path id="Path_1522" fill="#007F2C" d="M72.27,147.849c-0.004,3.063-2.485,5.544-5.547,5.548c-0.458,0-0.914-0.059-1.356-0.173
	c-2.971-0.748-4.772-3.762-4.024-6.732s3.762-4.772,6.732-4.024c2.465,0.621,4.193,2.839,4.191,5.381H72.27z"/>
<path id="Path_1509" fill="#007F2C" d="M63.947,156.665c-0.08,0.981-0.719,1.828-1.639,2.175c-1.309-0.363-2.601-0.725-3.894-1.1
	c-0.52-0.157-1.072-0.299-1.655-0.426h-0.017c-0.069-0.209-0.105-0.427-0.11-0.646c0-1.45,1.639-2.617,3.657-2.617
	C62.309,154.051,63.947,155.214,63.947,156.665z"/>
<path id="Path_1545" fill="#DDD9D9" d="M64.232,319.296c0,2.434-12.745,4.404-28.467,4.404c-15.723,0-28.466-1.971-28.466-4.404
	c0-2.436,12.745-4.406,28.466-4.406C51.486,314.89,64.232,316.861,64.232,319.296z"/>
<path id="Path_1503" fill="#BD1F26" d="M49.319,175.611c-0.626,0.259-1.325,0.287-1.97,0.079v-1.371h2.254
	C49.603,174.319,49.997,175.216,49.319,175.611z"/>
<path id="Path_1504" fill="#BD1F26" d="M57.074,174.823c0.038,0.565-0.088,1.128-0.363,1.624c0,0.016-0.016,0.031-0.032,0.047
	c-0.527,0.893-1.284,1.627-2.191,2.128l-7.14-0.63v-1.387h3.373v-2.476c1.513-0.162,3.014-0.425,4.492-0.788h0.016
	c0.587,0.166,1.127,0.469,1.576,0.883C56.957,174.39,57.052,174.599,57.074,174.823z"/>
<path id="Path_1482" fill="#DF222A" d="M45.473,184.911l-10.954,32.628c-0.6,0.032-1.214,0.079-1.86,0.126
	c-1.828,0.126-3.783,0.269-5.391,0.41c-0.394,0.032-0.757,0.063-1.1,0.095c-0.18,0.004-0.358,0.02-0.536,0.047l1.765-4.271
	c-1.115-0.236-2.214-0.536-3.294-0.9v-0.016c-2.538-0.867-5.004-1.932-7.377-3.184c-0.835,2.207-3.578,9.93-2.948,16.029
	c0.52,5.012,4.208,5.438,8.007,4.9c1.671-0.236,3.342-0.662,4.792-0.977c1.182-0.269,2.664-0.709,4.24-1.246l-3.909,11.664
	l-0.725,2.129l-1.718,5.138c-0.711,0.466-1.485,0.827-2.3,1.071c-2.309,0.732-4.685,1.234-7.093,1.5
	c-7.314,0.914-10.561-2.899-11.806-7.219c-1.245-4.334,2-17.873,3.168-22.193c1.168-4.318,1.5-14.299,1.5-14.299
	c-1.419-0.49-2.664-4.9-1.245-6.73c1.4-1.828,2.9-5.975,3.483-9.126c0.924-4.071,2.233-8.046,3.909-11.869
	c1.576-3.625,5.722-3.42,11.049-4.508c1.943-0.373,3.851-0.905,5.706-1.593h0.016c2.626,0.542,5.285,0.909,7.96,1.101v2.979h4.208
	L45.473,184.911z"/>
<path id="Path_1536" fill="#F6F9F9" d="M33.322,310.736l-1.419,7.572l20.574,5.4c-0.5-7.629-9.587-11.586-9.587-11.586
	s-4.237-0.859-9.569-1.381L33.322,310.736z"/>
<line id="Line_153" fill="none" stroke="#DF222A" stroke-width="1.49" stroke-linecap="round" stroke-miterlimit="10" x1="53.411" y1="323.65" x2="31.234" y2="317.398"/>
<path id="Path_1537" fill="none" d="M31.901,318.306l20.576,5.4c-0.5-7.627-9.587-11.584-9.587-11.584s-4.237-0.859-9.569-1.381
	L31.901,318.306z"/>
<path id="Path_1546" fill="none" stroke="#DF222A" stroke-width="0.279" stroke-linecap="round" stroke-miterlimit="10" d="
	M46.345,314.056c-0.69-0.182-1.424,0.025-1.918,0.539"/>
<path id="Path_1547" fill="none" stroke="#DF222A" stroke-width="0.279" stroke-linecap="round" stroke-miterlimit="10" d="
	M47.34,314.777c-0.689-0.184-1.424,0.023-1.918,0.539"/>
<path id="Path_1548" fill="#DF222A" d="M34.924,314.687c-0.112,0.783,0.432,1.51,1.215,1.621c0.784,0.113,1.51-0.432,1.622-1.215
	c0.112-0.783-0.431-1.508-1.213-1.621c-0.782-0.115-1.508,0.426-1.623,1.209C34.925,314.683,34.924,314.685,34.924,314.687z"/>
<path id="Path_1542" fill="none" stroke="#DF222A" stroke-width="0.279" stroke-linecap="round" stroke-miterlimit="10" d="
	M45.332,313.056c-0.69-0.182-1.424,0.025-1.918,0.541"/>
<path id="Path_1538" fill="#F6F9F9" d="M58.325,312.015l0.211,7.701l21.249,0.932c-2.1-7.352-11.814-9.299-11.814-9.299
	s-4.324,0.055-9.646,0.668V312.015z"/>
<line id="Line_154" fill="none" stroke="#DF222A" stroke-width="1.49" stroke-linecap="round" stroke-miterlimit="10" x1="80.688" y1="320.404" x2="57.689" y2="318.972"/>
<path id="Path_1539" fill="none" d="M58.323,312.019l0.213,7.699l21.249,0.934c-2.1-7.354-11.815-9.301-11.815-9.301
	s-4.323,0.055-9.646,0.668"/>
<path id="Path_1541" fill="none" stroke="#DF222A" stroke-width="0.279" stroke-linecap="round" stroke-miterlimit="10" d="
	M71.757,312.519c-0.712-0.033-1.387,0.324-1.761,0.932"/>
<path id="Path_1543" fill="none" stroke="#DF222A" stroke-width="0.279" stroke-linecap="round" stroke-miterlimit="10" d="
	M72.881,313.009c-0.713-0.033-1.388,0.324-1.762,0.934"/>
<path id="Path_1549" fill="#DF222A" d="M60.725,315.539c0.055,0.791,0.738,1.387,1.527,1.332c0.789-0.053,1.387-0.736,1.332-1.525
	c-0.054-0.791-0.737-1.387-1.527-1.334c0,0.002-0.001,0.002-0.002,0.002C61.267,314.068,60.672,314.751,60.725,315.539z"/>
<path id="Path_1540" fill="none" stroke="#DF222A" stroke-width="0.279" stroke-linecap="round" stroke-miterlimit="10" d="
	M70.555,311.753c-0.713-0.031-1.387,0.326-1.761,0.934"/>
<path id="Path_1493" fill="#008BB2" d="M24.232,240.218c0,0-3.978,6.881-0.909,14.293c3.069,7.41,6.989,13.978,14.083,19.694
	c3.384,2.728,9,6.884,9,6.884s-4.079,1.375-0.927,2.541c0,0-12.2,18.211-12.625,29.541l14.719-0.953l7.834-14.295l1.378,13.977
	h13.021c0,0-2.117-40.979-2.225-43.094c-0.107-2.114-1.8-28.588-1.8-28.588H24.232z"/>
<path id="Path_1529" fill="#00758B" d="M46.15,294.351c0,0-0.709,5.586-6.548,5.381C39.602,299.732,44.554,297.164,46.15,294.351z"
	/>
<path id="Path_1513" fill="#00758B" d="M52.991,278.109c-1.019,2.076-2.882,3.613-5.115,4.217
	C47.876,282.326,53.349,282.361,52.991,278.109z"/>
<path id="Path_1517" fill="#00758B" d="M52.568,283.907c0,0-3.308,1.663-5.225-0.024C47.343,283.882,49.422,287.605,52.568,283.907z
	"/>
<path id="Path_1533" fill="#00758B" d="M42.272,308.136c0,0,3.154,2.371,4.623,1.119C46.895,309.255,44.783,311.884,42.272,308.136z
	"/>
<path id="Path_1534" fill="#00758B" d="M67.411,308.595c0,0-0.634,1.842-4.673,0.379C62.738,308.974,67.238,311.937,67.411,308.595z
	"/>
<path id="Path_1505" fill="#FFBC00" d="M47.35,175.69c-0.126-0.017-0.268-0.048-0.41-0.079h0.41c0.646-0.032,1.308-0.032,1.97,0
	C48.693,175.87,47.995,175.898,47.35,175.69z"/>
<path id="Path_1483" fill="#FFBC00" d="M74.792,204.833c-0.499,0.881-1.097,1.699-1.78,2.443c-0.026,0.022-0.048,0.049-0.063,0.079
	h-0.017c-1.643,1.738-3.502,3.259-5.533,4.524c-0.08,0.058-0.164,0.11-0.252,0.158c0,0,0.315,3.987,0.662,9.031
	c0.127,1.907,0.269,3.988,0.395,6.037l0.095,1.467c0.095,1.434,0.173,2.836,0.252,4.16c0.048,1.119,0.095,2.176,0.142,3.137
	c0.115,1.686,0.127,3.375,0.033,5.061c0,0-1.057,0.3-2.854,0.725c-6.694,1.608-13.56,2.396-20.444,2.35
	c-8.338-0.252-14.422-1.215-19.246-1.655c-0.993-0.079-1.923-0.158-2.821-0.188c-0.694-0.017-1.356-0.017-2,0l0.426-11.381
	c1.671-0.236,3.342-0.662,4.792-0.977c1.182-0.268,2.664-0.709,4.24-1.245c4.76-1.608,10.545-4,12.815-4.366
	c0.402-0.057,0.808-0.084,1.214-0.078c0.221,0,0.426,0.016,0.63,0.03v-0.017c0.949,0.102,1.884,0.303,2.79,0.601
	c0.709,0.264,1.437,0.479,2.175,0.646c1.056,0.127,5.391,0.537,5.911-0.883c0.536-1.418,0-2.6-1.655-2.727
	c-0.82-0.047-1.939-0.158-2.869-0.252c-0.977-0.079-1.75-0.158-1.75-0.158s1.324-0.314,2.806-0.788
	c1.314-0.347,2.558-0.923,3.673-1.7c0.571-0.441,0.69-1.258,0.268-1.844c-0.336-0.469-0.919-0.691-1.482-0.566
	c-1.119,0.268-5.816,1.291-6.289,1.387c1.643-0.918,3.185-2.006,4.6-3.247c0.325-0.274,0.566-0.635,0.694-1.04
	c0.236-1.434-0.662-2.7-2.317-2.223c-0.866,0.334-1.696,0.756-2.475,1.261c-1.545,0.93-3.294,2.1-4.082,2.632l-0.426,0.3
	l-0.047-3.389l-0.016,0.016c-0.331,0.284-5.343,4.714-5.8,4.949c-1.547,0.227-3.104,0.374-4.666,0.44
	c-0.6,0.033-1.214,0.08-1.86,0.127c-1.828,0.125-3.783,0.268-5.391,0.41c-0.394,0.031-0.757,0.063-1.1,0.094
	c-0.179,0.004-0.358,0.021-0.536,0.048l1.765-4.272c-1.114-0.235-2.214-0.536-3.294-0.9v-0.016l0.158-0.3l3.48-6.485l5.516-22.5
	l0.032-0.078v-0.021l1.576-6.463c0,0,0.914-0.236,2.459-0.536c0.441-0.079,0.93-0.173,1.482-0.269v0.222h11.916v-0.931
	c1.384,0.059,2.763,0.201,4.13,0.427c0.615,0.095,1.245,0.2,1.86,0.347c0.505,0.11,1.009,0.236,1.513,0.379l0.095,0.031
	c0.081,0.014,0.16,0.035,0.236,0.063c2.05,0.564,4.008,1.419,5.816,2.539c0.791,0.502,1.544,1.06,2.254,1.67
	c3.294,3.138,6.842,11.35,8.449,17.182c0.236,0.835,0.426,1.623,0.566,2.35C75.869,202.107,75.568,203.589,74.792,204.833z"/>
<path id="Path_1508" fill="#DF222A" d="M54.485,176.029c0.957-1.135,2.259-1.924,3.707-2.248c2.161-0.332,5.982-0.914,6.314,7.4
	s1.33,16.535,1.579,18.029c0.249,1.496,1.185,5.922,1.185,5.922l-3.179,2.222c0,0-0.665-4.819-0.747-6.313
	s-3.324-13.377-3.74-15.455s-1.042-8.672-1.042-8.672L54.485,176.029z"/>
<path id="Path_1484" fill="#DF222A" d="M38.664,200.374c-1.434,5.422-4.461,13.335-6.005,17.291
	c-1.828,0.126-3.783,0.269-5.391,0.41c0.457-1.024,1.04-2.38,1.687-3.877c1.876-4.445,4.177-10.214,4.681-12.83
	c0.805-5.575,0.757-11.239-0.142-16.8c-0.063-0.301-0.142-0.6-0.2-0.9v-0.016c-0.342-1.669-1.029-3.248-2.018-4.635l-0.457,0.201
	l-3.862,1.699c0.174-0.572,0.39-1.131,0.646-1.671v-0.013c1.088-2.334,3.641-6.037,8.244-3.657c0.544,0.282,1.043,0.644,1.482,1.071
	C42.037,181.271,40.493,193.517,38.664,200.374z"/>
<path id="Path_1499" fill="#DDD9D9" d="M91.324,227.722l-9.393-0.332l-4.777-0.172l-0.031,0.016l-4.887,3.137l-3.688,2.364
	l-6.462,4.13l-0.032-0.016l-3.956-1.338l-13.335-4.559l0.079-6.841c0.221,0,0.426,0.017,0.63,0.032v-0.016
	c0.948,0.101,1.883,0.302,2.79,0.6c0.71,0.264,1.437,0.479,2.175,0.646c1.056,0.126,5.391,0.536,5.911-0.883
	c0.536-1.419,0-2.601-1.655-2.728c-0.82-0.047-1.939-0.157-2.869-0.252c-0.977-0.078-1.75-0.158-1.75-0.158s1.324-0.314,2.806-0.787
	c1.314-0.348,2.558-0.923,3.673-1.7c0.572-0.442,0.69-1.257,0.268-1.844c-0.336-0.469-0.919-0.692-1.482-0.567
	c-1.119,0.268-5.816,1.292-6.289,1.387c1.644-0.917,3.185-2.006,4.6-3.246c0.325-0.274,0.566-0.635,0.694-1.041
	c0.236-1.434-0.662-2.699-2.317-2.223c-0.866,0.334-1.695,0.757-2.475,1.262c-1.545,0.93-3.294,2.1-4.082,2.631l-0.426,0.301
	l-0.047-3.389l-0.016,0.016l0.142-11.506l8.275,2.9l7.944,2.773l1.45,0.5h0.021v-0.016l1.088-0.82l0.8-0.6v-0.017l2.254-1.687
	l7.157-5.369l0.033-0.032l0.93,0.032l7.156,0.221l1.576,0.063l1.733,0.047l4.382,0.143l0.143,2.963l0.016,0.236l0.3,6.1
	l-0.173,0.143c-0.252,0.158-0.473,0.314-0.662,0.457c-0.309,0.24-0.578,0.527-0.8,0.851c-0.835,1.419,1.592,1.938,1.592,1.938
	c-3.185,2.207-0.866,2.996-0.866,2.996c-0.361,0.527-0.226,1.247,0.303,1.607c0.023,0.017,0.049,0.032,0.074,0.047
	c0.291,0.137,0.609,0.202,0.93,0.189l0.08,1.576L91.324,227.722z"/>
<path id="Path_1525" fill="#9B9B9B" d="M62.023,238.316l0.822-33.074l11.178-7.813l3.658,35.165L62.023,238.316z"/>
<path id="Path_1500" fill="none" d="M91.324,227.722l-9.393-0.332l-4.777-0.172l-0.031,0.016l-4.887,3.137l-3.688,2.364l-6.462,4.13
	l-0.032-0.016l-3.956-1.338l-13.335-4.543v-0.016l0.079-6.841c0.221,0,0.426,0.017,0.63,0.032v-0.016
	c0.948,0.101,1.883,0.302,2.79,0.6c0.71,0.264,1.437,0.479,2.175,0.646c1.056,0.126,5.391,0.536,5.911-0.883
	c0.536-1.419,0-2.601-1.655-2.728c-0.82-0.047-1.939-0.157-2.869-0.252c-0.977-0.078-1.75-0.158-1.75-0.158s1.324-0.314,2.806-0.787
	c1.314-0.348,2.558-0.923,3.673-1.7c0.572-0.442,0.69-1.257,0.268-1.844c-0.336-0.469-0.919-0.692-1.482-0.567
	c-1.119,0.268-5.816,1.292-6.289,1.387c1.644-0.917,3.185-2.006,4.6-3.246c0.325-0.274,0.566-0.635,0.694-1.041
	c0.236-1.434-0.662-2.699-2.317-2.223c-0.866,0.334-1.695,0.757-2.475,1.262c-1.545,0.93-3.294,2.1-4.082,2.631l-0.426,0.301
	l-0.047-3.389l-0.016,0.016l0.142-11.506l8.275,2.885v0.016l7.944,2.774l1.45,0.5h0.021v-0.017l1.088-0.819l0.8-0.601l2.254-1.699
	l7.157-5.373l0.033-0.032l0.93,0.032l7.156,0.221l1.576,0.063l1.733,0.047l4.382,0.143l0.143,2.963l0.016,0.236l0.3,6.1
	l-0.173,0.143c-0.252,0.158-0.473,0.314-0.662,0.457c-0.309,0.24-0.578,0.527-0.8,0.851c-0.835,1.419,1.592,1.938,1.592,1.938
	c-3.185,2.207-0.866,2.996-0.866,2.996c-0.361,0.527-0.226,1.247,0.303,1.607c0.023,0.017,0.049,0.032,0.074,0.047
	c0.291,0.137,0.609,0.202,0.93,0.189l0.08,1.576L91.324,227.722z"/>
<path id="Path_1506" fill="#00758B" d="M47.326,252.218c0,0,12.411,20.426,12.9,21.307c0.489,0.881,3.518,3.906,0.391,11.629
	c-3.127,7.722-3.535,10.359-3.535,10.359s5.199-12.801,5.588-14.466s0.88-4.886-0.977-7.183
	C59.836,271.568,47.327,252.218,47.326,252.218L47.326,252.218z"/>
<path id="Path_1481" fill="#F69D84" d="M79.316,151.652c-1.104,0.311-2.242,0.485-3.39,0.52
	c-0.993-10.435-3.909-16.992-6.683-20.979c-0.923-1.333-1.984-2.565-3.168-3.673c-0.032,0.095-0.063,0.173-0.096,0.268
	c-0.008,0-0.016-0.006-0.016-0.014c0,0,0-0.001,0-0.002c-0.045-0.021-0.088-0.047-0.126-0.079c-0.235-0.126-0.5-0.252-0.757-0.394
	c-0.016,0-0.032-0.016-0.047-0.016c-0.268-0.126-0.536-0.252-0.82-0.363c-0.061-0.033-0.123-0.06-0.189-0.079
	c-0.153-0.081-0.318-0.139-0.488-0.173c-1.722-0.573-3.515-0.902-5.328-0.977c-3.972-0.2-9.347,0.6-15.967,4.067
	c-0.152,0.07-0.299,0.149-0.441,0.237l-0.095,0.047v0.016c-0.158,0.63-2.9,10.671-3.231,13.981c-0.331,3.4-2.238,7.219-3.531,2.79
	c0,0-0.725,7.519-1.166,8.638c-0.457,1.119-1.734,2.4-2.979,0c-1.229-2.412-3.184-5-5.044-4.208
	c-1.844,0.788-3.074,4.429-1.955,7.739c1.119,3.294,4.035,5.485,8.354,1.277c0,0,1.734,8.07,1.056,10.482l-4.082-3.138
	c0,0,0.567,3.042-1.135,4.193c0.93,0.284,1.891,0.521,2.837,0.709h0.016c2.626,0.541,5.285,0.909,7.96,1.101v2.979h11.917v-2.475
	c1.513-0.162,3.014-0.426,4.492-0.789h0.016c7.283-1.516,13.734-5.705,18.08-11.743c1.191-1.615,2.157-3.387,2.869-5.265
	c0.362-0.063,0.693-0.142,0.992-0.221C81.443,154.883,80.041,151.29,79.316,151.652z M49.316,175.61
	c-0.626,0.259-1.325,0.286-1.97,0.079c-0.126-0.016-0.268-0.047-0.41-0.079c-1.248-0.329-2.465-0.761-3.641-1.292h6.3
	c0,0,0.4,0.898-0.275,1.293L49.316,175.61z M60.038,138.065c1.024-1.5,3.325-1.955,4.319-2.081c0.072-0.014,0.146-0.019,0.221-0.016
	c0.297-0.018,0.595,0.036,0.867,0.158c0.109,0.046,0.211,0.11,0.3,0.189c0.288,0.163,0.39,0.529,0.226,0.818
	c-0.096,0.169-0.268,0.282-0.462,0.301c-0.142,0.016-0.362,0.032-0.63,0.063c-0.314,0.441-0.646,0.867-0.977,1.293
	c0.125-0.378,0.236-0.772,0.347-1.166c-1.064,0.213-2.021,0.793-2.7,1.639C60.795,140.24,58.73,140.02,60.038,138.065z
	 M62.309,158.84c-0.635,0.285-1.323,0.43-2.019,0.426c-1.464,0.123-2.857-0.649-3.531-1.955h-0.016
	c-0.068-0.209-0.105-0.427-0.11-0.646c0-1.45,1.639-2.617,3.657-2.617c2.019,0,3.657,1.166,3.657,2.617
	C63.867,157.646,63.229,158.493,62.309,158.84z M71.419,150.801c-1.013,1.621-2.79,2.604-4.7,2.6c-0.457,0-0.913-0.058-1.355-0.173
	c-2.973-0.749-4.774-3.765-4.025-6.737c0.748-2.972,3.765-4.774,6.736-4.025c2.972,0.749,4.773,3.765,4.025,6.736
	c-0.143,0.565-0.373,1.104-0.684,1.598H71.419z"/>
<path id="Path_1518" fill="#F6A17C" d="M65.508,137.433c-0.142,0.016-0.363,0.032-0.63,0.063c-0.315,0.441-0.646,0.867-0.978,1.293
	c0.127-0.378,0.236-0.772,0.348-1.166c-1.064,0.213-2.02,0.793-2.7,1.639c-0.757,0.977-2.821,0.757-1.513-1.2
	c1.025-1.5,3.326-1.955,4.318-2.081c0.073-0.014,0.147-0.019,0.222-0.016c0.298-0.018,0.595,0.036,0.866,0.158
	c0.11,0.046,0.211,0.11,0.301,0.189c0.289,0.162,0.393,0.527,0.23,0.816C65.877,137.299,65.703,137.413,65.508,137.433z"/>
<path id="Path_1523" fill="#F6A17C" d="M72.27,147.849c-0.004,3.063-2.485,5.544-5.547,5.548c-0.458,0-0.914-0.059-1.356-0.173
	c-2.971-0.748-4.772-3.762-4.024-6.732s3.762-4.772,6.732-4.024c2.465,0.621,4.193,2.839,4.191,5.381H72.27z"/>
<path id="Path_1497" fill="#F6A17C" d="M49.32,175.611c-0.626,0.259-1.325,0.287-1.97,0.079c-0.126-0.017-0.268-0.047-0.41-0.079
	c-1.247-0.329-2.465-0.762-3.641-1.292h6.3C49.599,174.319,49.998,175.216,49.32,175.611z"/>
<path id="Path_1510" fill="#F6A17C" d="M63.947,156.665c-0.08,0.981-0.719,1.828-1.639,2.175c-0.635,0.285-1.323,0.43-2.019,0.426
	c-1.464,0.123-2.857-0.649-3.531-1.955h-0.016c-0.069-0.208-0.105-0.426-0.11-0.646c0-1.45,1.639-2.617,3.657-2.617
	C62.309,154.048,63.947,155.214,63.947,156.665z"/>
<path id="Path_1495" fill="#F6A17C" d="M63.521,126.654l0.016,0.016c-1.722-0.573-3.515-0.902-5.328-0.977
	c-3.972-0.2-9.347,0.6-15.967,4.067v-0.016c4.887-2.876,10.489-4.309,16.156-4.13C60.147,125.708,61.873,126.058,63.521,126.654z"/>
<path id="Path_1496" fill="#7B2C13" d="M63.521,126.654l0.016,0.016c-1.722-0.573-3.515-0.902-5.328-0.977
	c-3.972-0.2-9.347,0.6-15.967,4.067v-0.016c4.887-2.876,10.489-4.309,16.156-4.13C60.147,125.708,61.873,126.058,63.521,126.654z"/>
<path id="Path_1553" fill="#F6A17C" d="M95.141,214.653c-1.244,1.001-2.772,1.581-4.367,1.655c-0.32,0.013-0.639-0.053-0.93-0.189
	c-0.553-0.318-0.744-1.025-0.425-1.58c0.015-0.025,0.03-0.051,0.047-0.074c0,0-2.317-0.789,0.867-2.996c0,0-2.427-0.52-1.592-1.938
	c0.222-0.323,0.491-0.61,0.8-0.851c0.189-0.143,0.41-0.301,0.662-0.457l0.173-0.143l0.017-0.016l-0.127-2.82
	c0,0,4.24-0.884,3.926,1.622c-0.055,0.604-0.172,1.2-0.348,1.781c-0.173,0.601-0.33,0.601-0.33,0.601s2.08,0.44,1.528,1.67
	c-0.552,1.215-0.978,1.4-0.978,1.4S96.575,213.361,95.141,214.653z"/>
<path id="Path_1485" fill="none" stroke="#D07765" stroke-width="0.285" stroke-linecap="round" stroke-linejoin="round" d="
	M28.615,155.667c-0.535,0.396-0.968,0.913-1.266,1.508c-0.337,0.65-0.534,1.364-0.577,2.095"/>
<line id="Line_122" fill="none" stroke="#D07765" stroke-width="0.285" stroke-linecap="round" stroke-linejoin="round" x1="27.349" y1="157.176" x2="29.373" y2="159.271"/>
<path id="Path_1524" fill="#FFFFFF" d="M71.418,150.801c0.014-0.062,0.019-0.125,0.016-0.189c-0.078-1.088-2.521,0.016-3.736-0.757
	c-1.512-0.977-1.938-2.758-2.758-2.081c-0.156,0.149-0.294,0.317-0.41,0.5c-1.018,1.623-0.658,3.75,0.836,4.949
	c-2.973-0.749-4.774-3.765-4.025-6.736c0.748-2.972,3.765-4.774,6.736-4.025c2.972,0.749,4.773,3.765,4.025,6.737
	c-0.143,0.565-0.373,1.104-0.684,1.598V150.801z"/>
<path id="Path_1526" fill="#040405" d="M69.716,147.129c-1.535-0.983-3.557-0.71-4.776,0.646c-0.156,0.149-0.294,0.317-0.41,0.5
	c-1.018,1.623-0.658,3.75,0.836,4.949c0.442,0.115,0.898,0.173,1.355,0.173c1.91,0.003,3.688-0.979,4.7-2.6
	c0.013-0.063,0.019-0.126,0.017-0.189C71.548,149.22,70.887,147.883,69.716,147.129z M66.753,147.618
	c0.214-0.342,0.665-0.445,1.007-0.231c0.341,0.214,0.444,0.665,0.23,1.006c-0.003,0.004-0.006,0.009-0.008,0.013
	c-0.225,0.331-0.668,0.428-1.01,0.221C66.635,148.408,66.535,147.957,66.753,147.618L66.753,147.618z"/>
<path id="Path_1511" fill="#F18E74" d="M63.947,156.665c-0.08,0.981-0.719,1.828-1.639,2.175c-0.635,0.285-1.323,0.43-2.019,0.426
	c-1.464,0.123-2.857-0.649-3.531-1.955h-0.016c-0.069-0.208-0.105-0.426-0.11-0.646c0-1.45,1.639-2.617,3.657-2.617
	C62.309,154.048,63.947,155.214,63.947,156.665z"/>
<path id="Path_1519" fill="none" stroke="#D07765" stroke-width="0.273" stroke-linecap="round" stroke-linejoin="round" d="
	M64.958,166.907c0,0-3.758-0.218-4.082-4.625"/>
<path id="Path_1520" fill="#7B2C13" d="M65.508,137.433c-0.142,0.016-0.363,0.032-0.63,0.063c-0.212,0.031-0.423,0.073-0.63,0.126
	c-1.064,0.213-2.02,0.793-2.7,1.639c-0.757,0.977-2.821,0.757-1.513-1.2c1.025-1.5,3.326-1.955,4.318-2.081
	c0.073-0.014,0.147-0.019,0.222-0.016c0.298-0.018,0.595,0.036,0.866,0.158c0.11,0.046,0.211,0.11,0.301,0.189
	c0.289,0.161,0.395,0.526,0.233,0.815C65.88,137.299,65.705,137.414,65.508,137.433z"/>
<path id="Path_1498" fill="#F18E74" d="M49.32,175.611c-0.626,0.259-1.325,0.287-1.97,0.079c-0.126-0.017-0.268-0.047-0.41-0.079
	c-1.247-0.329-2.465-0.762-3.641-1.292h6.3C49.599,174.319,49.998,175.216,49.32,175.611z"/>
<path id="Path_1501" fill="#FFA700" d="M53.87,179.488c0,0-4.3,6.15-8.209,3.387C45.661,182.875,49.761,189.075,53.87,179.488z"/>
<path id="Path_1489" fill="#FFA700" d="M24.233,208.419c0,0-4.565-2.311-4.089-10.146C20.144,198.274,17.367,206.875,24.233,208.419
	z"/>
<path id="Path_1490" fill="#BD1F26" d="M10.983,209.228c0,0,1.27,13.615-0.509,17.937c-1.779,4.322-1.27,19.19,7.881,18.046
	c0,0-6.846,2.2-8.7-4.238c-1.854-6.438-3-8.641-1.978-10.715c1.022-2.074,1.652-5.761,2.159-8.177s1.144-12.853,1.144-12.853H10.983
	z"/>
<path id="Path_1488" fill="#BD1F26" d="M35.723,175.419c0,0-3.641-3.781-8.029,1.379C27.694,176.798,30.605,170.414,35.723,175.419z
	"/>
<path id="Path_1486" fill="#BD1F26" d="M9.169,205.499c0,0-2.007-3.833-0.73-5.476s3.666-10.674,4.388-13.412
	c0.722-2.738,2.273-8.578,4.1-9.309c0,0-3.6,8.853-4.262,13.688s-2.766,9.033-2.947,9.853c-0.181,0.82-0.549,4.653-0.549,4.653
	V205.499z"/>
<line id="Line_134" fill="none" stroke="#161615" stroke-width="0.273" stroke-linecap="round" stroke-linejoin="round" stroke-dasharray="0.545,1.363" x1="62.766" y1="208.378" x2="62.123" y2="234.231"/>
<line id="Line_146" fill="none" stroke="#161615" stroke-width="0.273" stroke-linecap="round" stroke-linejoin="round" stroke-dasharray="0.545,1.363" x1="74.332" y1="200.431" x2="76.969" y2="225.794"/>
<path id="Path_1535" fill="none" stroke="#008BB2" stroke-width="0.273" stroke-miterlimit="10" d="M82.227,198.531l-2.549,8.346
	l9.071,2.659"/>
<line id="Line_159" fill="none" stroke="#008BB2" stroke-width="0.273" stroke-miterlimit="10" x1="83.133" y1="207.89" x2="85.189" y2="216.339"/>
<line id="Line_152" fill="none" stroke="#008BB2" stroke-width="0.273" stroke-miterlimit="10" x1="84.402" y1="213.111" x2="80.77" y2="215.092"/>
<line id="Line_147" fill="none" stroke="#008BB2" stroke-width="0.273" stroke-miterlimit="10" x1="74.873" y1="205.63" x2="80.059" y2="205.63"/>
<line id="Line_155" fill="none" stroke="#008BB2" stroke-width="0.273" stroke-miterlimit="10" x1="81.291" y1="201.593" x2="90.078" y2="201.985"/>
<path id="Path_1532" fill="none" stroke="#008BB2" stroke-width="0.273" stroke-miterlimit="10" d="M80.917,215.508
	c0,0.864-0.7,1.563-1.563,1.563c-0.864,0-1.564-0.699-1.564-1.563s0.7-1.563,1.564-1.563l0,0
	C80.217,213.945,80.917,214.644,80.917,215.508z"/>
<line id="Line_148" fill="none" stroke="#008BB2" stroke-width="0.273" stroke-miterlimit="10" x1="78.484" y1="214.208" x2="75.419" y2="210.876"/>
<line id="Line_151" fill="none" stroke="#008BB2" stroke-width="0.273" stroke-miterlimit="10" x1="80.316" y1="216.738" x2="89.404" y2="215.74"/>
<line id="Line_150" fill="none" stroke="#008BB2" stroke-width="0.273" stroke-miterlimit="10" x1="79.678" y1="206.876" x2="76.669" y2="212.235"/>
<line id="Line_156" fill="none" stroke="#008BB2" stroke-width="0.273" stroke-miterlimit="10" x1="81.929" y1="216.562" x2="81.929" y2="227.384"/>
<line id="Line_157" fill="none" stroke="#008BB2" stroke-width="0.273" stroke-miterlimit="10" x1="81.929" y1="223.05" x2="90.85" y2="217.878"/>
<line id="Line_158" fill="none" stroke="#008BB2" stroke-width="0.273" stroke-miterlimit="10" x1="86.391" y1="220.464" x2="81.929" y2="226.574"/>
<line id="Line_149" fill="none" stroke="#008BB2" stroke-width="0.273" stroke-miterlimit="10" x1="81.93" y1="220.996" x2="76.396" y2="220.279"/>
<path id="Path_1491" fill="#F6A17C" d="M27.584,213.502l-0.189,0.441c-1.115-0.235-2.214-0.536-3.294-0.9v-0.016
	c-2.538-0.868-5.005-1.933-7.377-3.185c0.158-0.394,0.252-0.615,0.252-0.615c2.281,1.449,4.726,2.625,7.282,3.5
	C25.336,213.104,26.451,213.363,27.584,213.502z"/>
<path id="Path_1487" fill="#FFBC00" d="M32.628,207.813c-0.52,2.979-1.482,6.478-1.482,6.478c-0.732,0.031-1.465-0.001-2.191-0.094
	c-0.5-0.063-1.04-0.143-1.56-0.252c-1.115-0.236-2.214-0.537-3.294-0.9v-0.016c-2.538-0.869-5.005-1.934-7.377-3.185
	c-2.427-1.261-4.067-2.3-4.067-2.3c2.191-8.149,7.014-19.356,11.034-24.258c1.095-1.532,2.413-2.893,3.909-4.035v-0.016
	c0.889-0.757,2.181-0.803,3.121-0.111c0.035,0.028,0.067,0.061,0.095,0.096c1.208,1.26,2.053,2.822,2.443,4.523
	c0.079,0.269,0.158,0.553,0.236,0.82c0.594,2.427,0.979,4.9,1.151,7.393C35.277,198.261,33.148,204.833,32.628,207.813z"/>
<line id="Line_123" fill="none" stroke="#008BB2" stroke-width="0.273" stroke-miterlimit="10" x1="45.076" y1="205.373" x2="62.563" y2="216.563"/>
<line id="Line_124" fill="none" stroke="#008BB2" stroke-width="0.273" stroke-miterlimit="10" x1="46.666" y1="217.623" x2="57.082" y2="213.111"/>
<line id="Line_129" fill="none" stroke="#008BB2" stroke-width="0.273" stroke-miterlimit="10" x1="53.404" y1="210.701" x2="53.404" y2="203.529"/>
<path id="Path_1502" fill="none" stroke="#008BB2" stroke-width="0.273" stroke-miterlimit="10" d="M48.264,224.726l-1.182,1.072
	l-2.159,1.939"/>
<line id="Line_127" fill="none" stroke="#008BB2" stroke-width="0.273" stroke-miterlimit="10" x1="52.882" y1="220.564" x2="51.826" y2="221.51"/>
<line id="Line_131" fill="none" stroke="#008BB2" stroke-width="0.273" stroke-miterlimit="10" x1="59.503" y1="214.607" x2="56.823" y2="217.019"/>
<line id="Line_128" fill="none" stroke="#008BB2" stroke-width="0.273" stroke-miterlimit="10" x1="52.21" y1="221.306" x2="62.443" y2="222.359"/>
<line id="Line_126" fill="none" stroke="#008BB2" stroke-width="0.273" stroke-miterlimit="10" x1="50.148" y1="208.617" x2="49.038" y2="216.074"/>
<line id="Line_132" fill="none" stroke="#008BB2" stroke-width="0.273" stroke-miterlimit="10" x1="59.651" y1="222.07" x2="58.103" y2="235.504"/>
<line id="Line_125" fill="none" stroke="#008BB2" stroke-width="0.273" stroke-miterlimit="10" x1="58.735" y1="230.024" x2="47.08" y2="225.792"/>
<path id="Path_1514" fill="none" stroke="#008BB2" stroke-width="0.273" stroke-miterlimit="10" d="M60.594,209.791
	c0.001,0.649-0.525,1.176-1.174,1.176c-0.649,0.002-1.175-0.524-1.176-1.174c0-0.648,0.525-1.175,1.174-1.176
	c0.001,0,0.001,0,0.002,0C60.068,208.618,60.594,209.143,60.594,209.791z"/>
<line id="Line_130" fill="none" stroke="#008BB2" stroke-width="0.273" stroke-miterlimit="10" x1="55.154" y1="211.82" x2="58.573" y2="210.605"/>
<line id="Line_133" fill="none" stroke="#008BB2" stroke-width="0.273" stroke-miterlimit="10" x1="59.872" y1="208.708" x2="61.346" y2="206.31"/>
<line id="Line_135" fill="none" stroke="#00758B" stroke-width="0.273" stroke-miterlimit="10" x1="62.339" y1="225.527" x2="75.738" y2="214.601"/>
<line id="Line_138" fill="none" stroke="#00758B" stroke-width="0.273" stroke-miterlimit="10" x1="70.348" y1="219" x2="64.707" y2="205.373"/>
<path id="Path_1531" fill="none" stroke="#00758B" stroke-width="0.273" stroke-miterlimit="10" d="M72.973,212.77
	c0,0.725-0.587,1.313-1.312,1.313c-0.725,0-1.313-0.587-1.313-1.312c0-0.725,0.587-1.313,1.312-1.313
	C72.383,211.458,72.971,212.046,72.973,212.77z"/>
<path id="Path_1528" fill="none" stroke="#00758B" stroke-width="0.273" stroke-miterlimit="10" d="M68.492,227.908
	c0,0.725-0.588,1.313-1.313,1.312s-1.313-0.589-1.312-1.313c0.001-0.723,0.587-1.311,1.312-1.311s1.313,0.586,1.313,1.311
	C68.492,227.907,68.492,227.908,68.492,227.908z"/>
<line id="Line_140" fill="none" stroke="#00758B" stroke-width="0.273" stroke-miterlimit="10" x1="70.637" y1="213.589" x2="68.604" y2="214.782"/>
<line id="Line_145" fill="none" stroke="#00758B" stroke-width="0.273" stroke-miterlimit="10" x1="71.66" y1="211.46" x2="74.548" y2="202.503"/>
<line id="Line_139" fill="none" stroke="#00758B" stroke-width="0.273" stroke-miterlimit="10" x1="65.592" y1="207.511" x2="72.941" y2="207.349"/>
<line id="Line_136" fill="none" stroke="#00758B" stroke-width="0.273" stroke-miterlimit="10" x1="67.023" y1="210.966" x2="62.495" y2="219.272"/>
<line id="Line_141" fill="none" stroke="#00758B" stroke-width="0.273" stroke-miterlimit="10" x1="67.527" y1="221.306" x2="67.182" y2="226.595"/>
<line id="Line_137" fill="none" stroke="#00758B" stroke-width="0.273" stroke-miterlimit="10" x1="66.284" y1="228.861" x2="62.182" y2="231.874"/>
<line id="Line_142" fill="none" stroke="#00758B" stroke-width="0.273" stroke-miterlimit="10" x1="68.307" y1="228.582" x2="72.232" y2="230.369"/>
<line id="Line_143" fill="none" stroke="#00758B" stroke-width="0.273" stroke-miterlimit="10" x1="68.493" y1="227.384" x2="76.732" y2="223.519"/>
<line id="Line_144" fill="none" stroke="#00758B" stroke-width="0.273" stroke-miterlimit="10" x1="71.887" y1="225.792" x2="69.039" y2="220.064"/>
<path id="Path_1479" fill="#7B2C13" d="M66.074,127.521c-0.031,0.095-0.063,0.173-0.094,0.268c-0.009,0-0.016-0.006-0.017-0.014
	c0-0.001,0-0.001,0-0.002c-0.046-0.021-0.088-0.047-0.126-0.079c-0.889-0.65-1.821-1.24-2.79-1.765
	c-0.315-0.173-0.646-0.363-0.993-0.536c-0.221-0.11-0.441-0.221-0.678-0.331c-3.625-1.734-8.921-3.42-14.091-1.923
	c-0.938,0.271-1.859,0.598-2.758,0.977c-1.258,0.539-2.484,1.149-3.673,1.828c-4.855,2.7-9.615,6.431-15.321,9.268
	c-2.089,1.049-4.262,1.924-6.494,2.616c2.061-0.017,4.115-0.24,6.132-0.664c5.113-0.965,9.987-2.925,14.344-5.769
	c0.725-0.489,1.466-0.93,2.191-1.34c-0.158,0.63-2.9,10.671-3.231,13.981c-0.331,3.4-2.238,7.219-3.531,2.79
	c0,0-0.725,7.519-1.166,8.638c-0.457,1.119-1.734,2.4-2.979,0c-1.229-2.412-3.184-5-5.044-4.208
	c-1.844,0.788-3.074,4.429-1.955,7.739c1.119,3.294,4.035,5.485,8.354,1.277c0,0,1.734,8.07,1.056,10.481l-4.082-3.137
	c0,0,0.567,3.043-1.135,4.193c-1.545,1.057-4.949,0.553-12.31-5.139v4.02c0,0-7.787-2.806-7.739-19.545l-1.781,2.7
	c0,0,1.781-9.8,2-12.5c0,0-5.375,0.221-8.165-1.56c0,0,7.834-3.925,11.428-9.363c0,0-4.492,2.916-8.133,2.853
	c0,0,7.282-3.357,10.655-6.6c3.357-3.247,12.815-12.72,22.9-15.463c5.542-1.644,11.411-1.851,17.055-0.6
	c3.01,0.716,5.856,2,8.385,3.783C68.613,118.9,67.714,123.187,66.074,127.521z"/>
<path id="Path_1480" fill="#612014" d="M65.839,127.695c-0.235-0.126-0.5-0.252-0.757-0.394c-0.016,0-0.032-0.016-0.047-0.016
	c-0.268-0.126-0.536-0.252-0.82-0.362c-0.061-0.033-0.123-0.06-0.189-0.079c-0.153-0.081-0.318-0.14-0.488-0.173l-0.016-0.016
	c-1.648-0.596-3.374-0.946-5.124-1.04c-5.667-0.179-11.27,1.253-16.156,4.13v0.016c-0.152,0.07-0.299,0.149-0.441,0.237
	l-0.095,0.047v0.016c-0.725,0.41-1.466,0.851-2.191,1.34c-4.357,2.844-9.231,4.804-14.344,5.769c-2.016,0.424-4.07,0.646-6.13,0.662
	c2.233-0.692,4.405-1.567,6.494-2.616c5.706-2.837,10.466-6.573,15.321-9.268c1.189-0.679,2.415-1.289,3.673-1.828
	c0.899-0.379,1.82-0.706,2.758-0.977c5.17-1.5,10.466,0.189,14.091,1.923c0.235,0.11,0.457,0.221,0.679,0.331
	c0.346,0.173,0.678,0.363,0.992,0.536C64.018,126.457,64.949,127.046,65.839,127.695z"/>
<path id="Path_1492" fill="#F6A17C" d="M52.882,220.564c-1.482,0.473-2.806,0.788-2.806,0.788s0.772,0.079,1.75,0.158
	c0.93,0.095,2.049,0.2,2.869,0.252c1.655,0.126,2.191,1.308,1.655,2.728c-0.52,1.418-4.855,1.008-5.911,0.883
	c-0.739-0.167-1.465-0.383-2.175-0.646c-0.906-0.297-1.842-0.498-2.79-0.6v0.016c-0.2-0.016-0.41-0.031-0.63-0.031
	c-0.406-0.006-0.812,0.021-1.214,0.078c-2.27,0.363-8.054,2.758-12.815,4.366c-1.576,0.536-3.058,0.978-4.24,1.245
	c-1.45,0.314-3.121,0.74-4.792,0.977c-3.8,0.536-7.487,0.11-8.007-4.9c-0.63-6.1,2.112-13.822,2.948-16.029
	c2.372,1.252,4.839,2.316,7.377,3.184v0.017c1.08,0.364,2.179,0.664,3.294,0.899l-1.765,4.272c0.178-0.027,0.356-0.043,0.536-0.047
	c0.347-0.032,0.709-0.063,1.1-0.095c1.608-0.143,3.562-0.285,5.391-0.41c0.646-0.047,1.261-0.096,1.86-0.127
	c1.562-0.066,3.119-0.214,4.666-0.44c0.457-0.235,5.469-4.666,5.8-4.948l0.016-0.017l0.047,3.39l0.426-0.301
	c0.788-0.536,2.538-1.699,4.082-2.632c0.779-0.505,1.609-0.927,2.475-1.261c1.655-0.473,2.553,0.787,2.317,2.222
	c-0.128,0.405-0.369,0.767-0.694,1.04c-1.415,1.24-2.957,2.329-4.6,3.247c0.473-0.095,5.17-1.119,6.289-1.388
	c0.563-0.124,1.146,0.1,1.482,0.567c0.42,0.587,0.3,1.401-0.271,1.843C55.438,219.64,54.195,220.216,52.882,220.564z"/>
</svg>
