<svg xmlns="http://www.w3.org/2000/svg" width="54.455" height="54.455" viewBox="0 0 54.455 54.455">
  <path id="font-solid" d="M52.51,78.676H49.665L33.777,34.636A3.89,3.89,0,0,0,30.094,32H24.361a3.89,3.89,0,0,0-3.683,2.637L4.79,78.676H1.945A1.945,1.945,0,0,0,0,80.621v3.89a1.945,1.945,0,0,0,1.945,1.945H17.5a1.945,1.945,0,0,0,1.945-1.945v-3.89A1.945,1.945,0,0,0,17.5,78.676h-2.38L17.956,70.9H36.5l2.832,7.779h-2.38a1.945,1.945,0,0,0-1.945,1.945v3.89a1.945,1.945,0,0,0,1.945,1.945H52.51a1.945,1.945,0,0,0,1.945-1.945v-3.89A1.945,1.945,0,0,0,52.51,78.676ZM21.5,61.172l5.731-15.74,5.731,15.74Z" transform="translate(0 -32)" fill="#fff"/>
</svg>
