<svg id="Laag_1" data-name="Laag 1" xmlns="http://www.w3.org/2000/svg" xmlns:xlink="http://www.w3.org/1999/xlink" viewBox="0 0 841.89 595.28"><defs><style>.cls-1,.cls-14,.cls-15,.cls-26{fill:none;}.cls-2{fill:#663222;}.cls-3{fill:#0099bc;}.cls-4{fill:#e2e0e0;}.cls-5{fill:#f4f4f4;}.cls-6{fill:#e0a088;}.cls-7{fill:#fcfcf8;}.cls-8{fill:#f1c826;}.cls-9{fill:#e9b633;}.cls-10{fill:#c83d3b;}.cls-11{fill:#0a8599;}.cls-12{fill:#e6b190;}.cls-13{fill:#7d3f22;}.cls-14,.cls-15{stroke:#222221;}.cls-14,.cls-15,.cls-26{stroke-linecap:round;stroke-linejoin:round;}.cls-15{stroke-dasharray:1.99 4.98;}.cls-16{font-size:14px;fill:#222221;font-family:SourceSansPro-Semibold, Source Sans Pro;font-weight:600;}.cls-17{letter-spacing:-0.01em;}.cls-18{letter-spacing:-0.01em;}.cls-19{letter-spacing:-0.01em;}.cls-20{letter-spacing:0em;}.cls-21{letter-spacing:-0.01em;}.cls-22{fill:#28723d;}.cls-23{fill:#d8d8dd;}.cls-24{fill:#3a8e45;}.cls-25{clip-path:url(#clip-path);}.cls-26{stroke:#c68b79;stroke-width:0.9px;}.cls-27{fill:#fff;}</style><clipPath id="clip-path"><path class="cls-1" d="M342.38,380.07c-124.66,13.25-148.53-7.45-170.56-28.7-.36.33-3.26,3.24-4.12,11.42-.13,1.28-.22,2.68-.23,4.22a30,30,0,0,0,2.88,13.43l3.38,5.19s.42,4.69,13.78,17.12a271.34,271.34,0,0,0,21.91,18h0C340,527.48,549.93,482.49,549.93,482.49s-1.8-2.88-7.81-6.69a99.8,99.8,0,0,0,37.33-21.27c-10.12-.22-40.71-.77-117-1.55,76.25.78,106.84,1.33,117,1.55,18.86-16.76,35.18-42.06,53.63-77.93q4.24-8.25,8.66-17.25,5.79-11.82,12-25c-62,10.43-214,35.34-311.34,45.68"/></clipPath></defs><path class="cls-2" d="M323.05,346.65s93.83,8.19,147.1-1.14c0,0-91.68,24.76-103.45,26.42s-41.56,5-41.56,5Z"/><path class="cls-3" d="M401,438.19S165.89,425,185.19,438s15.33,14.55-24,14.55-91.95,17.1-63.91,23.32,69.52,10.89,90.94,17.12-76.5,0-40.44,18.65,76.83-4.66,152.83,0S383.5,517,433.42,519s109-21.35,126.79-19.79,94.33,7.78,108.56-1.56-9.94-12.43-37.44-12.43-120.16-21.62-79-19.36,58.36-2.26,81.61,0,159.74-18,96.65-19.52-130.44,1.55-175.93,1.55S416.31,445,436.91,440.59s-9.28-2.85-22.62-2.62"/><path class="cls-4" d="M255.81,176.14a17.21,17.21,0,0,0-5.4.87,27.57,27.57,0,0,0-22.2-11.19l-1.26,0a22.39,22.39,0,0,0-8.14-10.8h0l-.68-.46h0a22.28,22.28,0,0,0-2.17-1.26h0l-.75-.37h0c-.25-.12-.5-.23-.76-.33l0,0-.74-.29-.08,0-.73-.26-.11,0-.71-.22-.15,0-.68-.17-.19,0-.65-.14-.26,0-.6-.1-.31,0-.55-.08-.4,0-.48,0-.56,0-.33,0h-.9a22.41,22.41,0,0,0-3.69.3,21.94,21.94,0,0,0-5.68,1.76,27.09,27.09,0,0,0-3.06-4.63c-.38-.48-.79-.94-1.21-1.39a27.58,27.58,0,0,0-20.17-8.77,27.54,27.54,0,0,0-15.43,4.71c-.73.5-1.44,1-2.12,1.59A27.89,27.89,0,0,0,150,149.3c-.53.71-1,1.45-1.49,2.21s-.88,1.54-1.27,2.34a27.42,27.42,0,0,0-2.72,12c0,.21,0,.41,0,.62-.36-.1-.73-.18-1.1-.26a17.13,17.13,0,0,0-3.46-.36l-1,0-.31,0-.75.08-.32,0c-.3,0-.59.09-.88.15l-.14,0-1,.23-.27.08-.72.22-.3.1-.74.28-.2.08c-.31.13-.61.26-.9.41l-.22.11c-.22.11-.45.23-.67.36l-.27.15-.64.4-.21.13c-.27.18-.54.37-.8.57l-.15.11-.63.51-.23.2c-.18.16-.36.32-.53.49l-.2.19c-.24.23-.47.47-.69.71l-.05.07c-.2.22-.4.45-.58.68l-.19.23c-.15.19-.29.38-.43.58l-.17.24c-.18.25-.34.51-.5.77l0,.05h0A17.28,17.28,0,0,0,140,200.36a17.42,17.42,0,0,0,4.59-.64,22,22,0,0,0,.39,3.07h0c0,.26.11.52.18.79,0,.06,0,.13,0,.2.06.24.13.47.19.71l.08.26c.06.22.14.45.21.67l.09.28.24.65c0,.09.07.18.11.28s.17.42.26.63l.12.27c.09.21.19.42.29.62s.08.17.13.26.21.41.32.62l.12.21c.12.22.24.43.37.64a.93.93,0,0,0,0,.1,24,24,0,0,0,1.48,2.14l.09.11.42.51.21.25.4.45.26.28.4.41.29.29.41.39.32.28.41.36.35.28c.13.12.27.23.41.34l.37.27.42.31.4.27.42.28.45.27c.13.08.26.17.39.24s.49.28.73.4l.42.22c.19.1.39.2.6.29l.38.17.53.24.41.16.53.2.43.14.54.18.43.13.55.15.44.11.56.12.44.09.59.1.43.07.62.08.42,0,.69,0,.35,0,1.06,0a22.34,22.34,0,0,0,14-4.92,22.28,22.28,0,0,0,35.9,2.69A27.75,27.75,0,0,0,228.21,221c.55,0,1.09,0,1.63,0l.54-.05c.36,0,.71,0,1.06-.09l.65-.09.93-.15.67-.13.87-.18.69-.18.82-.23.7-.21.77-.27.7-.26.74-.3.69-.3.7-.34.68-.35.66-.36c.23-.13.46-.25.68-.39s.41-.25.61-.38l.68-.44.53-.38a26.39,26.39,0,0,0,2.55-2.06l.4-.36.65-.64.42-.43.6-.65.31-.35h0c.44-.51.86-1,1.27-1.57a17.27,17.27,0,1,0,5.4-33.67"/><path class="cls-5" d="M252.29,180.24a17.21,17.21,0,0,0-5.4.88,27.53,27.53,0,0,0-22.19-11.2c-.43,0-.84,0-1.26,0a22.35,22.35,0,0,0-8.15-10.8h0c-.22-.16-.45-.31-.68-.46h0a22.43,22.43,0,0,0-2.18-1.26h0c-.24-.13-.49-.25-.75-.37h0q-.37-.18-.75-.33l0,0-.75-.29-.07,0-.73-.26-.11,0c-.24-.07-.47-.15-.71-.21l-.15,0c-.23-.07-.45-.13-.68-.18l-.2,0-.64-.14-.26,0-.6-.1-.32-.05-.55-.07-.4,0-.48,0c-.18,0-.37,0-.55,0l-.34,0h-.9a22.38,22.38,0,0,0-3.68.3,21.82,21.82,0,0,0-5.68,1.76,27.7,27.7,0,0,0-3.06-4.63c-.39-.48-.79-.94-1.21-1.39a27.6,27.6,0,0,0-35.6-4.06c-.74.5-1.44,1-2.13,1.59a28.34,28.34,0,0,0-4.56,4.79,25.61,25.61,0,0,0-1.48,2.2c-.46.76-.89,1.54-1.28,2.34a27.56,27.56,0,0,0-2.72,12c0,.21,0,.42,0,.63-.37-.1-.73-.19-1.11-.27a17,17,0,0,0-3.45-.36c-.36,0-.71,0-1.06,0l-.31,0-.75.07-.32,0q-.43.06-.87.15l-.14,0-1,.23-.27.08-.71.22-.3.1-.75.28-.19.08c-.31.13-.61.26-.91.41l-.21.11c-.23.12-.45.23-.67.36l-.28.15-.63.4-.22.13c-.27.19-.54.37-.8.57l-.14.11-.63.51-.23.2-.54.49a1.8,1.8,0,0,1-.2.19c-.23.23-.46.47-.68.71l-.06.07c-.2.22-.39.45-.58.68l-.18.24c-.15.18-.29.38-.43.57l-.18.24c-.17.26-.34.51-.5.77l0,.05a17.23,17.23,0,0,0,19.34,25.61,22.36,22.36,0,0,0,.4,3.08h0c.05.26.11.53.17.79,0,.06,0,.13,0,.2.06.24.12.47.19.71s0,.17.07.26.14.45.22.67l.09.28c.07.22.15.43.23.65a2.33,2.33,0,0,1,.11.28l.26.63.12.27c.1.21.19.42.29.62s.09.17.13.26.21.42.32.62l.12.21.37.65.06.09a22,22,0,0,0,1.48,2.14,1,1,0,0,1,.08.11l.43.52.2.24.41.45c.08.1.17.19.25.28l.41.42.29.28.41.39.31.29.42.35.34.29.42.33.37.28.42.3.4.27.42.28c.14.1.29.19.44.28l.4.24.72.4.42.21.6.29.38.17.54.24.41.16.53.2.43.14c.17.07.35.12.53.18l.44.13.55.15.43.11.57.12.44.09.59.1.43.07.62.08.41,0,.7,0,.35,0,1.06,0A22.26,22.26,0,0,0,174.22,222a23.36,23.36,0,0,0,3.05-2.07,22.29,22.29,0,0,0,32.48,5.94,22.85,22.85,0,0,0,3.42-3.25,27.57,27.57,0,0,0,7,2.16,28.29,28.29,0,0,0,4.54.37c.54,0,1.09,0,1.62-.05l.55-.05c.35,0,.71,0,1.06-.09l.64-.09.93-.14.68-.14.87-.18.69-.18c.27-.07.55-.14.82-.23l.69-.21.78-.27.69-.26.74-.3.69-.3.7-.34.69-.34.66-.37.68-.39.61-.38.68-.44.52-.37a26.92,26.92,0,0,0,2.56-2.07c.13-.12.27-.23.4-.36s.43-.42.64-.64l.43-.43c.2-.21.39-.43.59-.65l.31-.35h0c.44-.51.87-1,1.27-1.57a17.27,17.27,0,1,0,5.4-33.67"/><path class="cls-6" d="M318.34,217c6.68-1.88,14-4,14.45-4.44.83-.81,2.06-1.88,4.11-3.89S352.81,191.2,353,189.3c.14-1.63,0-6.48,0-7.79l-3.7-.26c0,1.95.07,4.47,0,5.56-.15,1.89-14,17.35-16.06,19.36s-3.29,3.09-4.11,3.89c-.42.42-7.27,2.42-13.75,4.25a14,14,0,0,1,3.06,2.69"/><path class="cls-6" d="M369.29,175.24l.35,0a7.4,7.4,0,0,1,1.63-2.17c-.35-2.68-2.8-5.15-5.4-.3,2.33-2.07,3.18,1.12,3.42,2.44"/><path class="cls-6" d="M360,172.78c-.29-1.18-2.16-7.92-5,.25-.07.43-.12.83-.17,1.22l4.29.3a11.86,11.86,0,0,1,.85-1.77"/><path class="cls-6" d="M363.66,174.86l.51,0a11.84,11.84,0,0,1,1.41-1.82c-.16-1.13-1.16-6.35-4.79-1.25,1.49-1.17,2.51,1.74,2.87,3"/><path class="cls-7" d="M467.49,186.61a5.76,5.76,0,0,0-1.44-4.78l-1,9.16a5.78,5.78,0,0,0,2.42-4.38"/><path class="cls-8" d="M374.34,183l9.78.67.79-7.33-9.87-.68,0,.19a31.22,31.22,0,0,1-.73,7.15"/><path class="cls-8" d="M354.58,178s0-1.57.29-3.79l-4.9-.33-.51,4.71Z"/><path class="cls-8" d="M349.21,181a.5.5,0,0,1-.11.26h.12V181Z"/><path class="cls-8" d="M369.64,175.27l-.35,0c.06.32.08.53.08.53.09-.18.18-.33.27-.5"/><path class="cls-8" d="M352.91,181.17l5.43-.63a38.68,38.68,0,0,1,.46-5c.12-.36.24-.68.36-1l-4.29-.3c-.27,2.22-.29,3.79-.29,3.79l-5.12.59-.25,2.34v.28l3.7.26c0-.21,0-.34,0-.34"/><path class="cls-8" d="M364.17,174.89l-.51,0c.1.35.16.59.16.59.12-.2.23-.38.35-.56"/><polygon class="cls-8" points="410.77 185.87 411.63 177.88 386.23 176.14 385.37 184.13 410.77 185.87"/><polygon class="cls-8" points="437.34 188.83 438.37 179.27 412.97 177.52 411.94 187.09 437.34 188.83"/><path class="cls-8" d="M463.7,191.57l0-.17a2.23,2.23,0,0,1-.37,0c-2-.22-3.33-2.71-3-5.58s2.16-5,4.14-4.8a2.11,2.11,0,0,1,.36.09l.09-.86-25.17-1.73-1.22,11.3Z"/><path class="cls-8" d="M464.47,181c-2-.21-3.83,1.94-4.14,4.8s1,5.36,3,5.58c.13,0,.25,0,.37,0l1.11-10.27a2.37,2.37,0,0,0-.36-.09"/><path class="cls-9" d="M348.82,181.21l.5-7.32,0,0,.63,0,0-.21a.54.54,0,0,0-.47-.59l-.22,0a.54.54,0,0,0-.59.47l-.79,7.29a.54.54,0,0,0,.48.58l.22,0a.52.52,0,0,0,.48-.22l-.26,0,0,0"/><path class="cls-9" d="M349.21,181c0-1.31-.06-2.3-.06-2.3l.31,0,.51-4.71-.63,0,0,0-.5,7.32,0,0h.26a.44.44,0,0,0,.11-.25Z"/><path class="cls-9" d="M349.21,181l.25-2.34-.31,0s0,1,.06,2.3"/><path class="cls-9" d="M385.18,184.1l0-.37-1.09-.08-.06.58a.53.53,0,0,0,.47.58l.23,0a.53.53,0,0,0,.58-.48l0-.23h-.17s0,0,0,0"/><path class="cls-9" d="M385.73,176.12a0,0,0,0,1,0,0l.48,0,0-.21a.52.52,0,0,0-.47-.59l-.22,0a.54.54,0,0,0-.59.48l-.06.53.8.05Z"/><polygon class="cls-9" points="385.21 183.73 385.71 176.37 384.91 176.32 384.12 183.65 385.21 183.73"/><path class="cls-9" d="M385.73,176.12l0,.25.18,0s0,0,0,0l-.51,7.32,0,0h-.17l0,.37s0,0,0,0h.17l.86-8-.48,0a0,0,0,0,0,0,0"/><path class="cls-9" d="M385.4,183.72l.51-7.32s0,0,0,0l-.18,0-.5,7.36h.17l0,0"/><path class="cls-9" d="M411.75,177.91l-.55,8s0,0,0,0l-.41,0-.13,1.22a.53.53,0,0,0,.47.59l.22,0a.52.52,0,0,0,.59-.47l0-.14-.19,0,0,0,.66-9.54s0,0,0,0l.56,0,0-.14a.54.54,0,0,0-.48-.59l-.22,0a.54.54,0,0,0-.59.48l-.07.64h.1l0,0"/><path class="cls-9" d="M411.18,185.9s0,0,0,0l.55-8,0,0h-.1l-.86,8Z"/><path class="cls-9" d="M412.39,177.51l-.66,9.54,0,0,.19,0,1-9.57-.56,0s0,0,0,0"/><path class="cls-9" d="M438.24,189.8l.58-8.51-1.07,7.55,0,0-.39,0-.11,1a.54.54,0,0,0,.48.59l.22,0a.54.54,0,0,0,.59-.48v-.09l-.27,0,0,0"/><path class="cls-9" d="M439,179.13l0-.63h0l.72,0v-.14a.53.53,0,0,0-.47-.59l-.22,0a.54.54,0,0,0-.59.48l-.11,1h0l.58-.14"/><path class="cls-9" d="M437.73,188.86l0,0,1.07-7.55.15-2.16-.58.14h0l-1,9.56Z"/><path class="cls-9" d="M439,178.5l0,.63.17,0-.32,2.2-.58,8.51s0,0,0,0l.28,0,1.22-11.3-.72,0h0"/><path class="cls-9" d="M439,179.13l-.15,2.16.32-2.2-.17,0"/><path class="cls-9" d="M465,180.29l-.06.88a2.77,2.77,0,0,1,1.08.66l.16-1.47a.53.53,0,0,0-.47-.59l-.22,0a.54.54,0,0,0-.59.48v.05h.1s0,0,0,0"/><path class="cls-9" d="M464.26,191.59l0,0-.54,0-.05.47a.53.53,0,0,0,.48.59l.22,0a.54.54,0,0,0,.59-.48l.13-1.19a3.16,3.16,0,0,1-.79.33Z"/><path class="cls-9" d="M464.28,191.33a3.2,3.2,0,0,0,.79-.34l1-9.16a2.77,2.77,0,0,0-1.08-.66Z"/><path class="cls-9" d="M465,181.17l.06-.88s0,0,0,0h-.1l-.09.86.14,0"/><path class="cls-9" d="M464.26,191.59l0-.27a2.7,2.7,0,0,1-.56.08l0,.17.54,0,0,0"/><path class="cls-9" d="M465,181.17l-.14,0-1.11,10.27a2.7,2.7,0,0,0,.56-.08Z"/><path class="cls-10" d="M283.39,396.16a1.91,1.91,0,1,0-1.6-2.18,1.92,1.92,0,0,0,1.6,2.18"/><path class="cls-10" d="M317.94,393.45a1.91,1.91,0,1,0,2,1.79,1.91,1.91,0,0,0-2-1.79"/><path class="cls-3" d="M310.94,390.56l3.49,0c6.42-.61,11.42-.62,11.42-.62a24.54,24.54,0,0,1,2.44.71c0-.68-.35-8.39-.75-18q-9,.64-18.09,1Zm14.2-4.25c-.28,4.44-6.22.44-6.22.44,5.35,2,6.22-.44,6.22-.44"/><path class="cls-3" d="M314.43,390.6l13.75.14.11,0h0a24.54,24.54,0,0,0-2.44-.71s-5,0-11.42.62"/><path class="cls-3" d="M279.71,388.7l-.64,3.23,14.34-.78c-.6-.32-1-.49-1-.49s-5.63-1.19-12.73-2"/><path class="cls-3" d="M290.64,374a9.69,9.69,0,0,1-2.41.18l.37-.2c-1.4,0-2.81,0-4.21-.08-2.81,6.17-5.08,12.7-5.33,18.08h0l.64-3.23c7.1.77,12.73,2,12.73,2s.37.17,1,.49l5.26-.29,9.62-17.13q-8.87.3-17.65.22m7.17,13s-2.85,3.47-6.14-1.55c0,0,4.17,3.2,6.14,1.55"/><path class="cls-3" d="M316.05,339.5c-.64-1.18-16.9-28.55-16.9-28.55s16.4,25.94,18.84,29a9.23,9.23,0,0,1,1.71,6.38q3.32.3,6.77.59c-.3-7.28-.53-12.78-.56-13.62-.1-2.43-1.51-28.81-1.91-36.18-5.62,1.25-16.62,3.28-27.26,2.84-13.39-.55-22.39-2.41-29.38-2.73a22.52,22.52,0,0,0-.2,16.43c4,9.91,9.11,18.71,18.49,26.42,1.22,1,2.66,2.16,4.11,3.3q12.66,1.37,28.58,2.83a11.6,11.6,0,0,0-2.29-6.73"/><path class="cls-3" d="M328.29,390.7l-.11,0h.11v0"/><path class="cls-11" d="M290.64,374l-2,0-.38.2a9.69,9.69,0,0,0,2.41-.18"/><path class="cls-11" d="M297.81,386.91c-2,1.65-6.14-1.55-6.14-1.55,3.29,5,6.14,1.55,6.14,1.55"/><path class="cls-11" d="M325.14,386.31s-.87,2.44-6.22.44c0,0,5.94,4,6.22-.44"/><path class="cls-8" d="M323.9,295.22s0,.71.1,1.92c2.39-.54,3.81-.93,3.81-.93.62-3.84-1.71-38.51-1.71-38.51l-.92-8.88c-.6-3.16-1.05-8.54-1.74-14.1-6.82,3-13.45,5.81-13.45,5.81a23.27,23.27,0,0,1-1-3.69L306.23,238c-2.12-5.44-2.63-20.5-2.63-20.5s5.68-1.54,11.68-3.23a13.73,13.73,0,0,0-1.63-.93,38.85,38.85,0,0,0-9.23-3.09l-15.6-.16v-.3c-1.21.16-2.24.34-3.07.51l-.27,6.33a55,55,0,0,0,15.79,2.9s-11.7.37-14.63-.15a4.47,4.47,0,0,1-1.26-.43l-1.08,24.8a57.52,57.52,0,0,0,21.24-.51s-10.64,6-21.34,2.72l-.37,8.58-17.5,8.26-1.63,34.38c.85,0,1.74,0,2.66,0a18.92,18.92,0,0,1,1.2-2.59Zm.33-6.29c-13.94,7.82-17.14-14.79-17.14-14.79,4.28,16.78,17.14,14.79,17.14,14.79"/><path class="cls-8" d="M283.57,210.85v.05c.58-.19,1.07-.32,1.44-.41-.92.21-1.43.36-1.43.36"/><path class="cls-8" d="M306.23,238l2.78-1.2A134.37,134.37,0,0,1,307.36,220s5.25-1.42,11-3a14,14,0,0,0-3.06-2.69c-6,1.68-11.68,3.22-11.68,3.22s.51,15.06,2.63,20.51"/><path class="cls-8" d="M324,297.14c-.07-1.21-.1-1.92-.1-1.92l-55.34-.56a18.92,18.92,0,0,0-1.2,2.59c7,.32,16,2.18,29.38,2.73,10.64.44,21.64-1.59,27.26-2.84"/><path class="cls-11" d="M318,340c-2.44-3.08-18.84-29-18.84-29s16.26,27.37,16.9,28.55a11.6,11.6,0,0,1,2.29,6.73l1.36.12A9.23,9.23,0,0,0,318,340"/><path class="cls-12" d="M304.42,210.28h.27l0-3.29c27.13-2.78,34.16-23.35,34.16-23.35,7.3-1.14,5.27-6.71,4.23-6.2a19,19,0,0,1-4.52.65c-1.66-19.49-8.45-28.87-12.77-33l-.14.35a19.21,19.21,0,0,0-2.77-1.35c-4.57-1.74-14.61-3.69-29.06,3.76l-.51.27c-.11.38-4,14.1-4.51,18.59s-3.08,9.59-4.74,3.68c0,0-1.07,10-1.68,11.47s-2.35,3.19-4,0-4.18-6.68-6.66-5.66-4.16,5.85-2.71,10.27,5.3,7.37,11.1,1.83c0,0,2.2,10.77,1.27,14l-5.4-4.24s.72,4.07-1.58,5.58a73.81,73.81,0,0,0,14.39,2.54l0,3.67a47.42,47.42,0,0,1,15.6.46m14-18.93c.37,5.88,5.38,6.22,5.38,6.22s-5-.34-5.38-6.22m16-19.21a12.77,12.77,0,0,0-4.51-1.2,12.77,12.77,0,0,1,4.51,1.2s-3.14-7-12.55-2.18c9.41-4.78,12.55,2.18,12.55,2.18m-16.83-13c1.38-2,4.44-2.57,5.76-2.73a2.65,2.65,0,0,1,1.45.2c1.24.6.87,1.7.08,1.76a7.22,7.22,0,0,0-5.3,2.38c-1,1.29-3.78,1-2-1.61m.11,21.28c2.69,0,4.86,1.6,4.84,3.52s-2.22,3.46-4.91,3.43-4.86-1.6-4.84-3.52,2.21-3.46,4.91-3.43m-43.91,3.72a6.93,6.93,0,0,0-.8,2.78,6.93,6.93,0,0,1,.8-2.78,5.62,5.62,0,0,1,1.7-2,5.62,5.62,0,0,0-1.7,2l2.66,2.82Zm29.41,23.13s1.95,4.5-8.41-.09Z"/><path class="cls-12" d="M304.42,210.28a47.42,47.42,0,0,0-15.6-.46v.3Z"/><path class="cls-13" d="M271.21,157.43a43,43,0,0,1-8.19.8,55.87,55.87,0,0,0,8.69-3.4c.69-3.59,1.17-5.87,1.17-5.87l19.35-6.28a40.46,40.46,0,0,1,8.6-3.65c7.37-2,14.86.71,19.67,3.22l1.64.13a16.48,16.48,0,0,1,3.68,2.75c2.21-5.75,3.47-11.45-4.88-17.53-8.52-6.21-20.37-8.12-33.83-4.6s-26.21,16-30.73,20.29S242.12,152,242.12,152c4.85.12,10.85-3.7,10.85-3.7-4.84,7.19-15.34,12.31-15.34,12.31,3.7,2.42,10.87,2.2,10.87,2.2-.33,3.57-2.85,16.61-2.85,16.61l2.42-3.57c-.3,22.3,10,26.15,10,26.15l.06-5.37c9.72,7.67,14.24,8.39,16.31,7a17.33,17.33,0,0,1-6.41-3.22c-3.69-3.43.58-29.26,3.15-43"/><path class="cls-13" d="M276.05,198l5.4,4.24c.93-3.2-1.27-14-1.27-14-5.8,5.54-9.65,2.59-11.1-1.83s.24-9.25,2.71-10.27,5,2.44,6.66,5.66,3.35,1.53,4,0,1.68-11.47,1.68-11.47c1.66,5.91,4.24.86,4.74-3.68s4.4-18.21,4.51-18.59c-1,.55-2,1.13-3,1.76a53,53,0,0,1-19.17,7.51c-2.57,13.7-6.84,39.53-3.15,43a17.33,17.33,0,0,0,6.41,3.22c2.3-1.51,1.58-5.58,1.58-5.58"/><path class="cls-13" d="M320.5,142.25a37.8,37.8,0,0,1,5.18,3.23l.14-.35a16.48,16.48,0,0,0-3.68-2.75Z"/><path class="cls-13" d="M293.85,147.89c14.45-7.45,24.49-5.5,29.06-3.76-7.47-3-18.09-2.23-29.06,3.76"/><path class="cls-13" d="M272.88,149s-.48,2.28-1.17,5.87c7.63-3.71,14-8.6,20.52-12.15Z"/><path class="cls-2" d="M325.68,145.48a14,14,0,0,0-2.77-1.35,19.21,19.21,0,0,1,2.77,1.35"/><path class="cls-2" d="M293.34,148.16l.51-.27-.5.25v0"/><path class="cls-2" d="M320.5,142.25c-4.81-2.51-12.3-5.26-19.67-3.22a40.46,40.46,0,0,0-8.6,3.65l6.7-2.18Z"/><path class="cls-2" d="M263,158.23a43,43,0,0,0,8.19-.8c.18-.92.34-1.8.5-2.6a55.87,55.87,0,0,1-8.69,3.4"/><path class="cls-2" d="M298.93,140.5l-6.7,2.18c-6.49,3.55-12.89,8.44-20.52,12.15-.16.8-.32,1.68-.5,2.6a53,53,0,0,0,19.17-7.51c1-.63,2-1.21,3-1.76v0l.5-.25c11-6,21.59-6.76,29.06-3.76a14,14,0,0,1,2.77,1.35,37.8,37.8,0,0,0-5.18-3.23Z"/><path class="cls-6" d="M317.67,187.33c2.69,0,4.89-1.5,4.91-3.43s-2.15-3.5-4.84-3.53-4.9,1.51-4.91,3.44,2.14,3.5,4.84,3.52"/><path class="cls-13" d="M319.62,160.71a7.22,7.22,0,0,1,5.3-2.38c.79-.06,1.16-1.16-.08-1.76a2.65,2.65,0,0,0-1.45-.2c-1.32.16-4.38.74-5.76,2.73-1.79,2.57,1,2.9,2,1.61"/><path class="cls-6" d="M303.24,207.23l-8.41-.09c10.36,4.59,8.41.09,8.41.09"/><path class="cls-12" d="M368.73,186.19c-1.51,2.29-8.1,9.68-10.15,12s-20.87,25.68-24.69,27.68c-1.49.78-6,2.8-11,5,.2,1.3.37,2.61.53,3.91,6.12-2.66,12.41-5.44,14.21-6.38,3.82-2,22.63-25.4,24.69-27.69s8.64-9.67,10.16-12a19.22,19.22,0,0,0,1.84-5.71l-4.27-.29a13.33,13.33,0,0,1-1.34,3.5"/><path class="cls-12" d="M360.79,171.82a4,4,0,0,0-.78,1,1.29,1.29,0,0,1,0,.17c.26-.42.51-.79.74-1.13"/><path class="cls-12" d="M371.29,175.38l3.75.26c-.26-2.12-1.84-4.13-3.77-2.54,0,.08,0,.16,0,.23a15.9,15.9,0,0,1,0,2"/><path class="cls-12" d="M365.87,172.8a3.58,3.58,0,0,0-.29.27c0,.13,0,.21,0,.21.09-.18.17-.32.26-.48"/><path class="cls-12" d="M369.64,175.27l1.65.11a15.9,15.9,0,0,0,0-2c0-.07,0-.15,0-.23a7.4,7.4,0,0,0-1.63,2.17"/><path class="cls-12" d="M322.92,230.81c5-2.17,9.48-4.19,11-5,3.82-2,22.63-25.4,24.69-27.68s8.64-9.68,10.15-12a13.33,13.33,0,0,0,1.34-3.5l-17.15-1.18c0,1.31.18,6.16,0,7.79-.15,1.9-14,17.35-16.06,19.37s-3.28,3.08-4.11,3.89c-.44.43-7.77,2.56-14.45,4.44a14.44,14.44,0,0,1,3,5.55,74.12,74.12,0,0,1,1.63,8.26"/><path class="cls-12" d="M363.66,174.86c-.36-1.3-1.38-4.21-2.87-3-.23.34-.48.71-.74,1.13a1.29,1.29,0,0,0,0-.17,11.86,11.86,0,0,0-.85,1.77Z"/><path class="cls-12" d="M369.29,175.24c-.24-1.32-1.09-4.51-3.42-2.44-.09.16-.17.3-.26.48,0,0,0-.08,0-.21a11.84,11.84,0,0,0-1.41,1.82Z"/><path class="cls-12" d="M370.07,182.69l4.27.29a31.22,31.22,0,0,0,.73-7.15l0-.19-3.75-.26a42.56,42.56,0,0,1-1.22,7.31"/><path class="cls-12" d="M371.29,175.38l-1.65-.11c-.09.17-.18.32-.27.5,0,0,0-.21-.08-.53l-5.12-.35-.35.55s-.06-.23-.16-.58l-4.5-.31c-.12.3-.24.62-.36,1a38.68,38.68,0,0,0-.46,5l-5.43.63s0,.13,0,.34l17.15,1.18a42.56,42.56,0,0,0,1.22-7.31"/><path class="cls-12" d="M309,236.84a23.27,23.27,0,0,0,1,3.69s6.63-2.83,13.45-5.81c-.16-1.3-.33-2.61-.53-3.91-5.1,2.24-10.66,4.64-13.9,6"/><path class="cls-12" d="M321.29,222.55a14.44,14.44,0,0,0-3-5.55c-5.73,1.61-11,3-11,3A134.37,134.37,0,0,0,309,236.84c3.24-1.39,8.8-3.79,13.9-6a72,72,0,0,0-1.62-8.26"/><path class="cls-8" d="M285.75,210.33l-.75.16.75-.16Z"/><path class="cls-8" d="M282.26,216c-.25-.38-.38-.63-.38-.63l.49.2,1.19-4.66a24.05,24.05,0,0,0-9.6,5.67c-5.23,5.15-7.63,46.26-7.63,46.26l7.36-13.35Z"/><path class="cls-8" d="M285.48,216.66l.27-6.33-.75.16c-.37.09-.86.22-1.44.41l-1.19,4.66c.58.22,1.67.63,3.11,1.1"/><path class="cls-8" d="M284.2,246a21.2,21.2,0,0,1-7.1-3.82,49.82,49.82,0,0,0,7.2,1.62L285.38,219a8.65,8.65,0,0,1-3.12-3l-8.57,33.49-7.36,13.35,17.5-8.26Z"/><path class="cls-9" d="M305.54,243.27a57.55,57.55,0,0,1-21.24.52l-.1,2.2c10.7,3.3,21.34-2.72,21.34-2.72"/><path class="cls-9" d="M284.2,246l.1-2.2a49.82,49.82,0,0,1-7.2-1.62,21.2,21.2,0,0,0,7.1,3.82"/><path class="cls-9" d="M286.64,219.41c2.93.52,14.63.15,14.63.15a55,55,0,0,1-15.79-2.9l-.1,2.32a4.47,4.47,0,0,0,1.26.43"/><path class="cls-9" d="M281.88,215.36s.13.25.38.63l.11-.43-.49-.2"/><path class="cls-9" d="M282.26,216a8.65,8.65,0,0,0,3.12,3l.1-2.32c-1.44-.47-2.53-.88-3.11-1.1Z"/><path class="cls-9" d="M324.23,288.93s-12.86,2-17.14-14.79c0,0,3.2,22.61,17.14,14.79"/><path class="cls-2" d="M308.29,373.73l1.16,0-.15-1.76Z"/><path class="cls-2" d="M297.54,349.39s-3.92-3-7.78-6c-33.78-3.67-50.21-6.7-50.21-6.7l-11.82.83c-8.07,1.79-6.52,16.75-6.52,16.75l-17.17,2s0-6.66-3.14-10.32c-2.93-3.36-9.1-5.51-10.12-5.84l-11.56.8h0c.07.13,14,26,86,31.91,6.33.53,12.75.85,19.21,1a160,160,0,0,1,11.88-21.09c-4.18-1.59,1.27-3.37,1.27-3.37"/><path class="cls-3" d="M319.7,346.35a18,18,0,0,1-.5,3.2c-.55,2.21-7.64,19.19-7.64,19.19s.58-3.51,4.85-13.75a21.33,21.33,0,0,0,1.93-8.76q-15.93-1.44-28.58-2.83c3.86,3,7.78,6,7.78,6s-5.45,1.78-1.27,3.37a160,160,0,0,0-11.88,21.09c1.4,0,2.81.06,4.22.08,1.41-.77,6.55-3.68,8.41-6.88,0,0-.81,5.81-6.38,6.9q8.79.07,17.65-.22l1-1.8.15,1.76q9-.31,18.09-1c-.34-8.33-.75-18.06-1.07-25.79q-3.45-.29-6.77-.59m-20.95,6.78c2.53,2.27,7,.1,7,.1-4.24,4.88-7-.1-7-.1m.73-2.08a10.69,10.69,0,0,0,6.87-5.54c.42,5.66-6.87,5.54-6.87,5.54"/><path class="cls-11" d="M297,367.05c-1.86,3.2-7,6.11-8.41,6.88l2,0c5.57-1.09,6.38-6.9,6.38-6.9"/><path class="cls-11" d="M299.48,351.05s7.29.12,6.87-5.54a10.69,10.69,0,0,1-6.87,5.54"/><path class="cls-11" d="M298.75,353.13s2.72,5,7,.1c0,0-4.43,2.17-7-.1"/><path class="cls-11" d="M316.41,355c-4.27,10.24-4.85,13.75-4.85,13.75s7.1-17,7.64-19.19a18,18,0,0,0,.5-3.2l-1.36-.12a21.33,21.33,0,0,1-1.93,8.76"/><path class="cls-4" d="M688.77,109.8a22.49,22.49,0,0,0-9.89,2.28,30.59,30.59,0,0,0-12-13.5h0l-.47-.26c-.28-.17-.57-.33-.86-.48s-.65-.35-1-.51l-.89-.43-1-.44-.91-.36c-.36-.14-.73-.26-1.1-.38l-.91-.29c-.39-.12-.78-.21-1.17-.31s-.6-.16-.91-.22-.84-.17-1.26-.24-.57-.11-.86-.15c-.48-.07-1-.12-1.45-.16l-.73-.08c-.73,0-1.47-.08-2.22-.08a30.3,30.3,0,0,0-6.78.77,52.29,52.29,0,0,0-51.69-44.41c-.64,0-1.28,0-1.91,0l-.62,0c-.42,0-.85,0-1.28.08-.24,0-.47,0-.71.06s-.78.06-1.17.11l-.73.08-1.13.15-.74.12-1.11.19-.72.13-1.12.23-.68.16-1.14.28-.63.16-1.18.34-.57.17-1.23.4-.5.17c-.44.15-.88.31-1.31.48l-.38.14q-.75.28-1.47.6l-.2.08A52.3,52.3,0,0,0,564,59.11h0a52.62,52.62,0,0,0-17.11,18.44A30.46,30.46,0,0,0,500.05,97a30.45,30.45,0,0,0-17.79,27.7c0,.68,0,1.35.08,2,0,.12,0,.25,0,.37a30.47,30.47,0,0,0,30.36,28.07h176a22.66,22.66,0,0,0,0-45.32"/><path class="cls-5" d="M683.55,115a22.63,22.63,0,0,0-9.9,2.27,30.55,30.55,0,0,0-12-13.49h.06l-.47-.26-.86-.49-1-.51-.89-.42c-.34-.16-.69-.3-1-.44s-.6-.25-.91-.36-.73-.26-1.1-.38l-.91-.3c-.38-.11-.78-.21-1.17-.3l-.9-.23c-.42-.09-.84-.16-1.27-.24l-.86-.15-1.44-.16c-.25,0-.49-.06-.73-.07-.74-.06-1.48-.09-2.23-.09a30.9,30.9,0,0,0-6.78.77,52.29,52.29,0,0,0-51.69-44.41c-.64,0-1.27,0-1.91,0l-.61,0-1.28.07-.71.06-1.18.11-.73.09-1.13.15-.73.11-1.12.19-.71.14L576.2,57l-.67.15-1.14.28-.64.17-1.18.33-.57.18c-.41.12-.82.26-1.23.4l-.49.16-1.32.48-.38.15-1.47.59-.2.08a52.65,52.65,0,0,0-8.11,4.36h0a52.38,52.38,0,0,0-17.1,18.43,30.46,30.46,0,0,0-46.87,19.42A30.46,30.46,0,0,0,477,129.88c0,.68,0,1.36.07,2l0,.36a30.45,30.45,0,0,0,30.36,28.07h176a22.66,22.66,0,0,0,0-45.31"/><line class="cls-14" x1="490.76" y1="132.13" x2="491.76" y2="132.13"/><line class="cls-15" x1="496.75" y1="132.13" x2="675.67" y2="132.13"/><line class="cls-14" x1="678.17" y1="132.13" x2="679.17" y2="132.13"/><text class="cls-16" transform="translate(502.47 112.63)"><tspan class="cls-17">W</tspan><tspan class="cls-18" x="11.02" y="0">a</tspan><tspan x="18.13" y="0">t zijn jouw d</tspan><tspan class="cls-19" x="90.7" y="0">r</tspan><tspan class="cls-20" x="95.8" y="0">ome</tspan><tspan class="cls-21" x="122.39" y="0">n</tspan><tspan x="130.07" y="0">?</tspan></text><path class="cls-22" d="M527.45,485.18c24.9,0,45.46-9.86,64.51-25.74l-12.51-4.91c-32.17,28.57-71.74,32.36-142,21.51,21.3,7.53,53.52,9.14,90,9.14"/><path class="cls-22" d="M592,459.44c30.19-25.16,54.42-67.2,74.86-127.26l-13.1,2.21c-27.85,59.09-48.72,97.44-74.27,120.14Z"/><path class="cls-23" d="M170.35,380.44a21.33,21.33,0,0,0,3.38,5.19Z"/><path class="cls-2" d="M670.92,323.52S611,331,554.59,338.69c-33.41,4.56-66.21,9.21-84.82,12.43-15.47,2.68-34.17,6.35-54.51,10-.21.05-.07.09-.28.13C252.89,392,202,373.07,168.69,342.83h-.54l1.34,5.66,2.48,2.84a.31.31,0,0,0-.09,0c22,21.25,45.87,41.95,170.53,28.7,105.18-11.17,275.45-39.33,325.8-47.88,9.35-1.59,16-2.49,16-2.49l.08-7.86Z"/><path class="cls-13" d="M179.68,340.93c.07.13,13.71,26,85.64,31.91,30.06,2.49,61.83,1.06,92.33-2.58-.25,0-.43.46-.43.46v-.41l82.89-20.77L461.44,344l220.07-22.08s-201.25,35.34-234.36,39.27c-22.54,2.68-55.93,5.74-75,7.43-128.7,19.74-172.9,1.62-203.43-25.79h0Z"/><path class="cls-24" d="M342.38,380.07c-124.66,13.25-148.52-7.45-170.56-28.7-.36.33-3.26,3.24-4.12,11.42-.13,1.28-.22,2.68-.23,4.22a30,30,0,0,0,2.88,13.43l3.38,5.19s.43,4.69,13.78,17.12a271.34,271.34,0,0,0,21.91,18h0C340,527.48,549.93,482.49,549.93,482.49s-1.8-2.88-7.81-6.69a99.88,99.88,0,0,0,37.33-21.27c-10.12-.22-40.71-.77-117-1.55,76.25.78,106.84,1.33,117,1.55,18.86-16.76,35.18-42.06,53.63-77.93q4.24-8.25,8.66-17.25,5.79-11.82,12-25c-62,10.43-214,35.34-311.34,45.68"/><g class="cls-25"><path class="cls-22" d="M156.28,355.31a178.76,178.76,0,0,0,25.82,20,182,182,0,0,0,28.83,15.28,145.91,145.91,0,0,0,15.34,5.51,130.18,130.18,0,0,0,15.84,3.75,126.87,126.87,0,0,0,16.15,1.81c1.35.1,2.71.12,4.07.14l4.09.06c2.72,0,5.45.11,8.18.05l8.17-.11c2.73,0,5.46-.18,8.18-.27,5.46-.15,10.91-.49,16.36-.75s10.9-.68,16.34-1,10.9-.82,16.34-1.29q32.64-2.83,65.21-6.64L437.77,388c5.45-.51,10.9-.88,16.35-1.28l16.36-1.22,65.4-4.94c10.9-.73,21.8-1.55,32.71-2.21l32.73-2c21.82-1.3,43.65-2.54,65.49-3.58v.2c-21.79,1.77-43.59,3.36-65.4,4.91l-32.71,2.26c-10.9.77-21.82,1.4-32.72,2.12l-32.74,1.92c-10.91.64-21.82,1.3-32.72,2.05s-21.82,1.49-32.69,2.51c-5.42.61-10.83,1.37-16.25,2.1L405.34,393c-10.84,1.41-21.69,2.77-32.56,4s-21.74,2.41-32.63,3.41c-21.78,2-43.63,3.5-65.55,3.62-2.73.06-5.47,0-8.21-.07l-4.11-.07c-1.37,0-2.74-.05-4.12-.15a117.39,117.39,0,0,1-16.4-1.93,135,135,0,0,1-16-4,149.18,149.18,0,0,1-15.45-5.74,178.17,178.17,0,0,1-28.77-15.87c-4.55-3.06-8.94-6.34-13.2-9.79a149.14,149.14,0,0,1-12.2-11Z"/><path class="cls-22" d="M159.89,378.15c18.1,9.9,36.44,19.37,55.14,28,9.34,4.34,18.81,8.41,28.48,11.89,2.4.93,4.86,1.64,7.29,2.46s4.92,1.45,7.38,2.13l1.85.49,1.87.3,1.87.29c.63.08,1.27.13,1.91.19l3.83.36c1.28.11,2.56.17,3.85.26,10.26.68,20.57,1.09,30.88,1.37,5.15.17,10.31.26,15.47.37s10.31.1,15.47.15q15.46.07,30.94-.25c10.31-.15,20.62-.58,30.92-1.05l7.71-.44c2.57-.16,5.14-.38,7.71-.57,5.12-.43,10.21-1.07,15.36-1.69q15.39-1.68,30.82-3,30.86-2.62,61.76-4.45t61.86-2.75c5.16-.12,10.32-.24,15.48-.3s10.32-.09,15.48,0,10.33.08,15.49.39c2.58.14,5.16.19,7.73.42l7.71.72,0,.2-7.72-.51c-2.57-.16-5.15-.13-7.72-.2-5.15-.17-10.31,0-15.46,0s-10.31.22-15.46.33l-15.46.55q-15.45.63-30.9,1.47c-10.29.58-20.59,1.11-30.89,1.77s-20.58,1.36-30.87,2-20.57,1.43-30.85,2.24S438.24,423,428,424c-5.11.53-10.26,1.11-15.42,1.47-2.58.15-5.16.34-7.74.46l-7.74.33c-20.63.69-41.27.78-61.9.9-20.64-.06-41.28.12-61.93-.93-1.29-.08-2.58-.13-3.87-.23l-3.88-.35c-.64-.06-1.29-.1-1.94-.18l-1.95-.29-2-.3-1.89-.49c-2.5-.68-5-1.26-7.49-2.12s-5-1.57-7.36-2.52c-9.72-3.58-19.19-7.74-28.53-12.15-18.65-8.9-36.84-18.7-54.59-29.23Z"/><path class="cls-22" d="M186.39,409q26,11.39,52,22.5,13,5.57,26.12,10.93c8.75,3.54,17.49,7.11,26.33,10.34,4.43,1.61,8.88,3.17,13.37,4.43,1.12.34,2.24.57,3.36.85s2.21.38,3.41.49l7,.82q14.07,1.67,28.14,3.18c18.78,2,37.56,4,56.39,5.3,9.42.69,18.84,1.26,28.28,1.41,2.36,0,4.72.08,7.07.06l7.07-.15q3.52-.24,7-.54c2.33-.28,4.67-.61,7-1,4.66-.72,9.32-1.52,14-2.36l13.91-2.65,27.79-5.52c9.28-1.78,18.54-3.63,27.84-5.3s18.6-3.35,27.92-4.91,18.67-2.95,28-4.15q7-.9,14.11-1.47a95.88,95.88,0,0,1,14.18-.26v.2c-9.44-.19-18.81,1.29-28.14,2.57s-18.63,3-27.93,4.63-18.58,3.35-27.86,5.11L515,458.77c-18.58,3.36-37.18,6.73-55.87,9.58-2.34.33-4.68.64-7,.91l-7.09.52-7.09.2c-2.36,0-4.73,0-7.09,0-9.45-.15-18.9-.46-28.34-1-18.87-1.09-37.71-2.64-56.51-4.53q-14.1-1.41-28.19-3l-7-.78c-1.15-.11-2.38-.31-3.59-.53s-2.37-.54-3.5-.89c-4.6-1.31-9.07-2.89-13.52-4.52-17.75-6.59-35.08-14.15-52.37-21.77s-34.42-15.6-51.46-23.76Z"/></g><path class="cls-26" d="M273,186.88a6.24,6.24,0,0,1,2.5-4.77"/><line class="cls-26" x1="273.83" y1="184.1" x2="276.49" y2="186.92"/><path class="cls-26" d="M321.91,170c9.16-5.51,12.55,2.18,12.55,2.18a6.82,6.82,0,0,0-5.77-.59"/><path class="cls-26" d="M323.79,197.57s-4.6-.34-5.38-6.22"/><path class="cls-6" d="M307.36,220l5.09,19.45L310,240.53s-3.26-11.65-2.63-20.5"/><path class="cls-22" d="M558.72,469s-53.29,25.11-133.36,22.57c0,0,100.44,2.38,137-13.46Z"/><polygon class="cls-2" points="308.17 373.94 308.29 373.73 309.45 373.69 309.48 373.91 308.17 373.94"/><path class="cls-27" d="M529,389.91l-17,.72a44.92,44.92,0,0,1,6.53-24.78l14.71,8.61a27.84,27.84,0,0,0-4.2,15.45"/><path class="cls-27" d="M556.36,361.2l-.72-17a45,45,0,0,1,24.3,6.22l-8.61,14.72a28,28,0,0,0-15-3.91"/><path class="cls-27" d="M558.21,417.32l.51,0,.72,17-.51,0a45,45,0,0,1-24.57-6.06L543,413.57a27.89,27.89,0,0,0,15.24,3.75"/><path class="cls-27" d="M585.08,388.08l0-.54,17-.72,0,.54a44.89,44.89,0,0,1-5.77,24.06l-14.71-8.61a27.92,27.92,0,0,0,3.45-14.73"/><path class="cls-10" d="M555.84,361.21a28.06,28.06,0,0,0-22.67,13.25l-14.71-8.61a45.06,45.06,0,0,1,36.67-21.66l.51,0,.72,17h-.52"/><path class="cls-10" d="M571.33,365.11l8.61-14.72a45.08,45.08,0,0,1,22.14,36.43l-17,.72a28,28,0,0,0-13.72-22.43"/><path class="cls-10" d="M581.63,402.81l14.71,8.61a45.08,45.08,0,0,1-36.9,22.9l-.72-17a28.06,28.06,0,0,0,22.91-14.48"/><path class="cls-10" d="M512,391.17c0-.18,0-.36,0-.54l17-.72c0,.18,0,.36,0,.54a28.05,28.05,0,0,0,14,23.12l-8.61,14.71A45.07,45.07,0,0,1,512,391.17"/></svg>