<svg id="Laag_1" data-name="Laag 1" xmlns="http://www.w3.org/2000/svg" xmlns:xlink="http://www.w3.org/1999/xlink" viewBox="0 0 841.89 595.28"><defs><style>.cls-1,.cls-10,.cls-15,.cls-16,.cls-20{fill:none;}.cls-2{fill:#e2e0e0;}.cls-3{fill:#040404;}.cls-4{fill:#fff;}.cls-5{fill:#f1c826;}.cls-6{fill:#0a8599;}.cls-7{fill:#e6b190;}.cls-8{fill:#7d3f22;}.cls-9{fill:#663222;}.cls-10{stroke:#c68b79;stroke-linejoin:round;stroke-width:0.74px;}.cls-10,.cls-15,.cls-16,.cls-20{stroke-linecap:round;}.cls-11{fill:#e0a088;}.cls-12{fill:#e9b633;}.cls-13{fill:#f8fafa;}.cls-14{clip-path:url(#clip-path);}.cls-15,.cls-16{stroke:#c83d3b;}.cls-15,.cls-16,.cls-20{stroke-miterlimit:10;}.cls-15{stroke-width:3.88px;}.cls-16{stroke-width:0.73px;}.cls-17{fill:#c83d3b;}.cls-18,.cls-21{fill:#0099bc;}.cls-19{clip-path:url(#clip-path-2);}.cls-20{stroke:#0f98bb;stroke-width:2px;}.cls-21{font-size:14px;font-family:SourceSansPro-Semibold, Source Sans Pro;font-weight:600;}.cls-22{letter-spacing:0em;}.cls-23{letter-spacing:-0.01em;}.cls-24{letter-spacing:-0.01em;}.cls-25{letter-spacing:0em;}.cls-26{letter-spacing:-0.01em;}.cls-27{letter-spacing:0em;}</style><clipPath id="clip-path"><path class="cls-1" d="M390.23,508.8l34.49,6.67c-1.65-12.51-17.05-18.06-17.05-18.06s-7.07-1-15.91-1.24Z"/></clipPath><clipPath id="clip-path-2"><path class="cls-1" d="M463.86,490.23s-14.67,7.25-14.88,19.88l33.5-10.55-3-12.38c-8.75,1.29-15.67,3.05-15.67,3.05"/></clipPath></defs><path class="cls-2" d="M490,464.37c0,9.5-81.8,17.19-182.7,17.19s-182.7-7.69-182.7-17.19,81.8-17.18,182.7-17.18S490,454.88,490,464.37"/><path class="cls-2" d="M453.61,488.42c0,6.44-30.31,11.66-67.71,11.66s-67.7-5.22-67.7-11.66,30.31-11.66,67.7-11.66,67.71,5.22,67.71,11.66"/><path class="cls-3" d="M490.42,108.88c5.78,1.21,36.49,7.9,50,17.05a1.36,1.36,0,0,1-.5,2.45c-3.76.82-11.21,1-13.58,1l1,.73a1.49,1.49,0,0,0,.24.14c6.76,2.93,28.72,12.72,36.91,19.48a1.35,1.35,0,0,1-.57,2.37c-3,.59-8.38.43-10.3.35.39.39.76.77,1.13,1.16l.2.17c6.8,4.65,29,20.61,39.9,38.12a1.24,1.24,0,0,0,.18.22l.61.62-17.82-4.93c0,.3,0,.61,0,.94,1.46,3.85,6.63,17.78,9.86,30.14,6.68,21.24,11.75,50.22,11.61,89.11h0s10.29,10.49,10.33,16.23c0,1.44-.86,1.61-2.18,1.06a1.36,1.36,0,0,0-1.72,1.84c2.09,4.47,3.87,9.22,3.9,12.43.06,6.4-4,17.91-5.42,21.68a1.36,1.36,0,0,1-1.72.8l-5.16-1.77a1.35,1.35,0,0,1-.9-1.5l2.08-12.89a1.35,1.35,0,0,0-2.42-1c-3,3.93-7.29,9.25-10.51,11.31a1.27,1.27,0,0,1-1.12.13c-2-.75-4.34-3.8-5.41-5.27a1.37,1.37,0,0,1,0-1.58l10.08-14.12a1.3,1.3,0,0,0,.15-1.3c-.85-2-3.68-7.39-8.6-4.13a40.92,40.92,0,0,0-9.48,8.76l-.07-.12-3.81-5.82a1.38,1.38,0,0,1-.06-1.39l3.39-6.32a1.36,1.36,0,0,0,.12-1.16c-1-2.49,4.49-12.73,4.5-12.74s0-.1,0-.16-.13-.43-.19-.65l-.18-.58q-.11-.37-.24-.78c0-.19-.11-.37-.16-.56s-.19-.61-.29-.92-.13-.42-.19-.63l-.31-1-.21-.68c-.11-.35-.22-.71-.34-1.08s-.15-.46-.22-.69c-.13-.39-.26-.79-.39-1.21l-.22-.67-.43-1.31c-.07-.23-.15-.46-.23-.7l-.47-1.42c-.06-.19-.13-.39-.2-.59l-.55-1.62-.13-.4c-.91-2.65-1.91-5.49-3-8.44a1.05,1.05,0,0,0-.15-.3l0,0a1.35,1.35,0,0,0-2.41.35c-.2.65-.4,1.28-.61,1.92a1.23,1.23,0,0,0-.06.39c-.39,46.16-5.16,107.48-24.41,152.86a1.23,1.23,0,0,0,0,1c1,2.39.61,16.74.61,16.74h-.19c.06.12.14.22.19.34,2.16,6.48-65.38-.34-65.38-.34l.11,0-4.88-17.11a1.37,1.37,0,0,0-1.62-.94l-2.42.53-1.09.24-2.6.52-1.1.22c-1.13.21-2.25.42-3.35.6l-.64.11-2.67.42-1.25.18-2,.28-1.23.16-2.81.32a126.83,126.83,0,0,1-28,.05l-.45-.06-1.65-.22-.58-.08-1.39-.22-.59-.1-1.24-.22-.58-.11-1.11-.22-.56-.12-1-.22-.51-.12c-.31-.07-.61-.14-.89-.22l-.48-.12-.79-.21-.43-.12-.7-.2-.37-.11-.61-.2-.32-.1-.53-.18-.26-.08-.44-.16-.2-.08-.35-.13-.15-.06-.26-.1-.1,0-.15-.07-.07,0-.07,0-5,17.38a1.35,1.35,0,0,1-1.34,1l-1.81-.05.12.08s-67.55,6.82-65.39.34a5.3,5.3,0,0,1,1.67-2,1.33,1.33,0,0,0,.51-1c.08-2.86.39-12.19,1.27-14.09a1.35,1.35,0,0,0,0-1.13c-20.25-47.89-24.43-113.45-24.36-160.25a1.07,1.07,0,0,1-.07.19c-.25.65-.49,1.3-.74,1.94,0,.11-.08.23-.13.35-1.48,3.94-2.82,7.72-4,11.19-.05.13-.09.27-.14.4l-.55,1.62c-.06.2-.13.4-.2.59-.16.49-.31,1-.47,1.42-.07.24-.15.47-.23.7-.14.45-.28.88-.42,1.31-.08.22-.15.45-.22.67-.14.42-.27.82-.39,1.21-.08.23-.15.47-.22.69s-.23.73-.34,1.08-.15.46-.22.68-.2.67-.3,1-.13.42-.2.63-.19.62-.28.92l-.17.56-.24.78c-.06.2-.11.39-.17.58s-.13.45-.19.65a1.42,1.42,0,0,0-.05.16s5.5,10.25,4.49,12.74a1.4,1.4,0,0,0,.12,1.16l3.39,6.32a1.36,1.36,0,0,1-.06,1.39l-3.8,5.82-.08.12a40.73,40.73,0,0,0-9.47-8.76c-4.92-3.26-7.76,2.12-8.61,4.13a1.35,1.35,0,0,0,.15,1.3l10.08,14.12a1.35,1.35,0,0,1,0,1.58c-1.07,1.47-3.46,4.52-5.41,5.27a1.27,1.27,0,0,1-1.12-.13c-3.23-2.06-7.56-7.38-10.51-11.31a1.36,1.36,0,0,0-2.43,1l2.09,12.89a1.35,1.35,0,0,1-.9,1.5L271,362a1.35,1.35,0,0,1-1.71-.8c-1.4-3.77-5.48-15.28-5.42-21.68,0-3.21,1.81-8,3.89-12.43a1.35,1.35,0,0,0-1.71-1.84c-1.32.55-2.19.38-2.19-1.06,0-5.74,10.33-16.23,10.33-16.23h0c-.2-53.32,9.41-88,19.51-109.66a1.25,1.25,0,0,0,.09-.25c.82-3.58,1.65-6.77,2.34-9.25a1.35,1.35,0,0,0-2.25-1.33c-3.45,3.35-8.52,7.42-12.2,6.67a1.36,1.36,0,0,1-.94-2c7.77-14.18,26.71-28.16,36.76-34.9a1.3,1.3,0,0,0,.22-.19c.21-.22.42-.44.62-.67a1.35,1.35,0,0,0-1.08-2.27c-3.57.25-7.3-.06-7.65-2.43a1.28,1.28,0,0,1,.5-1.18C318.34,144,333,137.21,342,133.33c-.93-4.45.24,1.2-.68-3.25H329.7a1.36,1.36,0,0,1-.83-2.43c10.66-8.06,36.59-14.48,49.7-17.34a1.36,1.36,0,0,0-.11-2.68l-2.7-.35a1.36,1.36,0,0,1-.18-2.66c8.89-2.35,25.91-5.35,38.72,1.44a1.36,1.36,0,0,0,1.4-.06c4.71-3.22,33.18-22.09,52.64-22.46a1.36,1.36,0,0,1,.92,2.4c-5.2,4.41-15.91,14.31-14.36,19.82a1.33,1.33,0,0,0,1.84.79c5.08-2.33,25.72-11.37,37.33-10.4a1.36,1.36,0,0,1,.69,2.42c-2.41,1.88-5.61,5.14-5.42,9.07a1.33,1.33,0,0,0,1.08,1.24"/><path class="cls-4" d="M436.17,156.38a20.08,20.08,0,0,0,.2-2.92,22.4,22.4,0,1,0-.2,2.92m-16.46,2.94a5.68,5.68,0,1,1-6.67-5.57,2.72,2.72,0,0,1,1-.19,3,3,0,0,1,1,.18,5.66,5.66,0,0,1,4.68,5.58"/><path class="cls-4" d="M411.46,157.71a1.07,1.07,0,0,1-.8-1,1.09,1.09,0,0,1,.6-1,2.65,2.65,0,0,0,.2,2"/><path class="cls-4" d="M412.86,156.67a1.1,1.1,0,0,1-1.1,1.1,1,1,0,0,1-.3-.06,2.65,2.65,0,0,1-.2-2,1.07,1.07,0,0,1,.5-.14,1.1,1.1,0,0,1,1.1,1.1"/><path class="cls-4" d="M413,153.74a3,3,0,0,1,1-.18,3,3,0,0,1,1,.18,6.51,6.51,0,0,0-1-.1,6.64,6.64,0,0,0-1,.1"/><path class="cls-3" d="M418.54,162.74a5.67,5.67,0,0,1-9.6-6,2.9,2.9,0,0,0,.5,2.6,1.08,1.08,0,0,0,1.73,1,2.85,2.85,0,0,0,2.83-1.09,2.88,2.88,0,0,0-3.87-4.14,5.67,5.67,0,0,1,8.41,7.54"/><path class="cls-3" d="M416.92,156.44a2.88,2.88,0,0,1-5.46,1.27,1,1,0,0,0,.3.06,1.09,1.09,0,0,0,1.1-1.1,1.1,1.1,0,0,0-1.1-1.1,1.07,1.07,0,0,0-.5.14,2.87,2.87,0,0,1,1.78-2,5.56,5.56,0,0,1,1-.1,6.51,6.51,0,0,1,1,.09,2.89,2.89,0,0,1,1.89,2.7"/><path class="cls-4" d="M479,158.84a12.31,12.31,0,1,0-16.45,5.7,12.31,12.31,0,0,0,16.45-5.7m-7.22-4a3.59,3.59,0,0,1-4.61,2.15,3.23,3.23,0,0,1-.76-.4l-3.85,7.93,3.85-7.93a3.58,3.58,0,0,1,3.1-6.39l3.78-7.77-3.78,7.77.12,0a3.6,3.6,0,0,1,2.15,4.61"/><path class="cls-4" d="M465.65,154.15a.7.7,0,0,1,.9-.42.7.7,0,1,1-.9.42"/><path class="cls-3" d="M467.15,157a3.62,3.62,0,0,1-.76-.39l3.1-6.4.12,0a3.6,3.6,0,1,1-2.46,6.76"/><path class="cls-3" d="M466.39,156.58l3.1-6.39a3.58,3.58,0,0,0-3.1,6.39m-.32-1.54a.7.7,0,1,1,.89-.42.7.7,0,0,1-.89.42"/><polygon class="cls-3" points="386.99 152.47 440.63 152.47 432.08 131.14 409.6 129.25 393.25 129.25 386.99 152.47"/><path class="cls-5" d="M439,402.76s-29.22-.34-33.58.88,27.78,4.5,27.78,4.5l7.34-1.53.61-2.4Z"/><path class="cls-5" d="M404.45,403.82s3.6-1.21,11.41-.34l-1.92,29.12L401,434.93l-2.83-1.86Z"/><path class="cls-5" d="M417,404.21a43.18,43.18,0,0,0,21.94.67s20.34,39.1,22.71,39.6,6,3.95,6,3.95a21.12,21.12,0,0,1,0,6.75c-.57,4-.06,12.34.26,14.35s-1.42,1.15-1.77,2.87,2.17,13.63,1.73,14.78-28,0-37.89,0c-9.51,0-38,3.31-38,3.31a15.74,15.74,0,0,1,2.88-9.19c3.15-4.3,2.44-19.32,2.87-21.62S417,404.21,417,404.21"/><path class="cls-6" d="M393.41,488s39.3,17.08,66.5-.3l-1.26-10.92s-20.8,3.3-29.33,3.14A187.5,187.5,0,0,1,409.23,478Z"/><polygon class="cls-5" points="437.45 403.64 444.09 404.21 441.23 409.18 436.93 409.18 437.45 403.64"/><polygon class="cls-5" points="415.28 403.4 421.32 404.21 421.32 410.58 415.28 410.58 415.28 403.4"/><path class="cls-7" d="M458.92,434.68l.27.91a98.75,98.75,0,0,1,2.74,10.2l-3-11.11c-2.31,0-3.95,0-3.95,0L443,429c.5,3.82-1.1-10.18-1.1-10.18s.43,17.41.14,21.33,1.16,14.36,4.94,20.6,5.44,6.68,11.5,3.19,11.13-15.23,12.29-19.15c1-3.45,1.15-9.17,1.16-10.46-3.1.35-9.06.39-13,.37"/><path class="cls-7" d="M461.93,445.79a98.75,98.75,0,0,0-2.74-10.2l-.27-.91h0Z"/><path class="cls-5" d="M474,433.66c-.49-1.34-1.71-7.2-4-14s-6.71-12.09-12.81-14.77a23.2,23.2,0,0,0-5.91-1.46c-.12,1.81.35,4.23,1.28,8,1,4,3.76,14.33,6.24,22.72L472,434v.28c1.33-.16,2.13-.36,2-.65"/><path class="cls-4" d="M458.9,434.68h0c-.05-.19-.11-.37-.16-.56h0Z"/><path class="cls-5" d="M458.9,434.68l-.15-.56h0c-2.48-8.39-5.26-18.75-6.24-22.72-.93-3.77-1.4-6.19-1.28-8a88,88,0,0,0-12.27-.64c.33.68.67,1.34.93,2a35.2,35.2,0,0,1,1.18,6.22L455,434.64s1.64,0,3.95,0"/><path class="cls-5" d="M458.76,434.12c.05.19.1.37.16.56,4,0,9.94,0,13-.37V434Z"/><path class="cls-8" d="M482.87,348.85s-2.94,2.87-4.15,3.26a13.58,13.58,0,0,0,4.5,2c2.52.57-.35-5.26-.35-5.26"/><path class="cls-9" d="M482.15,337.35s1.3,6.87,1.92,12.33c.56,4.95,1.49,13,1.76,16.62a44.55,44.55,0,0,0,.68,5.5,39.39,39.39,0,0,1-3.71-8.74c-.89-3.88-3.72-13.79-3.72-13.79Z"/><polyline class="cls-8" points="466.13 389.83 460.74 332.73 469.09 318.19"/><path class="cls-8" d="M469.09,318.19s12,2.87,13.19,12.44,1.65,38.5,1.65,38.5l-2,24.89-4.18-3s-7.08,6.62-10,3a20.83,20.83,0,0,1-9,1.1"/><polyline class="cls-8" points="393.31 387.76 394.88 332.73 386.69 318.48"/><path class="cls-8" d="M387,318.19s-11.78,10.05-13,19.62-2.33,31.32-2.33,31.32l2,24.89,4.18-3s10.14,8.33,11.25,2a23.11,23.11,0,0,0,11,1.11"/><path class="cls-9" d="M374.27,335.24s-1.77,6.88-2.72,11.77-1.49,13-1.76,16.62a44.55,44.55,0,0,1-.68,5.5,38.57,38.57,0,0,0,2.95-7.83c.89-3.87,2.95-14.87,2.95-14.87Z"/><path class="cls-7" d="M419.16,361a13.54,13.54,0,1,1-13.53-13.53A13.54,13.54,0,0,1,419.16,361"/><path class="cls-7" d="M466.13,361a13.54,13.54,0,1,1-13.53-13.53A13.54,13.54,0,0,1,466.13,361"/><path class="cls-7" d="M419.86,405.45V401a47.64,47.64,0,0,1-23.74-8,38.75,38.75,0,0,1-10.31-9.86c-6.44,6.24-15.78,2.91-14.75-9.55.73-8.74,6.57-4.5,10-1.19a19.57,19.57,0,0,1,3.13,4.05c.5.85,1.23,1.66,2,1.09,1.46-1,1.25-21.4,1.25-21.4s2.91,4.16,3.53,0,3.32-22.83,3.32-22.83,7-2.92,11.8-3.55c2.2-.28,7.09-.31,5-5.29.42.3,7.44-6.3,15.42-6.3,7.61,0,15.73.94,13.45-5.5,8.37-6.66,33.83,16.95,20.74,17.68,0,0,7.09,37.43,8.54,26.42,0,0,1.76,25.23,5,18.28,4.48-9.67,11.2-9.13,11-.63-.1,4.58-2.49,18.69-12.67,9.14a35.72,35.72,0,0,1-7.54,7.89A44.88,44.88,0,0,1,438.75,401l0,4.45M440,376.9c-1.49.11-3,.2-4.55.26l-1.59.06c-2.18.07-4.34.09-6.37.08a78.23,78.23,0,0,1-11.27-.64c-2.22-.51-6,.21-5.37,4.48a4.86,4.86,0,0,0,.11.55,8.19,8.19,0,0,0,3.48,5c4.54,3.05,15.43,8.22,28.89-.24a9.39,9.39,0,0,0,4-5.05c.62-2,.52-4.14-2.52-4.63a11.41,11.41,0,0,0-2.78,0c-.67.07-1.36.13-2.05.18m25.23-15.27a12.6,12.6,0,1,0-12.59,12.6,12.59,12.59,0,0,0,12.59-12.6m-8.71-17.09c1.26,1.61,4.67,1.24,2.49-2-1.69-2.49-5.47-3.24-7.11-3.45a3.17,3.17,0,0,0-1.8.23c-1.54.73-1.1,2.09-.12,2.18,1.14.1,4.41.31,6.54,3m-38.26,17.09a12.6,12.6,0,1,0-12.6,12.6,12.6,12.6,0,0,0,12.6-12.6m-10.82-20.1c1-.09,1.41-1.45-.13-2.18a3.14,3.14,0,0,0-1.79-.23c-1.65.21-5.44,1-7.12,3.45-2.18,3.21,1.23,3.58,2.49,2,2.13-2.7,5.4-2.91,6.55-3"/><path class="cls-7" d="M459,342.57c2.18,3.21-1.23,3.58-2.49,2-2.13-2.7-5.4-2.91-6.54-3-1-.09-1.42-1.45.13-2.18a3.13,3.13,0,0,1,1.79-.23c1.64.21,5.42,1,7.11,3.45"/><path class="cls-4" d="M455.54,362.31a1.07,1.07,0,1,0-1.47-.33,1.06,1.06,0,0,0,1.47.33"/><path class="cls-7" d="M452.6,369.13a8.4,8.4,0,0,1-1.68-.17,5.5,5.5,0,0,0,9.05-4.54,8.12,8.12,0,0,1-7.37,4.71"/><path class="cls-4" d="M409.2,362.31a1.06,1.06,0,0,0,.33-1.47,1.07,1.07,0,1,0-.33,1.47"/><path class="cls-7" d="M405.62,369.13a8.85,8.85,0,0,1-.89-.05,5.5,5.5,0,0,0,8.71-5.81,8.14,8.14,0,0,1-7.82,5.86"/><path class="cls-7" d="M407.27,339.35c1.54.72,1.09,2.09.13,2.18-1.15.1-4.42.31-6.55,3-1.26,1.61-4.67,1.24-2.49-2,1.68-2.49,5.47-3.24,7.12-3.45a3.14,3.14,0,0,1,1.79.23"/><path class="cls-10" d="M379.5,374.23a7,7,0,0,0-2.09,2.49,8.71,8.71,0,0,0-1,3.46"/><line class="cls-10" x1="377.41" y1="376.72" x2="380.75" y2="380.18"/><path class="cls-10" d="M477.71,374.23a7,7,0,0,1,2.09,2.49,8.55,8.55,0,0,1,.95,3.46"/><line class="cls-10" x1="479.8" y1="376.72" x2="476.46" y2="380.18"/><path class="cls-10" d="M431,368s-3.6-3.6-5.67-1.52,1,5.12,1,5.12"/><path class="cls-11" d="M435,401.12H422s-3.11,7,13.06,0"/><path class="cls-11" d="M460.66,375.43c0,2.38-2.71,4.31-6.05,4.31s-6.05-1.93-6.05-4.31,2.71-4.32,6.05-4.32,6.05,1.93,6.05,4.32"/><path class="cls-11" d="M409.59,375.43c0,2.38-2.71,4.31-6,4.31s-6.05-1.93-6.05-4.31,2.71-4.32,6.05-4.32,6,1.93,6,4.32"/><path class="cls-9" d="M377.24,329.5,403,309.92V304.8s-27.66,23.61-34.09,26.05c-2.72,1-4.5,1.76-4.5,1.76a21.43,21.43,0,0,0,12.87-3.11"/><path class="cls-8" d="M371,349c6.84-.6,33.65-16.3,40.16-19.84s28.46-11,34.48-12.37,18.22,9,19.58,16.69c0,0,7.57-18.07,1.62-23.77S445,292.06,420.79,297s-43.42,33.2-51.08,39.1c0,0-8.84,8.1-10.39,9.4s3.46,4.29,11.65,3.56"/><path class="cls-8" d="M462.8,340.44s-2.51-14.67-10.78-18.91-11.58-4.38-13-4.45,14-7.93,14-7.93l14.61,10.42Z"/><path class="cls-9" d="M442.54,317.63l-22.36,7.77a48.3,48.3,0,0,0-5.37,2.24c-3.07,1.52-8,3.94-9.76,4.95-2.72,1.52-16.14,9.69-20.69,11.14a59.56,59.56,0,0,1-10.46,1.74,67.82,67.82,0,0,0,12-6.39c5.38-3.76,19.55-12.82,25.2-16.6s16.75-8.68,21.17-8.84,9.9-.72,10.24,4"/><path class="cls-8" d="M469,315.12s3.44-2.29,4.35-3.91a32,32,0,0,1-1.39,4.92,8.31,8.31,0,0,1,5.21-2.6s-4.4,4.61-3.37,7.59l-6.12-1.55v-4.21Z"/><path class="cls-7" d="M438.78,405.47a38.42,38.42,0,0,1-18.91,0"/><polygon class="cls-7" points="412.12 374.23 407.18 386.05 427.14 393.04 449.05 386.05 448.56 378.45 446.45 374.23 412.12 374.23"/><path class="cls-10" d="M414.07,384.43s3.9-3.51,8.9-2.84,5.95,2.08,9.06,1.38,7.84-.94,9.6.67"/><path class="cls-7" d="M399.25,434.68l-.27.91a93.62,93.62,0,0,0-2.74,10.2l3-11.11c2.32,0,4,0,4,0l15-10c-.49,3.82-2-5.8-2-5.8s-.44,17.41-.15,21.33-1.16,14.36-4.93,20.6-5.44,6.68-11.5,3.19-11.14-15.23-12.3-19.15c-1-3.45-1.14-9.17-1.15-10.46,3.1.35,9.06.39,13,.37"/><path class="cls-7" d="M396.24,445.79a93.62,93.62,0,0,1,2.74-10.2l.27-.91h0Z"/><path class="cls-5" d="M384.18,433.66c.49-1.34,1.71-7.2,4-14s6.72-12.09,12.82-14.77a23.11,23.11,0,0,1,5.9-1.46c.13,1.81-.35,4.23-1.27,8-1,4-3.76,14.33-6.24,22.72L386.2,434s0,.1,0,.28c-1.33-.16-2.14-.36-2-.65"/><path class="cls-4" d="M399.26,434.68h0c.05-.19.11-.37.16-.56h0Z"/><path class="cls-5" d="M399.41,434.12c-.05.19-.11.37-.16.56-4,0-9.94,0-13-.37,0-.18,0-.28,0-.28Z"/><path class="cls-12" d="M421.74,425.43s13.34-6,17-16.25c0,0-2.2,16.41-17,16.25"/><path class="cls-12" d="M424.63,456.44s11.71-.8,13.18-8.79c0,0,.63,10.55-13.18,8.79"/><path class="cls-12" d="M426.65,459.64s7.63,1.28,12.13-1.28c0,0-2.86,5-12.13,1.28"/><path class="cls-12" d="M394.87,413s-1.64,11.6,3.06,16.51c0,0-7.64-3.14-3.06-16.51"/><path class="cls-12" d="M460.88,431.51s5.55-1.9,7.59-6.08c0,0,1.7,6.08-7.59,6.08"/><path class="cls-12" d="M465.36,470.19s-3.25,4-6.17,4.31,4.11,3.35,6.17-4.31"/><path class="cls-13" d="M391.75,496.17l-1.52,12.63,34.49,6.67c-1.65-12.52-17.05-18.06-17.05-18.06s-7.07-1-15.92-1.24"/><g class="cls-14"><line class="cls-15" x1="426.26" y1="515.29" x2="389.03" y2="507.37"/></g><path class="cls-16" d="M413.58,500.24a3.27,3.27,0,0,0-3.11,1.1"/><path class="cls-16" d="M415.29,501.32a3.24,3.24,0,0,0-3.1,1.09"/><path class="cls-17" d="M394.82,502.51a2.37,2.37,0,1,0,2.55-2.18,2.37,2.37,0,0,0-2.55,2.18"/><path class="cls-16" d="M411.8,498.7a3.25,3.25,0,0,0-3.1,1.1"/><path class="cls-18" d="M400,433.44c5.55-5.18,10-9.3,15.46-9s16.92.46,17.07,9.76-7.77,21.35-11.13,30-8.24,30-8.84,32.78c0,0-19,1.3-24.92,3.74,0,0,.68-36.68,9.83-51.62l-5.45-.07a32.21,32.21,0,0,1,1.91-7.09,37.32,37.32,0,0,1,6.07-8.54"/><path class="cls-18" d="M397.74,436s8.05-13.6,10.88-15.32,9.53-2.37,13.1-1.29,7,2.5,8,3.68,3.7,7.95,2.74,12.93-34.68,0-34.68,0"/><path class="cls-6" d="M404.45,435.9l-6,11.65a16.25,16.25,0,0,1,6-11.65"/><path class="cls-6" d="M427.18,442.24s-10.75,16.05-19.7,19.32c0,0,11.35.92,19.7-19.32"/><path class="cls-6" d="M415.29,467.15a20.79,20.79,0,0,1-10.84,8s8.56.8,10.84-8"/><path class="cls-18" d="M433.78,441.75s-2.81-14.27,1.16-17.32,13.59-5.74,19.55-2.56,6.46,6.67,6.46,6.67Z"/><path class="cls-13" d="M479.53,487.18l3,12.38L449,510.11c.22-12.63,14.89-19.88,14.89-19.88s6.92-1.76,15.67-3.05"/><g class="cls-19"><line class="cls-15" x1="447.43" y1="510.1" x2="483.51" y2="498.01"/></g><path class="cls-16" d="M458.31,493.71a3.24,3.24,0,0,1,3.21.73"/><path class="cls-16" d="M456.73,495a3.26,3.26,0,0,1,3.21.74"/><path class="cls-17" d="M477.2,493.83a2.36,2.36,0,1,1-2.77-1.88,2.36,2.36,0,0,1,2.77,1.88"/><path class="cls-16" d="M459.91,492a3.22,3.22,0,0,1,3.2.73"/><path class="cls-18" d="M435.23,449.31s-3.74-13.28,0-17.26,8.46-7.85,13.41-8.58,9.41-1.2,12.31,5.07,18.78,55.37,20.95,59.35c0,0,1.75-.21-4.65.42-8.65.84-18.35,3.14-20.89,4.59,0,0-20.09-38.89-21.13-43.59"/><path class="cls-6" d="M436.24,442.24s12.33,15,21.61,15.74c0,0-16.38.65-21.61-15.74"/><path class="cls-6" d="M445.78,464.39s6.47-.34,11-4.6a8.46,8.46,0,0,1-11,4.6"/><path class="cls-18" d="M392.63,445.79s-4.07,18.49-1.84,25.35S401,449.09,401,449.09Z"/><path class="cls-12" d="M425.86,475.12s12.53-2.66,14.65-2.35a27.75,27.75,0,0,1,4.53,1.16s-4.89-3.82-8.11-2.79-11.07,4-11.07,4"/><path class="cls-7" d="M468.19,450.18c-5,5.51,1.58,5.21,1.58,5.21-4.22,4.94-.12,5.22-.12,5.22s-.62,2.08,1.3,2.53,6.17-1.94,8-4.64-2.73-3.31-2.73-3.31.62-.48,1-2.7-3.19-2-3.19-2,.61-.16.08-4.14c-.55-4.2-7-.95-7-.95l1.39,4.51Z"/><path class="cls-7" d="M393.2,455.67c5.78,4.71-.81,5.37-.81,5.37,4.89,4.29.87,5.16.87,5.16s.91,2-.92,2.68-6.39-1-8.55-3.43,2.22-3.68,2.22-3.68-.68-.38-1.36-2.52,2.85-2.49,2.85-2.49-.62-.07-.67-4.08c-.06-4.24,6.82-2,6.82-2l-.73,4.67Z"/><path class="cls-4" d="M411.86,359.27a1.07,1.07,0,0,0-2.12.23,5.8,5.8,0,0,1,1.7.86,1.07,1.07,0,0,0,.42-1.09"/><path class="cls-4" d="M403.49,367.72a6.63,6.63,0,0,1,10-8.64,8.14,8.14,0,1,0-8.79,10,5.61,5.61,0,0,1-1.25-1.36"/><path class="cls-4" d="M409.77,359.72a1.07,1.07,0,0,0,1.27.82,1,1,0,0,0,.4-.18,5.8,5.8,0,0,0-1.7-.86.83.83,0,0,0,0,.22"/><path class="cls-4" d="M403.79,363.64a5.54,5.54,0,0,1,0-2.22,5.52,5.52,0,0,0-.28,6.3,5.78,5.78,0,0,0,1.24,1.36,6.64,6.64,0,0,0,.89.05,8,8,0,0,0,4.21-1.18,5.51,5.51,0,0,1-6-4.31"/><path class="cls-3" d="M408.05,360.51a1.07,1.07,0,1,0,1.48.33,1.06,1.06,0,0,0-1.48-.33"/><path class="cls-3" d="M408,357.08a5.52,5.52,0,0,0-4.25,4.34,5.32,5.32,0,0,1,1.41-1.3,5.5,5.5,0,0,1,4.56-.62,1.07,1.07,0,0,1,2.12-.23,1.07,1.07,0,0,1-.42,1.09,5.51,5.51,0,0,1,1.35,1.45,5.73,5.73,0,0,1,.65,1.46,8.16,8.16,0,0,0,.33-2.28,8,8,0,0,0-.24-1.91,5.52,5.52,0,0,0-5.51-2"/><path class="cls-3" d="M413.44,363.27a5.73,5.73,0,0,0-.65-1.46,5.51,5.51,0,0,0-1.35-1.45,1,1,0,0,1-.4.18,1.07,1.07,0,0,1-1.27-.82.83.83,0,0,1,0-.22,4.49,4.49,0,1,0,.09,8.46,8.22,8.22,0,0,0,3.61-4.69m-4.24-1a1.07,1.07,0,1,1,.33-1.47,1.07,1.07,0,0,1-.33,1.47"/><path class="cls-4" d="M458.66,360a1.08,1.08,0,0,0-1.29-.8,1.12,1.12,0,0,0-.68.5,5.53,5.53,0,0,1,1.75,1.22,1.07,1.07,0,0,0,.22-.92"/><path class="cls-4" d="M456,359.47l-.44-.11.44.11"/><path class="cls-4" d="M456.69,359.72a1.13,1.13,0,0,0-.12.79,1.08,1.08,0,0,0,1.29.8,1,1,0,0,0,.58-.37,4.59,4.59,0,0,1,.36.41,5.47,5.47,0,0,0-2.11-1.63"/><path class="cls-4" d="M454.11,359.27a4.07,4.07,0,0,0-.61.08,4.07,4.07,0,0,1,.61-.08"/><path class="cls-4" d="M450.66,364.52a5.51,5.51,0,0,1,.85-4.39h0a5.53,5.53,0,0,0-2.26,2.94h0c-.05.17-.1.34-.14.5v0a4,4,0,0,0-.08.48.13.13,0,0,0,0,.06,3.71,3.71,0,0,0,0,.47v.1c0,.14,0,.29,0,.43s0,.09,0,.13,0,.27.05.4a1.46,1.46,0,0,0,.05.2,3,3,0,0,0,.07.32,2.58,2.58,0,0,0,.08.26c0,.08.05.17.09.26s.09.22.14.33l.08.18a4.08,4.08,0,0,0,.28.49,5.6,5.6,0,0,0,1.08,1.24,8.4,8.4,0,0,0,1.68.17,8,8,0,0,0,2.55-.41,5.52,5.52,0,0,1-4.49-4.2"/><path class="cls-4" d="M452.09,359.81a4.4,4.4,0,0,0-.56.31,4.4,4.4,0,0,1,.56-.31"/><path class="cls-4" d="M454.11,359.27h0"/><path class="cls-4" d="M453.32,359.39a3,3,0,0,0-.43.11,3,3,0,0,1,.43-.11"/><path class="cls-4" d="M455.33,359.33l-.44-.05.44.05"/><path class="cls-4" d="M452.68,359.56l-.41.17.41-.17"/><path class="cls-4" d="M456.69,359.72a5.54,5.54,0,0,0-.57-.21,5.54,5.54,0,0,1,.57.21"/><path class="cls-4" d="M449.83,367.72c-.1-.16-.19-.33-.27-.49l-.08-.18-.15-.33c0-.09-.05-.18-.08-.27a1.83,1.83,0,0,1-.08-.25,3,3,0,0,1-.07-.32,1.46,1.46,0,0,1-.05-.2c0-.13,0-.27-.05-.4s0-.09,0-.13,0-.29,0-.43v-.1a3.71,3.71,0,0,1,0-.47.13.13,0,0,1,0-.06,4,4,0,0,1,.08-.48v0c0-.17.09-.33.14-.5h0a5.53,5.53,0,0,1,2.26-2.94h0a5.5,5.5,0,0,1,9.19.21,8.14,8.14,0,1,0-9.78,8.62,5.64,5.64,0,0,1-1.09-1.24"/><path class="cls-4" d="M449.1,363.61a4,4,0,0,0-.08.48,4,4,0,0,1,.08-.48"/><path class="cls-4" d="M449.24,363.07c-.05.17-.1.34-.14.5,0-.16.09-.33.14-.5"/><path class="cls-4" d="M449.25,366.45c0,.09.05.18.08.27,0-.09-.05-.18-.08-.27"/><path class="cls-4" d="M449.48,367.05l.08.18-.08-.18"/><path class="cls-4" d="M449,364.72c0,.14,0,.28,0,.43,0-.14,0-.29,0-.43"/><path class="cls-4" d="M449.1,365.88a3,3,0,0,0,.07.32,3,3,0,0,1-.07-.32"/><path class="cls-4" d="M449.24,363.07a5.53,5.53,0,0,1,2.26-2.94,5.53,5.53,0,0,0-2.26,2.94"/><path class="cls-4" d="M449,365.28c0,.13,0,.27.05.4,0-.13,0-.27-.05-.4"/><path class="cls-4" d="M449,364.62a3.71,3.71,0,0,1,0-.47,3.71,3.71,0,0,0,0,.47"/><path class="cls-3" d="M459.13,361.81a4.84,4.84,0,0,0-.33-.46,4.84,4.84,0,0,1,.33.46"/><path class="cls-3" d="M451.51,360.13h0"/><path class="cls-3" d="M455.52,359.36l-.19,0,.19,0"/><path class="cls-3" d="M456.12,359.51l-.16,0,.16,0"/><path class="cls-3" d="M454.4,360.51a1.06,1.06,0,0,0-.33,1.47,1.07,1.07,0,1,0,.33-1.47"/><path class="cls-3" d="M453.5,359.35l-.18,0,.18,0"/><path class="cls-3" d="M454.71,359.27h0"/><path class="cls-3" d="M452.27,359.73l-.18.08.18-.08"/><path class="cls-3" d="M452.89,359.5l-.21.06.21-.06"/><path class="cls-3" d="M460,364.42a5.47,5.47,0,0,0-.84-2.61,4.84,4.84,0,0,0-.33-.46,4.59,4.59,0,0,0-.36-.41,1.06,1.06,0,0,1-1.87-.43,1.13,1.13,0,0,1,.12-.79,5.71,5.71,0,0,0-.58-.21l-.15,0-.44-.11-.19,0-.44-.05h-.79a4.44,4.44,0,0,0-.61.08l-.18,0-.42.11-.21.06-.41.17-.18.08a4.4,4.4,0,0,0-.56.31h0a5.51,5.51,0,0,0,3.64,8.59,8.16,8.16,0,0,0,4.82-4.3m-4.43-2.11a1.07,1.07,0,0,1-1.47-.33,1.07,1.07,0,1,1,1.47.33"/><path class="cls-3" d="M456.69,359.72a1.12,1.12,0,0,1,.68-.5,1.08,1.08,0,0,1,1.29.8,1.07,1.07,0,0,1-.22.92,6,6,0,0,1,.69.87,5.47,5.47,0,0,1,.84,2.61,8.05,8.05,0,0,0,.77-3.43c0-.22,0-.44,0-.65a5.5,5.5,0,0,0-9.19-.21h0a5.47,5.47,0,0,1,5.16-.4"/><path class="cls-8" d="M396,358.49s9.22-4.51,12.28-6.3-.79-4.34-3.55-1.41-8.27,4.64-9.85,5.25-1,2.72,1.12,2.46"/><path class="cls-8" d="M448.26,353s9.66,3.51,13.07,4.46,2.57-3.58-1.45-3.52-9.09-2.74-10.62-3.45-2.62,1.19-1,2.51"/><path class="cls-20" d="M738.46,127c-.78,30.68-33.64,54.74-73.4,53.73a92.37,92.37,0,0,1-17-2c-1.67,2.33-4.32,5.83-6,7-2.62,1.75-7.77,1.68-12.1-.31s-10.32-4.63-12.79-5.88-1.6-2.6,1.08-1.7,8.08,2.7,10,2,4.85-5.71,4.85-5.71c-23.4-9.71-39.16-29-38.61-50.74.78-30.68,33.64-54.73,73.39-53.73S739.24,96.34,738.46,127Z"/><text class="cls-21" transform="translate(627.29 111.42)">Waar word jij </text><text class="cls-21" transform="translate(611.71 128.41)">bo<tspan class="cls-22" x="15.58" y="0">o</tspan><tspan x="23.23" y="0">s, </tspan><tspan class="cls-23" x="35.98" y="0">v</tspan><tspan x="42.83" y="0">e</tspan><tspan class="cls-24" x="49.92" y="0">r</tspan><tspan class="cls-25" x="55" y="0">dri</tspan><tspan class="cls-26" x="71.79" y="0">e</tspan><tspan x="78.76" y="0">tig </tspan><tspan class="cls-27" x="97.63" y="0">o</tspan><tspan x="105.28" y="0">f </tspan></text><text class="cls-21" transform="translate(636.15 145.41)">bang van?</text><path class="cls-3" d="M329.13,460.24s1.93-14.23,3.78-17.41l1.94,15.66Z"/></svg>