<svg id="Laag_1" data-name="Laag 1" xmlns="http://www.w3.org/2000/svg" xmlns:xlink="http://www.w3.org/1999/xlink" viewBox="0 0 841.89 595.28"><defs><style>.cls-1,.cls-10,.cls-22,.cls-3,.cls-32,.cls-38,.cls-39,.cls-40,.cls-41,.cls-42,.cls-43,.cls-9{fill:none;}.cls-2{fill:#e2e0e0;}.cls-3{stroke:#0099bc;stroke-width:1.83px;}.cls-10,.cls-3,.cls-32,.cls-9{stroke-miterlimit:10;}.cls-4{font-size:14px;font-family:SourceSansPro-Semibold, Source Sans Pro;font-weight:600;}.cls-13,.cls-4{fill:#0099bc;}.cls-5{letter-spacing:-0.01em;}.cls-6{letter-spacing:-0.03em;}.cls-7{fill:#f8fafa;}.cls-8{clip-path:url(#clip-path);}.cls-10,.cls-9{stroke:#c83d3b;}.cls-10,.cls-22,.cls-38,.cls-39,.cls-40,.cls-41,.cls-42,.cls-43,.cls-9{stroke-linecap:round;}.cls-9{stroke-width:5.41px;}.cls-10{stroke-width:1.01px;}.cls-11{fill:#c83d3b;}.cls-12{clip-path:url(#clip-path-2);}.cls-14{fill:#0a8599;}.cls-15{fill:#f1c826;}.cls-16{fill:#e9b633;}.cls-17{fill:#7d3f22;}.cls-18{fill:#e6b190;}.cls-19{fill:#663222;}.cls-20{fill:#fff;}.cls-21{fill:#040404;}.cls-22{stroke:#c68b79;stroke-width:1.03px;}.cls-22,.cls-38,.cls-39,.cls-40,.cls-41,.cls-42,.cls-43{stroke-linejoin:round;}.cls-23{fill:#e0a088;}.cls-24{fill:#3a8e45;}.cls-25{fill:#28723d;}.cls-26{fill:#babab9;}.cls-27{fill:#615958;}.cls-28{fill:#cc6ca3;}.cls-29{fill:#dc97be;}.cls-30{fill:#aa4985;}.cls-31{fill:#f4f4f4;}.cls-32{stroke:#232322;stroke-width:0.77px;}.cls-33{fill:#c52727;}.cls-34{fill:#357db6;}.cls-35{fill:#efc74a;}.cls-36{opacity:0.29;}.cls-37{clip-path:url(#clip-path-3);}.cls-38,.cls-39,.cls-40,.cls-41,.cls-42,.cls-43{stroke:#222221;}.cls-38,.cls-39{stroke-width:0.65px;}.cls-39{stroke-dasharray:1.26 3.15;}.cls-40,.cls-41{stroke-width:0.68px;}.cls-41{stroke-dasharray:1.33 3.33;}.cls-42,.cls-43{stroke-width:0.47px;}.cls-43{stroke-dasharray:0.93 2.32;}</style><clipPath id="clip-path"><path class="cls-1" d="M391,507.22s-22,6-25.64,23.24L414,524.93l-.74-17.71c-4.11-.19-7.95-.25-11.25-.25-6.59,0-11,.25-11,.25"/></clipPath><clipPath id="clip-path-2"><path class="cls-1" d="M424.17,506.34l-.74,17.72,48.64,5.52c-3.65-17.21-25.65-23.24-25.65-23.24s-4.41-.25-11-.25c-3.3,0-7.14.06-11.25.25"/></clipPath><clipPath id="clip-path-3"><rect class="cls-1" x="58.04" y="411.91" width="102.91" height="71.56"/></clipPath></defs><path class="cls-2" d="M455.23,525.25c0,7.4-26.65,13.4-59.52,13.4s-59.52-6-59.52-13.4,26.64-13.4,59.52-13.4,59.52,6,59.52,13.4"/><path class="cls-2" d="M132.77,482.58c0,6.5-21.51,11.77-48,11.77s-48-5.27-48-11.77,21.5-11.78,48-11.78,48,5.27,48,11.78"/><path class="cls-2" d="M658.32,484.85c0,7.4-30.31,13.4-67.69,13.4s-67.68-6-67.68-13.4,30.3-13.4,67.68-13.4,67.69,6,67.69,13.4"/><path class="cls-2" d="M693,399.07c0,8.58-35.15,15.54-78.52,15.54s-78.52-7-78.52-15.54,35.16-15.55,78.52-15.55,78.52,7,78.52,15.55"/><path class="cls-2" d="M294.13,438.15c0,11.62-42.66,21.05-95.27,21.05s-95.27-9.43-95.27-21.05,42.65-21,95.27-21,95.27,9.42,95.27,21"/><path class="cls-3" d="M667.05,118.68c0,34.61-36.24,62.66-81,62.66A102.93,102.93,0,0,1,567,179.58c-1.8,2.67-4.68,6.7-6.56,8-2.89,2-8.69,2.11-13.61,0s-11.73-4.93-14.54-6.27-1.88-2.88,1.16-1.94,9.16,2.81,11.27,1.94,5.28-6.57,5.28-6.57c-26.58-10.27-44.84-31.53-44.84-56.09,0-34.6,36.25-62.66,81-62.66S667.05,84.08,667.05,118.68Z"/><text class="cls-4" transform="translate(528.71 102.71)"><tspan class="cls-5">W</tspan><tspan x="11.02" y="0">aar wil jij g</tspan><tspan class="cls-6" x="75.74" y="0">r</tspan><tspan x="80.61" y="0">aag </tspan></text><text class="cls-4" transform="translate(528.71 119.71)">voor sparen? Of wat </text><text class="cls-4" transform="translate(528.71 136.7)">wil je kopen?</text><path class="cls-7" d="M413.3,507.22l.74,17.71-48.64,5.53c3.65-17.22,25.64-23.24,25.64-23.24s9.94-.57,22.26,0"/><g class="cls-8"><line class="cls-9" x1="363.28" y1="530.03" x2="415.86" y2="523.08"/></g><path class="cls-10" d="M382.54,510.5a4.53,4.53,0,0,1,4.19,1.86"/><path class="cls-10" d="M380,511.81a4.55,4.55,0,0,1,4.2,1.86"/><path class="cls-11" d="M408.35,515.69a3.3,3.3,0,1,1-3.3-3.3,3.3,3.3,0,0,1,3.3,3.3"/><path class="cls-10" d="M385.17,508.56a4.53,4.53,0,0,1,4.19,1.86"/><path class="cls-7" d="M424.17,506.34l-.74,17.72,48.64,5.52c-3.65-17.21-25.65-23.24-25.65-23.24s-9.93-.56-22.25,0"/><g class="cls-12"><line class="cls-9" x1="474.18" y1="529.15" x2="421.6" y2="522.21"/></g><path class="cls-10" d="M454.93,509.63a4.51,4.51,0,0,0-4.19,1.86"/><path class="cls-10" d="M457.44,510.93a4.55,4.55,0,0,0-4.2,1.86"/><path class="cls-11" d="M429.12,514.81a3.3,3.3,0,1,0,3.3-3.3,3.3,3.3,0,0,0-3.3,3.3"/><path class="cls-10" d="M452.3,507.68a4.55,4.55,0,0,0-4.2,1.86"/><path class="cls-13" d="M459.69,351.5c-60.87,6.69-81.58,0-81.58,0l-8.64,17.19s5.2,34.48,5.6,39.07,2,37,3.48,47.27S386,507.4,386,507.4s15.43,1.12,22.45.85l7-.27s-.81-8.37-1.62-13.77-2.95-11-2.16-13.51c1.41-4.53.88-16.32-1.08-24.58-1.64-6.92.44-23.51,2.52-31.88,1.66-6.72,1.65-21.78,2.83-28.25a18.07,18.07,0,0,1,5.59-1.4c1.51,5.35,1.35,22.38,3.15,29.65,2.08,8.37,4.16,25,2.51,31.88-2,8.26-2.48,20.05-1.08,24.58.79,2.54-1.35,8.1-2.16,13.51S422.34,508,422.34,508l7,.27c7,.27,22.51-1.28,22.51-1.28s5.85-41.67,7.38-51.94,3.06-42.68,3.47-47.27,5.6-39.07,5.6-39.07Z"/><path class="cls-14" d="M411.05,396.77a42,42,0,0,1,14.89-4.51,12.58,12.58,0,0,0-14.89,4.51"/><path class="cls-14" d="M405.21,386.85s11.55.83,21.26,1.33c0,0-9.59,4.59-21.26-1.33"/><path class="cls-14" d="M392.91,443s1.18,12.9,14.63,12.9c0,0-11.19-6.31-14.63-12.9"/><path class="cls-14" d="M428.61,460.38s8.32-7,7.78-18.24c0,0,4.72,15.68-7.78,18.24"/><path class="cls-14" d="M430.09,464.27s10.19,1.34,13.68-4.83c0,0-2.06,11.66-13.68,4.83"/><path class="cls-14" d="M394.34,464.14s9.62,3.61,14.41-1.61c0,0-4.64,10.89-14.41,1.61"/><path class="cls-14" d="M450.74,499.68s-8.72,2.55-10.86-1.34c0,0,2.41,7.37,10.86,1.34"/><path class="cls-14" d="M387.27,500.19s.59,4.45,10.37,3c0,0-11.48,4.66-10.37-3"/><path class="cls-15" d="M465.46,303c9.58-2.37,30.63-18.65,30.63-18.65-2.23-6.36-7.37-13.92-9.56-19.14s-7.08-19.93-16.12-30C457.17,220.34,434.24,220,434.24,220h0c-15,3.58-26.36,0-26.36,0s-26.22,7.05-35.22,17.2a74.5,74.5,0,0,0-16.11,30c-1.35,5.39-5.72,15.19-9.57,19.15,0,0,25,19.38,33.72,19.77l2.88-8.22C382.06,309,374.36,351.73,372,361c0,0,32.31,6.62,46.86,5.82s40.69-5.37,47.26-5.42a42.51,42.51,0,0,0,8.83-1.2,45.79,45.79,0,0,1-1.43-7.94c-.19-2.57-4.81-30-8.1-49.32"/><path class="cls-16" d="M438.55,305.25s-6.9,25.9-21.94,28.06c0,0,16.56,4.86,21.94-28.06"/><path class="cls-17" d="M495.69,143.1s-4.1,4-5.79,4.53a19.15,19.15,0,0,0,6.28,2.8c3.51.79-.49-7.33-.49-7.33"/><polygon class="cls-18" points="393.56 180.13 446.22 176.88 447.27 198.41 409.49 204.17 394.04 197.21 393.56 180.13"/><path class="cls-19" d="M494.69,127.06s1.81,9.58,2.67,17.19c.78,6.89,2.08,18.12,2.46,23.16a64.18,64.18,0,0,0,.94,7.67s-3.93-6.8-5.17-12.19-5.18-19.22-5.18-19.22Z"/><polyline class="cls-17" points="472.36 200.21 464.84 120.62 476.49 100.36"/><path class="cls-17" d="M476.49,100.36s16.73,4,18.38,17.33,2.3,53.67,2.3,53.67l-2.85,34.69-5.82-4.15s-9.87,9.23-14,4.15a29.16,29.16,0,0,1-12.6,1.53"/><polyline class="cls-17" points="370.87 197.32 373.06 120.62 361.64 100.76"/><path class="cls-17" d="M362,100.36s-16.42,14-18.06,27.34-3.24,43.66-3.24,43.66l2.85,34.69,5.82-4.15s14.13,11.61,15.68,2.76a32.08,32.08,0,0,0,15.27,1.55"/><path class="cls-19" d="M344.33,124.12s-2.46,9.59-3.78,16.41-2.09,18.12-2.46,23.16a62.89,62.89,0,0,1-.95,7.67,54,54,0,0,0,4.11-10.92c1.25-5.4,4.12-20.73,4.12-20.73Z"/><path class="cls-18" d="M406.9,160A18.87,18.87,0,1,1,388,141.15,18.87,18.87,0,0,1,406.9,160"/><path class="cls-18" d="M472.36,160a18.87,18.87,0,1,1-18.86-18.86A18.86,18.86,0,0,1,472.36,160"/><path class="cls-20" d="M399.38,160A11.35,11.35,0,1,1,388,148.67,11.35,11.35,0,0,1,399.38,160"/><path class="cls-18" d="M407.88,222l0-6.18a66.32,66.32,0,0,1-33.08-11.15C365,198,360.4,190.91,360.4,190.91c-9,8.69-22,4.05-20.55-13.31,1-12.18,9.16-6.27,13.93-1.66a26.64,26.64,0,0,1,4.36,5.65c.7,1.18,1.73,2.31,2.84,1.51,2-1.45,1.74-29.82,1.74-29.82s4,5.8,4.91,0,4.64-31.83,4.64-31.83,9.8-4.06,16.44-4.94c3.06-.39,9.88-.43,7-7.37.58.42,10.37-8.78,21.49-8.78,10.6,0,21.92,1.31,18.74-7.67,11.67-9.28,47.15,23.63,28.9,24.65,0,0,9.89,52.15,11.91,36.81,0,0,2.46,35.16,6.95,25.48,6.24-13.48,15.6-12.72,15.34-.88-.14,6.38-3.48,26.06-17.66,12.74a50.12,50.12,0,0,1-10.51,11,62.64,62.64,0,0,1-36.66,13.32l0,6.2Zm28-39.8c-2.08.16-4.2.28-6.34.37l-2.22.08c-3,.09-6.05.12-8.88.1-7.45,0-13.63-.42-15.7-.88-3.1-.71-8.34.29-7.49,6.25,0,.26.09.51.15.76a11.36,11.36,0,0,0,4.85,6.93c6.34,4.27,21.51,11.46,40.26-.33a13,13,0,0,0,5.61-7c.86-2.75.73-5.76-3.51-6.44a15.23,15.23,0,0,0-3.87,0c-.93.09-1.9.17-2.86.24m35.16-21.27a17.56,17.56,0,1,0-17.55,17.55,17.56,17.56,0,0,0,17.55-17.55m-12.14-23.83c1.76,2.24,6.51,1.74,3.47-2.75-2.35-3.46-7.63-4.51-9.91-4.81a4.55,4.55,0,0,0-2.5.32c-2.16,1-1.54,2.92-.18,3,1.59.15,6.15.44,9.12,4.2m-53.32,23.83A17.56,17.56,0,1,0,388,178.46a17.56,17.56,0,0,0,17.56-17.55m-15.09-28c1.35-.12,2-2-.17-3a4.55,4.55,0,0,0-2.5-.32c-2.3.3-7.57,1.35-9.92,4.81-3,4.49,1.71,5,3.48,2.75,2.95-3.76,7.51-4.05,9.11-4.2"/><path class="cls-17" d="M462.38,134.33c3,4.48-1.71,5-3.47,2.75-3-3.76-7.53-4.05-9.12-4.2-1.36-.12-2-2,.18-3a4.55,4.55,0,0,1,2.5-.32c2.28.3,7.56,1.35,9.91,4.81"/><path class="cls-21" d="M383.92,153.54a7.67,7.67,0,1,1-2.36,10.59,7.66,7.66,0,0,1,2.36-10.59m6.05,1a1.49,1.49,0,1,0-.46,2.05,1.49,1.49,0,0,0,.46-2.05"/><path class="cls-20" d="M461.76,160a11.35,11.35,0,1,1-11.35-11.34A11.35,11.35,0,0,1,461.76,160"/><path class="cls-21" d="M446.3,153.54a7.67,7.67,0,1,1-2.36,10.59,7.66,7.66,0,0,1,2.36-10.59m6.05,1a1.49,1.49,0,1,0-.46,2.05,1.47,1.47,0,0,0,.46-2.05"/><path class="cls-17" d="M390.33,129.84c2.14,1,1.52,2.92.17,3-1.6.15-6.16.44-9.11,4.2-1.77,2.24-6.52,1.74-3.48-2.75,2.35-3.46,7.62-4.51,9.92-4.81a4.55,4.55,0,0,1,2.5.32"/><path class="cls-22" d="M351.62,178.46a9.72,9.72,0,0,0-2.91,3.48,11.82,11.82,0,0,0-1.33,4.82"/><line class="cls-22" x1="348.71" y1="181.94" x2="353.36" y2="186.76"/><path class="cls-22" d="M488.5,178.46a9.72,9.72,0,0,1,2.91,3.48,12,12,0,0,1,1.33,4.82"/><line class="cls-22" x1="491.41" y1="181.94" x2="486.76" y2="186.76"/><path class="cls-22" d="M423.45,169.78s-5-5-7.92-2.11,1.35,7.13,1.35,7.13"/><path class="cls-23" d="M429,215.93H410.83s-4.33,9.71,18.19,0"/><path class="cls-23" d="M464.73,180.13c0,3.32-3.77,6-8.43,6s-8.43-2.69-8.43-6,3.78-6,8.43-6,8.43,2.7,8.43,6"/><path class="cls-23" d="M393.56,180.13c0,3.32-3.77,6-8.43,6s-8.43-2.69-8.43-6,3.77-6,8.43-6,8.43,2.7,8.43,6"/><path class="cls-19" d="M348.48,116.13l35.84-27.3V81.7s-38.55,32.91-47.51,36.3c-3.79,1.43-6.27,2.45-6.27,2.45s8.37,1.26,17.94-4.32"/><path class="cls-17" d="M339.74,143.35c9.53-.84,46.89-22.73,56-27.66s39.66-15.33,48.05-17.25,25.39,12.6,27.29,23.28c0,0,10.55-25.19,2.26-33.13S442.86,64,409.17,70.79,348.66,117.06,338,125.28c0,0-12.33,11.29-14.48,13.1s4.82,6,16.24,5"/><path class="cls-17" d="M467.71,131.37s-3.49-20.45-15-26.35-16.14-6.11-18.06-6.21,19.55-11,19.55-11l20.36,14.51Z"/><path class="cls-19" d="M439.49,99.58l-31.17,10.83a66,66,0,0,0-7.48,3.12c-4.29,2.11-11.1,5.49-13.61,6.9-3.79,2.12-22.49,13.5-28.84,15.52-5.37,1.71-14.57,2.43-14.57,2.43a94.09,94.09,0,0,0,16.76-8.91c7.5-5.24,27.25-17.86,35.13-23.13s23.35-12.1,29.5-12.32,13.8-1,14.28,5.56"/><path class="cls-17" d="M476.38,96.08s4.79-3.19,6.05-5.44c0,0-1.3,6-1.93,6.85a11.57,11.57,0,0,1,7.26-3.62s-6.14,6.42-4.69,10.57l-8.53-2.16V96.41Z"/><path class="cls-16" d="M406.76,226.37s9.9,14.16,18.9,7.8c0,0-9.43,14.28-18.9-7.8"/><path class="cls-16" d="M431.45,328.94s-8.69,15.91-20.93,14.3c0,0,18.55,7,20.93-14.3"/><path class="cls-18" d="M377.91,376.48c1.75,1.36,3.72,2.56,4.68,2.19a1.9,1.9,0,0,0,1.07-1.81c0-.07,0-.14,0-.21a6.34,6.34,0,0,0-.5-2.63c-.31-.56-4.19-6.53-6.57-10.2,0,0-2.76-5.57-2.87-8.59s-.83-33-3.43-40.7c-.65-1.93,3.57-10.58,3.57-10.58l-20.32-12.71a130.29,130.29,0,0,0-3.12,14.05,97.37,97.37,0,0,0-.67,22.35c.67,5.4,3.24,19.59,5.27,25.13s4,15.92,4,15.92c0,2.46,0,5.23.11,8.07.25,8.56,4.54,15,6.4,16.27.64.43,1.72.89,2.15-1.07.38-1.72-1.35-9.92-1.35-9.92a61.23,61.23,0,0,0,3.92,8.09c1.75,2.66,2.86,3.67,4.82,3.66,1.18,0,2.11-1,1.85-1.83-.91-3.12-5.84-11.29-5.84-11.29s.92,1.42,4.49,6.06c3.31,4.29,4.93,5,6.48,4.32.8-.37,1.32-1.67.91-3.57-.27-1.27-4.2-7.45-6.54-11.15-1.21-1.9-2-3.15-1.64-2.72a24.14,24.14,0,0,0,3.17,2.87"/><polygon class="cls-15" points="380.7 306.14 375.82 342.51 390.6 306.14 384.33 295.14 375.82 301.08 380.7 306.14"/><path class="cls-16" d="M386.06,281.51l-3.57,20.39s4.08-5.1,3.57-20.39"/><path class="cls-16" d="M460.84,283.22l1.8,16.3s3.38-5.32-1.8-16.3"/><path class="cls-23" d="M357.39,310.94l9.5,1.51s-5.84,3.57-9.5-1.51"/><path class="cls-22" d="M417.85,200.21s17.78,2,21.45-11"/><path class="cls-24" d="M655.23,456.3c-12,1.2-51.77.58-73.5,1.63s-37.89-.13-39.88,9.08,7.59,17.1,39.13,17.24,77.61.86,91.2-3.78,13.56-25.09,4.81-27.07-9.73,1.7-21.76,2.9"/><path class="cls-25" d="M680.53,455.68c1.81,7-1.13,17.45-10.36,20.6-13.59,4.64-59.67,3.93-91.21,3.79-21.54-.1-32.83-3.81-37.19-9.1,1.4,7.41,12.32,13.16,39.21,13.28,31.53.15,77.61.86,91.2-3.78,11.38-3.89,13.2-18.87,8.35-24.79"/><path class="cls-26" d="M660.24,490.22a8.8,8.8,0,1,1-8.65-8.93,8.79,8.79,0,0,1,8.65,8.93"/><path class="cls-27" d="M655.4,490.15a4,4,0,1,1-3.89-4,4,4,0,0,1,3.89,4"/><path class="cls-26" d="M583.45,489.49a8.8,8.8,0,1,1-8.66-8.93,8.79,8.79,0,0,1,8.66,8.93"/><path class="cls-27" d="M578.61,489.42a4,4,0,1,1-3.89-4,4,4,0,0,1,3.89,4"/><path class="cls-28" d="M717.45,294.1c-.73-.69-1.47-1.35-2.23-2a7.2,7.2,0,0,1,5.78-7.7L738.07,281a27.28,27.28,0,0,1-10.49,25.23,68,68,0,0,0-4.93-6.65Z"/><path class="cls-21" d="M619.94,402.5s-4-1.57-7.47-6.87l7.24,2.44a13.54,13.54,0,0,0,.23,4.43"/><path class="cls-28" d="M690.72,406l1.43-.46.48-.16,1.38-.49.3-.1,1.62-.63.41-.17,1.26-.52.45-.2,1.58-.71.1,0,1.47-.72.45-.23c.41-.21.82-.42,1.22-.64l.36-.19,1-.58a63.34,63.34,0,0,0,.12,11l-11.71,1.33a26.87,26.87,0,0,1-2.61-6.26l.38-.11.26-.08"/><path class="cls-21" d="M705.9,416.82s-4.28-1.05-6-2.62a13,13,0,0,0,0,5.24s-4-1.56-7.18-7l11.71-1.33a17.46,17.46,0,0,0,1.5,5.73"/><path class="cls-29" d="M559.85,320.2c-.06-.34-.11-.69-.16-1a65.51,65.51,0,0,1,2-10.22c-.12.61-.22,1.22-.31,1.84-.45,2.47-1.07,6.07-1.52,9.42"/><path class="cls-29" d="M734.54,358.21a12.54,12.54,0,0,1,1.62.74,66.34,66.34,0,0,0-3.75-43.86l-.06.09L717.82,308a7.82,7.82,0,0,1-1.63-12.94,7.11,7.11,0,0,1-1-3,67.37,67.37,0,0,0-21.92-12.67L649.21,264a67.76,67.76,0,0,0-64.41,10.61,8.61,8.61,0,0,0,1.3.21s11.43,8.26-3.34,4.08a19.66,19.66,0,0,1-2.13-.75,66,66,0,0,0-18.86,30.46c-.1.53-.24,1.27-.4,2.16-2.27,16.24,8.81,33.94,13.88,38.16a178.09,178.09,0,0,0,34,22c3.42-.88,10.6-1.71,16.16,4.44,0,0-.13,1.06-.28,2.77a260.88,260.88,0,0,0,43.5,13.25,75,75,0,0,0,20.1,1.66c0-.24,0-.47,0-.72a16,16,0,0,1,9.85-.55,65.35,65.35,0,0,0,22-8.87,15.17,15.17,0,0,1-1.94-.63h0l-.9-.41a58.44,58.44,0,0,1-8.71-4.93c-4.13-3-4.34-10.28.07-16.43,4.88-6.82,18-5.78,18-5.78s7.21,3.4,7.44,3.48m-90-30.61,2.09-16.06a7.81,7.81,0,0,1,12-5.54l15.83,10.32c-11.85,15.75-29.93,11.28-29.93,11.28m35.59-49.66-7.76,1a2.47,2.47,0,0,1-.94-.09L640,268.07a.36.36,0,0,1,.1-.71l8.17-.45a2.84,2.84,0,0,1,1.08.13l31,10.17a.37.37,0,0,1-.09.73m24.54,76.93a10.82,10.82,0,0,1-10.84,10.84,10.85,10.85,0,1,1,10.84-10.84m25.7-.2a6,6,0,1,1,6-6,6,6,0,0,1-6,6"/><path class="cls-29" d="M716.46,294.87l-.27.22a7.11,7.11,0,0,1-1-3c.76.66,1.5,1.32,2.23,2Z"/><path class="cls-29" d="M724,383.35l-.13.16a1.83,1.83,0,0,1,.13-.16Z"/><path class="cls-29" d="M625.42,375.37s-.13,1.06-.28,2.77c-5.7-2.32-11-4.74-15.88-7.21,3.42-.88,10.6-1.71,16.16,4.44"/><path class="cls-29" d="M698.61,391.78a67.23,67.23,0,0,1-9.87,1.27c0-.24,0-.47,0-.72a16,16,0,0,1,9.85-.55"/><path class="cls-28" d="M704.74,399.86l-.46.26h0l.46-.26"/><path class="cls-28" d="M690.08,406.16l-1.3.37,1.3-.37h0"/><path class="cls-28" d="M561.69,308.87c.33-1.57.3-1.42.08-.25l-.09.32a.17.17,0,0,0,0-.07"/><path class="cls-28" d="M690.46,406.05l-.38.11h0l.38-.11"/><path class="cls-28" d="M704.28,400.12h0l-1,.58,1-.58"/><path class="cls-29" d="M704.68,395.65a13,13,0,0,0-6.07-3.87,65.35,65.35,0,0,0,22-8.87,15.63,15.63,0,0,0,3.32.44,1.83,1.83,0,0,0-.13.16c-.36.45-.73.9-1.1,1.34a3.58,3.58,0,0,1-.26.29l-.9,1-.34.38c-.36.39-.71.78-1.08,1.16l-.11.12c-.4.42-.8.83-1.21,1.24l-.35.34-1,.93-.34.32-1.27,1.16-.23.19-1.1,1-.39.33-1.13.91-.24.19c-.45.36-.91.7-1.37,1.05l-.37.27-1.09.78-.39.28c-.48.33-1,.65-1.44,1l-.12.08-1.35.86c-.14.09-.28.18-.43.26l-1.19.71-.33.2-.46.26c.17-2.64.4-4.47.4-4.47"/><path class="cls-29" d="M661.14,398.58c-7.58-8.38-18.16-3.79-18.16-3.79-.05,1.09-.07,2.14-.07,3.16-5.67-2.42-11.8-5.24-18.08-8.47a90,90,0,0,1,.31-11.34,260.88,260.88,0,0,0,43.5,13.25,75,75,0,0,0,20.1,1.66,42,42,0,0,0,1.34,13.11l-1.3.37-.45.12L687,407l-.47.12c-.57.14-1.15.27-1.72.39l-.18,0-1.57.31-.5.09-1.41.24-.37.05c-.59.09-1.17.17-1.76.24l-.41.05-1.41.15-.51,0c-.57.05-1.15.1-1.72.13h-.07l-1.79.08s-4.84-1.35-12.51-4.07c.19-3.63.53-6.27.53-6.27"/><path class="cls-29" d="M607.38,379.54c-3.37-2.14-6.69-4.39-9.93-6.76a16.91,16.91,0,0,0-4.25-3.23C576.55,356.44,563,340,559.85,320.2c.45-3.35,1.07-6.95,1.52-9.42-2.27,16.24,8.81,33.94,13.88,38.16a178.09,178.09,0,0,0,34,22,14.31,14.31,0,0,0-2,.65,57.55,57.55,0,0,0,.11,8"/><path class="cls-28" d="M561.68,308.94l.09-.32c-.1.53-.24,1.27-.4,2.16.09-.62.19-1.23.31-1.84"/><path class="cls-29" d="M607.27,371.58a14.31,14.31,0,0,1,2-.65c4.9,2.47,10.18,4.89,15.88,7.21a90,90,0,0,0-.31,11.34c-5.78-3-11.67-6.28-17.45-9.94a57.55,57.55,0,0,1-.11-8"/><path class="cls-29" d="M704.68,395.65s-.23,1.83-.4,4.47l-1,.58-.36.19c-.4.22-.81.43-1.22.64l-.45.23-1.47.72-.1,0-1.58.71-.45.2-1.26.52-.41.17-1.62.63-.3.1-1.38.49-.48.16-1.43.46-.26.08-.38.11a42,42,0,0,1-1.34-13.11,67.41,67.41,0,0,0,9.87-1.27,13,13,0,0,1,6.07,3.87"/><path class="cls-28" d="M658.68,306l15.83,10.32c-11.85,15.75-29.93,11.28-29.93,11.28l2.09-16.06a7.81,7.81,0,0,1,12-5.54"/><path class="cls-28" d="M721.75,358.91c-7.83,3.47-11.91,11.4-9.11,17.7a10.79,10.79,0,0,0,5.15,5.26,58,58,0,0,1-8.72-4.93c-4.13-3-4.33-10.28.07-16.43,4.88-6.82,18-5.78,18-5.78s7.21,3.4,7.44,3.48a17.11,17.11,0,0,0-12.79.7"/><path class="cls-28" d="M718.68,382.27h0"/><path class="cls-29" d="M724.92,382.11l.31-.41c.32-.44.65-.88,1-1.32l.07-.09,1-1.44.28-.42.73-1.13.24-.39a1.74,1.74,0,0,0,.11-.18h0a64.23,64.23,0,0,0,3.4-6.28,2.86,2.86,0,0,0,5.41-1.29,2.17,2.17,0,0,0,0-.26,2.86,2.86,0,0,0-2.85-2.6,3,3,0,0,0-.8.12,64.64,64.64,0,0,0,2.42-7.48A10.77,10.77,0,0,1,741,364c2.79,6.31-1.29,14.24-9.12,17.71a18.29,18.29,0,0,1-7.91,1.61l.12-.16c.28-.36.57-.72.84-1.08"/><path class="cls-29" d="M724.08,383.19l-.12.16h0l.12-.16"/><path class="cls-29" d="M731.69,368.91a2.17,2.17,0,0,0,0,.26,2.83,2.83,0,0,0,.31,1.3,65.24,65.24,0,0,1-3.4,6.27,47.19,47.19,0,0,1-8,6.17,15.17,15.17,0,0,1-1.94-.63l5.34-8.11a2.9,2.9,0,0,0,.82-1.24l9.68-14.72a12,12,0,0,1,1.62.74,64.64,64.64,0,0,1-2.42,7.48,2.86,2.86,0,0,0-2,2.48"/><path class="cls-29" d="M728.6,376.73a1.74,1.74,0,0,1-.11.18l.1-.17Z"/><path class="cls-29" d="M728.59,376.74l-.1.17-.24.39-.73,1.13-.28.42-1,1.44-.07.09c-.31.44-.64.89-1,1.32l-.31.41c-.27.36-.56.72-.84,1.08l-.12.16a15.63,15.63,0,0,1-3.32-.44,47.19,47.19,0,0,0,8-6.17"/><path class="cls-29" d="M717.79,381.87a10.79,10.79,0,0,1-5.15-5.26c-2.8-6.3,1.28-14.23,9.11-17.7a17.11,17.11,0,0,1,12.79-.7l-9.68,14.72a3,3,0,0,0,.14-.9,2.26,2.26,0,0,0,0-.26,2.86,2.86,0,0,0-5.7,0,2.26,2.26,0,0,0,0,.26,2.86,2.86,0,0,0,4.76,2.14l-5.34,8.11h0c-.3-.12-.6-.26-.89-.4"/><path class="cls-29" d="M717.79,381.87c.29.14.59.28.89.4l-.89-.4"/><path class="cls-28" d="M680.17,277.94l-7.76.95a2.29,2.29,0,0,1-.94-.08L640,268.07a.36.36,0,0,1,.1-.71l8.17-.45a2.84,2.84,0,0,1,1.08.13l31,10.17a.37.37,0,0,1-.09.73"/><path class="cls-30" d="M734.54,371.5a2.86,2.86,0,0,0,2.85-2.59,2.17,2.17,0,0,1,0,.26,2.86,2.86,0,0,1-5.41,1.3c0-.1.1-.2.14-.3a2.84,2.84,0,0,0,2.41,1.33"/><path class="cls-30" d="M731.69,368.91a2.92,2.92,0,0,0,.44,1.26c0,.1-.09.2-.14.3a2.83,2.83,0,0,1-.31-1.3,2.17,2.17,0,0,1,0-.26"/><path class="cls-28" d="M734.54,371.5a2.84,2.84,0,0,1-2.41-1.33q.3-.63.57-1.26h4.69a2.86,2.86,0,0,1-2.85,2.59"/><path class="cls-28" d="M732.13,370.17a2.92,2.92,0,0,1-.44-1.26h1c-.19.42-.37.84-.57,1.26"/><path class="cls-28" d="M733.74,366.43a3,3,0,0,1,.8-.12,2.86,2.86,0,0,1,2.85,2.6H732.7c.36-.82.71-1.64,1-2.48"/><path class="cls-28" d="M731.69,368.91a2.86,2.86,0,0,1,2-2.48c-.33.84-.68,1.66-1,2.48Z"/><path class="cls-30" d="M724,374.17l.82-1.24a2.9,2.9,0,0,1-.82,1.24"/><path class="cls-30" d="M719.28,372a2.26,2.26,0,0,1,0-.26,2.86,2.86,0,0,0,5.7,0,2.26,2.26,0,0,1,0,.26,3,3,0,0,1-.14.9l-.82,1.24a2.86,2.86,0,0,1-4.76-2.14"/><path class="cls-28" d="M722.14,374.37a2.61,2.61,0,1,1,2.85-2.6,2.87,2.87,0,0,1-2.85,2.6"/><path class="cls-20" d="M704.62,356.28A10.86,10.86,0,0,0,693.87,344a10.7,10.7,0,0,0-5.17,1.32,10.84,10.84,0,1,0,15.92,10.94m-8,1.43a2.76,2.76,0,1,1-3.24-2.7,1.33,1.33,0,0,1,.49-.09,1.51,1.51,0,0,1,.48.08,2.75,2.75,0,0,1,2.27,2.71"/><path class="cls-20" d="M692.62,356.93a.51.51,0,0,1-.39-.5.53.53,0,0,1,.29-.47,1.34,1.34,0,0,0,0,.35,1.26,1.26,0,0,0,.15.62"/><path class="cls-20" d="M693.3,356.43a.54.54,0,0,1-.54.53.32.32,0,0,1-.14,0,1.26,1.26,0,0,1-.15-.62,1.34,1.34,0,0,1,0-.35.48.48,0,0,1,.24-.07.54.54,0,0,1,.54.54"/><path class="cls-20" d="M693.38,355a1.33,1.33,0,0,1,.49-.09,1.51,1.51,0,0,1,.48.08,3.88,3.88,0,0,0-.48,0,2.63,2.63,0,0,0-.49.05"/><path class="cls-21" d="M693.87,360.47a2.75,2.75,0,0,1-.48-5.46,1.38,1.38,0,0,0-.87.95.53.53,0,0,0-.29.47.51.51,0,0,0,.39.5,1.4,1.4,0,1,0,1.73-1.93,2.76,2.76,0,0,1-.48,5.47"/><path class="cls-21" d="M695.27,356.31a1.4,1.4,0,0,1-2.65.62.32.32,0,0,0,.14,0,.54.54,0,1,0,0-1.07.48.48,0,0,0-.24.07,1.4,1.4,0,0,1,.86-1,3,3,0,0,1,1,0,1.41,1.41,0,0,1,.92,1.31"/><path class="cls-20" d="M730.41,354.67a6,6,0,1,0-6-6,6,6,0,0,0,6,6m.23-4a1.75,1.75,0,0,1-1.92-1.56,1.48,1.48,0,0,1,0-.42h0a1.74,1.74,0,0,1,3.45,0h0s0,0,0,.06a1.76,1.76,0,0,1-1.56,1.92"/><path class="cls-20" d="M729.64,347.85a.34.34,0,1,1-.3.37.34.34,0,0,1,.3-.37"/><path class="cls-21" d="M728.72,349.11a1.48,1.48,0,0,1,0-.42h3.45s0,0,0,.06a1.75,1.75,0,0,1-3.48.36"/><path class="cls-21" d="M728.73,348.69h3.45a1.73,1.73,0,0,0-1.9-1.5,1.75,1.75,0,0,0-1.55,1.5m.61-.46a.34.34,0,0,1,.3-.38.34.34,0,0,1,.37.31.34.34,0,0,1-.67.07"/><path class="cls-29" d="M660.82,416.18l-13.36,1.52a33,33,0,0,1-4-11.61l17,5.73c0,1.47.14,2.95.31,4.36"/><path class="cls-29" d="M643,394.79s10.58-4.59,18.16,3.79c0,0-.34,2.64-.53,6.27-4.91-1.74-11-4-17.7-6.9,0-1,0-2.07.07-3.16"/><path class="cls-21" d="M662.53,422.72s-4.88-1.2-6.88-3a14.86,14.86,0,0,0,0,6s-4.53-1.79-8.18-8l13.35-1.52a19.73,19.73,0,0,0,1.71,6.54"/><path class="cls-29" d="M597.33,390.53c0,.8.12,1.6.22,2.38l-14.93,1.7a35.69,35.69,0,0,1-3.93-10.36Z"/><path class="cls-29" d="M597.45,372.78c-1.43-1.06-2.85-2.13-4.25-3.23a16.91,16.91,0,0,1,4.25,3.23"/><path class="cls-21" d="M599.46,400.22s-5.46-1.34-7.69-3.35a16.64,16.64,0,0,0,0,6.69s-5.06-2-9.15-8.95l14.92-1.7a22.24,22.24,0,0,0,1.92,7.31"/><path class="cls-29" d="M573.39,257.2c.64-1.43,6.2-5.4,4,5.72-1.74,8.71,4.6,11.08,7.44,11.7q-2.16,1.69-4.17,3.54c-12.14-5.07-7.84-19.6-7.24-21"/><path class="cls-29" d="M582.76,278.91a19.66,19.66,0,0,1-2.13-.75q2-1.85,4.17-3.54a8.61,8.61,0,0,0,1.3.21s11.43,8.26-3.34,4.08"/><path class="cls-29" d="M717.83,308a7.81,7.81,0,0,1-1.64-12.93,7.57,7.57,0,0,0,.44.66l4.22,5.64a6.46,6.46,0,0,1-1.05.8c-2.49,1.35.42,5.61,3.12,7,1.4.7,5.21,2.43,8.55,3.94.32.66.64,1.32.94,2l-.06.09Z"/><path class="cls-29" d="M717.45,294.1l5.2,5.51c-.68.71-1.29,1.32-1.8,1.78l-4.22-5.64a7.57,7.57,0,0,1-.44-.66l.27-.22Z"/><path class="cls-29" d="M719.8,302.19a6.46,6.46,0,0,0,1.05-.8l4.71,6.3a21,21,0,0,0,2-1.43,69.69,69.69,0,0,1,3.89,6.84c-3.34-1.51-7.15-3.24-8.55-3.94-2.7-1.36-5.61-5.62-3.12-7"/><path class="cls-29" d="M720.85,301.39c.51-.46,1.12-1.07,1.8-1.78a68,68,0,0,1,4.93,6.65,21,21,0,0,1-2,1.43Z"/><path class="cls-28" d="M611.75,394.49a28.41,28.41,0,0,1-1.36-2.65l6.05,2.11Z"/><path class="cls-21" d="M616.44,394l9.51,3.33a12.64,12.64,0,0,0,.87,2.23s-4.89-1.2-6.88-3a13.79,13.79,0,0,0-.23,1.56l-7.24-2.44q-.36-.54-.72-1.14Z"/><path class="cls-28" d="M559.25,326.31a67.11,67.11,0,0,1,.44-7.15c0,.35.1.7.16,1-.32,2.31-.55,4.49-.6,6.11"/><path class="cls-28" d="M624.83,389.48c6.28,3.23,12.41,6,18.08,8.47q0,2.85.24,5.34l-17.2-6a25.33,25.33,0,0,1-.84-4.31c-.14-1.13-.23-2.31-.28-3.49"/><path class="cls-28" d="M671.2,409h-.45l-1.81,0h-.35l-1.5-.07-.52,0-1.59-.12-.26,0c-.6-.05-1.21-.12-1.82-.19l-.49-.06-1.43-.2-.49-.07q0-1.74.12-3.3c7.67,2.72,12.51,4.07,12.51,4.07h-.51l-1.41,0"/><path class="cls-28" d="M597.9,373.24l-.45-.46c3.24,2.37,6.56,4.62,9.93,6.76a37.42,37.42,0,0,0,3,12.3l-6.18-2.16a65.11,65.11,0,0,1-7-2.92,109.35,109.35,0,0,1,.73-13.52"/><path class="cls-28" d="M559.24,326.85c0-.18,0-.36,0-.54,0-1.61.28-3.8.6-6.11,3.18,19.82,16.7,36.24,33.35,49.34-7.56-4-15.58-.53-15.58-.53-.06,1.19-.09,2.33-.09,3.45a66.2,66.2,0,0,1-18.29-45.61"/><path class="cls-28" d="M624.83,389.48c0,1.18.14,2.36.28,3.49l-8.67,1-6.05-2.11a37.67,37.67,0,0,1-3-12.3c5.78,3.66,11.68,7,17.45,9.94"/><path class="cls-28" d="M626,397.28,616.44,394l8.67-1a25.33,25.33,0,0,0,.84,4.31"/><path class="cls-29" d="M648.3,405.09l1.85.61.52.16c.48.15,1,.3,1.44.43l.45.13c.61.17,1.22.34,1.83.49l.38.09,1.5.35.53.12,1.63.32.22,0,1.84.31c0,1.19,0,2.43,0,3.67l-17-5.73c-.14-.9-.27-1.83-.36-2.8Z"/><path class="cls-29" d="M660.61,404.85c-.06,1-.1,2.14-.12,3.3l-1.84-.31-.22,0-1.63-.32-.53-.12-1.5-.35-.38-.09c-.61-.15-1.22-.32-1.83-.49l-.45-.13c-.48-.13-1-.28-1.44-.43l-.52-.16-1.85-.61-5.15-1.8q-.24-2.49-.24-5.34c6.72,2.86,12.79,5.16,17.7,6.9"/><path class="cls-29" d="M577.53,372.46a67.18,67.18,0,0,0,19.64,14.3c0,1.26.07,2.52.16,3.77l-18.64-6.28a54.87,54.87,0,0,1-1.16-11.79"/><path class="cls-29" d="M593.2,369.55c1.39,1.1,2.81,2.17,4.25,3.23l.45.46a109.35,109.35,0,0,0-.73,13.52,67.18,67.18,0,0,1-19.64-14.3c0-1.12,0-2.26.09-3.45,0,0,8-3.47,15.58.54"/><path class="cls-28" d="M317.42,304.31c-.87-.82-1.77-1.63-2.68-2.41a8.66,8.66,0,0,1,7-9.27l20.54-4c2.11,16.61-7.86,26.6-12.63,30.36a81.22,81.22,0,0,0-5.93-8Z"/><path class="cls-21" d="M200.08,434.76s-4.77-1.88-9-8.27l8.72,2.94a16.7,16.7,0,0,0,.28,5.33"/><path class="cls-28" d="M285.26,438.93c.58-.17,1.15-.36,1.72-.55l.58-.19,1.65-.58.36-.13,2-.76.49-.2c.51-.2,1-.41,1.51-.63l.54-.23c.64-.28,1.28-.57,1.91-.87l.12-.05q.9-.42,1.77-.87l.54-.27c.5-.25,1-.51,1.47-.77l.43-.23,1.26-.7a76.26,76.26,0,0,0,.15,13.2l-14.09,1.6a32.5,32.5,0,0,1-3.15-7.53l.46-.14.32-.1"/><path class="cls-21" d="M303.53,452s-5.16-1.27-7.26-3.16a15.6,15.6,0,0,0,0,6.31s-4.78-1.88-8.64-8.45l14.09-1.6a20.9,20.9,0,0,0,1.81,6.9"/><path class="cls-29" d="M127.76,335.73c-.07-.42-.13-.84-.19-1.26a79.64,79.64,0,0,1,2.4-12.3c-.15.73-.27,1.47-.37,2.21-.54,3-1.29,7.31-1.84,11.35"/><path class="cls-29" d="M338,381.47a15.65,15.65,0,0,1,1.95.88,79.83,79.83,0,0,0-4.51-52.78l-.07.12-17.48-8.62a9.39,9.39,0,0,1-2-15.56,8.57,8.57,0,0,1-1.17-3.61,81.23,81.23,0,0,0-26.38-15.26L235.3,268.11a81.52,81.52,0,0,0-77.51,12.76,12.57,12.57,0,0,0,1.56.26s13.76,9.93-4,4.9a20.71,20.71,0,0,1-2.56-.9,79.34,79.34,0,0,0-22.71,36.66c-.12.64-.28,1.53-.47,2.59-2.73,19.55,10.6,40.85,16.69,45.93a215.45,215.45,0,0,0,40.94,26.47c4.12-1.06,12.75-2.07,19.45,5.33,0,0-.16,1.28-.34,3.33a314,314,0,0,0,52.34,16,91.07,91.07,0,0,0,24.19,2l0-.87a19.19,19.19,0,0,1,11.85-.66,79,79,0,0,0,26.52-10.68,16.41,16.41,0,0,1-2.34-.76h0l-1.08-.49A69.73,69.73,0,0,1,307.34,404c-5-3.56-5.22-12.36.08-19.77,5.88-8.21,21.62-7,21.62-7s8.68,4.1,8.95,4.2ZM229.73,344.62l2.51-19.33a9.41,9.41,0,0,1,14.46-6.66l19.05,12.42c-14.27,18.95-36,13.57-36,13.57m42.84-59.76L263.22,286a2.89,2.89,0,0,1-1.13-.11L224.16,273a.44.44,0,0,1,.12-.86l9.83-.54a3.57,3.57,0,0,1,1.3.15L272.67,284a.44.44,0,0,1-.1.87m29.53,92.58a12.08,12.08,0,0,1-.12,1.71,13,13,0,1,1,.12-1.71m30.93-.23a7.2,7.2,0,1,1,7.19-7.2,7.2,7.2,0,0,1-7.19,7.2"/><path class="cls-29" d="M316.23,305.24l-.32.27a8.57,8.57,0,0,1-1.17-3.61c.91.78,1.81,1.58,2.68,2.41Z"/><path class="cls-29" d="M325.26,411.72a1.56,1.56,0,0,0-.16.2l.15-.2Z"/><path class="cls-29" d="M206.68,402.11s-.16,1.28-.34,3.33c-6.86-2.79-13.22-5.7-19.11-8.66,4.12-1.06,12.75-2.07,19.45,5.33"/><path class="cls-29" d="M294.75,421.87a83.62,83.62,0,0,1-11.88,1.53l0-.87a19.19,19.19,0,0,1,11.85-.66"/><path class="cls-28" d="M302.12,431.59l-.55.31h0l.55-.31"/><path class="cls-28" d="M284.48,439.17l-1.56.45,1.56-.45h0"/><path class="cls-28" d="M130,322.09c.4-1.89.36-1.71.09-.3,0,.13-.06.26-.1.38a.22.22,0,0,0,0-.08"/><path class="cls-28" d="M284.94,439l-.46.14h0l.46-.14"/><path class="cls-28" d="M301.57,431.9h0l-1.26.7,1.26-.7"/><path class="cls-29" d="M302.06,426.52a15.72,15.72,0,0,0-7.31-4.65,79,79,0,0,0,26.52-10.68,19.18,19.18,0,0,0,4,.53l-.15.2c-.44.54-.87,1.07-1.32,1.6l-.31.36c-.36.42-.72.84-1.09,1.25l-.41.46L320.68,417l-.14.15c-.48.5-1,1-1.46,1.48l-.41.41c-.39.38-.77.75-1.17,1.12-.13.13-.26.26-.4.38-.5.47-1,.94-1.53,1.4l-.27.23c-.44.39-.89.77-1.33,1.14l-.47.4-1.36,1.1-.29.23-1.65,1.26-.44.32c-.43.32-.87.63-1.31.94l-.48.34c-.57.4-1.14.79-1.72,1.17l-.15.1-1.62,1-.52.31-1.43.86-.41.24-.55.31c.21-3.18.49-5.38.49-5.38"/><path class="cls-29" d="M249.66,430c-9.13-10.08-21.85-4.56-21.85-4.56-.07,1.32-.09,2.58-.09,3.81-6.83-2.91-14.2-6.31-21.76-10.19a107.91,107.91,0,0,1,.38-13.66,314.26,314.26,0,0,0,52.34,16,91.07,91.07,0,0,0,24.19,2,50.85,50.85,0,0,0,1.61,15.77l-1.56.45-.54.14-1.59.41-.57.14-2.06.47-.21,0-1.89.37-.61.11-1.7.28-.45.07c-.7.11-1.4.2-2.11.29l-.5.05c-.56.07-1.13.13-1.69.18l-.61.06c-.69.06-1.38.11-2.08.15h-.08l-2.16.1s-5.81-1.63-15-4.9c.23-4.36.64-7.55.64-7.55"/><path class="cls-29" d="M185,407.13c-4.06-2.57-8.06-5.28-11.95-8.14a20.31,20.31,0,0,0-5.12-3.88c-20-15.78-36.31-35.54-40.14-59.38.55-4,1.3-8.37,1.84-11.35-2.73,19.55,10.6,40.85,16.69,45.93a215.45,215.45,0,0,0,40.94,26.47,18,18,0,0,0-2.4.77,69.68,69.68,0,0,0,.14,9.58"/><path class="cls-28" d="M130,322.17c0-.12.07-.25.1-.38-.12.64-.28,1.53-.47,2.59.1-.74.22-1.48.37-2.21"/><path class="cls-29" d="M184.83,397.55a18,18,0,0,1,2.4-.77c5.89,3,12.25,5.87,19.11,8.66A107.91,107.91,0,0,0,206,419.1c-7-3.58-14-7.57-21-12a69.68,69.68,0,0,1-.14-9.58"/><path class="cls-29" d="M302.06,426.52s-.28,2.2-.49,5.38l-1.26.7-.43.23c-.48.26-1,.52-1.47.77l-.54.27q-.87.45-1.77.87l-.12.05c-.63.3-1.27.59-1.91.87l-.54.23c-.5.22-1,.43-1.51.63l-.49.2-2,.76-.36.13-1.65.58-.58.19c-.57.19-1.14.38-1.72.55l-.32.1-.46.14a50.85,50.85,0,0,1-1.61-15.77,83.62,83.62,0,0,0,11.88-1.53,15.72,15.72,0,0,1,7.31,4.65"/><path class="cls-28" d="M246.7,318.63l19.05,12.42c-14.27,18.95-36,13.57-36,13.57l2.51-19.33a9.41,9.41,0,0,1,14.46-6.66"/><path class="cls-28" d="M322.59,382.3c-9.42,4.18-14.33,13.72-11,21.31a13,13,0,0,0,6.2,6.32A69.73,69.73,0,0,1,307.34,404c-5-3.56-5.22-12.36.08-19.77,5.88-8.21,21.62-7,21.62-7s8.68,4.09,8.95,4.19h0a20.67,20.67,0,0,0-15.4.83"/><path class="cls-28" d="M318.91,410.42h0"/><path class="cls-29" d="M326.42,410.22l.36-.48c.4-.53.78-1.06,1.16-1.6A.44.44,0,0,0,328,408c.41-.57.8-1.14,1.19-1.72l.33-.51c.3-.45.59-.91.88-1.36.09-.16.19-.32.29-.47l.14-.22,0,0a78.41,78.41,0,0,0,4.09-7.56,3.45,3.45,0,0,0,6.52-1.56c0-.1,0-.21,0-.31a3.41,3.41,0,0,0-4.4-3,75.21,75.21,0,0,0,2.92-9,13,13,0,0,1,5.81,6.12c3.36,7.59-1.54,17.13-11,21.31a22.07,22.07,0,0,1-9.52,1.94l.14-.19c.35-.43.68-.87,1-1.31"/><path class="cls-29" d="M325.4,411.53l-.14.19h0l.15-.19"/><path class="cls-29" d="M334.56,394.34c0,.1,0,.21,0,.31a3.42,3.42,0,0,0,.37,1.56,79.61,79.61,0,0,1-4.09,7.56,56.77,56.77,0,0,1-9.56,7.42,16.41,16.41,0,0,1-2.34-.76l6.42-9.76a3.41,3.41,0,0,0,1-1.5L338,381.47a15.65,15.65,0,0,1,1.95.88,75.21,75.21,0,0,1-2.92,9,3.43,3.43,0,0,0-2.46,3"/><path class="cls-29" d="M330.85,403.75l-.14.22.12-.2,0,0"/><path class="cls-29" d="M330.83,403.77l-.12.2-.29.46c-.29.46-.58.92-.88,1.37l-.33.5c-.39.58-.78,1.16-1.18,1.73a.76.76,0,0,0-.08.11c-.39.54-.77,1.07-1.17,1.59l-.36.49-1,1.31-.15.19a19.18,19.18,0,0,1-4-.53,57.39,57.39,0,0,0,9.56-7.42"/><path class="cls-29" d="M317.83,409.93a13,13,0,0,1-6.2-6.32c-3.37-7.59,1.54-17.13,11-21.31a20.62,20.62,0,0,1,15.4-.83l-11.65,17.7a3.47,3.47,0,0,0,.17-1.07c0-.11,0-.21,0-.32a3.44,3.44,0,0,0-6.86,0c0,.11,0,.21,0,.32a3.45,3.45,0,0,0,5.74,2.57l-6.43,9.76h0c-.37-.15-.73-.31-1.08-.49"/><path class="cls-29" d="M317.83,409.93c.35.18.71.34,1.08.49l-1.08-.49"/><path class="cls-28" d="M272.57,284.86,263.22,286a2.71,2.71,0,0,1-1.13-.1L224.16,273a.44.44,0,0,1,.12-.86l9.83-.54a3.57,3.57,0,0,1,1.3.15L272.67,284a.44.44,0,0,1-.1.87"/><path class="cls-30" d="M338,397.46a3.44,3.44,0,0,0,3.43-3.12c0,.1,0,.21,0,.31a3.45,3.45,0,0,1-6.52,1.56l.18-.36a3.4,3.4,0,0,0,2.89,1.61"/><path class="cls-30" d="M334.56,394.34a3.35,3.35,0,0,0,.54,1.51l-.18.36a3.42,3.42,0,0,1-.37-1.56c0-.1,0-.21,0-.31"/><path class="cls-28" d="M338,397.46a3.4,3.4,0,0,1-2.89-1.61c.23-.5.45-1,.68-1.51h5.64a3.44,3.44,0,0,1-3.43,3.12"/><path class="cls-28" d="M335.1,395.85a3.35,3.35,0,0,1-.54-1.52h1.22c-.23.51-.45,1-.68,1.52"/><path class="cls-28" d="M337,391.36a3.41,3.41,0,0,1,4.4,3h-5.64c.43-1,.85-2,1.24-3"/><path class="cls-28" d="M334.56,394.34a3.43,3.43,0,0,1,2.46-3c-.39,1-.81,2-1.24,3Z"/><path class="cls-30" d="M325.36,400.67l1-1.5a3.48,3.48,0,0,1-1,1.5"/><path class="cls-30" d="M319.62,398.1c0-.11,0-.21,0-.32a3.44,3.44,0,0,0,6.86,0c0,.11,0,.21,0,.32a3.47,3.47,0,0,1-.17,1.07l-1,1.5a3.4,3.4,0,0,1-2.28.87,3.45,3.45,0,0,1-3.45-3.44"/><path class="cls-28" d="M323.07,400.91a3.14,3.14,0,1,1,3.43-3.13,3.45,3.45,0,0,1-3.43,3.13"/><path class="cls-20" d="M302,379.15a12.08,12.08,0,0,0,.12-1.71,13.11,13.11,0,1,0-.12,1.71m-9.62,1.72a3.32,3.32,0,1,1-3.9-3.26,1.62,1.62,0,0,1,.58-.11,1.58,1.58,0,0,1,.58.11,3.3,3.3,0,0,1,2.74,3.26"/><path class="cls-20" d="M287.54,379.93a.63.63,0,0,1-.12-1.18,1.54,1.54,0,0,0-.06.43,1.73,1.73,0,0,0,.18.75"/><path class="cls-20" d="M288.36,379.32a.64.64,0,0,1-.65.64,1,1,0,0,1-.17,0,1.73,1.73,0,0,1-.18-.75,1.54,1.54,0,0,1,.06-.43.74.74,0,0,1,.29-.08.65.65,0,0,1,.65.65"/><path class="cls-20" d="M288.46,377.61a1.62,1.62,0,0,1,.58-.11,1.58,1.58,0,0,1,.58.11,2.76,2.76,0,0,0-.57-.06,2.88,2.88,0,0,0-.59.06"/><path class="cls-21" d="M289.05,384.18a3.31,3.31,0,0,1-.59-6.57,1.67,1.67,0,0,0-1,1.14.63.63,0,0,0,.12,1.18,1.68,1.68,0,0,0,3.19-.75,1.67,1.67,0,0,0-1.11-1.57,3.31,3.31,0,0,1-.57,6.57"/><path class="cls-21" d="M290.73,379.18a1.68,1.68,0,0,1-3.19.75,1,1,0,0,0,.17,0,.64.64,0,0,0,.65-.64.65.65,0,0,0-.65-.65.74.74,0,0,0-.29.08,1.67,1.67,0,0,1,1-1.14,2.88,2.88,0,0,1,.59-.06,2.76,2.76,0,0,1,.57.06,1.67,1.67,0,0,1,1.11,1.57"/><path class="cls-20" d="M333,377.21a7.2,7.2,0,1,0-7.2-7.2,7.2,7.2,0,0,0,7.2,7.2m.27-4.82A2.1,2.1,0,0,1,331,370h0a2.09,2.09,0,0,1,4.15,0h0a.14.14,0,0,1,0,.07,2.11,2.11,0,0,1-1.87,2.31"/><path class="cls-20" d="M332.09,369a.41.41,0,1,1-.36.45.41.41,0,0,1,.36-.45"/><path class="cls-21" d="M331,370.51a2.08,2.08,0,0,1,0-.5h4.15a.14.14,0,0,1,0,.07,2.1,2.1,0,1,1-4.18.43"/><path class="cls-21" d="M331,370h4.15a2.09,2.09,0,0,0-4.15,0m.73-.56a.41.41,0,1,1,.45.36.41.41,0,0,1-.45-.36"/><path class="cls-29" d="M249.27,451.22l-16.07,1.83a39.88,39.88,0,0,1-4.76-14L248.9,446c.06,1.77.17,3.55.37,5.24"/><path class="cls-29" d="M227.81,425.48S240.53,420,249.66,430c0,0-.41,3.19-.64,7.55-5.91-2.09-13.22-4.86-21.3-8.3,0-1.23,0-2.49.09-3.81"/><path class="cls-21" d="M251.34,459.09s-5.89-1.44-8.29-3.6a17.89,17.89,0,0,0,0,7.2s-5.44-2.15-9.85-9.64l16.07-1.83a23.86,23.86,0,0,0,2.07,7.87"/><path class="cls-29" d="M172.87,420.36c.06,1,.15,1.93.26,2.86l-18,2a42.49,42.49,0,0,1-4.73-12.46Z"/><path class="cls-29" d="M173,399c-1.73-1.27-3.44-2.56-5.12-3.89A20.61,20.61,0,0,1,173,399"/><path class="cls-21" d="M175.44,432s-6.58-1.6-9.26-4a20,20,0,0,0,0,8.05s-6.09-2.4-11-10.78l18-2a26.42,26.42,0,0,0,2.31,8.79"/><path class="cls-29" d="M144.06,259.91c.77-1.72,7.46-6.5,4.78,6.88-2.09,10.48,5.54,13.34,8.95,14.08-1.73,1.35-3.4,2.78-5,4.26-14.62-6.1-9.44-23.59-8.72-25.22"/><path class="cls-29" d="M155.34,286a20.71,20.71,0,0,1-2.56-.9c1.61-1.48,3.28-2.91,5-4.26a12.57,12.57,0,0,0,1.56.26s13.76,9.93-4,4.9"/><path class="cls-29" d="M317.88,321.07a9.39,9.39,0,0,1-2-15.56,7.78,7.78,0,0,0,.53.79l5.07,6.78a7.66,7.66,0,0,1-1.25,1c-3,1.63.5,6.75,3.75,8.38,1.69.84,6.26,2.93,10.28,4.75.39.79.77,1.59,1.14,2.39l-.07.11Z"/><path class="cls-29" d="M317.42,304.31l6.26,6.63c-.82.86-1.55,1.59-2.17,2.14l-5.07-6.78a7.78,7.78,0,0,1-.53-.79l.32-.27Z"/><path class="cls-29" d="M320.26,314.05a7.66,7.66,0,0,0,1.25-1l5.68,7.58a24.33,24.33,0,0,0,2.42-1.71,79.32,79.32,0,0,1,4.68,8.23c-4-1.82-8.59-3.9-10.28-4.75-3.25-1.62-6.75-6.75-3.75-8.38"/><path class="cls-29" d="M321.51,313.08c.62-.55,1.35-1.28,2.17-2.14a80.05,80.05,0,0,1,5.93,8,24.33,24.33,0,0,1-2.42,1.71Z"/><path class="cls-28" d="M190.23,425.12a33.61,33.61,0,0,1-1.64-3.18l7.27,2.54Z"/><path class="cls-21" d="M195.86,424.48l11.45,4a15.27,15.27,0,0,0,1.05,2.68s-5.88-1.44-8.28-3.6a15.79,15.79,0,0,0-.28,1.87l-8.71-2.94c-.29-.43-.58-.89-.86-1.37Z"/><path class="cls-28" d="M127,343.08a84,84,0,0,1,.53-8.61c.06.42.12.84.19,1.26-.38,2.77-.66,5.4-.72,7.35"/><path class="cls-28" d="M206,419.1c7.56,3.88,14.93,7.28,21.76,10.19,0,2.28.09,4.42.29,6.42l-20.7-7.23a30.61,30.61,0,0,1-1-5.19c-.17-1.36-.27-2.77-.34-4.19"/><path class="cls-28" d="M261.76,442.53h-.54c-.72,0-1.45,0-2.17,0l-.42,0-1.81-.08-.63,0-1.91-.14-.31,0c-.73-.07-1.46-.14-2.2-.23l-.58-.08-1.72-.23-.59-.09c0-1.39.07-2.72.14-4,9.23,3.27,15,4.9,15,4.9h-.61c-.56,0-1.13,0-1.7,0"/><path class="cls-28" d="M173.56,399.56,173,399c3.89,2.86,7.89,5.57,11.95,8.14a45.16,45.16,0,0,0,3.62,14.81l-7.44-2.6a83.25,83.25,0,0,1-8.47-3.51,131.49,131.49,0,0,1,.88-16.27"/><path class="cls-28" d="M127,343.72c0-.21,0-.43,0-.64.06-1.95.34-4.58.72-7.35,3.83,23.84,20.1,43.6,40.14,59.38-9.1-4.83-18.76-.65-18.76-.65-.07,1.43-.1,2.81-.1,4.15a79.64,79.64,0,0,1-22-54.89"/><path class="cls-28" d="M206,419.1c.07,1.42.17,2.83.34,4.19l-10.44,1.19-7.27-2.54A45.16,45.16,0,0,1,185,407.13c6.95,4.4,14,8.39,21,12"/><path class="cls-28" d="M207.31,428.48l-11.45-4,10.44-1.19a31.62,31.62,0,0,0,1,5.19"/><path class="cls-29" d="M234.21,437.88c.74.26,1.48.5,2.22.73l.63.2,1.74.52.54.15c.73.21,1.46.41,2.2.59l.45.11,1.8.42.65.14c.65.14,1.3.27,2,.39l.27.05c.73.14,1.47.26,2.21.38,0,1.43,0,2.92,0,4.42l-20.46-6.9c-.17-1.08-.32-2.2-.43-3.37Z"/><path class="cls-29" d="M249,437.59c-.07,1.25-.12,2.58-.14,4-.74-.12-1.48-.24-2.21-.38l-.27-.05c-.66-.12-1.31-.25-2-.39l-.65-.14-1.8-.42-.45-.11c-.74-.18-1.47-.38-2.21-.58l-.53-.16-1.74-.52-.63-.2c-.74-.23-1.48-.47-2.22-.73l-6.2-2.17c-.2-2-.29-4.14-.29-6.42,8.08,3.45,15.39,6.21,21.3,8.3"/><path class="cls-29" d="M149,398.61a80.8,80.8,0,0,0,23.64,17.22c0,1.5.08,3,.19,4.53l-22.43-7.56a66.05,66.05,0,0,1-1.4-14.19"/><path class="cls-29" d="M167.9,395.1c1.68,1.33,3.39,2.62,5.12,3.89l.54.56a131.56,131.56,0,0,0-.88,16.28A80.8,80.8,0,0,1,149,398.61c0-1.34,0-2.72.11-4.15,0,0,9.65-4.18,18.75.64"/><path class="cls-28" d="M421.22,330.56c.38-.36.78-.71,1.18-1.06a3.82,3.82,0,0,0-3.06-4.07l-9-1.77A14.4,14.4,0,0,0,415.86,337a37.11,37.11,0,0,1,2.61-3.51Z"/><path class="cls-21" d="M472.76,387.87a9.62,9.62,0,0,0,3.95-3.63l-3.82,1.29a7.18,7.18,0,0,1-.13,2.34"/><path class="cls-28" d="M435.34,389.7l-.75-.24-.25-.09-.73-.25-.16-.06-.86-.33-.21-.09-.67-.28-.24-.1-.83-.38-.06,0-.78-.38-.23-.12-.65-.34-.19-.1-.55-.31a33.32,33.32,0,0,1-.06,5.8l6.18.7a13.9,13.9,0,0,0,1.39-3.31l-.2-.06-.15,0"/><path class="cls-21" d="M427.32,395.44a9.69,9.69,0,0,0,3.19-1.39,7,7,0,0,1,0,2.77,8.65,8.65,0,0,0,3.79-3.71l-6.18-.7a9.16,9.16,0,0,1-.8,3"/><path class="cls-29" d="M504.53,344.37c0-.19.05-.37.08-.56a34.15,34.15,0,0,0-1.05-5.4c.07.32.12.65.16,1,.24,1.31.57,3.21.81,5"/><path class="cls-29" d="M412.18,364.46c.12,0,3.94-1.84,3.94-1.84s6.91-.55,9.49,3.05c2.33,3.25,2.22,7.12,0,8.69A30.61,30.61,0,0,1,421,377l-.47.22h0a7.27,7.27,0,0,1-1,.33,34.59,34.59,0,0,0,11.65,4.69,8.44,8.44,0,0,1,5.2.29c0,.13,0,.26,0,.38A39.77,39.77,0,0,0,447,382a137.89,137.89,0,0,0,23-7c-.08-.9-.15-1.46-.15-1.46a8.38,8.38,0,0,1,8.55-2.35,94.45,94.45,0,0,0,18-11.62c2.67-2.23,8.53-11.59,7.33-20.18q-.12-.7-.21-1.14a34.84,34.84,0,0,0-10-16.1,9.92,9.92,0,0,1-1.13.4c-7.8,2.21-1.76-2.16-1.76-2.16a5.34,5.34,0,0,0,.69-.11,35.84,35.84,0,0,0-34-5.61L434,322.81a35.48,35.48,0,0,0-11.58,6.7,3.74,3.74,0,0,1-.52,1.58,4.13,4.13,0,0,1-.86,6.84l-7.68,3.78,0,0a35,35,0,0,0-2,23.19,6.53,6.53,0,0,1,.85-.39m31.73-22.15,8.37-5.45a4.13,4.13,0,0,1,6.35,2.92l1.11,8.49s-9.56,2.37-15.83-6m-3-20.67,16.36-5.38a1.62,1.62,0,0,1,.58-.07l4.31.24a.19.19,0,0,1,.06.38l-16.67,5.67a1.17,1.17,0,0,1-.49,0l-4.11-.51a.19.19,0,0,1,0-.38M433.68,357a5.73,5.73,0,1,1-5.68,6.48,6.16,6.16,0,0,1-.05-.75,5.73,5.73,0,0,1,5.73-5.73m-22.48,2.46a3.17,3.17,0,1,1,3.16,3.17,3.17,3.17,0,0,1-3.16-3.17"/><path class="cls-29" d="M421.74,331l.14.12a3.74,3.74,0,0,0,.52-1.58c-.4.34-.8.69-1.18,1.06Z"/><path class="cls-29" d="M417.78,377.75l.07.08-.07-.08Z"/><path class="cls-29" d="M469.86,373.52s.07.57.15,1.47c3-1.23,5.81-2.51,8.4-3.81a8.4,8.4,0,0,0-8.55,2.34"/><path class="cls-29" d="M431.18,382.2a34.39,34.39,0,0,0,5.22.67c0-.12,0-.25,0-.38a8.46,8.46,0,0,0-5.2-.29"/><path class="cls-28" d="M427.94,386.47l.24.14h0l-.24-.14"/><path class="cls-28" d="M435.69,389.8l.68.2-.68-.2Z"/><path class="cls-28" d="M503.55,338.38c-.17-.83-.15-.75,0-.14,0,.06,0,.12.05.17s0,0,0,0"/><path class="cls-28" d="M435.49,389.74l.2.06h0l-.2-.06"/><path class="cls-28" d="M428.18,386.61h0l.55.31-.55-.31"/><path class="cls-29" d="M428,384.25a6.87,6.87,0,0,1,3.21-2.05,34.59,34.59,0,0,1-11.65-4.69,8.39,8.39,0,0,1-1.75.24l.07.08.58.71.13.15.48.55.18.2.57.62.06.06c.21.22.42.44.64.65l.18.18.51.5.18.16.67.62.12.1.59.5.2.17.6.49.12.1.73.55.19.14.58.42.21.14.76.52.06,0,.71.45.23.14.63.38.18.1.24.14c-.09-1.39-.21-2.36-.21-2.36"/><path class="cls-29" d="M451,385.79c4-4.43,9.59-2,9.59-2,0,.58,0,1.13,0,1.67,3-1.27,6.24-2.77,9.56-4.47a47,47,0,0,0-.17-6,137.89,137.89,0,0,1-23,7,39.77,39.77,0,0,1-10.62.87,22.42,22.42,0,0,1-.71,6.93l.68.2.24.06c.23.07.47.13.7.18l.25.07.91.2.09,0,.83.16.27.05.74.12.2,0,.93.13.22,0,.74.08.27,0,.91.07h0l.95,0s2.56-.71,6.61-2.15c-.1-1.92-.27-3.32-.27-3.32"/><path class="cls-29" d="M479.4,375.73c1.78-1.13,3.54-2.32,5.25-3.57a8.89,8.89,0,0,1,2.25-1.71c8.8-6.93,15.94-15.61,17.63-26.08-.24-1.78-.57-3.68-.81-5,1.2,8.59-4.66,17.95-7.33,20.18a94.45,94.45,0,0,1-18,11.62,8.36,8.36,0,0,1,1,.34,30.45,30.45,0,0,1-.06,4.21"/><path class="cls-28" d="M503.56,338.41c0-.05,0-.11-.05-.17.06.28.13.67.21,1.14,0-.32-.1-.65-.16-1"/><path class="cls-29" d="M479.46,371.52a8.36,8.36,0,0,0-1-.34c-2.59,1.3-5.39,2.58-8.4,3.81a47,47,0,0,1,.17,6c3.05-1.57,6.17-3.33,9.22-5.26a30.45,30.45,0,0,0,.06-4.21"/><path class="cls-29" d="M428,384.25s.12,1,.21,2.36l.55.31.19.1.65.34.23.12.78.38.06,0,.83.38.24.1.67.28.21.09.86.33.16.06.73.25.25.09.75.24.15,0,.2.06a22.73,22.73,0,0,0,.71-6.93,34.39,34.39,0,0,1-5.22-.67,6.87,6.87,0,0,0-3.21,2.05"/><path class="cls-28" d="M452.28,336.86l-8.37,5.45c6.27,8.33,15.83,6,15.83,6l-1.11-8.49a4.13,4.13,0,0,0-6.35-2.92"/><path class="cls-28" d="M419,364.82c4.14,1.84,6.29,6,4.81,9.36A5.66,5.66,0,0,1,421,377a30.61,30.61,0,0,0,4.61-2.6c2.18-1.57,2.29-5.44,0-8.69-2.58-3.6-9.49-3.05-9.49-3.05s-3.82,1.8-3.94,1.84a9.07,9.07,0,0,1,6.77.36"/><path class="cls-28" d="M420.56,377.18Z"/><path class="cls-29" d="M417.27,377.09a1.77,1.77,0,0,1-.16-.22c-.18-.23-.35-.46-.51-.7l0,0c-.18-.25-.35-.51-.52-.76l-.14-.22-.39-.6-.13-.21-.06-.09h0a32.07,32.07,0,0,1-1.8-3.32,1.51,1.51,0,0,1-2.86-.68.66.66,0,0,1,0-.14,1.5,1.5,0,0,1,1.5-1.37,1.54,1.54,0,0,1,.43.06,33.1,33.1,0,0,1-1.28-3.95,5.62,5.62,0,0,0-2.55,2.68c-1.48,3.34.67,7.53,4.81,9.36a9.78,9.78,0,0,0,4.19.86l-.07-.09-.44-.57"/><path class="cls-29" d="M417.71,377.66l.07.09h0l-.07-.09"/><path class="cls-29" d="M413.69,370.11c0,.05,0,.09,0,.14a1.4,1.4,0,0,1-.17.68,33.13,33.13,0,0,0,1.8,3.32,24.17,24.17,0,0,0,4.2,3.26,8.83,8.83,0,0,0,1-.33l-2.83-4.29a1.58,1.58,0,0,1-.43-.66l-5.12-7.77a6.53,6.53,0,0,0-.85.39,35,35,0,0,0,1.28,3.95,1.53,1.53,0,0,1,1.08,1.31"/><path class="cls-29" d="M415.32,374.25l.06.09-.05-.09h0"/><path class="cls-29" d="M415.33,374.25l.05.09.13.21.39.6.14.22.52.76,0,0c.16.24.33.47.51.7a1.77,1.77,0,0,0,.16.22l.44.57.07.09a8.39,8.39,0,0,0,1.75-.24,24.17,24.17,0,0,1-4.2-3.26"/><path class="cls-29" d="M421,377a5.66,5.66,0,0,0,2.72-2.78c1.48-3.33-.67-7.52-4.81-9.36a9.07,9.07,0,0,0-6.77-.36l5.12,7.77a1.41,1.41,0,0,1-.07-.47v-.14a1.51,1.51,0,0,1,3,0,.71.71,0,0,1,0,.14,1.51,1.51,0,0,1-2.52,1.13l2.83,4.29h0c.17-.07.33-.14.48-.22"/><path class="cls-29" d="M421,377c-.15.08-.31.15-.48.22L421,377"/><path class="cls-28" d="M440.92,322l4.11.51a1.17,1.17,0,0,0,.49,0l16.67-5.67a.19.19,0,0,0-.06-.38l-4.31-.24a1.62,1.62,0,0,0-.58.07l-16.36,5.38a.19.19,0,0,0,0,.38"/><path class="cls-30" d="M412.18,371.48a1.5,1.5,0,0,1-1.5-1.37.66.66,0,0,0,0,.14,1.51,1.51,0,0,0,2.86.68l-.07-.15a1.52,1.52,0,0,1-1.28.7"/><path class="cls-30" d="M413.69,370.11a1.58,1.58,0,0,1-.23.67l.07.15a1.4,1.4,0,0,0,.17-.68c0-.05,0-.09,0-.14"/><path class="cls-28" d="M412.18,371.48a1.52,1.52,0,0,0,1.28-.7c-.11-.22-.21-.45-.3-.67h-2.48a1.5,1.5,0,0,0,1.5,1.37"/><path class="cls-28" d="M413.46,370.78a1.58,1.58,0,0,0,.23-.67h-.53c.09.22.19.45.3.67"/><path class="cls-28" d="M412.61,368.8a1.54,1.54,0,0,0-.43-.06,1.5,1.5,0,0,0-1.5,1.37h2.48c-.19-.43-.38-.87-.55-1.31"/><path class="cls-28" d="M413.69,370.11a1.53,1.53,0,0,0-1.08-1.31c.17.44.36.88.55,1.31Z"/><path class="cls-30" d="M417.73,372.89l-.43-.65a1.61,1.61,0,0,0,.43.65"/><path class="cls-30" d="M420.25,371.76a.71.71,0,0,0,0-.14,1.51,1.51,0,0,1-3,0v.14a1.51,1.51,0,0,0,.07.48l.43.65a1.51,1.51,0,0,0,2.52-1.13"/><path class="cls-28" d="M418.74,373a1.38,1.38,0,1,0-1.51-1.38,1.51,1.51,0,0,0,1.51,1.38"/><path class="cls-20" d="M433.68,368.42a5.73,5.73,0,1,0-5.73-5.73,6.16,6.16,0,0,0,.05.75,5.73,5.73,0,0,0,5.68,5m-.25-5.66a.7.7,0,0,1,.25-.05.75.75,0,0,1,.26.05,1.46,1.46,0,1,1-.51,0"/><path class="cls-20" d="M434.34,363.78a.28.28,0,0,0,.21-.27.28.28,0,0,0-.15-.25,1.37,1.37,0,0,1,0,.19.73.73,0,0,1-.08.33"/><path class="cls-20" d="M434,363.51a.28.28,0,0,0,.28.29l.07,0a.73.73,0,0,0,.08-.33,1.1,1.1,0,0,0,0-.18.2.2,0,0,0-.13,0,.28.28,0,0,0-.28.28"/><path class="cls-20" d="M433.94,362.76a.75.75,0,0,0-.26-.05.7.7,0,0,0-.25.05l.25,0,.26,0"/><path class="cls-21" d="M433.68,365.65a1.46,1.46,0,0,0,.26-2.89.77.77,0,0,1,.46.5.28.28,0,0,1,.15.25.28.28,0,0,1-.21.27.74.74,0,0,1-1.4-.33.75.75,0,0,1,.49-.69,1.46,1.46,0,0,0,.25,2.89"/><path class="cls-21" d="M432.94,363.45a.74.74,0,0,0,1.4.33l-.07,0a.29.29,0,0,1,0-.57.2.2,0,0,1,.13,0,.74.74,0,0,0-.46-.51l-.26,0-.25,0a.76.76,0,0,0-.49.69"/><path class="cls-20" d="M417.53,359.42a3.17,3.17,0,1,0-3.17,3.17,3.17,3.17,0,0,0,3.17-3.17m-4.11,0v0h0a.92.92,0,0,1,1-.79.93.93,0,0,1,.82.79h0a1.61,1.61,0,0,1,0,.22.92.92,0,1,1-1.84-.19"/><path class="cls-20" d="M414.77,359a.18.18,0,0,0-.19.16.18.18,0,0,0,.16.2.17.17,0,0,0,.19-.16.18.18,0,0,0-.16-.2"/><path class="cls-21" d="M415.26,359.64a.83.83,0,0,0,0-.22h-1.82v0a.92.92,0,1,0,1.84.19"/><path class="cls-21" d="M414.44,358.63a.92.92,0,0,0-1,.79h1.83a.93.93,0,0,0-.82-.79m.3.71a.18.18,0,0,1-.16-.2.18.18,0,0,1,.19-.16.18.18,0,0,1,.16.2.17.17,0,0,1-.19.16"/><path class="cls-29" d="M451.15,395.1l7.06.8a17.38,17.38,0,0,0,2.09-6.13l-9,3c0,.78-.08,1.56-.17,2.31"/><path class="cls-29" d="M460.58,383.79s-5.59-2.43-9.6,2c0,0,.18,1.4.28,3.32,2.6-.92,5.81-2.13,9.36-3.65,0-.54,0-1.09,0-1.67"/><path class="cls-21" d="M450.25,398.55a11,11,0,0,0,3.64-1.58,7.86,7.86,0,0,1,0,3.17,10,10,0,0,0,4.32-4.24l-7.06-.8a10.51,10.51,0,0,1-.9,3.45"/><path class="cls-29" d="M484.72,381.54q0,.65-.12,1.26l7.89.9a18.63,18.63,0,0,0,2.08-5.48Z"/><path class="cls-29" d="M484.65,372.16q1.14-.84,2.25-1.71a8.89,8.89,0,0,0-2.25,1.71"/><path class="cls-21" d="M483.59,386.66a12.33,12.33,0,0,0,4.06-1.77,8.65,8.65,0,0,1,0,3.54,11.17,11.17,0,0,0,4.84-4.73l-7.89-.9a11.74,11.74,0,0,1-1,3.86"/><path class="cls-29" d="M497.37,311.06c-.34-.75-3.28-2.85-2.1,3,.92,4.61-2.43,5.86-3.93,6.19.76.59,1.49,1.22,2.2,1.87,6.42-2.68,4.15-10.36,3.83-11.08"/><path class="cls-29" d="M492.41,322.54a9.92,9.92,0,0,0,1.13-.4c-.71-.65-1.44-1.28-2.2-1.87a5.34,5.34,0,0,1-.69.11s-6,4.37,1.76,2.16"/><path class="cls-29" d="M421,337.93a4.13,4.13,0,0,0,.86-6.84,2.64,2.64,0,0,1-.23.35l-2.23,3a3.64,3.64,0,0,0,.55.42c1.32.72-.22,3-1.64,3.69-.75.37-2.76,1.28-4.52,2.08-.17.35-.34.7-.5,1.05l0,0Z"/><path class="cls-29" d="M421.22,330.56l-2.75,2.92c.36.38.68.7.95.94l2.23-3a2.64,2.64,0,0,0,.23-.35l-.14-.12Z"/><path class="cls-29" d="M420,334.84a3.64,3.64,0,0,1-.55-.42l-2.49,3.33a9.39,9.39,0,0,1-1.06-.76,35.08,35.08,0,0,0-2.06,3.62c1.76-.8,3.77-1.71,4.52-2.08,1.42-.72,3-3,1.64-3.69"/><path class="cls-29" d="M419.42,334.42c-.27-.24-.59-.56-.95-.94a37.11,37.11,0,0,0-2.61,3.51,10,10,0,0,0,1.07.76Z"/><path class="cls-28" d="M477.09,383.63a14,14,0,0,0,.72-1.4l-3.2,1.12Z"/><path class="cls-21" d="M474.61,383.35l-5,1.76a7.07,7.07,0,0,1-.46,1.18,11,11,0,0,0,3.63-1.59,6.73,6.73,0,0,1,.13.83l3.82-1.29c.13-.2.26-.4.38-.61Z"/><path class="cls-28" d="M504.84,347.59a36.19,36.19,0,0,0-.23-3.78c0,.19-.05.37-.08.56.16,1.21.29,2.37.31,3.22"/><path class="cls-28" d="M470.18,381c-3.32,1.7-6.56,3.19-9.56,4.47a27.55,27.55,0,0,1-.13,2.82l9.1-3.17a14.64,14.64,0,0,0,.44-2.28c.07-.6.12-1.22.15-1.84"/><path class="cls-28" d="M445.67,391.28H447l.8,0h.27l.84-.07h.14l1-.1.26,0,.76-.11.26,0c0-.61,0-1.19-.07-1.74-4.05,1.44-6.61,2.15-6.61,2.15h1"/><path class="cls-28" d="M484.41,372.4l.24-.24c-1.71,1.25-3.47,2.44-5.25,3.57a19.86,19.86,0,0,1-1.59,6.5l3.27-1.14a35.88,35.88,0,0,0,3.72-1.54,58.05,58.05,0,0,0-.39-7.15"/><path class="cls-28" d="M504.85,347.88c0-.1,0-.19,0-.29,0-.85-.15-2-.31-3.22-1.69,10.47-8.83,19.15-17.63,26.08a10.37,10.37,0,0,1,8.24-.29c0,.63,0,1.24,0,1.83a35,35,0,0,0,9.67-24.11"/><path class="cls-28" d="M470.18,381c0,.62-.08,1.24-.15,1.84l4.58.52,3.2-1.12a19.86,19.86,0,0,0,1.59-6.5c-3,1.93-6.17,3.69-9.22,5.26"/><path class="cls-28" d="M469.59,385.11l5-1.76-4.58-.52a14.64,14.64,0,0,1-.44,2.28"/><path class="cls-29" d="M457.77,389.24l-1,.32-.27.09-.77.22-.23.07-1,.26-.2.05-.79.18-.28.06-.86.18-.12,0-1,.16c0,.63,0,1.29,0,1.94l9-3c.08-.47.14-1,.19-1.48Z"/><path class="cls-29" d="M451.26,389.11c0,.55.06,1.13.07,1.74l1-.16.12,0,.86-.18.28-.06.79-.18.2-.05,1-.26.23-.07.77-.22.27-.09,1-.32,2.72-1a27.55,27.55,0,0,0,.13-2.82c-3.55,1.52-6.76,2.73-9.36,3.65"/><path class="cls-29" d="M495.18,372a35.65,35.65,0,0,1-10.38,7.56c0,.66,0,1.33-.08,2l9.85-3.32a29.06,29.06,0,0,0,.61-6.23"/><path class="cls-29" d="M486.9,370.45q-1.11.87-2.25,1.71l-.24.24a58.05,58.05,0,0,1,.39,7.15A35.65,35.65,0,0,0,495.18,372c0-.59,0-1.2,0-1.83a10.37,10.37,0,0,0-8.24.29"/><path class="cls-31" d="M161,432a51.46,51.46,0,1,1-51.45-51.46A51.44,51.44,0,0,1,161,432"/><path class="cls-20" d="M99.83,413.68l-1.21-.9c-.15.43-.3.87-.44,1.31l1.65-.41"/><path class="cls-32" d="M99.83,413.68l-1.21-.9c-.15.43-.3.87-.44,1.31Z"/><path class="cls-33" d="M98.62,412.77a118.78,118.78,0,0,0-27.29-15.26A51.26,51.26,0,0,0,58,432c0,.39,0,.77,0,1.15a107.84,107.84,0,0,1,40.11-19.08c.14-.44.29-.88.44-1.32"/><path class="cls-34" d="M99.83,413.68l-1.65.41a82.71,82.71,0,0,0-3.62,17c-1.82,17.9,2.58,35.59,10,52.14,1.62.15,3.26.23,4.92.23a51.21,51.21,0,0,0,34.08-12.92,153.39,153.39,0,0,0-29.31-44,129.58,129.58,0,0,0-14.44-12.85"/><path class="cls-35" d="M116.38,381a106.42,106.42,0,0,0-17.76,31.74l1.21.91c3.76-.89,7.57-1.61,11.39-2.15a170.7,170.7,0,0,1,45.55.15A51.52,51.52,0,0,0,116.38,381"/><path class="cls-31" d="M109.64,416.43a9.82,9.82,0,1,1-9.81-9.82,9.82,9.82,0,0,1,9.81,9.82"/><g class="cls-36"><g class="cls-37"><path class="cls-2" d="M156.87,411.91a55.86,55.86,0,0,1-7.93,24.68c-17.25,27.1-55.43,25.87-76.38,7.39A48.26,48.26,0,0,1,60.26,417a51.45,51.45,0,1,0,96.61-5.13"/></g></g><path class="cls-18" d="M462.27,376.48c-1.75,1.36-3.72,2.56-4.68,2.19a1.9,1.9,0,0,1-1.07-1.81,1.48,1.48,0,0,1,0-.21A6.34,6.34,0,0,1,457,374c.31-.56,4.19-6.53,6.57-10.2,0,0,2.76-5.57,2.87-8.59s.83-33,3.43-40.7c.65-1.93-3.7-11.76-3.7-11.76l20.45-11.53a130.29,130.29,0,0,1,3.12,14.05,97.37,97.37,0,0,1,.67,22.35c-.67,5.4-3.24,19.59-5.27,25.13s-3.95,15.92-3.95,15.92c0,2.46,0,5.23-.11,8.07-.25,8.56-4.54,15-6.4,16.27-.64.43-1.72.89-2.15-1.07-.38-1.72,1.35-9.92,1.35-9.92a60.42,60.42,0,0,1-3.93,8.09c-1.74,2.66-2.85,3.67-4.81,3.66-1.18,0-2.11-1-1.85-1.83.91-3.12,5.83-11.29,5.83-11.29s-.91,1.42-4.48,6.06c-3.31,4.29-4.93,5-6.48,4.32-.8-.37-1.33-1.67-.91-3.57.27-1.27,4.2-7.45,6.54-11.15,1.21-1.9,2-3.15,1.64-2.72a24.84,24.84,0,0,1-3.17,2.87"/><path class="cls-23" d="M473.65,313.07l9.55-1.16s-4.63,5-9.55,1.16"/><polygon class="cls-28" points="226.95 410.46 155.95 374.88 157.95 328.94 228.5 354.23 226.95 410.46"/><polygon class="cls-31" points="228.5 408.13 155.95 374.88 155.95 325.94 228.5 354.23 228.5 408.13"/><line class="cls-38" x1="218.35" y1="378.26" x2="217.75" y2="378.02"/><line class="cls-39" x1="214.81" y1="376.86" x2="167" y2="357.92"/><line class="cls-38" x1="165.54" y1="357.34" x2="164.93" y2="357.1"/><polygon class="cls-11" points="164.05 325.72 159.4 328.35 152.38 332.32 150.01 333.66 151 334.36 150.84 335.12 151.8 335.83 151.76 336.75 152.66 337.19 152.51 338.03 153.45 338.53 153.31 339.5 154.13 339.49 154.04 340.8 168.09 332.86 170.46 331.52 169.47 330.82 169.63 330.06 168.66 329.35 168.71 328.43 167.81 327.99 167.95 327.15 167.02 326.64 167.15 325.67 166.33 325.69 166.42 324.38 164.05 325.72"/><polygon class="cls-11" points="231.06 361.63 227.96 357.29 223.27 350.73 221.68 348.51 221.09 349.57 220.31 349.49 219.71 350.52 218.79 350.57 218.45 351.51 217.6 351.46 217.2 352.44 216.22 352.41 216.32 353.23 215.01 353.28 224.39 366.4 225.97 368.61 226.56 367.56 227.34 367.64 227.94 366.6 228.86 366.55 229.2 365.61 230.05 365.66 230.46 364.68 231.44 364.71 231.33 363.9 232.64 363.85 231.06 361.63"/><polygon class="cls-28" points="648.46 395.13 573.5 357.56 575.61 309.04 650.1 335.75 648.46 395.13"/><polygon class="cls-31" points="650.1 392.66 573.5 357.56 573.5 305.88 650.1 335.75 650.1 392.66"/><line class="cls-40" x1="639.38" y1="361.13" x2="638.75" y2="360.88"/><line class="cls-41" x1="635.65" y1="359.65" x2="585.17" y2="339.65"/><line class="cls-40" x1="583.62" y1="339.03" x2="582.98" y2="338.78"/><polygon class="cls-11" points="582.05 305.65 577.14 308.43 569.73 312.62 567.23 314.03 568.27 314.77 568.1 315.58 569.12 316.33 569.07 317.3 570.02 317.76 569.87 318.65 570.85 319.18 570.71 320.2 571.58 320.19 571.49 321.57 586.31 313.19 588.81 311.77 587.77 311.04 587.94 310.23 586.92 309.48 586.97 308.51 586.02 308.05 586.17 307.16 585.19 306.63 585.32 305.6 584.46 305.62 584.55 304.24 582.05 305.65"/><polygon class="cls-11" points="652.8 343.57 649.53 338.98 644.58 332.05 642.9 329.71 642.28 330.83 641.46 330.75 640.82 331.84 639.85 331.89 639.49 332.88 638.59 332.83 638.17 333.87 637.13 333.83 637.24 334.69 635.86 334.75 645.76 348.6 647.43 350.94 648.06 349.83 648.88 349.91 649.51 348.82 650.49 348.76 650.84 347.77 651.74 347.82 652.17 346.79 653.2 346.82 653.09 345.96 654.48 345.91 652.8 343.57"/><path class="cls-28" d="M609.34,215.29c.48-.46,1-.9,1.49-1.34a4.82,4.82,0,0,0-3.88-5.17l-11.45-2.26a18.31,18.31,0,0,0,7,16.94,43.74,43.74,0,0,1,3.31-4.47Z"/><path class="cls-21" d="M674.79,288.05a12.19,12.19,0,0,0,5-4.61l-4.86,1.64a9.12,9.12,0,0,1-.15,3"/><path class="cls-28" d="M627.28,290.38l-1-.31L626,290l-.93-.33-.2-.07-1.09-.42-.28-.11-.84-.36-.3-.13c-.36-.15-.71-.31-1.06-.48l-.07,0-1-.48-.3-.15-.82-.43-.24-.13-.7-.39a43.45,43.45,0,0,1-.08,7.36l7.85.89a17.81,17.81,0,0,0,1.76-4.2l-.26-.07-.17-.06"/><path class="cls-21" d="M617.09,297.67a12.44,12.44,0,0,0,4-1.76,8.76,8.76,0,0,1,0,3.52,11.07,11.07,0,0,0,4.81-4.72l-7.85-.89a11.93,11.93,0,0,1-1,3.85"/><path class="cls-29" d="M715.12,232.82c0-.24.07-.47.11-.71a44.27,44.27,0,0,0-1.34-6.86c.08.41.15.83.21,1.24.3,1.66.72,4.08,1,6.33"/><path class="cls-29" d="M597.87,258.33c.15-.06,5-2.34,5-2.34s8.78-.7,12.06,3.88c3,4.13,2.81,9,0,11a39.05,39.05,0,0,1-5.85,3.31l-.6.27h0a11.15,11.15,0,0,1-1.31.43A44,44,0,0,0,622,280.86a10.69,10.69,0,0,1,6.61.37c0,.16,0,.32,0,.48a50.25,50.25,0,0,0,13.49-1.11,174.87,174.87,0,0,0,29.2-8.9c-.1-1.14-.19-1.86-.19-1.86a10.62,10.62,0,0,1,10.85-3,120.1,120.1,0,0,0,22.83-14.77c3.39-2.83,10.83-14.71,9.31-25.61-.11-.6-.2-1.09-.27-1.45a44.16,44.16,0,0,0-12.66-20.44,14,14,0,0,1-1.43.5c-9.91,2.81-2.24-2.74-2.24-2.74a6,6,0,0,0,.88-.14,45.5,45.5,0,0,0-43.24-7.12l-29.59,10.34A45.25,45.25,0,0,0,610.83,214a4.75,4.75,0,0,1-.65,2,5.24,5.24,0,0,1-1.09,8.68l-9.76,4.81,0-.07a44.45,44.45,0,0,0-2.52,29.44,7.69,7.69,0,0,1,1.09-.49m40.29-28.12,10.62-6.93a5.25,5.25,0,0,1,8.07,3.72l1.4,10.78s-12.13,3-20.09-7.57M634.3,204l20.78-6.83a2,2,0,0,1,.73-.09l5.48.3a.25.25,0,0,1,.07.49L640.2,205a1.67,1.67,0,0,1-.63.06l-5.21-.65a.24.24,0,0,1-.06-.48m-9.13,44.84A7.28,7.28,0,1,1,618,257a7.46,7.46,0,0,1-.06-.95,7.28,7.28,0,0,1,7.28-7.28m-28.55,3.14a4,4,0,1,1,4,4,4,4,0,0,1-4-4"/><path class="cls-29" d="M610,215.81l.18.15a4.75,4.75,0,0,0,.65-2c-.51.44-1,.88-1.49,1.34Z"/><path class="cls-29" d="M605,275.2l.09.11-.09-.11Z"/><path class="cls-29" d="M671.11,269.84s.09.72.19,1.86c3.82-1.55,7.37-3.18,10.66-4.83a10.62,10.62,0,0,0-10.85,3"/><path class="cls-29" d="M622,280.86a46.1,46.1,0,0,0,6.63.85c0-.16,0-.32,0-.48a10.69,10.69,0,0,0-6.61-.37"/><path class="cls-28" d="M617.87,286.28l.31.18h0l-.31-.18"/><path class="cls-28" d="M627.71,290.51l.87.25-.87-.25h0"/><path class="cls-28" d="M713.88,225.21c-.22-1.05-.19-1,0-.17l.06.22a.09.09,0,0,0,0,0"/><path class="cls-28" d="M627.45,290.44l.26.07h0l-.26-.07"/><path class="cls-28" d="M618.18,286.46h0l.7.39-.7-.39"/><path class="cls-29" d="M617.91,283.46a8.75,8.75,0,0,1,4.07-2.6,44,44,0,0,1-14.79-5.95,10.7,10.7,0,0,1-2.22.29l.09.11.73.9a1.63,1.63,0,0,1,.17.2l.61.69.23.26.72.78.08.08.81.83a2.5,2.5,0,0,1,.23.23l.65.62.23.21.85.78.15.13.74.64.27.22.75.61.16.13.92.7.25.18.73.53.27.19,1,.65.09.05c.29.2.6.39.9.58l.29.17c.26.17.53.32.79.48l.23.13.31.18c-.12-1.77-.27-3-.27-3"/><path class="cls-29" d="M647.13,285.42c5.09-5.62,12.19-2.54,12.19-2.54,0,.73,0,1.44,0,2.12,3.81-1.62,7.92-3.52,12.13-5.68a62.46,62.46,0,0,0-.2-7.62,174.87,174.87,0,0,1-29.2,8.9,50.25,50.25,0,0,1-13.49,1.11,28.09,28.09,0,0,1-.9,8.8l.87.25.3.08.89.23.32.08,1.15.26.12,0,1,.21.34.06,1,.16.25,0,1.17.16.28,0,1,.1.34,0,1.16.09h0l1.2.05s3.25-.9,8.4-2.73c-.13-2.43-.36-4.21-.36-4.21"/><path class="cls-29" d="M683.22,272.64c2.26-1.43,4.49-2.94,6.66-4.54a11.45,11.45,0,0,1,2.86-2.17c11.17-8.79,20.25-19.81,22.38-33.11-.3-2.25-.72-4.67-1-6.33,1.52,10.9-5.92,22.78-9.32,25.61A119,119,0,0,1,682,266.87a9.19,9.19,0,0,1,1.34.43,40.53,40.53,0,0,1-.07,5.34"/><path class="cls-28" d="M713.89,225.26l-.06-.22c.07.36.16.86.27,1.45-.06-.41-.13-.83-.21-1.23"/><path class="cls-29" d="M683.29,267.3a9.19,9.19,0,0,0-1.34-.43c-3.28,1.65-6.83,3.28-10.65,4.83a62.19,62.19,0,0,1,.21,7.62c3.87-2,7.83-4.22,11.71-6.68a40.51,40.51,0,0,0,.07-5.34"/><path class="cls-29" d="M617.91,283.46s.15,1.23.27,3l.7.39.24.13.82.43.3.15,1,.48.07,0c.35.17.7.33,1.06.48l.3.13.85.36.27.11,1.09.42.2.07.93.33.32.1,1,.31.17.06.26.07a28.09,28.09,0,0,0,.9-8.8,46.1,46.1,0,0,1-6.63-.85,8.75,8.75,0,0,0-4.07,2.6"/><path class="cls-28" d="M648.78,223.28l-10.62,6.93c8,10.57,20.09,7.57,20.09,7.57L656.85,227a5.25,5.25,0,0,0-8.07-3.72"/><path class="cls-28" d="M606.45,258.79c5.26,2.34,8,7.66,6.12,11.89a7.24,7.24,0,0,1-3.46,3.53A39.05,39.05,0,0,0,615,270.9c2.77-2,2.91-6.9,0-11-3.28-4.58-12.06-3.88-12.06-3.88s-4.84,2.28-5,2.34a11.51,11.51,0,0,1,8.58.46"/><path class="cls-28" d="M608.51,274.48h0"/><path class="cls-29" d="M604.32,274.37l-.2-.27c-.22-.3-.44-.59-.65-.89l-.05-.07-.66-1-.18-.28c-.17-.25-.33-.51-.49-.76l-.16-.26-.08-.12h0a43.92,43.92,0,0,1-2.28-4.22,1.93,1.93,0,0,1-3.64-.87c0-.06,0-.12,0-.17a1.93,1.93,0,0,1,1.92-1.75,1.9,1.9,0,0,1,.53.09,44.7,44.7,0,0,1-1.62-5,7.17,7.17,0,0,0-3.24,3.42c-1.88,4.23.86,9.55,6.11,11.88A12.37,12.37,0,0,0,605,275.2l-.08-.1-.57-.73"/><path class="cls-29" d="M604.89,275.1l.08.1h0l-.08-.1"/><path class="cls-29" d="M599.78,265.51c0,.06,0,.11,0,.17a1.93,1.93,0,0,1-.21.87,43.92,43.92,0,0,0,2.28,4.22,32.55,32.55,0,0,0,5.33,4.14,11.15,11.15,0,0,0,1.31-.43L604.91,269a1.93,1.93,0,0,1-.55-.84l-6.49-9.87a9,9,0,0,0-1.09.49,44.7,44.7,0,0,0,1.62,5,1.92,1.92,0,0,1,1.38,1.66"/><path class="cls-29" d="M601.85,270.76a.83.83,0,0,0,.08.12l-.07-.11Z"/><path class="cls-29" d="M601.86,270.77l.07.11.16.26c.16.26.32.51.49.76l.18.28.66,1,.05.06c.21.3.43.59.65.89l.2.27.57.73.08.1a10.7,10.7,0,0,0,2.22-.29,32.55,32.55,0,0,1-5.33-4.14"/><path class="cls-29" d="M609.11,274.21a7.24,7.24,0,0,0,3.46-3.53c1.88-4.23-.86-9.55-6.12-11.89a11.51,11.51,0,0,0-8.58-.46l6.49,9.87a1.93,1.93,0,0,1-.09-.6,1,1,0,0,1,0-.17,1.92,1.92,0,0,1,3.82,0,1,1,0,0,1,0,.17,1.92,1.92,0,0,1-3.2,1.44l3.59,5.44h0l.6-.27"/><path class="cls-29" d="M609.11,274.21l-.6.27.6-.27"/><path class="cls-28" d="M634.36,204.44l5.21.65a1.67,1.67,0,0,0,.63-.06l21.16-7.2a.25.25,0,0,0-.07-.49l-5.48-.3a2,2,0,0,0-.73.09L634.3,204a.24.24,0,0,0,.06.48"/><path class="cls-30" d="M597.87,267.25a1.92,1.92,0,0,1-1.92-1.74c0,.05,0,.11,0,.17a1.93,1.93,0,0,0,3.64.87c0-.06-.07-.13-.1-.2a1.9,1.9,0,0,1-1.61.9"/><path class="cls-30" d="M599.78,265.51a1.89,1.89,0,0,1-.3.84c0,.07.07.14.1.2a1.93,1.93,0,0,0,.21-.87c0-.06,0-.11,0-.17"/><path class="cls-28" d="M597.87,267.25a1.9,1.9,0,0,0,1.61-.9c-.13-.28-.26-.56-.38-.84H596a1.92,1.92,0,0,0,1.92,1.74"/><path class="cls-28" d="M599.48,266.35a1.89,1.89,0,0,0,.3-.84h-.68c.12.28.25.56.38.84"/><path class="cls-28" d="M598.4,263.85a1.9,1.9,0,0,0-.53-.09,1.93,1.93,0,0,0-1.92,1.75h3.15c-.24-.55-.48-1.1-.7-1.66"/><path class="cls-28" d="M599.78,265.51a1.92,1.92,0,0,0-1.38-1.66c.22.56.46,1.11.7,1.66Z"/><path class="cls-30" d="M604.91,269l-.55-.84a1.93,1.93,0,0,0,.55.84"/><path class="cls-30" d="M608.11,267.6a1,1,0,0,0,0-.17,1.92,1.92,0,0,1-3.82,0,1,1,0,0,0,0,.17,2,2,0,0,0,.09.6l.55.84a1.92,1.92,0,0,0,3.2-1.44"/><path class="cls-28" d="M606.19,269.17a1.75,1.75,0,1,0-1.91-1.74,1.92,1.92,0,0,0,1.91,1.74"/><path class="cls-20" d="M625.17,263.36a7.28,7.28,0,1,0-7.28-7.28,7.26,7.26,0,0,0,7.28,7.28m-.33-7.18a.79.79,0,0,1,.65,0,1.86,1.86,0,1,1-.65,0"/><path class="cls-20" d="M626,257.47a.36.36,0,0,0,.27-.34.33.33,0,0,0-.2-.31.85.85,0,0,1,0,.23.88.88,0,0,1-.11.42"/><path class="cls-20" d="M625.55,257.13a.36.36,0,0,0,.36.36l.09,0a.88.88,0,0,0,.11-.42.85.85,0,0,0,0-.23.3.3,0,0,0-.16-.05.36.36,0,0,0-.36.36"/><path class="cls-20" d="M625.49,256.18a.79.79,0,0,0-.65,0,1.34,1.34,0,0,1,.65,0"/><path class="cls-21" d="M625.16,259.84a1.84,1.84,0,0,0,.33-3.66.93.93,0,0,1,.58.64.33.33,0,0,1,.2.31.37.37,0,0,1-.26.34.94.94,0,0,1-1.78-.42.92.92,0,0,1,.61-.87,1.84,1.84,0,0,0,.32,3.66"/><path class="cls-21" d="M624.22,257.05a.94.94,0,0,0,.95.94.91.91,0,0,0,.83-.52l-.09,0a.36.36,0,0,1,0-.72.3.3,0,0,1,.16.05.93.93,0,0,0-.58-.64,1.34,1.34,0,0,0-.65,0,.93.93,0,0,0-.62.87"/><path class="cls-20" d="M604.65,251.94a4,4,0,1,0-4,4,4,4,0,0,0,4-4m-5.21,0s0,0,0,0h0a1.16,1.16,0,0,1,2.31,0h0a.87.87,0,0,1,0,.28,1.17,1.17,0,0,1-2.33-.24"/><path class="cls-20" d="M601.15,251.37a.23.23,0,0,0,0,.46.23.23,0,0,0,0-.46"/><path class="cls-21" d="M601.77,252.22a.87.87,0,0,0,0-.28h-2.31s0,0,0,0a1.17,1.17,0,0,0,2.33.24"/><path class="cls-21" d="M600.73,250.93a1.16,1.16,0,0,0-1.28,1h2.31a1.16,1.16,0,0,0-1-1m.38.9a.23.23,0,0,1,0-.46.23.23,0,0,1,0,.46"/><path class="cls-29" d="M647.35,297.24l9,1a22.08,22.08,0,0,0,2.66-7.79l-11.42,3.85c0,1-.09,2-.2,2.93"/><path class="cls-29" d="M659.32,282.88s-7.1-3.08-12.19,2.54c0,0,.23,1.78.36,4.21,3.3-1.16,7.37-2.71,11.88-4.63,0-.69,0-1.39,0-2.12"/><path class="cls-21" d="M646.2,301.62s3.28-.8,4.62-2a9.91,9.91,0,0,1,0,4,12.63,12.63,0,0,0,5.49-5.38l-9-1a13.12,13.12,0,0,1-1.15,4.38"/><path class="cls-29" d="M690,280c0,.54-.08,1.08-.14,1.6l10,1.14a23.32,23.32,0,0,0,2.64-6.95Z"/><path class="cls-29" d="M689.88,268.1c1-.7,1.92-1.43,2.86-2.17a11.45,11.45,0,0,0-2.86,2.17"/><path class="cls-21" d="M688.53,286.52s3.67-.9,5.16-2.24a11,11,0,0,1,0,4.49s3.4-1.34,6.14-6l-10-1.14a14.88,14.88,0,0,1-1.29,4.9"/><path class="cls-29" d="M706,190.53c-.43-1-4.16-3.62-2.66,3.84,1.16,5.84-3.09,7.43-5,7.85,1,.75,1.89,1.55,2.79,2.38,8.15-3.4,5.26-13.16,4.86-14.07"/><path class="cls-29" d="M699.74,205.1a14,14,0,0,0,1.43-.5c-.9-.83-1.83-1.62-2.79-2.38a6,6,0,0,1-.88.14s-7.67,5.55,2.24,2.74"/><path class="cls-29" d="M609.09,224.64a5.24,5.24,0,0,0,1.09-8.68c-.09.15-.19.3-.29.44l-2.83,3.79a4.43,4.43,0,0,0,.7.54c1.67.9-.28,3.76-2.1,4.67-.94.47-3.49,1.64-5.73,2.65-.22.44-.43.88-.64,1.33l0,.07Z"/><path class="cls-29" d="M609.34,215.29l-3.49,3.7c.45.48.86.89,1.21,1.2l2.83-3.79c.1-.14.2-.29.29-.44l-.18-.15Z"/><path class="cls-29" d="M607.76,220.73a4.43,4.43,0,0,1-.7-.54l-3.17,4.22a14.51,14.51,0,0,1-1.35-.95,43.11,43.11,0,0,0-2.61,4.59c2.24-1,4.79-2.18,5.73-2.65,1.82-.91,3.77-3.77,2.1-4.67"/><path class="cls-29" d="M607.06,220.19c-.35-.31-.76-.72-1.21-1.2a43.74,43.74,0,0,0-3.31,4.47,14.51,14.51,0,0,0,1.35.95Z"/><path class="cls-28" d="M680.28,282.68a18.44,18.44,0,0,0,.92-1.78l-4.06,1.42Z"/><path class="cls-21" d="M677.14,282.32l-6.39,2.23a8.52,8.52,0,0,1-.58,1.5s3.28-.81,4.62-2a9.6,9.6,0,0,1,.15,1l4.86-1.64c.16-.24.32-.5.48-.77Z"/><path class="cls-28" d="M715.52,236.92a44.85,44.85,0,0,0-.29-4.81c0,.24-.07.47-.11.71.21,1.54.37,3,.4,4.1"/><path class="cls-28" d="M671.5,279.32c-4.21,2.16-8.32,4.06-12.13,5.68,0,1.27,0,2.47-.16,3.58l11.54-4a18,18,0,0,0,.57-2.89c.09-.76.15-1.55.18-2.34"/><path class="cls-28" d="M640.38,292.39h.3l1.22,0h.23l1,0,.35,0,1.06-.08h.18l1.22-.13.33,0,1-.14.33,0c0-.78,0-1.52-.08-2.22-5.15,1.83-8.4,2.73-8.4,2.73h.34l1,0"/><path class="cls-28" d="M689.58,268.42l.3-.32c-2.17,1.6-4.4,3.11-6.66,4.54a25.5,25.5,0,0,1-2,8.26l4.14-1.45a43.91,43.91,0,0,0,4.73-2,72.71,72.71,0,0,0-.49-9.07"/><path class="cls-28" d="M715.53,237.28c0-.13,0-.24,0-.36,0-1.09-.19-2.56-.4-4.1-2.13,13.29-11.21,24.32-22.38,33.11,5.07-2.69,10.46-.36,10.46-.36,0,.81,0,1.57,0,2.32a44.41,44.41,0,0,0,12.28-30.61"/><path class="cls-28" d="M671.5,279.32c0,.79-.09,1.58-.18,2.34l5.82.66,4.05-1.42a25.23,25.23,0,0,0,2-8.26c-3.88,2.46-7.84,4.68-11.72,6.68"/><path class="cls-28" d="M670.75,284.55l6.39-2.23-5.82-.66a18,18,0,0,1-.57,2.89"/><path class="cls-29" d="M655.75,289.79c-.41.15-.83.28-1.24.41l-.35.11-1,.29-.3.09-1.23.33-.25.06-1,.23-.36.08-1.09.22-.15,0-1.23.21c0,.8,0,1.63,0,2.46L659,290.46c.09-.6.18-1.22.24-1.88Z"/><path class="cls-29" d="M647.49,289.63c0,.7.07,1.44.08,2.22l1.23-.21.15,0,1.1-.22.35-.08,1-.23.25-.06,1.23-.33.3-.09,1-.29.35-.11c.41-.13.83-.26,1.24-.41l3.46-1.21c.11-1.11.16-2.31.16-3.58-4.51,1.92-8.58,3.47-11.88,4.63"/><path class="cls-29" d="M703.25,267.89a45,45,0,0,1-13.18,9.6c0,.84-.05,1.69-.11,2.53l12.51-4.21a36.09,36.09,0,0,0,.78-7.92"/><path class="cls-29" d="M692.74,265.93c-.94.74-1.89,1.47-2.86,2.17l-.3.32a72.71,72.71,0,0,1,.49,9.07,45,45,0,0,0,13.18-9.6c0-.75,0-1.52,0-2.32,0,0-5.39-2.33-10.46.36"/><polygon class="cls-28" points="654.98 284.18 707.07 258.07 705.6 224.37 653.84 242.92 654.98 284.18"/><polygon class="cls-31" points="653.84 282.47 707.07 258.07 707.07 222.16 653.84 242.92 653.84 282.47"/><line class="cls-42" x1="661.29" y1="260.56" x2="661.73" y2="260.38"/><line class="cls-43" x1="663.88" y1="259.53" x2="698.96" y2="245.63"/><line class="cls-42" x1="700.04" y1="245.2" x2="700.48" y2="245.03"/><polygon class="cls-11" points="701.13 222.01 704.54 223.94 709.69 226.85 711.43 227.83 710.7 228.34 710.82 228.9 710.12 229.42 710.15 230.1 709.49 230.42 709.59 231.04 708.91 231.41 709 232.12 708.4 232.11 708.47 233.07 698.17 227.25 696.43 226.26 697.15 225.75 697.03 225.19 697.74 224.67 697.71 223.99 698.37 223.67 698.27 223.06 698.95 222.69 698.85 221.97 699.45 221.98 699.39 221.03 701.13 222.01"/><polygon class="cls-11" points="651.97 248.35 654.24 245.17 657.68 240.35 658.84 238.73 659.28 239.5 659.85 239.44 660.29 240.2 660.97 240.24 661.21 240.93 661.84 240.89 662.13 241.61 662.85 241.59 662.78 242.19 663.74 242.22 656.86 251.85 655.7 253.48 655.26 252.7 654.69 252.76 654.25 252 653.58 251.96 653.33 251.27 652.7 251.31 652.41 250.59 651.69 250.61 651.76 250.02 650.8 249.98 651.97 248.35"/><path class="cls-28" d="M692,156.64c-.34-.32-.69-.64-1-.95a3.39,3.39,0,0,1,2.72-3.62l8-1.58a12.84,12.84,0,0,1-4.94,11.88,32.18,32.18,0,0,0-2.32-3.14Z"/><path class="cls-21" d="M646.07,207.7a8.58,8.58,0,0,1-3.52-3.24l3.41,1.15a6.42,6.42,0,0,0,.11,2.09"/><path class="cls-28" d="M679.41,209.33l.67-.21.23-.08.65-.23.14-.05.76-.29.2-.08.59-.25.21-.09.75-.34,0,0,.7-.34.21-.11.57-.3.17-.09.49-.27a29.92,29.92,0,0,0,.06,5.16l-5.51.63a12.35,12.35,0,0,1-1.23-3l.18,0,.12,0"/><path class="cls-21" d="M686.56,214.44a8.53,8.53,0,0,1-2.84-1.23,6.09,6.09,0,0,0,0,2.47,7.8,7.8,0,0,1-3.38-3.31l5.51-.63a8.28,8.28,0,0,0,.71,2.7"/><path class="cls-29" d="M617.76,168.93c0-.16,0-.32-.07-.49a30.31,30.31,0,0,1,.94-4.81c-.06.29-.11.58-.15.86-.21,1.17-.5,2.87-.72,4.44"/><path class="cls-29" d="M700.05,186.84a5.23,5.23,0,0,1,.76.35,31.2,31.2,0,0,0,1-7.87A30.87,30.87,0,0,0,699,166.53l0,0-6.85-3.37a3.68,3.68,0,0,1-.76-6.09,3.26,3.26,0,0,1-.46-1.42,32,32,0,0,0-10.33-6l-20.76-7.25a31.93,31.93,0,0,0-30.35,5,3.5,3.5,0,0,0,.62.1s5.38,3.89-1.57,1.92a9.19,9.19,0,0,1-1-.35,31,31,0,0,0-8.88,14.35c0,.25-.11.6-.19,1-1.07,7.66,4.15,16,6.54,18a83.86,83.86,0,0,0,16,10.36,7.46,7.46,0,0,1,7.61,2.09s-.06.5-.13,1.3A123.33,123.33,0,0,0,669,202.47a35.43,35.43,0,0,0,9.46.78c0-.11,0-.23,0-.34a7.46,7.46,0,0,1,4.63-.26,30.76,30.76,0,0,0,10.38-4.18,8.78,8.78,0,0,1-.91-.29h0l-.42-.19a27.12,27.12,0,0,1-4.11-2.32c-1.94-1.39-2-4.84,0-7.74,2.3-3.21,8.46-2.72,8.46-2.72s3.4,1.6,3.51,1.64Zm-42.38-14.42,1-7.57a3.68,3.68,0,0,1,5.66-2.61l7.45,4.87a14.15,14.15,0,0,1-14.1,5.31M674.44,149l-3.66.46a1.29,1.29,0,0,1-.44,0l-14.85-5.06a.17.17,0,0,1,0-.34l3.85-.21a1.49,1.49,0,0,1,.51.06l14.58,4.79a.17.17,0,0,1,0,.34M686,185.26a3.71,3.71,0,0,1,0,.67,5.07,5.07,0,1,1,0-.67m12.11-.09a2.82,2.82,0,1,1,2.81-2.82,2.82,2.82,0,0,1-2.81,2.82"/><path class="cls-29" d="M691.53,157l-.12.11a3.26,3.26,0,0,1-.46-1.42c.35.31.71.62,1,.95Z"/><path class="cls-29" d="M695.06,198.68l-.06.08.06-.08Z"/><path class="cls-29" d="M648.65,194.92s-.06.5-.13,1.3c-2.69-1.09-5.18-2.23-7.48-3.39a7.46,7.46,0,0,1,7.61,2.09"/><path class="cls-29" d="M683.12,202.65a31.18,31.18,0,0,1-4.65.6c0-.12,0-.23,0-.34a7.5,7.5,0,0,1,4.64-.26"/><path class="cls-28" d="M686,206.46l-.22.12h0l.22-.12"/><path class="cls-28" d="M679.11,209.42l-.62.18.61-.18Z"/><path class="cls-28" d="M618.63,163.6c.16-.74.14-.67,0-.12a.83.83,0,0,0,0,.15v0"/><path class="cls-28" d="M679.29,209.37l-.18,0h0l.19,0"/><path class="cls-28" d="M685.79,206.58h0l-.49.27.49-.27"/><path class="cls-29" d="M686,204.47a6.06,6.06,0,0,0-2.86-1.82,30.76,30.76,0,0,0,10.38-4.18,7.93,7.93,0,0,0,1.56.21l-.06.08-.51.62a.86.86,0,0,1-.13.14l-.42.49-.16.18-.51.55,0,.06-.57.58-.17.16L692,202l-.16.14-.6.55-.1.09-.52.45-.19.15c-.17.15-.35.29-.53.43l-.11.09-.65.5-.17.12-.51.37-.19.13c-.22.16-.45.31-.68.46l-.06,0-.63.4-.2.13-.56.33-.16.1-.22.12c.08-1.24.19-2.11.19-2.11"/><path class="cls-29" d="M665.47,205.85c-3.57-3.95-8.55-1.78-8.55-1.78,0,.51,0,1,0,1.49-2.68-1.14-5.56-2.47-8.52-4a42.92,42.92,0,0,1,.15-5.35A123.33,123.33,0,0,0,669,202.47a35.43,35.43,0,0,0,9.46.78,20.07,20.07,0,0,0,.63,6.17l-.61.18-.21.06-.62.16-.22.05-.81.18-.08,0-.74.14-.24,0-.67.11-.17,0-.83.11-.19,0-.67.07-.23,0-.82.06h0l-.84,0s-2.28-.63-5.9-1.91c.1-1.71.25-3,.25-3"/><path class="cls-29" d="M640.15,196.88c-1.58-1-3.15-2.06-4.67-3.18a8.07,8.07,0,0,0-2-1.52c-7.84-6.18-14.21-13.91-15.71-23.24.22-1.58.51-3.28.72-4.45-1.07,7.66,4.15,16,6.54,18a83.86,83.86,0,0,0,16,10.36,7,7,0,0,0-.94.3,28.7,28.7,0,0,0,0,3.75"/><path class="cls-28" d="M618.63,163.63a.83.83,0,0,1,0-.15c0,.25-.11.6-.19,1,0-.28.09-.57.15-.86"/><path class="cls-29" d="M640.1,193.13a7,7,0,0,1,.94-.3c2.3,1.16,4.79,2.3,7.48,3.39a42.92,42.92,0,0,0-.15,5.35c-2.72-1.4-5.5-3-8.22-4.69a28.7,28.7,0,0,1,0-3.75"/><path class="cls-29" d="M686,204.47s-.11.87-.19,2.11l-.49.27-.17.09c-.19.1-.38.21-.57.3l-.21.11-.7.34,0,0-.75.34-.21.09-.59.25-.2.08-.76.29-.14.05-.65.23-.23.08-.67.21-.12,0-.19,0a20.07,20.07,0,0,1-.63-6.17,31.18,31.18,0,0,0,4.65-.6,6.06,6.06,0,0,1,2.86,1.82"/><path class="cls-28" d="M664.32,162.24l7.45,4.87a14.15,14.15,0,0,1-14.1,5.31l1-7.57a3.68,3.68,0,0,1,5.66-2.61"/><path class="cls-28" d="M694,187.16c-3.69,1.64-5.61,5.37-4.29,8.34a5.09,5.09,0,0,0,2.43,2.48,27.12,27.12,0,0,1-4.11-2.32c-1.94-1.39-2-4.84,0-7.74,2.3-3.21,8.46-2.72,8.46-2.72s3.4,1.6,3.51,1.64h0a8.06,8.06,0,0,0-6,.32"/><path class="cls-28" d="M692.58,198.17h0"/><path class="cls-29" d="M695.52,198.09l.14-.19c.16-.2.31-.41.46-.62l0,0,.46-.68.13-.2c.12-.17.23-.35.34-.53l.12-.18,0-.09h0a32.42,32.42,0,0,0,1.6-3,1.33,1.33,0,0,0,1.2.74A1.36,1.36,0,0,0,701.4,192s0-.08,0-.13a1.35,1.35,0,0,0-1.34-1.22,1.59,1.59,0,0,0-.38.06,30.11,30.11,0,0,0,1.14-3.52,5,5,0,0,1,2.27,2.39c1.32,3-.6,6.7-4.29,8.34a8.69,8.69,0,0,1-3.73.76l.06-.08c.14-.16.27-.34.4-.51"/><path class="cls-29" d="M695.12,198.6l-.06.08h0l.06-.08"/><path class="cls-29" d="M698.71,191.87a.62.62,0,0,0,0,.13,1.25,1.25,0,0,0,.15.61,32.42,32.42,0,0,1-1.6,3,22.73,22.73,0,0,1-3.75,2.9,8.78,8.78,0,0,1-.91-.29l2.51-3.83a1.3,1.3,0,0,0,.39-.58l4.56-6.93a5.23,5.23,0,0,1,.76.35,30.11,30.11,0,0,1-1.14,3.52,1.34,1.34,0,0,0-1,1.16"/><path class="cls-29" d="M697.25,195.56l0,.09,0-.08h0"/><path class="cls-29" d="M697.25,195.57l0,.08-.12.18c-.11.18-.22.36-.34.53l-.13.2-.46.68,0,0c-.15.21-.3.42-.46.62l-.14.19-.4.51-.06.08a7.93,7.93,0,0,1-1.56-.21,22.73,22.73,0,0,0,3.75-2.9"/><path class="cls-29" d="M692.16,198a5.09,5.09,0,0,1-2.43-2.48c-1.32-3,.6-6.7,4.29-8.34a8.06,8.06,0,0,1,6-.32l-4.56,6.93a1.48,1.48,0,0,0,.07-.42s0-.09,0-.13a1.35,1.35,0,0,0-2.68,0,.53.53,0,0,0,0,.13,1.35,1.35,0,0,0,1.35,1.35,1.31,1.31,0,0,0,.89-.35l-2.51,3.82h0c-.14-.06-.29-.12-.42-.19"/><path class="cls-29" d="M692.16,198c.13.07.28.13.42.19l-.42-.19"/><path class="cls-28" d="M674.44,149l-3.66.46a1.29,1.29,0,0,1-.44,0l-14.85-5.06a.17.17,0,0,1,0-.34l3.85-.21a1.49,1.49,0,0,1,.51.06l14.58,4.79a.17.17,0,0,1,0,.34"/><path class="cls-30" d="M700.05,193.1a1.35,1.35,0,0,0,1.34-1.23s0,.09,0,.13a1.36,1.36,0,0,1-1.35,1.35,1.33,1.33,0,0,1-1.2-.74l.06-.14a1.34,1.34,0,0,0,1.14.63"/><path class="cls-30" d="M698.71,191.87a1.27,1.27,0,0,0,.21.6.91.91,0,0,0-.07.14,1.25,1.25,0,0,1-.15-.61.62.62,0,0,1,0-.13"/><path class="cls-28" d="M700.05,193.1a1.34,1.34,0,0,1-1.14-.63c.1-.2.18-.4.27-.6h2.21a1.35,1.35,0,0,1-1.34,1.23"/><path class="cls-28" d="M698.91,192.47a1.38,1.38,0,0,1-.2-.6h.47c-.09.2-.17.4-.27.6"/><path class="cls-28" d="M699.67,190.71a1.59,1.59,0,0,1,.38-.06,1.35,1.35,0,0,1,1.34,1.22h-2.21c.17-.38.34-.77.49-1.16"/><path class="cls-28" d="M698.71,191.87a1.34,1.34,0,0,1,1-1.16c-.15.39-.32.78-.49,1.16Z"/><path class="cls-30" d="M695.1,194.35l.39-.58a1.3,1.3,0,0,1-.39.58"/><path class="cls-30" d="M692.86,193.35a.53.53,0,0,1,0-.13,1.34,1.34,0,0,0,2.68,0s0,.08,0,.13a1.48,1.48,0,0,1-.07.42l-.39.58a1.31,1.31,0,0,1-.89.35,1.35,1.35,0,0,1-1.35-1.35"/><path class="cls-28" d="M694.21,194.45a1.23,1.23,0,1,1,1.34-1.23,1.36,1.36,0,0,1-1.34,1.23"/><path class="cls-20" d="M686,185.93a3.71,3.71,0,0,0,0-.67,5.16,5.16,0,1,0,0,.67m-3.76.67a1.3,1.3,0,0,1-2.6,0,1.28,1.28,0,0,1,1.07-1.27.59.59,0,0,1,.23-.05.64.64,0,0,1,.23.05,1.28,1.28,0,0,1,1.07,1.27"/><path class="cls-20" d="M680.3,186.23a.24.24,0,0,1,0-.45.78.78,0,0,0,0,.16.65.65,0,0,0,.07.29"/><path class="cls-20" d="M680.62,186a.25.25,0,0,1-.25.25l-.07,0a.65.65,0,0,1-.07-.29.45.45,0,0,1,0-.16.21.21,0,0,1,.11,0,.26.26,0,0,1,.25.26"/><path class="cls-20" d="M680.66,185.33a.55.55,0,0,1,.46,0,.9.9,0,0,0-.46,0"/><path class="cls-21" d="M680.89,187.9a1.3,1.3,0,0,1-1.3-1.3,1.28,1.28,0,0,1,1.07-1.27.66.66,0,0,0-.41.45.24.24,0,0,0,0,.45.66.66,0,0,0,1.25-.29.65.65,0,0,0-.43-.61,1.28,1.28,0,0,1,1.07,1.27,1.3,1.3,0,0,1-1.3,1.3"/><path class="cls-21" d="M681.55,185.94a.66.66,0,0,1-1.25.29l.07,0a.25.25,0,0,0,.25-.25.26.26,0,0,0-.25-.26.28.28,0,0,0-.12,0,.66.66,0,0,1,.41-.45.9.9,0,0,1,.46,0,.65.65,0,0,1,.43.61"/><path class="cls-20" d="M698.11,185.17a2.82,2.82,0,1,0-2.82-2.82,2.81,2.81,0,0,0,2.82,2.82m.1-1.89a.81.81,0,0,1-.9-.73.67.67,0,0,1,0-.2h0a.82.82,0,0,1,1.63,0h0v0a.81.81,0,0,1-.73.9"/><path class="cls-20" d="M697.74,182a.16.16,0,0,1,.18.14.17.17,0,0,1-.15.18.17.17,0,0,1-.17-.15.16.16,0,0,1,.14-.17"/><path class="cls-21" d="M697.31,182.55a.67.67,0,0,1,0-.2h1.63v0a.82.82,0,0,1-1.63.17"/><path class="cls-21" d="M697.31,182.35h1.63a.82.82,0,0,0-1.63,0m.29-.22a.16.16,0,0,1,.14-.17.15.15,0,0,1,.17.14.16.16,0,0,1-.14.18.17.17,0,0,1-.17-.15"/><path class="cls-29" d="M665.32,214.14l-6.29.72a15.5,15.5,0,0,1-1.86-5.47l8,2.7c0,.69.06,1.39.14,2"/><path class="cls-29" d="M656.92,204.06s5-2.16,8.55,1.79c0,0-.15,1.25-.25,3-2.31-.82-5.17-1.91-8.33-3.25,0-.49,0-1,0-1.5"/><path class="cls-21" d="M666.13,217.22a9.71,9.71,0,0,1-3.24-1.41,7,7,0,0,0,0,2.82,8.91,8.91,0,0,1-3.86-3.77l6.29-.72a9.33,9.33,0,0,0,.81,3.08"/><path class="cls-29" d="M635.42,202.06c0,.38.06.76.1,1.12l-7,.8a16.49,16.49,0,0,1-1.85-4.88Z"/><path class="cls-29" d="M635.48,193.7c-.68-.5-1.35-1-2-1.52a8.07,8.07,0,0,1,2,1.52"/><path class="cls-21" d="M636.42,206.62a11,11,0,0,1-3.62-1.57,7.77,7.77,0,0,0,0,3.15,9.94,9.94,0,0,1-4.31-4.22l7-.8a10.45,10.45,0,0,0,.9,3.44"/><path class="cls-29" d="M624.14,139.26c.3-.67,2.92-2.54,1.87,2.69-.82,4.1,2.17,5.22,3.5,5.51-.67.53-1.33,1.09-2,1.67-5.72-2.39-3.69-9.23-3.41-9.87"/><path class="cls-29" d="M628.56,149.48a9.19,9.19,0,0,1-1-.35c.63-.58,1.29-1.14,2-1.67a3.5,3.5,0,0,0,.62.1s5.38,3.89-1.57,1.92"/><path class="cls-29" d="M692.17,163.2a3.67,3.67,0,0,1-.76-6.09l.2.31,2,2.65a3.3,3.3,0,0,1-.49.38c-1.18.64.19,2.64,1.47,3.28.66.33,2.45,1.15,4,1.86.15.31.3.62.44.94l0,0Z"/><path class="cls-29" d="M692,156.64l2.45,2.59c-.32.34-.61.63-.85.84l-2-2.65-.2-.31.12-.11Z"/><path class="cls-29" d="M693.11,160.45a2.73,2.73,0,0,0,.49-.38l2.22,3a11.39,11.39,0,0,0,.95-.67,31.81,31.81,0,0,1,1.83,3.22c-1.57-.71-3.36-1.53-4-1.86-1.28-.64-2.65-2.64-1.47-3.28"/><path class="cls-29" d="M693.6,160.07c.24-.22.53-.5.85-.84a32.18,32.18,0,0,1,2.32,3.14,11.39,11.39,0,0,1-.95.67Z"/><path class="cls-28" d="M642.21,203.92a11.91,11.91,0,0,1-.64-1.24l2.85,1Z"/><path class="cls-21" d="M644.42,203.67l4.48,1.57a5.89,5.89,0,0,0,.41,1,9.71,9.71,0,0,1-3.24-1.41,5.59,5.59,0,0,0-.11.73l-3.41-1.15c-.12-.17-.23-.35-.34-.54Z"/><path class="cls-28" d="M617.48,171.81a31.11,31.11,0,0,1,.21-3.37c0,.17,0,.33.07.49a28.43,28.43,0,0,0-.28,2.88"/><path class="cls-28" d="M648.37,201.57c3,1.52,5.85,2.85,8.52,4a24.82,24.82,0,0,0,.11,2.51l-8.1-2.83a12.8,12.8,0,0,1-.4-2c-.06-.53-.1-1.09-.13-1.64"/><path class="cls-28" d="M670.21,210.74H669l-.71,0-.25,0-.75,0h-.12l-.86-.1-.23,0-.67-.1-.23,0c0-.55,0-1.07.05-1.55,3.62,1.28,5.89,1.91,5.89,1.91h-.9"/><path class="cls-28" d="M635.69,193.92l-.21-.22c1.52,1.11,3.09,2.18,4.67,3.18a17.81,17.81,0,0,0,1.42,5.8l-2.91-1a33.51,33.51,0,0,1-3.32-1.37,52.43,52.43,0,0,1,.35-6.37"/><path class="cls-28" d="M617.48,172.06v-.25a28.43,28.43,0,0,1,.28-2.88c1.5,9.34,7.87,17.07,15.71,23.25a9.23,9.23,0,0,0-7.34-.26c0,.56,0,1.1,0,1.63a31.18,31.18,0,0,1-8.61-21.49"/><path class="cls-28" d="M648.37,201.57c0,.55.07,1.11.13,1.64l-4.08.46-2.85-1a17.81,17.81,0,0,1-1.42-5.8c2.72,1.73,5.5,3.29,8.22,4.69"/><path class="cls-28" d="M648.9,205.24l-4.48-1.57,4.08-.46a12.8,12.8,0,0,0,.4,2"/><path class="cls-29" d="M659.43,208.92l.87.29.24.07.68.21.21.06.87.23.17,0,.71.16.25.06.77.15.1,0,.87.15c0,.56,0,1.14,0,1.73l-8-2.7c-.07-.42-.13-.86-.17-1.32Z"/><path class="cls-29" d="M665.22,208.81c0,.48,0,1-.05,1.55l-.87-.15-.1,0-.77-.15-.25-.06-.71-.16-.17,0-.87-.23-.21-.06-.68-.21-.24-.07-.87-.29-2.43-.85a24.82,24.82,0,0,1-.11-2.51c3.16,1.35,6,2.43,8.33,3.25"/><path class="cls-29" d="M626.09,193.55a32,32,0,0,0,9.25,6.74c0,.59,0,1.18.08,1.77l-8.78-3a25.1,25.1,0,0,1-.55-5.55"/><path class="cls-29" d="M633.47,192.18c.66.52,1.33,1,2,1.52l.21.22a52.43,52.43,0,0,0-.35,6.37,32,32,0,0,1-9.25-6.74c0-.53,0-1.06,0-1.63a9.23,9.23,0,0,1,7.34.26"/></svg>