<svg id="Laag_1" data-name="Laag 1" xmlns="http://www.w3.org/2000/svg" xmlns:xlink="http://www.w3.org/1999/xlink" viewBox="0 0 841.89 595.28"><defs><style>.cls-1,.cls-17,.cls-44,.cls-48,.cls-49,.cls-61{fill:none;}.cls-2{fill:#b28025;}.cls-3{opacity:0.1;}.cls-4{clip-path:url(#clip-path);}.cls-5{fill:#222221;}.cls-6{fill:#87481f;}.cls-7{fill:#783b1c;}.cls-8{fill:#3c6f39;}.cls-9{fill:#3b8e45;}.cls-10{opacity:0.15;}.cls-11{clip-path:url(#clip-path-2);}.cls-12{clip-path:url(#clip-path-3);}.cls-13{clip-path:url(#clip-path-4);}.cls-14{fill:#643116;}.cls-15{fill:#7b371c;}.cls-16{fill:#b56226;}.cls-17{stroke:#222221;stroke-width:14px;}.cls-17,.cls-44,.cls-48,.cls-49,.cls-61{stroke-linecap:round;}.cls-17,.cls-44,.cls-48,.cls-49{stroke-miterlimit:10;}.cls-18{opacity:0.3;}.cls-19{clip-path:url(#clip-path-5);}.cls-20{clip-path:url(#clip-path-6);}.cls-21{clip-path:url(#clip-path-7);}.cls-22{clip-path:url(#clip-path-8);}.cls-23{clip-path:url(#clip-path-9);}.cls-24{clip-path:url(#clip-path-10);}.cls-25{clip-path:url(#clip-path-11);}.cls-26{clip-path:url(#clip-path-12);}.cls-27{clip-path:url(#clip-path-13);}.cls-28{clip-path:url(#clip-path-14);}.cls-29{clip-path:url(#clip-path-15);}.cls-30{clip-path:url(#clip-path-16);}.cls-31{clip-path:url(#clip-path-17);}.cls-32{clip-path:url(#clip-path-18);}.cls-33{clip-path:url(#clip-path-19);}.cls-34{fill:#7f271b;}.cls-35{opacity:0.5;}.cls-36{clip-path:url(#clip-path-20);}.cls-37{clip-path:url(#clip-path-21);}.cls-38{clip-path:url(#clip-path-22);}.cls-39{clip-path:url(#clip-path-23);}.cls-40{clip-path:url(#clip-path-24);}.cls-41{clip-path:url(#clip-path-25);}.cls-42{clip-path:url(#clip-path-26);}.cls-43{clip-path:url(#clip-path-27);}.cls-44{stroke:#bdd7b3;stroke-width:4.76px;}.cls-45{clip-path:url(#clip-path-28);}.cls-46{fill:#f8fafa;}.cls-47{clip-path:url(#clip-path-29);}.cls-48,.cls-49{stroke:#c83d3b;}.cls-48{stroke-width:2.19px;}.cls-49{stroke-width:0.41px;}.cls-50{fill:#c83d3b;}.cls-51{clip-path:url(#clip-path-30);}.cls-52{fill:#0099bc;}.cls-53{fill:#0a8599;}.cls-54{fill:#f1c826;}.cls-55{fill:#e9b633;}.cls-56{fill:#7d3f22;}.cls-57{fill:#e6b190;}.cls-58{fill:#663222;}.cls-59{fill:#fff;}.cls-60{fill:#040404;}.cls-61{stroke:#c68b79;stroke-linejoin:round;stroke-width:0.42px;}.cls-62{fill:#e0a088;}</style><clipPath id="clip-path"><rect class="cls-1" x="456.71" y="388.28" width="92.38" height="37.53"/></clipPath><clipPath id="clip-path-2"><rect class="cls-1" x="400.45" y="455.9" width="47" height="6.18"/></clipPath><clipPath id="clip-path-3"><rect class="cls-1" x="375.37" y="421.08" width="46.16" height="7.08"/></clipPath><clipPath id="clip-path-4"><rect class="cls-1" x="367.55" y="487.09" width="46.16" height="7.08"/></clipPath><clipPath id="clip-path-5"><rect class="cls-1" x="392.5" y="366.39" width="166.55" height="1.05"/></clipPath><clipPath id="clip-path-6"><rect class="cls-1" x="392.5" y="350.3" width="166.55" height="1.05"/></clipPath><clipPath id="clip-path-7"><rect class="cls-1" x="392.5" y="336.85" width="166.55" height="1.05"/></clipPath><clipPath id="clip-path-8"><rect class="cls-1" x="392.5" y="323.81" width="166.55" height="1.05"/></clipPath><clipPath id="clip-path-9"><rect class="cls-1" x="392.5" y="307.72" width="166.55" height="1.05"/></clipPath><clipPath id="clip-path-10"><rect class="cls-1" x="392.5" y="294.27" width="166.55" height="1.05"/></clipPath><clipPath id="clip-path-11"><rect class="cls-1" x="392.5" y="255.78" width="166.55" height="1.05"/></clipPath><clipPath id="clip-path-12"><rect class="cls-1" x="392.5" y="242.74" width="166.55" height="1.05"/></clipPath><clipPath id="clip-path-13"><rect class="cls-1" x="392.5" y="226.64" width="166.55" height="1.05"/></clipPath><clipPath id="clip-path-14"><rect class="cls-1" x="392.5" y="213.2" width="166.55" height="1.05"/></clipPath><clipPath id="clip-path-15"><rect class="cls-1" x="417.65" y="200.68" width="144.99" height="1.04"/></clipPath><clipPath id="clip-path-16"><rect class="cls-1" x="445.53" y="169.64" width="85.85" height="1.04"/></clipPath><clipPath id="clip-path-17"><rect class="cls-1" x="431.43" y="187.24" width="90.76" height="1.04"/></clipPath><clipPath id="clip-path-18"><rect class="cls-1" x="392.5" y="282.33" width="166.55" height="1.05"/></clipPath><clipPath id="clip-path-19"><rect class="cls-1" x="392.5" y="268.88" width="166.55" height="1.05"/></clipPath><clipPath id="clip-path-20"><rect class="cls-1" x="560.47" y="265.46" width="45.91" height="4"/></clipPath><clipPath id="clip-path-21"><rect class="cls-1" x="559.76" y="278.79" width="45.91" height="4"/></clipPath><clipPath id="clip-path-22"><rect class="cls-1" x="559.76" y="290.85" width="45.91" height="4"/></clipPath><clipPath id="clip-path-23"><rect class="cls-1" x="560.47" y="304.3" width="45.91" height="4"/></clipPath><clipPath id="clip-path-24"><rect class="cls-1" x="560.47" y="319.99" width="45.91" height="4"/></clipPath><clipPath id="clip-path-25"><rect class="cls-1" x="560.47" y="333.43" width="45.91" height="4"/></clipPath><clipPath id="clip-path-26"><rect class="cls-1" x="560.47" y="346.88" width="45.91" height="4"/></clipPath><clipPath id="clip-path-27"><rect class="cls-1" x="560.47" y="362.97" width="45.91" height="4"/></clipPath><clipPath id="clip-path-28"><rect class="cls-1" x="429.25" y="273.32" width="63.89" height="0.79"/></clipPath><clipPath id="clip-path-29"><path class="cls-1" d="M326.88,525.29s-8.91,2.44-10.39,9.41l19.7-2.23-.3-7.18c-1.66-.07-3.22-.1-4.56-.1-2.66,0-4.45.1-4.45.1"/></clipPath><clipPath id="clip-path-30"><path class="cls-1" d="M340.29,524.94l-.3,7.17,19.7,2.24c-1.48-7-10.39-9.41-10.39-9.41s-1.78-.1-4.45-.1c-1.34,0-2.9,0-4.56.1"/></clipPath></defs><polygon class="cls-2" points="559.54 388.28 460.01 429.63 453.9 418.44 538.51 388.28 559.54 388.28"/><g class="cls-3"><g class="cls-4"><polygon class="cls-5" points="460.01 425.81 549.09 388.28 537.37 388.28 456.71 417.44 460.01 425.81"/></g></g><path class="cls-6" d="M360.13,295.5s1.76,123.16-13.21,153.84-31.82,61.36-46.79,69,3.91,19.18,30,13.43,72.91,12.7,104.73,1.55,37.43-15,54.28-9.22,37.44,1.92,46.79-7.67,7.49-26.85-24.33-44.11-46.79-33.58-56.15-56.1-13.1-112.65-13.1-112.65Z"/><path class="cls-7" d="M360.05,326.94s23.43,7.26,32.89,8.88,23.63,8.07,33.87,19.37,27.09,56.45,27.09,56.45-16.44-88.6-11.52-108-76.23-19.44-76.23-19.44l-6,11.34Z"/><path class="cls-8" d="M525.92,237.09a59.17,59.17,0,0,1,4.42,37.55c-7.7,35.42-47.5,56.48-88.88,47a87.37,87.37,0,0,1-35.75-17.24c-17.15,15.78-43.82,22.88-71.19,16.64-41.4-9.45-68.7-45.82-61-81.23a56.19,56.19,0,0,1,4.11-12.12c-35.56-12.62-57.86-45.81-50.81-78.25,7.7-35.42,47.5-56.48,88.88-47,2.75.62,5.44,1.37,8.05,2.22l.08-.37c7.7-35.41,47.48-56.48,88.86-47,32.25,7.35,55.93,31,61.21,57.9a88,88,0,0,1,19.53,2.24c41.39,9.44,68.7,45.82,61,81.23-3.59,16.49-14.11,29.85-28.52,38.47"/><path class="cls-9" d="M525.66,131.49a29.89,29.89,0,0,1,2.17,18.86c-3.87,17.84-23.74,28.48-44.37,23.77a42.84,42.84,0,0,1-17.79-8.64c-8.58,8-21.9,11.56-35.55,8.45-20.63-4.71-34.21-23-30.34-40.8a28.49,28.49,0,0,1,2.08-6.1c-17.74-6.31-28.81-23-25.27-39.32,3.88-17.82,23.73-28.48,44.37-23.77a41.1,41.1,0,0,1,4,1.12l0-.19C428.89,47,448.76,36.4,469.39,41.11c16.05,3.66,27.85,15.55,30.45,29.06a43.8,43.8,0,0,1,9.75,1.11c20.63,4.71,34.21,23,30.34,40.81a30.18,30.18,0,0,1-14.27,19.4"/><path class="cls-9" d="M391.32,289.4a38.07,38.07,0,0,1,2.77,24c-4.94,22.69-30.21,36.22-56.45,30.24a54.76,54.76,0,0,1-22.63-11c-10.91,10.12-27.86,14.71-45.22,10.74-26.24-6-43.52-29.22-38.59-51.89a36,36,0,0,1,2.64-7.76c-22.56-8-36.65-29.26-32.14-50,4.93-22.68,30.19-36.23,56.44-30.24a51.4,51.4,0,0,1,5.11,1.42l.05-.25c4.93-22.67,30.2-36.2,56.44-30.22,20.42,4.66,35.43,19.79,38.74,37a56.68,56.68,0,0,1,12.41,1.42c26.23,6,43.51,29.23,38.58,51.92-2.29,10.56-9,19.13-18.15,24.67"/><g class="cls-10"><g class="cls-11"><path class="cls-5" d="M400.45,461l.19,1.12,46.09-3.91a.78.78,0,0,0,.71-.87v-1.4Z"/></g></g><g class="cls-10"><g class="cls-12"><path class="cls-5" d="M375.44,423.1l-.07.64a.82.82,0,0,0,.75.9l44.4,3.52a.85.85,0,0,0,.92-.79l.08-1.19-23.63-3.82-10.72-1.28Z"/></g></g><g class="cls-10"><g class="cls-13"><path class="cls-5" d="M367.63,489.12l-.07.63a.8.8,0,0,0,.74.9l44.41,3.52a.84.84,0,0,0,.91-.79l.09-1.19-23.63-3.82-10.73-1.28Z"/></g></g><polygon class="cls-14" points="357.57 388.28 631.14 388.28 631.14 377.71 358.23 377.71 357.57 388.28"/><polygon class="cls-15" points="392.5 264.13 361.94 262.49 458.64 154.26 528.6 166.19 619.84 254.19 607.92 255.39 559.05 259.61 465.64 166.19 392.5 249.32 392.5 264.13"/><polygon class="cls-2" points="392.5 377.71 559.05 377.71 559.05 259.61 465.64 166.19 392.5 249.32 392.5 377.71"/><polygon class="cls-16" points="559.05 259.61 606.37 255.39 606.37 377.71 559.05 377.71 559.05 259.61"/><path class="cls-5" d="M445.21,451.08a2.64,2.64,0,1,1-2.64-2.65,2.64,2.64,0,0,1,2.64,2.65"/><path class="cls-5" d="M445.19,450.71a2.65,2.65,0,1,1-3-2.25,2.64,2.64,0,0,1,3,2.25"/><path class="cls-5" d="M404.66,453.94a2.64,2.64,0,1,1-3-2.25,2.64,2.64,0,0,1,3,2.25"/><path class="cls-2" d="M375.78,409.81a2.85,2.85,0,0,0-3.06,2.6l-.64,7.88a2.84,2.84,0,0,0,2.59,3.06l17.8,1.46c1.55.13,1.85,0,.65-.32l-1-.34a15,15,0,0,0-3.27-.83c-1.56-.05-1.56-.09,0-.08a47.05,47.05,0,0,1,6.79.71,44.11,44.11,0,0,1,4.36.92,35.88,35.88,0,0,0,5.55,1L420,427.06a2.84,2.84,0,0,0,3.06-2.59l.65-7.89a2.86,2.86,0,0,0-2.6-3.06Z"/><path class="cls-2" d="M412.74,493.27a2.85,2.85,0,0,0,3.06-2.6l.64-7.88a2.84,2.84,0,0,0-2.59-3.06l-17.8-1.46c-1.55-.13-1.84,0-.65.32l1,.34a15.11,15.11,0,0,0,3.27.83c1.56.05,1.56.09,0,.07a46.11,46.11,0,0,1-6.79-.7,44.11,44.11,0,0,1-4.36-.92,35.67,35.67,0,0,0-5.55-1L368.52,476a2.84,2.84,0,0,0-3.06,2.59l-.64,7.89a2.85,2.85,0,0,0,2.59,3.06Z"/><path class="cls-2" d="M447.43,446.72a2.83,2.83,0,0,0-3.05-2.6l-12.22,1a12.84,12.84,0,0,0-4.38,1.13l-.78.41a10.5,10.5,0,0,1-5.33,1c-1.55-.17-1.89-.38-.75-.48s4.81-1.57,3.25-1.45l-25.13,2a2.85,2.85,0,0,0-2.6,3l.63,7.89a2.84,2.84,0,0,0,3.05,2.6l45.34-3.61a2.83,2.83,0,0,0,2.6-3.05Z"/><path class="cls-5" d="M404.69,454.31a2.65,2.65,0,1,1-2.65-2.65,2.65,2.65,0,0,1,2.65,2.65"/><path class="cls-5" d="M372.45,483.22a2.64,2.64,0,1,1-2.64-2.64,2.65,2.65,0,0,1,2.64,2.64"/><path class="cls-5" d="M380.56,417a2.64,2.64,0,1,1-2.64-2.64,2.65,2.65,0,0,1,2.64,2.64"/><path class="cls-5" d="M420.5,421.08a2.64,2.64,0,1,1-2.64-2.64,2.64,2.64,0,0,1,2.64,2.64"/><path class="cls-5" d="M445.21,451.08a2.64,2.64,0,1,1-2.64-2.65,2.64,2.64,0,0,1,2.64,2.65"/><path class="cls-5" d="M414.3,486.63a2.64,2.64,0,1,1-2.64-2.65,2.64,2.64,0,0,1,2.64,2.65"/><path class="cls-7" d="M457.6,494.17s11-4.58,12.71-9.53,2.57-8.86,2.57-8.86a25.38,25.38,0,0,1,0,9.2c-.92,5.21-15.28,9.19-15.28,9.19"/><path class="cls-7" d="M392.5,335.74l-10.18-2.38s2.7,21.84,5.09,28.83,5.09,15.52,5.09,15.52Z"/><path class="cls-7" d="M400.45,388.28s16.77,8.81,27.68,16.6,27.05,18.56,29.47,19.74L460,425.8l-14.8-37.52Z"/><path class="cls-15" d="M485.36,281.89a2.38,2.38,0,0,0-2.32-2.08l-13.69.07a17.21,17.21,0,0,0-3.67.45l-.79.19a21.91,21.91,0,0,1-6.07.29c-1.15-.11-1.16-.21,0-.22s5.17-.68,4-.67l-26.61.13a1.87,1.87,0,0,0-1.88,2.1l.35,3.3a2.37,2.37,0,0,0,2.32,2.07l46.84-.24a1.87,1.87,0,0,0,1.88-2.1Z"/><path class="cls-15" d="M480.2,282.06a2.84,2.84,0,0,0-2.08,2.58l-.45,29.49a36.61,36.61,0,0,0,.24,4.18s.11.86.28,2.34a98.19,98.19,0,0,1,0,13.26c-.08,1.15-.14,1.15-.12,0l-.4-11.18c0-1.16-.07-1.16-.09,0l-.82,53.48a2.07,2.07,0,0,0,2.07,2.1h3.29a2.14,2.14,0,0,0,2.13-2.1l1.42-93.32a1.57,1.57,0,0,0-2-1.62Z"/><path class="cls-15" d="M440.06,284.41a2.85,2.85,0,0,1,2,2.62l-.17,29.49a34.28,34.28,0,0,1-.32,4.18s-.13.85-.33,2.33a97.66,97.66,0,0,0-.23,13.26c0,1.15.11,1.15.12,0l.63-11.17c0-1.15.09-1.15.09,0l-.29,51.09a2.11,2.11,0,0,1-2.11,2.1H436.2a2.1,2.1,0,0,1-2.09-2.1l.51-91.08a1.55,1.55,0,0,1,2-1.58Z"/><path class="cls-17" d="M622,439.41A31.37,31.37,0,1,1,590.66,408,31.36,31.36,0,0,1,622,439.41Z"/><g class="cls-18"><g class="cls-19"><path class="cls-15" d="M392.5,366.86q20.82-.5,41.64-.36c6.94.06,13.88.23,20.82.24s13.88,0,20.81-.1c13.88-.15,27.76-.29,41.64-.24,6.94,0,13.88.07,20.82.15s13.88.14,20.82.31v.1c-6.94.17-13.88.25-20.82.32s-13.88.16-20.82.15c-13.88.05-27.76-.09-41.64-.24-6.93-.08-13.87-.15-20.81-.1s-13.88.18-20.82.24q-20.82.1-41.64-.37Z"/></g></g><g class="cls-18"><g class="cls-20"><path class="cls-15" d="M392.5,350.77q20.82-.5,41.64-.36c6.94.06,13.88.23,20.82.24s13.88,0,20.81-.1c13.88-.15,27.76-.29,41.64-.24,6.94,0,13.88.07,20.82.15s13.88.14,20.82.31v.1c-6.94.17-13.88.25-20.82.32s-13.88.16-20.82.15c-13.88.05-27.76-.09-41.64-.24C468.84,351,461.9,351,455,351s-13.88.17-20.82.24q-20.82.11-41.64-.37Z"/></g></g><g class="cls-18"><g class="cls-21"><path class="cls-15" d="M392.5,337.33q20.82-.51,41.64-.36c6.94.06,13.88.22,20.82.24s13.88,0,20.81-.1c13.88-.16,27.76-.3,41.64-.25,6.94,0,13.88.08,20.82.16s13.88.14,20.82.31v.1c-6.94.17-13.88.24-20.82.31s-13.88.17-20.82.16c-13.88.05-27.76-.09-41.64-.25-6.93-.08-13.87-.15-20.81-.1s-13.88.18-20.82.24q-20.82.12-41.64-.36Z"/></g></g><g class="cls-18"><g class="cls-22"><path class="cls-15" d="M392.5,324.28q20.82-.51,41.64-.36c6.94.06,13.88.22,20.82.24s13.88,0,20.81-.1c13.88-.16,27.76-.29,41.64-.24,6.94,0,13.88.07,20.82.15s13.88.14,20.82.31v.1c-6.94.17-13.88.24-20.82.31s-13.88.17-20.82.16c-13.88,0-27.76-.09-41.64-.24-6.93-.09-13.87-.16-20.81-.1s-13.88.17-20.82.24q-20.82.11-41.64-.37Z"/></g></g><g class="cls-18"><g class="cls-23"><path class="cls-15" d="M392.5,308.19q20.82-.51,41.64-.36c6.94.06,13.88.22,20.82.24s13.88,0,20.81-.1c13.88-.16,27.76-.29,41.64-.24,6.94,0,13.88.07,20.82.15s13.88.14,20.82.31v.1c-6.94.17-13.88.24-20.82.31s-13.88.17-20.82.16c-13.88.05-27.76-.09-41.64-.24-6.93-.09-13.87-.16-20.81-.1s-13.88.17-20.82.24q-20.82.1-41.64-.37Z"/></g></g><g class="cls-18"><g class="cls-24"><path class="cls-15" d="M392.5,294.75q20.82-.51,41.64-.37c6.94.07,13.88.23,20.82.25s13.88,0,20.81-.11c13.88-.15,27.76-.29,41.64-.24,6.94,0,13.88.08,20.82.16s13.88.14,20.82.31v.1c-6.94.17-13.88.24-20.82.31s-13.88.17-20.82.15c-13.88.05-27.76-.08-41.64-.24-6.93-.08-13.87-.15-20.81-.1s-13.88.18-20.82.24q-20.82.12-41.64-.36Z"/></g></g><g class="cls-18"><g class="cls-25"><path class="cls-15" d="M392.5,256.26q20.82-.51,41.64-.36c6.94.06,13.88.22,20.82.24s13.88,0,20.81-.1c13.88-.16,27.76-.3,41.64-.25,6.94,0,13.88.08,20.82.16s13.88.14,20.82.31v.1c-6.94.17-13.88.24-20.82.31s-13.88.17-20.82.15c-13.88.06-27.76-.08-41.64-.24-6.93-.08-13.87-.15-20.81-.1s-13.88.18-20.82.24q-20.82.12-41.64-.36Z"/></g></g><g class="cls-18"><g class="cls-26"><path class="cls-15" d="M392.5,243.21q20.82-.51,41.64-.36c6.94.06,13.88.22,20.82.24s13.88,0,20.81-.1c13.88-.16,27.76-.29,41.64-.24,6.94,0,13.88.07,20.82.15s13.88.14,20.82.31v.1c-6.94.17-13.88.24-20.82.31s-13.88.17-20.82.16c-13.88.05-27.76-.09-41.64-.24-6.93-.09-13.87-.16-20.81-.11s-13.88.18-20.82.25q-20.82.1-41.64-.37Z"/></g></g><g class="cls-18"><g class="cls-27"><path class="cls-15" d="M392.5,227.12q20.82-.51,41.64-.36c6.94.06,13.88.22,20.82.24s13.88,0,20.81-.1c13.88-.16,27.76-.29,41.64-.24,6.94,0,13.88.07,20.82.15s13.88.14,20.82.31v.1c-6.94.17-13.88.24-20.82.31s-13.88.17-20.82.16c-13.88.05-27.76-.09-41.64-.24-6.93-.09-13.87-.16-20.81-.11s-13.88.18-20.82.25q-20.82.1-41.64-.37Z"/></g></g><g class="cls-18"><g class="cls-28"><path class="cls-15" d="M392.5,213.68q20.82-.51,41.64-.37c6.94.07,13.88.23,20.82.24s13.88,0,20.81-.1c13.88-.15,27.76-.29,41.64-.24,6.94,0,13.88.07,20.82.16s13.88.14,20.82.31v.1c-6.94.17-13.88.24-20.82.31s-13.88.17-20.82.15c-13.88,0-27.76-.09-41.64-.24-6.93-.08-13.87-.15-20.81-.1s-13.88.18-20.82.24q-20.82.12-41.64-.36Z"/></g></g><g class="cls-18"><g class="cls-29"><path class="cls-15" d="M417.65,201.15q18.12-.5,36.25-.36c6,.06,12.08.23,18.12.24s12.08,0,18.13-.1q18.12-.27,36.24-.24t36.25.46v.1q-18.12.47-36.25.47t-36.24-.24c-6-.08-12.09-.15-18.13-.1s-12.08.18-18.12.24c-12.08.07-24.17,0-36.25-.37Z"/></g></g><g class="cls-18"><g class="cls-30"><path class="cls-15" d="M445.53,170.12c7.15-.34,14.31-.44,21.46-.37,3.58.06,7.15.23,10.73.24s7.16,0,10.73-.1q10.74-.27,21.47-.24t21.46.47v.1q-10.73.45-21.46.46t-21.47-.24c-3.57-.08-7.15-.15-10.73-.1s-7.15.18-10.73.24q-10.73.12-21.46-.36Z"/></g></g><g class="cls-18"><g class="cls-31"><path class="cls-15" d="M431.43,187.71c7.56-.34,15.13-.44,22.69-.36,3.78.06,7.56.22,11.35.24s7.56,0,11.34-.1c7.57-.18,15.13-.28,22.69-.24s15.13.15,22.69.46v.1c-7.56.31-15.12.45-22.69.47s-15.12-.06-22.69-.24c-3.78-.09-7.56-.16-11.34-.11s-7.57.18-11.35.25c-7.56.07-15.13,0-22.69-.37Z"/></g></g><g class="cls-18"><g class="cls-32"><path class="cls-15" d="M392.5,282.8q20.82-.51,41.64-.36c6.94.06,13.88.22,20.82.24s13.88,0,20.81-.1c13.88-.16,27.76-.29,41.64-.24,6.94,0,13.88.07,20.82.15s13.88.14,20.82.31v.1c-6.94.17-13.88.24-20.82.31s-13.88.17-20.82.16c-13.88.05-27.76-.09-41.64-.24C468.84,283,461.9,283,455,283s-13.88.18-20.82.25q-20.82.11-41.64-.37Z"/></g></g><g class="cls-18"><g class="cls-33"><path class="cls-15" d="M392.5,269.36q20.82-.51,41.64-.37c6.94.07,13.88.23,20.82.25s13.88,0,20.81-.11c13.88-.15,27.76-.29,41.64-.24,6.94,0,13.88.08,20.82.16s13.88.14,20.82.31v.1c-6.94.17-13.88.24-20.82.31s-13.88.17-20.82.15c-13.88.05-27.76-.08-41.64-.24-6.93-.08-13.87-.15-20.81-.1s-13.88.18-20.82.24q-20.82.12-41.64-.36Z"/></g></g><polygon class="cls-34" points="440.97 286.63 479.37 286.63 478.52 378.31 439.84 377.69 440.97 286.63"/><g class="cls-35"><g class="cls-36"><path class="cls-15" d="M560.47,269.36A104.92,104.92,0,0,1,571.91,268c1.92-.09,3.84-.11,5.76-.23s3.82-.36,5.73-.6c3.81-.52,7.63-.91,11.45-1.24s7.67-.48,11.52-.49v.1c-3.8.64-7.62,1.08-11.44,1.46s-7.65.58-11.49.71c-1.92.08-3.84.19-5.75.38s-3.81.5-5.72.74a105.13,105.13,0,0,1-11.51.61Z"/></g></g><g class="cls-35"><g class="cls-37"><path class="cls-15" d="M559.76,282.69a104.92,104.92,0,0,1,11.44-1.34c1.92-.09,3.84-.11,5.76-.23s3.82-.35,5.73-.6c3.81-.51,7.63-.91,11.45-1.23s7.67-.49,11.52-.5v.1c-3.8.64-7.62,1.08-11.44,1.46s-7.65.58-11.49.72c-1.92.07-3.84.18-5.75.37s-3.81.51-5.72.74a105.13,105.13,0,0,1-11.51.61Z"/></g></g><g class="cls-35"><g class="cls-38"><path class="cls-15" d="M559.76,294.75a104.92,104.92,0,0,1,11.44-1.34c1.92-.09,3.84-.11,5.76-.24s3.82-.35,5.73-.59c3.81-.52,7.63-.91,11.45-1.24s7.67-.48,11.52-.49v.1c-3.8.64-7.62,1.08-11.44,1.46s-7.65.58-11.49.71c-1.92.08-3.84.19-5.75.38s-3.81.5-5.72.74a105.13,105.13,0,0,1-11.51.61Z"/></g></g><g class="cls-35"><g class="cls-39"><path class="cls-15" d="M560.47,308.19a104.92,104.92,0,0,1,11.44-1.34c1.92-.09,3.84-.11,5.76-.23s3.82-.35,5.73-.6c3.81-.51,7.63-.91,11.45-1.23s7.67-.49,11.52-.5v.1c-3.8.65-7.62,1.08-11.44,1.46s-7.65.58-11.49.72c-1.92.07-3.84.18-5.75.37s-3.81.51-5.72.74a105.13,105.13,0,0,1-11.51.61Z"/></g></g><g class="cls-35"><g class="cls-40"><path class="cls-15" d="M560.47,323.89a104.92,104.92,0,0,1,11.44-1.34c1.92-.09,3.84-.11,5.76-.24s3.82-.35,5.73-.59c3.81-.52,7.63-.91,11.45-1.24s7.67-.48,11.52-.49v.1c-3.8.64-7.62,1.08-11.44,1.46s-7.65.58-11.49.71c-1.92.08-3.84.19-5.75.38s-3.81.5-5.72.74a107.68,107.68,0,0,1-11.51.61Z"/></g></g><g class="cls-35"><g class="cls-41"><path class="cls-15" d="M560.47,337.33A104.92,104.92,0,0,1,571.91,336c1.92-.09,3.84-.11,5.76-.23s3.82-.35,5.73-.6c3.81-.52,7.63-.91,11.45-1.23s7.67-.49,11.52-.5v.1c-3.8.64-7.62,1.08-11.44,1.46s-7.65.58-11.49.71c-1.92.08-3.84.19-5.75.38s-3.81.51-5.72.74a105.13,105.13,0,0,1-11.51.61Z"/></g></g><g class="cls-35"><g class="cls-42"><path class="cls-15" d="M560.47,350.77a107.45,107.45,0,0,1,11.44-1.34c1.92-.09,3.84-.1,5.76-.23s3.82-.35,5.73-.6c3.81-.51,7.63-.9,11.45-1.23s7.67-.49,11.52-.49v.1c-3.8.64-7.62,1.08-11.44,1.45s-7.65.58-11.49.72c-1.92.07-3.84.18-5.75.37s-3.81.51-5.72.74a105.13,105.13,0,0,1-11.51.61Z"/></g></g><g class="cls-35"><g class="cls-43"><path class="cls-15" d="M560.47,366.86a110.1,110.1,0,0,1,11.44-1.34c1.92-.09,3.84-.1,5.76-.23s3.82-.35,5.73-.6c3.81-.51,7.63-.9,11.45-1.23s7.67-.49,11.52-.49v.1c-3.8.64-7.62,1.08-11.44,1.45s-7.65.58-11.49.72c-1.92.07-3.84.18-5.75.37s-3.81.51-5.72.74a105.13,105.13,0,0,1-11.51.61Z"/></g></g><line class="cls-44" x1="590.66" y1="255.39" x2="590.66" y2="408.04"/><polygon class="cls-15" points="559.05 259.61 619.84 254.19 590.66 246.51 559.05 259.61"/><g class="cls-3"><g class="cls-45"><rect class="cls-5" x="429.25" y="273.32" width="63.89" height="0.79"/></g></g><path class="cls-16" d="M492.94,273.57a3.54,3.54,0,0,0,3.51-3.3l.39-7A3.13,3.13,0,0,0,493.7,260l-25.53-.1c-1.82,0-2,.16-.32.37l1.43.26a27.33,27.33,0,0,0,5.09.56c1.82-.06,1.82,0,0,.07a92.4,92.4,0,0,1-9.89-.16c-3.84-.25-6.5-.66-6.5-.66a55.9,55.9,0,0,0-6.6-.51l-21-.08a3.54,3.54,0,0,0-3.5,3.3l-.39,7a3.12,3.12,0,0,0,3.13,3.32Z"/><path class="cls-9" d="M391.32,289.4a38.07,38.07,0,0,1,2.77,24c-4.94,22.69-30.21,36.22-56.45,30.24a54.76,54.76,0,0,1-22.63-11c-10.91,10.12-27.86,14.71-45.22,10.74-26.24-6-43.52-29.22-38.59-51.89a36,36,0,0,1,2.64-7.76c-22.56-8-36.65-29.26-32.14-50,4.93-22.68,30.19-36.23,56.44-30.24a51.4,51.4,0,0,1,5.11,1.42l.05-.25c4.93-22.67,30.2-36.2,56.44-30.22,20.42,4.66,35.43,19.79,38.74,37a56.68,56.68,0,0,1,12.41,1.42c26.23,6,43.51,29.23,38.58,51.92-2.29,10.56-9,19.13-18.15,24.67"/><path class="cls-46" d="M335.89,525.29l.3,7.18-19.7,2.23c1.48-7,10.39-9.41,10.39-9.41s4-.23,9,0"/><g class="cls-47"><line class="cls-48" x1="315.63" y1="534.53" x2="336.93" y2="531.72"/></g><path class="cls-49" d="M323.43,526.62a1.84,1.84,0,0,1,1.7.76"/><path class="cls-49" d="M322.42,527.15a1.83,1.83,0,0,1,1.69.75"/><path class="cls-50" d="M333.88,528.72a1.34,1.34,0,1,1-1.33-1.33,1.33,1.33,0,0,1,1.33,1.33"/><path class="cls-49" d="M324.5,525.84a1.82,1.82,0,0,1,1.7.75"/><path class="cls-46" d="M340.29,524.94l-.3,7.17,19.7,2.24c-1.48-7-10.39-9.41-10.39-9.41s-4-.23-9,0"/><g class="cls-51"><line class="cls-48" x1="360.54" y1="534.18" x2="339.25" y2="531.36"/></g><path class="cls-49" d="M352.75,526.27a1.82,1.82,0,0,0-1.7.75"/><path class="cls-49" d="M353.76,526.8a1.82,1.82,0,0,0-1.7.75"/><path class="cls-50" d="M342.3,528.37a1.34,1.34,0,1,0,1.33-1.34,1.33,1.33,0,0,0-1.33,1.34"/><path class="cls-49" d="M351.68,525.48a1.85,1.85,0,0,0-1.7.75"/><path class="cls-52" d="M354.68,462.23c-24.65,2.71-33,0-33,0l-3.5,7s2.1,14,2.27,15.82.79,15,1.41,19.15,3,21.2,3,21.2,6.25.46,9.09.35l2.84-.11s-.32-3.39-.65-5.58-1.2-4.44-.88-5.47c.57-1.83.36-6.61-.43-9.95-.67-2.8.17-9.52,1-12.91.68-2.72.67-8.82,1.15-11.44a7.19,7.19,0,0,1,2.27-.57c.61,2.17.54,9.07,1.27,12,.84,3.39,1.68,10.11,1,12.91-.8,3.34-1,8.12-.44,9.95.32,1-.55,3.28-.87,5.47s-.66,5.58-.66,5.58l2.84.11c2.85.11,9.12-.52,9.12-.52s2.37-16.87,3-21,1.24-17.29,1.41-19.15,2.26-15.82,2.26-15.82Z"/><path class="cls-53" d="M335,480.56a17,17,0,0,1,6-1.82,5.09,5.09,0,0,0-6,1.82"/><path class="cls-53" d="M332.61,476.55s4.68.33,8.61.54a10.3,10.3,0,0,1-8.61-.54"/><path class="cls-53" d="M327.63,499.27a5.79,5.79,0,0,0,5.93,5.22s-4.53-2.55-5.93-5.22"/><path class="cls-53" d="M342.09,506.33a9.74,9.74,0,0,0,3.15-7.39s1.91,6.35-3.15,7.39"/><path class="cls-53" d="M342.69,507.9s4.12.54,5.54-2c0,0-.84,4.72-5.54,2"/><path class="cls-53" d="M328.21,507.85s3.9,1.46,5.84-.65c0,0-1.88,4.4-5.84.65"/><path class="cls-53" d="M351.05,522.24s-3.53,1-4.4-.55c0,0,1,3,4.4.55"/><path class="cls-53" d="M325.35,522.45s.24,1.8,4.2,1.2c0,0-4.65,1.88-4.2-1.2"/><path class="cls-54" d="M357,442.58c3.88-1,12.41-7.55,12.41-7.55-.91-2.57-3-5.64-3.88-7.75s-2.86-8.07-6.52-12.16c-5.37-6-14.65-6.14-14.65-6.14h0a21.74,21.74,0,0,1-10.68,0s-10.62,2.86-14.26,7a30.06,30.06,0,0,0-6.52,12.16c-.55,2.18-2.32,6.15-3.88,7.76,0,0,10.12,7.84,13.66,8l1.16-3.32c-.61,4.48-3.73,21.79-4.67,25.56,0,0,13.08,2.67,19,2.35s16.47-2.17,19.14-2.19a16.94,16.94,0,0,0,3.57-.49,18.26,18.26,0,0,1-.58-3.21c-.07-1-2-12.16-3.28-20"/><path class="cls-55" d="M346.12,443.5s-2.8,10.49-8.89,11.37c0,0,6.7,2,8.89-11.37"/><path class="cls-56" d="M369.25,377.84a11.68,11.68,0,0,1-2.34,1.83,7.68,7.68,0,0,0,2.54,1.14c1.43.31-.2-3-.2-3"/><polygon class="cls-57" points="327.89 392.83 349.22 391.52 349.64 400.24 334.35 402.57 328.09 399.75 327.89 392.83"/><path class="cls-58" d="M368.85,371.34s.73,3.88,1.08,7c.31,2.8.84,7.34,1,9.38a25.3,25.3,0,0,0,.38,3.11,22,22,0,0,1-2.1-4.94c-.5-2.18-2.09-7.78-2.09-7.78Z"/><polyline class="cls-56" points="359.81 400.96 356.76 368.74 361.48 360.53"/><path class="cls-56" d="M361.48,360.53s6.77,1.62,7.44,7,.93,21.73.93,21.73l-1.15,14.05-2.36-1.68s-4,3.74-5.65,1.68a11.78,11.78,0,0,1-5.11.62"/><polyline class="cls-56" points="318.71 399.8 319.59 368.73 314.97 360.69"/><path class="cls-56" d="M315.13,360.53s-6.65,5.67-7.31,11.07-1.32,17.68-1.32,17.68l1.16,14.05,2.35-1.68s5.73,4.7,6.35,1.12a13,13,0,0,0,6.19.62"/><path class="cls-58" d="M308,370.15s-1,3.89-1.53,6.65-.85,7.33-1,9.37a25.3,25.3,0,0,1-.38,3.11,21.89,21.89,0,0,0,1.66-4.42c.51-2.19,1.67-8.39,1.67-8.39Z"/><path class="cls-57" d="M333.3,384.69a7.64,7.64,0,1,1-7.64-7.64,7.64,7.64,0,0,1,7.64,7.64"/><path class="cls-57" d="M359.81,384.69a7.64,7.64,0,1,1-7.64-7.64,7.64,7.64,0,0,1,7.64,7.64"/><path class="cls-59" d="M330.25,384.69a4.6,4.6,0,1,1-4.59-4.6,4.59,4.59,0,0,1,4.59,4.6"/><path class="cls-57" d="M333.69,409.78v-2.5a26.8,26.8,0,0,1-13.4-4.52,21.67,21.67,0,0,1-5.82-5.56c-3.63,3.52-8.91,1.64-8.33-5.39.42-4.93,3.71-2.54,5.64-.67a10.57,10.57,0,0,1,1.77,2.28c.28.48.7.94,1.15.62.82-.59.71-12.08.71-12.08s1.64,2.35,2,0,1.87-12.89,1.87-12.89a34.54,34.54,0,0,1,6.66-2c1.24-.16,4-.18,2.83-3,.24.18,4.2-3.55,8.71-3.55,4.29,0,8.88.53,7.59-3.1,4.72-3.76,19.09,9.56,11.7,10,0,0,4,21.13,4.82,14.91,0,0,1,14.24,2.82,10.32,2.53-5.46,6.31-5.15,6.21-.35-.06,2.58-1.41,10.55-7.15,5.15a20.43,20.43,0,0,1-4.26,4.46,25.34,25.34,0,0,1-14.85,5.39l0,2.51ZM345,393.66c-.84.07-1.71.12-2.57.15l-.9,0c-1.23,0-2.45,0-3.6,0a43.17,43.17,0,0,1-6.35-.36c-1.26-.29-3.38.12-3,2.53l.06.31a4.66,4.66,0,0,0,2,2.81c2.56,1.72,8.71,4.64,16.3-.14a5.29,5.29,0,0,0,2.27-2.85c.35-1.11.3-2.33-1.42-2.61a6.71,6.71,0,0,0-1.57,0c-.37,0-.76.07-1.15.09m14.24-8.61a7.11,7.11,0,1,0-7.11,7.11,7.11,7.11,0,0,0,7.11-7.11m-4.92-9.65c.71.91,2.64.7,1.41-1.11-1-1.4-3.1-1.83-4-2a1.75,1.75,0,0,0-1,.13c-.88.41-.62,1.18-.07,1.23a5,5,0,0,1,3.69,1.7m-21.59,9.65a7.11,7.11,0,1,0-7.11,7.11,7.11,7.11,0,0,0,7.11-7.11m-6.11-11.35c.54-.05.79-.82-.07-1.23a1.78,1.78,0,0,0-1-.13c-.93.12-3.06.55-4,2-1.23,1.81.69,2,1.4,1.11a5.05,5.05,0,0,1,3.7-1.7"/><path class="cls-56" d="M355.77,374.29c1.23,1.81-.7,2-1.41,1.11a5,5,0,0,0-3.69-1.7c-.55-.05-.8-.82.07-1.23a1.75,1.75,0,0,1,1-.13c.93.12,3.06.55,4,2"/><path class="cls-60" d="M324,382.07a3.1,3.1,0,1,1-.95,4.28,3.1,3.1,0,0,1,.95-4.28m2.45.4a.6.6,0,0,0-.83-.18.6.6,0,1,0,.65,1,.6.6,0,0,0,.18-.83"/><path class="cls-59" d="M355.51,384.69a4.6,4.6,0,1,1-4.59-4.6,4.59,4.59,0,0,1,4.59,4.6"/><path class="cls-60" d="M349.25,382.07a3.1,3.1,0,1,1-.95,4.28,3.1,3.1,0,0,1,.95-4.28m2.45.4a.6.6,0,1,0-.18.83.6.6,0,0,0,.18-.83"/><path class="cls-56" d="M326.59,372.47c.86.41.61,1.18.07,1.23a5.05,5.05,0,0,0-3.7,1.7c-.71.91-2.63.7-1.4-1.11.95-1.4,3.09-1.83,4-2a1.78,1.78,0,0,1,1,.13"/><path class="cls-61" d="M310.91,392.16a4,4,0,0,0-1.18,1.41,5,5,0,0,0-.54,1.95"/><line class="cls-61" x1="309.73" y1="393.57" x2="311.62" y2="395.52"/><path class="cls-61" d="M366.34,392.16a3.89,3.89,0,0,1,1.18,1.41,4.69,4.69,0,0,1,.54,1.95"/><line class="cls-61" x1="367.52" y1="393.57" x2="365.64" y2="395.52"/><path class="cls-61" d="M340,388.64s-2-2-3.21-.85.55,2.89.55,2.89"/><path class="cls-62" d="M342.26,407.33h-7.37s-1.76,3.93,7.37,0"/><path class="cls-62" d="M356.72,392.83c0,1.35-1.53,2.44-3.42,2.44s-3.41-1.09-3.41-2.44,1.53-2.43,3.41-2.43,3.42,1.09,3.42,2.43"/><path class="cls-62" d="M327.89,392.83c0,1.35-1.52,2.44-3.41,2.44s-3.41-1.09-3.41-2.44,1.52-2.43,3.41-2.43,3.41,1.09,3.41,2.43"/><path class="cls-58" d="M309.64,366.91l14.52-11.05V353s-15.62,13.32-19.25,14.69c-1.53.58-2.54,1-2.54,1a12.08,12.08,0,0,0,7.27-1.76"/><path class="cls-56" d="M306.1,377.94c3.86-.34,19-9.21,22.66-11.2s16.06-6.21,19.46-7,10.28,5.1,11.06,9.43c0,0,4.27-10.2.91-13.42a28.69,28.69,0,0,0-26-7.21c-13.64,2.78-24.51,18.74-28.83,22.07,0,0-5,4.57-5.87,5.31s2,2.41,6.58,2"/><path class="cls-56" d="M357.92,373.09s-1.41-8.28-6.08-10.67-6.54-2.48-7.31-2.52,7.91-4.47,7.91-4.47l8.25,5.88Z"/><path class="cls-58" d="M346.49,360.22l-12.62,4.38a28.48,28.48,0,0,0-3,1.26c-1.73.86-4.49,2.23-5.51,2.8-1.53.86-9.11,5.46-11.68,6.28a33.21,33.21,0,0,1-5.9,1,38.72,38.72,0,0,0,6.79-3.61c3-2.12,11-7.24,14.22-9.37s9.46-4.9,11.95-5,5.59-.4,5.78,2.26"/><path class="cls-56" d="M361.43,358.8a10.33,10.33,0,0,0,2.46-2.21,17.56,17.56,0,0,1-.79,2.78A4.72,4.72,0,0,1,366,357.9s-2.48,2.6-1.9,4.28l-3.45-.87v-2.38Z"/><path class="cls-55" d="M333.24,411.56s4,5.73,7.65,3.16c0,0-3.82,5.78-7.65-3.16"/><path class="cls-55" d="M343.24,453.1s-3.52,6.44-8.48,5.79c0,0,7.51,2.84,8.48-5.79"/><path class="cls-57" d="M321.56,472.35c.7.55,1.5,1,1.89.89a.81.81,0,0,0,.44-.74v-.08a2.76,2.76,0,0,0-.2-1.07c-.13-.22-1.7-2.64-2.66-4.13a12.11,12.11,0,0,1-1.16-3.48c-.05-1.22-.34-13.35-1.4-16.48-.26-.78,1.45-4.28,1.45-4.28l-8.23-5.15a53.76,53.76,0,0,0-1.26,5.69,39,39,0,0,0-.27,9.05,68.63,68.63,0,0,0,2.13,10.18,53.33,53.33,0,0,1,1.6,6.44c0,1,0,2.12.05,3.27.1,3.47,1.84,6.09,2.59,6.59.26.17.69.36.87-.43a22.23,22.23,0,0,0-.55-4,26,26,0,0,0,1.59,3.28c.71,1.07,1.16,1.48,1.95,1.48.48,0,.85-.39.75-.74a34.44,34.44,0,0,0-2.36-4.58s.37.58,1.81,2.46,2,2,2.63,1.75c.32-.15.53-.67.37-1.45a41.23,41.23,0,0,0-2.65-4.51,7.08,7.08,0,0,1-.67-1.1,10.78,10.78,0,0,0,1.29,1.16"/><path class="cls-57" d="M355.72,472.35c-.71.55-1.51,1-1.9.89a.8.8,0,0,1-.43-.74v-.08a2.43,2.43,0,0,1,.2-1.07c.13-.22,1.69-2.64,2.66-4.13a12.11,12.11,0,0,0,1.16-3.48c0-1.22.34-13.35,1.39-16.48.27-.78-1.5-4.76-1.5-4.76l8.28-4.67a52.43,52.43,0,0,1,1.27,5.69,40.16,40.16,0,0,1,.27,9.05A68.63,68.63,0,0,1,365,462.75a53.33,53.33,0,0,0-1.6,6.44c0,1,0,2.12-.05,3.27-.1,3.47-1.84,6.09-2.59,6.59-.26.17-.7.36-.87-.43a21.49,21.49,0,0,1,.54-4,25.43,25.43,0,0,1-1.58,3.28c-.71,1.07-1.16,1.48-1.95,1.48-.48,0-.86-.39-.75-.74A33.26,33.26,0,0,1,358.5,474s-.37.58-1.82,2.46-2,2-2.62,1.75c-.33-.15-.54-.67-.37-1.45a39.62,39.62,0,0,1,2.65-4.51c.49-.77.81-1.28.66-1.1a10.49,10.49,0,0,1-1.28,1.16"/><polygon class="cls-54" points="322.69 443.87 320.71 458.59 326.7 443.87 324.16 439.41 320.71 441.81 322.69 443.87"/><path class="cls-55" d="M324.86,433.89l-1.45,8.26s1.66-2.07,1.45-8.26"/><path class="cls-55" d="M355.14,434.58l.73,6.6s1.37-2.15-.73-6.6"/><path class="cls-62" d="M360.33,446.67l3.87-.47s-1.88,2-3.87.47"/><path class="cls-62" d="M313.25,445.81l3.84.61s-2.36,1.44-3.84-.61"/><path class="cls-61" d="M337.73,401s7.2.82,8.69-4.45"/></svg>